<svg xmlns="http://www.w3.org/2000/svg" width="110.292" height="17.914" viewBox="0 0 110.292 17.914"><path id="_23andme" data-name="23andme" d="M1.222,0H14.274V-3.25H7.046c4.654-3.276,7.1-5.85,7.1-8.814,0-3.458-2.938-5.538-6.63-5.538A8.834,8.834,0,0,0,.832-14.768l2.106,2.444a6.184,6.184,0,0,1,4.628-2c1.456,0,2.834.754,2.834,2.262,0,2.132-2.08,3.926-9.178,9.152Zm14.9-2.47A8.666,8.666,0,0,0,22.958.312c4.16,0,6.838-2.106,6.838-5.1a4.351,4.351,0,0,0-4.056-4.16,4.254,4.254,0,0,0,3.8-3.952c0-2.886-2.5-4.706-6.552-4.706a8.535,8.535,0,0,0-6.63,2.756l1.82,2.288a6.326,6.326,0,0,1,4.42-1.82c1.82,0,3.224.7,3.224,2.08,0,1.3-1.274,1.924-3.2,1.924-.65,0-1.846,0-2.158-.026v3.224c.26-.026,1.43-.026,2.158-.026,2.418,0,3.484.65,3.484,2.054,0,1.326-1.17,2.236-3.276,2.236a6.906,6.906,0,0,1-4.784-1.976ZM40.04,0h3.3V-8.112c0-3.614-2.626-4.758-5.486-4.758a8.238,8.238,0,0,0-5.486,1.976l1.248,2.21a5.284,5.284,0,0,1,3.666-1.482c1.664,0,2.756.832,2.756,2.106v1.742a5.075,5.075,0,0,0-3.978-1.534c-2,0-4.368,1.066-4.368,4A4.184,4.184,0,0,0,36.062.312,5.2,5.2,0,0,0,40.04-1.3Zm0-3.016a3.3,3.3,0,0,1-2.652,1.092c-1.3,0-2.366-.676-2.366-1.846,0-1.222,1.066-1.9,2.366-1.9A3.3,3.3,0,0,1,40.04-4.576ZM55.094,0h3.3V-8.866c0-2.444-1.326-4-4.082-4a5.75,5.75,0,0,0-4.394,1.95v-1.638h-3.3V0h3.3V-8.45a3.576,3.576,0,0,1,2.86-1.482,2.038,2.038,0,0,1,2.314,2.34ZM70.3,0h3.328V-17.342H70.3v6.4A4.836,4.836,0,0,0,66.43-12.87c-3.2,0-5.564,2.5-5.564,6.6,0,4.186,2.392,6.578,5.564,6.578A4.875,4.875,0,0,0,70.3-1.612Zm0-4.056a3.592,3.592,0,0,1-2.86,1.43c-1.872,0-3.172-1.482-3.172-3.64,0-2.184,1.3-3.666,3.172-3.666A3.592,3.592,0,0,1,70.3-8.5ZM92.066,0h3.718V-17.342h-5.2L86.372-6.526,82.16-17.342H76.986V0h3.692V-12.48L85.566,0h1.612l4.888-12.48Zm6.266-6.292a6.36,6.36,0,0,0,6.708,6.6,7.828,7.828,0,0,0,5.174-1.742l-1.456-2.132A5.136,5.136,0,0,1,105.4-2.314a3.384,3.384,0,0,1-3.614-2.912h9.334v-.728c0-4.108-2.548-6.916-6.292-6.916A6.391,6.391,0,0,0,98.332-6.292Zm6.5-3.952a2.909,2.909,0,0,1,3.094,2.782h-6.188A3.018,3.018,0,0,1,104.832-10.244Z" transform="translate(-0.832 17.602)" fill="#9c9ea1"></path></svg>