<svg xmlns="http://www.w3.org/2000/svg" width="92.447" height="21.823" viewBox="0 0 92.447 21.823"><path id="ancestry" d="M7.427-1.752A6.26,6.26,0,0,1,3.529.165,2.3,2.3,0,0,1,1.841-.5a2.253,2.253,0,0,1-.673-1.669A3.271,3.271,0,0,1,2.336-4.615,22.106,22.106,0,0,1,7.427-7.5V-8.7a5.778,5.778,0,0,0-.146-1.695A1.365,1.365,0,0,0,6.729-11a1.658,1.658,0,0,0-.914-.26,2.338,2.338,0,0,0-1.358.368.649.649,0,0,0-.33.533,1.107,1.107,0,0,0,.355.66,1.626,1.626,0,0,1,.482,1.054A1.405,1.405,0,0,1,4.5-7.585a1.693,1.693,0,0,1-1.212.438A1.936,1.936,0,0,1,1.949-7.63a1.473,1.473,0,0,1-.54-1.13,2.631,2.631,0,0,1,.724-1.746,4.572,4.572,0,0,1,2.019-1.276,8.235,8.235,0,0,1,2.691-.444,4.449,4.449,0,0,1,2.672.717,3.362,3.362,0,0,1,1.276,1.555,10.077,10.077,0,0,1,.178,2.45v4.608a4.775,4.775,0,0,0,.063,1.022.612.612,0,0,0,.19.311.454.454,0,0,0,.292.1q.33,0,.673-.47l.381.3A4.63,4.63,0,0,1,11.254-.26,2.846,2.846,0,0,1,9.712.165,2.408,2.408,0,0,1,8.125-.311,2.156,2.156,0,0,1,7.427-1.752Zm0-.927V-6.652a7.416,7.416,0,0,0-2.285,1.93,2.348,2.348,0,0,0-.5,1.384,1.454,1.454,0,0,0,.419,1.028,1.151,1.151,0,0,0,.889.343A2.44,2.44,0,0,0,7.427-2.679Zm11.3-9.191v1.536a6.977,6.977,0,0,1,1.752-1.441,3.747,3.747,0,0,1,1.8-.451,2.875,2.875,0,0,1,1.917.641,3.072,3.072,0,0,1,1.016,1.593,12.285,12.285,0,0,1,.2,2.78V-2.59a3.53,3.53,0,0,0,.248,1.708A1.452,1.452,0,0,0,26.7-.457V0h-6V-.457a1.255,1.255,0,0,0,.965-.559,3.645,3.645,0,0,0,.2-1.574V-7.871a8.638,8.638,0,0,0-.114-1.841,1.126,1.126,0,0,0-.387-.59.968.968,0,0,0-.6-.209q-1.092,0-2.031,1.562v6.36A3.541,3.541,0,0,0,18.973-.9a1.263,1.263,0,0,0,.92.444V0h-6V-.457a1.475,1.475,0,0,0,1.066-.482,3.559,3.559,0,0,0,.216-1.65v-6.7a3.407,3.407,0,0,0-.248-1.676,1.507,1.507,0,0,0-1.035-.432v-.47Zm19.3,8.811.394.3A5.921,5.921,0,0,1,36.328-.413a5,5,0,0,1-2.66.768,4.6,4.6,0,0,1-3.8-1.79,6.706,6.706,0,0,1-1.422-4.3A7.227,7.227,0,0,1,29.745-10a4.977,4.977,0,0,1,4.3-2.222,4.357,4.357,0,0,1,2.926.927,2.694,2.694,0,0,1,1.085,2.069,1.549,1.549,0,0,1-.438,1.155,1.566,1.566,0,0,1-1.149.432,1.666,1.666,0,0,1-1.238-.5,2.877,2.877,0,0,1-.6-1.765,1.937,1.937,0,0,0-.368-1.117.9.9,0,0,0-.686-.317,1.242,1.242,0,0,0-1.041.647,5.42,5.42,0,0,0-.66,3,9.669,9.669,0,0,0,.533,3.206,4.929,4.929,0,0,0,1.46,2.279,2.6,2.6,0,0,0,1.65.546A2.513,2.513,0,0,0,36.7-1.955,5.433,5.433,0,0,0,38.022-3.06Zm11.908-3.3H43.418a6.136,6.136,0,0,0,1.257,3.732,2.655,2.655,0,0,0,2.107,1.054A2.4,2.4,0,0,0,48.166-2,5.371,5.371,0,0,0,49.5-3.529l.432.279A7.182,7.182,0,0,1,47.8-.463a4.592,4.592,0,0,1-2.7.819,4.5,4.5,0,0,1-4-2.031A7.165,7.165,0,0,1,40-5.738a6.742,6.742,0,0,1,1.606-4.729,4.949,4.949,0,0,1,3.764-1.758A4.078,4.078,0,0,1,48.5-10.747,6.751,6.751,0,0,1,49.931-6.36Zm-3.123-.851a11.7,11.7,0,0,0-.222-2.806,2.3,2.3,0,0,0-.692-1.155,1.055,1.055,0,0,0-.711-.229,1.248,1.248,0,0,0-1.079.647,5.553,5.553,0,0,0-.749,3.1v.444ZM58.919-12.2l.19,4.05h-.432a6.362,6.362,0,0,0-1.606-2.463,2.667,2.667,0,0,0-1.657-.66,1.245,1.245,0,0,0-.889.349,1.081,1.081,0,0,0-.368.806,1.045,1.045,0,0,0,.254.66,12.183,12.183,0,0,0,2.272,1.784,9.37,9.37,0,0,1,2.457,2.146,3.471,3.471,0,0,1,.59,1.974,4.166,4.166,0,0,1-.5,1.942,3.472,3.472,0,0,1-1.4,1.46,3.99,3.99,0,0,1-1.993.508,6.913,6.913,0,0,1-2.272-.533,1.892,1.892,0,0,0-.521-.14q-.419,0-.7.635h-.419l-.2-4.266h.432a5.521,5.521,0,0,0,1.568,2.514A3.007,3.007,0,0,0,55.618-.6a1.374,1.374,0,0,0,1-.375A1.216,1.216,0,0,0,57-1.879a1.567,1.567,0,0,0-.381-1.054,9.935,9.935,0,0,0-1.7-1.346,13.334,13.334,0,0,1-2.514-2.057,3.58,3.58,0,0,1-.838-2.3,3.733,3.733,0,0,1,.946-2.482,3.394,3.394,0,0,1,2.736-1.111,3.989,3.989,0,0,1,1.866.47,1.239,1.239,0,0,0,.559.19.642.642,0,0,0,.368-.1,2.412,2.412,0,0,0,.444-.54Zm7.325-4.012v4.342h2.818v1.257H66.244v7.325a5.588,5.588,0,0,0,.1,1.327.957.957,0,0,0,.336.482.755.755,0,0,0,.444.184q.825,0,1.562-1.257l.381.279A3.471,3.471,0,0,1,65.724.165a2.95,2.95,0,0,1-1.911-.628,2.775,2.775,0,0,1-1-1.4A11.975,11.975,0,0,1,62.689-4.2v-6.411H61.141v-.444a16.381,16.381,0,0,0,2.723-2.374,14.458,14.458,0,0,0,1.961-2.78Zm8.874,4.342v2.691a8.684,8.684,0,0,1,2.069-2.444,3.067,3.067,0,0,1,1.714-.6,1.511,1.511,0,0,1,1.136.438,1.7,1.7,0,0,1,.425,1.238,1.936,1.936,0,0,1-.413,1.32,1.281,1.281,0,0,1-1,.47,1.72,1.72,0,0,1-1.168-.432,7.121,7.121,0,0,0-.584-.482.556.556,0,0,0-.292-.076,1.066,1.066,0,0,0-.7.279,2.634,2.634,0,0,0-.787,1.231,8.633,8.633,0,0,0-.406,2.717v2.729l.013.711a2.922,2.922,0,0,0,.089.927,1.009,1.009,0,0,0,.451.5,2.613,2.613,0,0,0,1.009.2V0H70.269V-.457a1.4,1.4,0,0,0,1.047-.425,3.948,3.948,0,0,0,.273-1.911V-9.356a4.919,4.919,0,0,0-.1-1.295,1.021,1.021,0,0,0-.368-.521,1.959,1.959,0,0,0-.851-.229v-.47ZM87.179.482l-3.834-8.8a11.369,11.369,0,0,0-1.276-2.45,2.171,2.171,0,0,0-1-.635v-.47h6.31v.47a1.463,1.463,0,0,0-.876.241.661.661,0,0,0-.254.521,6.159,6.159,0,0,0,.635,1.9l2.031,4.646L90.3-7.681a8.976,8.976,0,0,0,.749-2.666.957.957,0,0,0-.311-.749,1.744,1.744,0,0,0-1.1-.3v-.47h3.974v.47a1.489,1.489,0,0,0-.952.451,11.2,11.2,0,0,0-1.231,2.634l-3.39,8.8a19.311,19.311,0,0,1-1.9,4.063,2.728,2.728,0,0,1-2.2,1.066,2.419,2.419,0,0,1-1.708-.6,1.907,1.907,0,0,1-.654-1.454,1.715,1.715,0,0,1,.451-1.219,1.46,1.46,0,0,1,1.111-.482,1.347,1.347,0,0,1,1.022.406,1.808,1.808,0,0,1,.4,1.257,1.274,1.274,0,0,0,.114.622.339.339,0,0,0,.292.14.941.941,0,0,0,.647-.368,7.887,7.887,0,0,0,1.193-2.437Z" transform="translate(-1.168 16.212)" fill="#54524f"></path></svg>