<svg width="77" height="47" viewBox="0 0 77 47" fill="none" xmlns="http://www.w3.org/2000/svg">
<g clip-path="url(#clip0_2040_58)">
<path d="M0 46.2338C0.800122 45.9992 1.49042 45.5144 1.97677 44.8574C2.55725 44.0911 2.9024 43.1526 2.96516 42.1985C3.09067 40.6188 3.21618 39.0391 3.23187 37.4594C3.26324 33.4085 3.24756 29.342 3.24756 25.2911C3.24756 24.8218 3.21618 24.3526 3.16911 23.8834C3.12205 23.2578 2.6357 22.7416 2.00815 22.6478C1.67869 22.5696 1.33354 22.5227 1.00407 22.4914C0.690302 22.4758 0.753056 22.2724 0.737368 22.0847C0.721679 21.8658 0.8315 21.8188 1.03545 21.8188C3.20049 21.8188 5.34984 21.8188 7.51487 21.8188C7.68745 21.8188 7.82865 21.8345 7.81296 22.0691C7.79727 22.2724 7.86002 22.4758 7.53056 22.4914C7.24817 22.5227 6.96577 22.5696 6.68337 22.6478C6.10289 22.7573 5.66361 23.2421 5.63223 23.8208C5.56948 24.3995 5.52241 24.9782 5.52241 25.5726C5.50672 29.8894 5.5381 34.1906 5.50672 38.5074C5.50672 39.6961 5.41259 40.8847 5.22433 42.0578C4.80073 44.6541 3.21618 46.2338 0.690302 46.9064C0.59617 46.9376 0.517726 46.9689 0.423594 47.0002H0V46.2338Z" fill="#383B42"/>
<path d="M77 16.6573C76.9686 16.8137 76.9216 16.9701 76.8902 17.1265C76.498 19.0503 74.835 20.4423 72.8582 20.5049C71.7286 20.5518 70.5833 20.3172 69.5636 19.848C69.4538 19.7854 69.3753 19.6916 69.3439 19.5821C69.1714 18.5811 69.0302 17.5645 68.8733 16.5478C68.8419 16.3132 68.9988 16.3289 69.14 16.2819C69.3283 16.2194 69.4067 16.2976 69.4538 16.4696C69.6734 17.2673 70.0656 18.0181 70.5833 18.675C71.3521 19.7072 72.717 20.0826 73.9093 19.6134C74.9134 19.1755 75.2272 18.2996 75.337 17.3142C75.4939 15.672 74.6624 14.5615 73.3602 13.7169C72.4817 13.1851 71.6345 12.6064 70.8344 11.9808C69.1557 10.6201 68.9047 8.14884 70.2696 6.47529C70.9756 5.61506 72.0267 5.08328 73.1406 5.03636C74.0505 4.95816 74.9605 5.09892 75.8234 5.41173C75.9332 5.45865 76.0273 5.56814 76.0587 5.69326C76.1842 6.5535 76.2783 7.39809 76.4038 8.25832C76.4352 8.52421 76.2626 8.52421 76.1058 8.57113C75.9332 8.6337 75.8704 8.55549 75.8077 8.39909C75.6037 7.80475 75.337 7.24168 75.0389 6.69426C74.3957 5.67762 73.0465 5.39609 72.0267 6.03736C71.964 6.06864 71.9169 6.11556 71.8541 6.16248C71.1638 6.75683 70.8344 7.67962 70.9913 8.58678C71.1168 9.58777 71.7129 10.4636 72.5915 10.9641C73.2347 11.4021 73.9093 11.7931 74.5683 12.2154C75.4939 12.7628 76.2313 13.5761 76.6706 14.5615C76.8118 14.9369 76.8902 15.3279 77 15.7189V16.6573Z" fill="#383B42"/>
<path d="M45.1677 25.8695C45.1677 26.1823 45.1677 26.4952 45.1677 26.8236C45.1834 29.4199 45.1991 32.0163 45.2305 34.6126C45.2305 35.1444 45.3089 35.6762 45.3717 36.208C45.403 36.818 45.8266 37.3341 46.4228 37.4749C46.6738 37.5531 46.9248 37.6 47.1759 37.6313C47.3955 37.6469 47.4426 37.7407 47.4269 37.9441C47.4269 38.1474 47.3014 38.1474 47.1445 38.1474C45.654 38.1474 44.1793 38.1474 42.6889 38.1474C41.4338 38.2256 40.2571 37.5843 39.6453 36.4739C38.8765 35.0818 38.0921 33.6742 37.3861 32.2509C37.1351 31.5314 36.4291 31.0935 35.6604 31.1561C34.8602 31.203 34.9544 31.0466 34.9544 31.8442C34.9544 33.1268 34.9544 34.3937 34.9544 35.6762C34.9544 35.989 34.9858 36.2862 35.0171 36.599C35.0485 37.0526 35.3937 37.4279 35.8486 37.5061C36.0996 37.5687 36.3507 37.6156 36.6017 37.6313C36.7899 37.6469 36.8213 37.7564 36.8213 37.9128C36.8213 38.0848 36.7586 38.163 36.586 38.163C34.8916 38.163 33.1816 38.163 31.4872 38.163C31.3146 38.163 31.2675 38.0848 31.2675 37.9284C31.2675 37.7877 31.2675 37.6625 31.4715 37.6313C31.7539 37.6 32.0363 37.5531 32.3187 37.4905C32.7266 37.4123 33.0247 37.0838 33.0874 36.6928C33.1345 36.4426 33.1659 36.1923 33.1816 35.9264C33.1816 32.204 33.1816 28.4972 33.1816 24.7747C33.1816 24.759 33.1816 24.759 33.1816 24.7434C33.1345 24.1491 33.1502 23.5234 32.4442 23.2888C31.6598 22.9291 30.7341 23.0386 30.0595 23.586C29.8399 23.7893 29.7144 24.0709 29.6987 24.368C29.6045 25.6975 29.5261 27.0426 29.4947 28.3877C29.432 30.0299 29.4633 31.6878 29.3692 33.3301C29.3221 34.5501 28.9299 35.7231 28.2082 36.6928C27.1571 38.1005 25.6824 38.5541 23.988 38.4133C23.4389 38.3664 22.9212 38.2412 22.4034 38.0379C20.9287 37.4436 20.2855 36.208 20.0344 34.7534C19.9089 33.9714 19.8462 33.1737 19.8305 32.376C19.7991 30.0925 19.8305 27.7933 19.8148 25.5098C19.8148 25.0875 19.7834 24.6652 19.7521 24.2429C19.7364 23.7581 19.3755 23.3514 18.8892 23.2732C18.6538 23.2106 18.4028 23.1793 18.1675 23.1481C17.9322 23.1324 17.9008 23.0073 17.9008 22.804C17.9008 22.6006 18.042 22.6006 18.1832 22.6006C19.8305 22.6006 21.4778 22.6006 23.1251 22.6006C23.2977 22.6006 23.4075 22.6163 23.4075 22.8353C23.4075 23.0229 23.3604 23.1324 23.1565 23.1481C22.9525 23.1637 22.7486 23.195 22.5603 23.2576C22.0426 23.3201 21.6347 23.7737 21.6504 24.2898C21.619 24.6183 21.6033 24.9467 21.6033 25.2752C21.6033 27.6526 21.6033 30.0456 21.619 32.4229C21.6033 33.4552 21.8073 34.4719 22.1995 35.4103C22.8741 36.9744 24.694 37.7095 26.2628 37.0213C27.0002 36.7085 27.5964 36.1141 27.8945 35.3634C28.3494 34.3155 28.5848 33.1893 28.5848 32.0319C28.6946 29.592 28.6475 27.1521 28.475 24.7278C28.3808 23.6955 28.0043 23.3201 26.9688 23.1481C26.8747 23.1324 26.7806 23.1168 26.6864 23.1011C26.4511 23.1011 26.404 22.976 26.404 22.7727C26.404 22.5381 26.5609 22.5537 26.7178 22.5537H31.4087C33.1031 22.5537 34.8132 22.5381 36.5076 22.5694C37.1665 22.5694 37.8254 22.6476 38.4843 22.7727C39.9434 23.0073 41.0573 24.196 41.2142 25.6662C41.5593 27.2615 40.9631 28.9195 39.6767 29.9204C39.3472 30.1863 38.9707 30.3897 38.5785 30.6399C38.8609 31.203 39.1432 31.766 39.4413 32.3291C40.2728 34.0026 41.3083 35.5823 42.5163 37.0213C42.7203 37.3028 43.0497 37.4905 43.4106 37.5218C43.8342 37.5374 44.0695 37.4279 44.1166 37.0056C44.2264 36.1454 44.2891 35.3008 44.3205 34.4406C44.3519 31.4532 44.3362 28.4815 44.3362 25.4942C44.3833 24.9311 44.2421 24.3837 43.944 23.9145C43.5831 23.4452 43.034 23.1481 42.4379 23.1011C42.3281 23.0855 42.1712 23.0229 42.1398 22.9291C42.0457 22.6789 42.1555 22.5537 42.4222 22.5537C43.2694 22.5537 44.1166 22.5381 44.9637 22.5537C45.1206 22.5694 45.2461 22.6476 45.3403 22.7571C46.9248 25.2283 48.5094 27.7151 50.0783 30.202C50.9411 31.5627 51.8197 32.9391 52.6983 34.2998C52.7296 34.3467 52.7767 34.3937 52.8395 34.4875C52.8551 34.3467 52.8708 34.2685 52.8708 34.1903C52.8708 31.7348 52.8708 29.2792 52.8395 26.808C52.8238 26.0572 52.7767 25.2908 52.6826 24.5401C52.6669 23.7893 52.0707 23.1793 51.3177 23.1324C51.1608 23.1011 51.0039 23.0855 50.847 23.0699C50.643 23.0699 50.5803 22.976 50.5803 22.7727C50.5803 22.5537 50.7058 22.5381 50.8784 22.5381C52.3845 22.5381 53.8906 22.5381 55.3967 22.5381C55.5536 22.5381 55.6791 22.5381 55.6791 22.7414C55.6791 22.9135 55.6634 23.0542 55.4281 23.0699C55.2241 23.0855 55.0202 23.1324 54.8319 23.195C54.3142 23.367 53.9534 23.8363 53.9377 24.368C53.8435 25.5254 53.7651 26.6828 53.7494 27.8402C53.718 31.2343 53.7337 34.6283 53.7337 38.0223C53.7337 38.0848 53.7337 38.1474 53.718 38.21C53.2003 38.382 53.0434 38.3195 52.7767 37.8972C50.3293 33.9401 47.8975 29.9987 45.4501 26.0416C45.403 25.9634 45.3403 25.8852 45.2932 25.807L45.1677 25.8695ZM34.9701 27.0113C34.9701 28.0749 34.9701 29.1384 34.9701 30.202C34.9701 30.4366 35.0485 30.5148 35.2838 30.4992C35.6604 30.4679 36.0369 30.4835 36.3977 30.4679C37.6842 30.4992 38.8295 29.6233 39.1119 28.3564C39.2688 27.6995 39.3472 27.0113 39.3001 26.3387C39.1589 24.2116 37.6058 22.9604 35.5505 23.2576C35.0485 23.3358 34.9544 23.414 34.9544 23.9301C34.9701 24.9624 34.9701 25.979 34.9701 27.0113Z" fill="#383B42"/>
<path d="M42.6889 20.2078C42.5948 20.2078 42.5163 20.2234 42.4222 20.2234C39.2531 20.2234 36.0996 20.2234 32.9305 20.2234C32.7109 20.2234 32.554 20.1921 32.6168 19.9419C32.6481 19.848 32.7109 19.7855 32.805 19.7542C33.0247 19.6916 33.26 19.676 33.4953 19.6291C33.966 19.5665 34.3111 19.1755 34.3425 18.7219C34.3896 18.3778 34.4053 18.0181 34.4053 17.674C34.4053 14.4833 34.4053 11.3083 34.4053 8.11759C34.4053 7.71093 34.3739 7.30428 34.3425 6.91326C34.3268 6.41276 33.9503 5.99047 33.4639 5.91226C33.26 5.86534 33.0717 5.83406 32.8678 5.80278C32.6481 5.78714 32.6168 5.67765 32.6168 5.48997C32.6168 5.271 32.7736 5.30228 32.8992 5.30228C35.378 5.30228 37.8568 5.30228 40.3356 5.31792C40.4925 5.33356 40.6337 5.4274 40.7278 5.55253C42.1868 7.83606 43.6302 10.1196 45.0893 12.4031C45.9678 13.7795 46.8464 15.1559 47.725 16.5166C47.7563 16.5792 47.8034 16.6261 47.8818 16.7356C47.8975 16.6574 47.9132 16.5948 47.9289 16.5166C47.9132 14.0141 47.9132 11.496 47.8818 8.97782C47.8818 8.4304 47.8034 7.86734 47.772 7.31992C47.8034 6.63173 47.3014 6.02175 46.6111 5.91226C46.4071 5.8497 46.1875 5.81842 45.9835 5.80278C45.7952 5.78714 45.7168 5.72458 45.7168 5.53689C45.7168 5.31792 45.8423 5.30228 46.0149 5.30228C50.5489 5.30228 55.0829 5.30228 59.617 5.30228C59.6954 5.30228 59.7895 5.31792 59.8837 5.31792C59.8994 5.4274 59.915 5.53689 59.915 5.64637C59.9778 6.5066 60.0406 7.36684 60.1033 8.22707C60.119 8.41476 60.0876 8.5086 59.8837 8.52424C59.7111 8.53988 59.5385 8.60245 59.4758 8.33656C59.3503 7.91426 59.2091 7.49196 59.0208 7.08531C58.7541 6.47532 58.1579 6.08431 57.499 6.08431C56.5577 6.02175 55.6164 6.02175 54.675 6.02175C54.2985 6.02175 54.2044 6.11559 54.2044 6.5066C54.2044 8.25835 54.2044 10.0257 54.1887 11.7775C54.1887 11.9965 54.2514 12.0903 54.4868 12.0747C55.334 12.059 56.1968 12.059 57.044 12.0277C57.6716 12.0903 58.2364 11.6367 58.2991 11.0111C58.2991 10.9955 58.2991 10.9798 58.2991 10.9642C58.3305 10.8547 58.3619 10.7608 58.3776 10.6514C58.4089 10.3542 58.6286 10.4324 58.8168 10.4324C59.0365 10.4324 59.0051 10.5888 59.0051 10.7296C59.0051 11.9183 59.0051 13.1069 59.0051 14.3113C59.0051 14.452 59.0365 14.6084 58.8168 14.6084C58.6286 14.6084 58.456 14.6554 58.3776 14.3738C58.0795 13.0913 57.8598 12.9349 56.542 12.888C55.8674 12.8723 55.1771 12.888 54.4868 12.8723C54.2671 12.8723 54.1887 12.9505 54.1887 13.1695C54.2044 14.7023 54.1887 16.2351 54.2044 17.7678C54.2044 18.0181 54.2357 18.2527 54.2828 18.5029C54.2985 19.0504 54.7378 19.4883 55.2869 19.5039C56.2753 19.6291 57.2793 19.6134 58.252 19.4414C59.2875 19.2537 59.7895 18.5029 60.1818 17.6584C60.323 17.3143 60.4328 16.9545 60.4955 16.5948C60.5583 16.3289 60.7465 16.3289 60.9348 16.3133C61.0133 16.3133 61.1231 16.454 61.1544 16.5479C61.4212 17.4863 61.9232 18.3465 62.5821 19.0504C63.5078 19.9888 64.9668 20.1296 66.0493 19.3945C66.4729 19.066 66.771 18.5968 66.8965 18.0806C67.3672 16.282 66.7082 14.7805 65.0609 13.7482C64.1824 13.2321 63.3509 12.669 62.5507 12.0434C60.8564 10.6983 60.574 8.24271 61.9232 6.55353C62.0016 6.45968 62.0958 6.3502 62.1742 6.272C62.8018 5.63073 63.6176 5.22408 64.5118 5.11459C65.5316 4.97383 66.5827 5.09895 67.5397 5.45869C67.6339 5.50561 67.6966 5.58381 67.728 5.67765C67.8535 6.56917 67.979 7.44504 68.0888 8.33656C68.1359 8.72757 67.7751 8.52424 67.6339 8.64937C67.3672 8.05502 67.1632 7.46068 66.8651 6.9289C66.4886 6.17815 65.6885 5.70893 64.8413 5.74022C64.0569 5.70893 63.3352 6.14687 62.99 6.8507C62.4409 7.91426 62.5664 9.21243 63.3352 10.1509C63.9157 10.7765 64.5903 11.277 65.3433 11.6836C66.2376 12.1685 67.0377 12.7941 67.728 13.5449C69.4538 15.5156 68.9674 19.6916 65.2335 20.4737C63.8686 20.7083 62.4566 20.5049 61.2015 19.895C61.1231 19.8324 61.0603 19.7542 61.0446 19.6447C60.9662 19.3006 60.9034 18.9565 60.825 18.5499C60.7936 18.6281 60.7465 18.7219 60.7309 18.8158C60.6367 19.2381 60.5426 19.6447 60.4641 20.067C60.4485 20.2078 60.3386 20.3173 60.1818 20.3173C60.1661 20.3173 60.1661 20.3173 60.1504 20.3173C56.9499 20.3173 53.7337 20.3016 50.5332 20.3173C50.4705 20.3173 50.392 20.3016 50.3293 20.286C50.2508 19.8637 50.2508 19.8637 50.643 19.8011C50.9097 19.7542 51.1921 19.7073 51.4589 19.6603C51.9609 19.5821 52.3374 19.1598 52.3688 18.6437C52.4002 18.4091 52.4159 18.1745 52.4159 17.9399C52.4159 14.5146 52.4159 11.0893 52.4159 7.64837C52.4159 7.30428 52.3688 6.94454 52.259 6.61609C52.1805 6.41276 52.0393 6.24071 51.8354 6.13123C51.2706 5.8497 50.6117 5.7715 49.9998 5.9279C49.3252 6.05303 48.8388 6.66301 48.8859 7.3512C48.8232 8.57116 48.7447 9.79113 48.729 11.0267C48.7133 14.0454 48.729 17.0796 48.7133 20.0983C48.7133 20.2234 48.6349 20.458 48.6035 20.458C48.3839 20.4737 48.1172 20.5831 47.9446 20.3016C47.4426 19.4883 46.9405 18.675 46.4385 17.846C44.8225 15.2341 43.1909 12.6064 41.575 9.99446C41.324 9.57216 41.0573 9.16551 40.8062 8.74321C40.7592 8.66501 40.6964 8.60245 40.6023 8.46168C40.5866 8.61809 40.5709 8.69629 40.5709 8.77449C40.5866 11.3865 40.5866 13.9828 40.618 16.5948C40.618 17.1579 40.6964 17.7209 40.7435 18.284C40.7278 19.0034 41.2612 19.6134 41.9829 19.7073C42.1241 19.7386 42.2496 19.7698 42.3908 19.7855C42.783 19.7855 42.783 19.7855 42.6889 20.2078ZM36.0996 12.7472C36.0996 14.5302 36.084 16.2976 36.1153 18.0806C36.131 19.3163 36.3664 19.6603 37.8411 19.7386C38.6726 19.8793 39.4413 19.3163 39.5825 18.5029C39.5982 18.3935 39.6139 18.2996 39.5982 18.1901C39.6767 17.1422 39.7394 16.0943 39.7551 15.0307C39.7708 12.8254 39.7708 10.6201 39.7551 8.41476C39.7708 8.07067 39.7394 7.71093 39.6923 7.36684C39.457 6.11559 38.1078 5.45868 36.8056 5.95918C36.4762 6.06867 36.2408 6.33456 36.1938 6.67865C36.1467 7.0071 36.1153 7.3512 36.0996 7.69529C36.0996 9.38448 36.0996 11.0737 36.0996 12.7472Z" fill="#383B42"/>
<path d="M9.20924 9.14993C9.77403 9.35325 10.3231 9.50966 10.8095 9.74427C12.7706 10.6983 13.6648 12.3093 13.6491 14.4521C13.6178 17.33 11.7037 19.1599 9.35044 19.8325C8.36205 20.0983 7.35798 20.2235 6.33821 20.2235C4.58108 20.2391 2.80826 20.2235 1.05113 20.2235C0.878556 20.2235 0.705981 20.2548 0.705981 19.9889C0.705981 19.7543 0.690292 19.5509 1.03544 19.5353C1.3649 19.504 1.69437 19.4414 2.00814 19.3632C2.46311 19.2694 2.80826 18.9097 2.88671 18.4404C2.96515 18.0181 3.0279 17.5958 3.0279 17.1736C3.04359 12.497 3.04359 7.80483 3.0279 3.1283C3.0279 2.86241 2.99653 2.59652 2.94946 2.33063C2.91808 1.65808 2.38467 1.1263 1.71006 1.06374C1.58455 1.03246 1.45904 1.01682 1.33353 1.00117C0.815801 0.907331 0.815801 0.907331 0.862867 0.344269C0.909933 0.328629 0.956999 0.312988 1.01975 0.312988C3.43581 0.312988 5.85186 0.312988 8.25223 0.344269C9.08373 0.344269 9.88385 0.547597 10.6055 0.938612C11.7351 1.53295 12.4725 2.67472 12.5509 3.94161C12.8333 6.31898 11.7194 8.11765 9.46026 9.00916C9.38182 9.04044 9.31906 9.08736 9.20924 9.14993ZM5.50671 13.7483C5.50671 14.0924 5.50671 14.4521 5.50671 14.7962C5.50671 15.6564 5.49102 16.5166 5.53809 17.3769C5.60085 18.894 6.11857 19.3789 7.59331 19.3163C9.33475 19.3476 10.8566 18.1589 11.2331 16.4697C11.5155 15.4531 11.5625 14.3739 11.3586 13.3416C11.1233 11.7775 9.99367 10.495 8.45618 10.0884C7.609 9.86939 6.73043 9.79119 5.85186 9.82247C5.58516 9.82247 5.50671 9.90067 5.50671 10.1666C5.5224 11.3709 5.50671 12.5596 5.50671 13.7483ZM10.6526 5.19286C10.6055 4.69236 10.5898 4.31698 10.5114 3.94161C10.3859 2.86241 9.69559 1.92397 8.69151 1.48603C7.90708 1.17322 7.0442 1.07938 6.19702 1.22014C5.67929 1.28271 5.5224 1.48603 5.49103 2.00217C5.49103 2.11166 5.47534 2.23678 5.47534 2.34627C5.47534 4.39518 5.47534 6.4441 5.47534 8.50866C5.49103 8.58687 5.49103 8.66507 5.5224 8.75891C5.56947 8.83711 5.64791 8.96224 5.72636 8.97788C6.71474 9.07172 7.71882 8.96224 8.66014 8.63379C9.5387 8.30533 10.1976 7.55459 10.4173 6.64743C10.5428 6.13129 10.5898 5.59951 10.6526 5.19286Z" fill="#383B42"/>
<path d="M66.4101 23.0384V22.5691C66.5356 22.5691 66.6455 22.5535 66.771 22.5535C68.4026 22.5535 70.0499 22.5535 71.6815 22.5535C71.8384 22.5535 72.011 22.5066 72.0267 22.7568C72.0424 22.9914 71.9326 23.0853 71.7129 23.0853C71.6972 23.0853 71.6972 23.0853 71.6815 23.0853C70.3637 23.2573 70.097 23.5545 70.097 24.884C70.0813 28.4187 70.0813 31.9535 70.097 35.4883C70.1127 35.8011 70.144 36.1295 70.1911 36.4424C70.2382 36.849 70.5363 37.1775 70.9442 37.2557C71.9639 37.5059 73.0308 37.4903 74.0505 37.2087C74.5055 37.0836 74.882 36.7865 75.086 36.3642C75.3527 35.848 75.6037 35.3162 75.8233 34.7688C76.0116 34.2996 75.9959 34.284 76.545 34.4873C76.4509 35.0191 76.3724 35.5665 76.2626 36.0983C76.1528 36.6613 76.0116 37.2244 75.9175 37.7874C75.8704 38.069 75.7292 38.1315 75.4625 38.1315C72.7954 38.1159 70.144 38.1315 67.477 38.1315C65.7826 38.1315 64.1039 38.1315 62.4095 38.1315C62.2683 38.1315 62.0487 38.2254 62.0173 37.9439C61.9859 37.6936 62.1114 37.631 62.3311 37.5841C63.4136 37.3964 63.5548 37.1618 63.2567 36.1139C62.9273 34.9409 62.5664 33.7835 62.2056 32.6261C62.1585 32.5166 62.0487 32.4384 61.9232 32.4071C60.7152 32.3914 59.5071 32.3914 58.2991 32.4071C58.1893 32.4227 58.0795 32.4853 58.0167 32.5791C57.6872 33.8147 57.3421 35.066 57.0597 36.3172C56.9028 37.0523 57.1381 37.3495 57.8912 37.5216C58.001 37.5528 58.1265 37.5685 58.2363 37.5841C58.6442 37.6467 58.6442 37.6467 58.5501 38.1003C58.4717 38.1003 58.3775 38.1159 58.2834 38.1159C56.9969 38.1159 55.6948 38.1159 54.4083 38.1159C54.2671 38.1159 54.0788 38.1941 54.0475 37.9282C54.0318 37.7092 54.1102 37.5998 54.3299 37.5841C54.9731 37.5216 55.5222 37.0836 55.7262 36.4736C56.1654 35.2537 56.6047 34.0337 56.9969 32.7981C58.0951 29.451 59.1777 26.1039 60.2602 22.7568C60.37 22.4284 60.621 22.4127 60.8877 22.272C60.9975 22.6161 61.1074 22.9289 61.2015 23.2417C62.4252 27.277 63.6489 31.3122 64.8726 35.3319C65.0295 35.8324 65.2335 36.3329 65.4845 36.8021C65.9081 37.5528 66.8494 37.8187 67.6025 37.3964C67.6809 37.3495 67.7437 37.3026 67.8064 37.2557C67.9947 37.0993 68.1202 36.8803 68.1673 36.6457C68.2457 36.2234 68.2771 35.8011 68.2614 35.3788C68.2771 32.0004 68.2771 28.6064 68.2614 25.228C68.2614 24.8683 68.23 24.5086 68.183 24.1488C68.1516 23.6953 67.8064 23.3199 67.3671 23.2417C67.1004 23.1478 66.7553 23.1166 66.4101 23.0384ZM61.8761 31.4999L60.1974 25.6503H60.1033L58.3462 31.4999H61.8761Z" fill="#383B42"/>
<path d="M18.544 30.2176C18.5911 32.0163 18.1832 33.8149 17.3517 35.4259C16.677 36.8023 15.4533 37.8346 13.9629 38.2569C11.8449 38.8512 9.57008 37.9753 8.4248 36.0828C6.98145 33.9401 6.66767 31.5314 6.95007 29.0289C7.09127 27.5587 7.56193 26.1354 8.34636 24.8842C9.5387 23.0542 11.186 22.0845 13.4138 22.3035C14.7473 22.4599 15.9397 23.1637 16.7084 24.2585C17.9321 25.9008 18.5754 27.9184 18.5283 29.9674C18.544 30.0456 18.544 30.1394 18.544 30.2176ZM8.9896 30.0143C8.97391 31.3281 9.13079 32.6263 9.42888 33.8931C9.66421 35.0349 10.2133 36.0985 11.0291 36.9274C12.143 37.9441 13.8688 37.9284 14.9513 36.8805C15.5632 36.208 15.9554 35.379 16.1123 34.5031C16.6457 31.8911 16.5986 29.1853 16.0024 26.589C15.8142 25.6036 15.3592 24.6808 14.6689 23.9301C13.5707 22.757 11.7508 22.6945 10.5742 23.7893C10.5428 23.8206 10.5114 23.8362 10.4957 23.8675C10.0564 24.3837 9.72696 24.978 9.5387 25.6193C9.13079 27.0582 8.94253 28.5284 8.9896 30.0143Z" fill="#383B42"/>
<path d="M21.2268 5.30226H26.0275V5.7402C25.8863 5.77148 25.7294 5.80276 25.5725 5.83404C24.8352 5.88096 24.2704 6.53787 24.3174 7.27298V7.28862C24.2547 8.55551 24.2076 9.82239 24.1762 11.0893C24.1449 12.3718 24.1762 13.67 24.1135 14.9525C24.0978 16.2194 23.7527 17.4706 23.1094 18.5655C22.4191 19.6916 21.2268 20.3954 19.9089 20.4736C18.7009 20.6457 17.4615 20.3329 16.4888 19.5821C15.7201 18.9252 15.2337 17.9868 15.1082 16.9858C14.9827 16.2507 14.9042 15.4843 14.9042 14.7179C14.8729 12.3718 14.8886 10.0414 14.8886 7.69527C14.8886 7.41374 14.8572 7.11657 14.8258 6.83504C14.7944 6.38146 14.4493 6.00609 13.9943 5.94353C13.759 5.88096 13.508 5.83404 13.2726 5.80276C13.0687 5.78712 13.053 5.662 13.053 5.48995C13.053 5.30226 13.1628 5.28662 13.304 5.28662C14.9042 5.28662 16.4888 5.28662 18.089 5.30226C18.1989 5.3179 18.293 5.38046 18.3401 5.48995C18.3871 5.662 18.3244 5.77148 18.1047 5.80276C17.8223 5.84968 17.5399 5.91225 17.2732 6.00609C16.9908 6.08429 16.7712 6.3189 16.7241 6.61607C16.6614 6.94452 16.6143 7.27298 16.6143 7.60143C16.6143 9.94752 16.5986 12.278 16.63 14.6241C16.6143 15.7502 16.8496 16.8763 17.3203 17.9086C18.2459 19.8011 21.2738 19.8949 22.3564 18.1276C22.8898 17.236 23.1879 16.235 23.2506 15.1871C23.4389 12.5595 23.4232 9.93188 23.2035 7.30426C23.2506 6.55351 22.6701 5.91224 21.9171 5.88096C21.8073 5.84968 21.6817 5.83404 21.5719 5.8184C21.1954 5.8184 21.1326 5.64636 21.2268 5.30226Z" fill="#383B42"/>
<path d="M28.5691 20.4891C27.565 20.4891 26.5609 20.2702 25.651 19.8322C25.5568 19.7853 25.4784 19.6915 25.447 19.582C25.2744 18.581 25.1332 17.5644 24.9607 16.5634C24.9136 16.3131 25.0862 16.3287 25.2431 16.2818C25.447 16.2193 25.5098 16.3287 25.5568 16.4852C25.8079 17.4079 26.2785 18.2525 26.9218 18.9407C27.5493 19.6133 28.4592 19.9261 29.3692 19.801C30.4517 19.6446 31.2832 18.7687 31.3773 17.6895C31.6597 16.0003 31.0165 14.6865 29.4163 13.6855C28.6789 13.2319 27.9415 12.7783 27.2512 12.2622C25.9334 11.2456 25.2431 9.93174 25.5412 8.22692C25.8706 6.39697 27.4552 5.03623 29.3221 5.00495C30.2007 4.95803 31.0793 5.0988 31.9108 5.39597C32.0206 5.44289 32.1147 5.55237 32.1304 5.6775C32.2559 6.52209 32.35 7.38232 32.4755 8.24256C32.5069 8.47717 32.3814 8.50845 32.2088 8.53973C32.0363 8.57101 31.9421 8.57101 31.8794 8.38332C31.6911 7.8359 31.4715 7.31976 31.2048 6.80362C30.7498 5.99031 29.8398 5.56802 28.9299 5.70878C28.0356 5.83391 27.314 6.52209 27.1571 7.41361C26.8119 8.82126 27.314 10.0256 28.6632 10.9327C29.3378 11.3863 30.0595 11.8086 30.7341 12.2622C31.6127 12.7783 32.303 13.5604 32.7266 14.4988C33.762 17.1421 32.2873 20.2545 28.9613 20.4891C28.8515 20.5048 28.7103 20.4891 28.5691 20.4891Z" fill="#383B42"/>
<path d="M13.6789 2.2994C13.6162 1.09507 14.5418 0.0784345 15.7342 0.000231488C16.9265 -0.0779715 17.962 0.844824 18.0404 2.04915C18.1032 3.25348 17.1932 4.27011 15.9852 4.34832C15.9381 4.34832 15.9067 4.34832 15.8597 4.34832C14.7301 4.41088 13.7417 3.55065 13.6789 2.40888C13.6789 2.3776 13.6789 2.33068 13.6789 2.2994ZM17.1148 2.2994C17.0991 1.61121 16.5343 1.06379 15.844 1.07943C15.1537 1.09507 14.6046 1.67378 14.6203 2.34632C14.636 3.01887 15.1851 3.56629 15.8597 3.56629C16.5343 3.58193 17.0834 3.05015 17.1148 2.39324C17.1148 2.36196 17.1148 2.33068 17.1148 2.2994Z" fill="#383B42"/>
<path d="M26.7005 1.06374H25.4297V0.312988H28.8969V1.06374H27.6262V4.2857H26.7005V1.06374Z" fill="#383B42"/>
<path d="M37.4787 1.06374H36.2079V0.312988H39.6751V1.06374H38.4043V4.2857H37.4787V1.06374Z" fill="#383B42"/>
<path d="M49.7786 3.42547H47.9273L47.5822 4.27006H46.6408L48.4137 0.312988H49.3236L51.1121 4.2857H50.1394L49.7786 3.42547ZM49.4962 2.73728L48.8686 1.22014L48.2411 2.73728H49.4962Z" fill="#383B42"/>
<path d="M64.5103 0.312988L63.2081 4.2857H62.2197L61.3568 1.59552L60.4469 4.2857H59.4585L58.1563 0.312988H59.1134L60.0076 3.09701L60.9489 0.312988H61.7961L62.7061 3.1283L63.6317 0.312988H64.5103Z" fill="#383B42"/>
<path d="M74.7236 3.42547H72.8723L72.5272 4.27006H71.5858L73.343 0.312988H74.2529L76.0414 4.2857H75.0687L74.7236 3.42547ZM74.4255 2.73728L73.7979 1.22014L73.1704 2.73728H74.4255Z" fill="#383B42"/>
</g>
<defs>
<clipPath id="clip0_2040_58">
<rect width="77" height="47" fill="white"/>
</clipPath>
</defs>
</svg>
