<svg width="133" height="63" viewBox="0 0 133 63" fill="none" xmlns="http://www.w3.org/2000/svg">
<g clip-path="url(#clip0_2040_77)">
<path d="M57.2024 23.8234L57.3795 23.9998C58.6192 24.7057 59.6818 25.4116 60.9214 26.1175C61.0985 26.2939 61.2756 26.4704 61.2756 26.6469C61.2756 29.9998 61.2756 33.3528 61.2756 36.7057C61.2756 37.4116 61.6298 38.1175 62.3382 38.4704L62.5153 38.6469C62.6924 38.8234 62.6924 38.9998 62.5153 39.1763C61.6298 39.8822 60.7443 40.4116 59.8589 41.1175H59.6818C58.4421 40.7645 57.3795 39.7057 57.0253 38.4704C57.0253 38.2939 57.0253 38.1175 57.0253 37.941C57.0253 34.7645 57.0253 31.5881 57.0253 28.4116C57.0253 28.0587 56.8482 27.8822 56.6711 27.7057C56.1398 27.5292 55.6085 27.1763 54.9001 26.8234C54.9001 26.8234 54.9001 26.8234 54.723 26.8234V31.2351H56.6711C56.3169 31.5881 56.1398 31.941 55.9627 32.2939C55.6085 32.8234 55.0772 33.5292 54.723 34.0587C54.723 34.2351 54.5459 34.2351 54.5459 34.4116C54.5459 35.4704 54.5459 36.5292 54.5459 37.5881C54.5459 37.7645 54.5459 37.941 54.723 37.941C55.0772 38.1175 55.4314 38.4704 55.7856 38.6469C56.1398 38.8234 55.9627 38.8234 55.7856 38.9998C54.9001 39.5292 54.0147 40.0587 53.1292 40.5881C52.9521 40.7645 52.5979 40.7645 52.2437 40.5881C51.004 39.8822 49.5872 39.1763 48.3475 38.4704C48.3475 38.4704 48.1704 38.4704 48.1704 38.2939C47.9933 38.1175 47.9933 37.941 48.1704 37.7645C48.3475 37.5881 48.5246 37.5881 48.7017 37.4116C48.8788 37.2351 49.0559 37.0586 49.0559 36.7057C49.0559 35.8234 49.0559 34.941 49.0559 33.8822H46.9308C46.9308 34.5881 46.9308 35.4704 46.9308 36.1763C46.9308 36.7057 46.9308 37.2351 46.9308 37.7645C46.9308 37.941 46.9308 38.1175 47.1079 38.1175C47.285 38.1175 47.4621 38.2939 47.6392 38.4704C47.8162 38.6469 47.8162 38.8234 47.6392 38.9998C46.7537 39.5292 45.6911 40.0587 44.8056 40.5881H44.6285C43.3888 39.8822 42.1491 39.3528 40.7324 38.6469C40.3782 38.4704 40.3782 38.2939 40.7324 38.1175C41.0866 37.941 41.4408 37.7645 41.6178 37.5881L41.7949 37.4116C41.7949 34.4116 41.7949 31.5881 41.7949 28.5881C41.7949 28.4116 41.7949 28.4116 41.6178 28.4116C40.9095 27.8822 40.3782 27.5292 39.6698 26.9998C39.4927 26.8234 39.3156 26.8234 39.3156 26.6469C39.1385 26.4704 39.1385 26.4704 39.3156 26.2939C40.3782 25.5881 41.4408 25.0587 42.5033 24.3528C42.6804 24.3528 42.6804 24.3528 42.8575 24.3528C43.743 24.8822 44.6285 25.4116 45.6911 25.941H45.8682C47.1079 25.2351 48.3475 24.5292 49.7643 23.8234C49.9414 23.6469 50.1185 23.6469 50.2956 23.8234C51.3582 24.3528 52.2437 24.8822 53.3063 25.4116C53.4834 25.4116 53.6605 25.4116 53.6605 25.4116C54.723 24.7057 55.7856 23.9998 57.0253 23.2939L57.2024 23.8234ZM47.1079 26.9998V33.8822C47.6392 33.1763 47.9933 32.4704 48.5246 31.7645C48.7017 31.5881 48.8788 31.2351 49.233 31.2351C49.233 30.1763 49.233 29.2939 49.233 28.2351C49.233 28.0587 49.233 28.0587 49.0559 27.8822C49.0559 27.8822 48.8788 27.8822 48.7017 27.7057C48.1704 27.7057 47.6392 27.3528 47.1079 26.9998ZM46.7537 26.9998C46.2224 26.9998 46.2224 27.1763 46.2224 27.5292C46.2224 29.2939 46.2224 30.8822 46.2224 32.6469C46.2224 32.8234 46.2224 32.9998 46.2224 33.1763C46.2224 34.7645 46.2224 36.3528 46.2224 37.941V38.1175C46.3995 38.2939 46.5766 38.2939 46.7537 38.2939V26.9998ZM53.8376 31.2351H54.3688V26.6469C54.0147 26.4704 53.8376 26.6469 53.8376 26.9998C53.8376 28.0587 53.8376 28.941 53.8376 29.9998C53.8376 30.5292 53.8376 30.8822 53.8376 31.2351ZM54.3688 37.7645V34.5881H53.8376C53.8376 35.6469 53.8376 36.5292 53.8376 37.4116C53.8376 37.4116 53.8376 37.5881 54.0147 37.5881C54.1917 37.7645 54.1917 37.7645 54.3688 37.7645ZM133 40.2351H131.76V39.8822C131.76 37.4116 131.76 34.7645 131.76 32.2939C131.76 31.2351 131.052 30.1763 129.989 30.1763C128.395 29.8234 126.624 30.7057 125.916 32.1175C125.916 32.2939 125.739 32.4704 125.739 32.6469C125.739 35.1175 125.739 37.4116 125.739 39.8822V40.2351H124.499V39.8822C124.499 37.4116 124.499 34.7645 124.499 32.2939C124.499 30.8822 123.968 30.1763 122.551 29.9998C120.957 29.8234 119.364 30.5292 118.478 31.941C118.301 32.1175 118.301 32.2939 118.301 32.4704C118.301 34.941 118.301 37.2351 118.301 39.7057V40.0587H117.238V29.2939H118.301V31.0587H118.478C118.478 31.0587 118.478 31.0587 118.478 30.8822C119.541 29.1175 121.843 28.4116 123.791 28.941C124.676 29.1175 125.385 29.9998 125.562 30.8822V31.0587C125.916 30.7057 126.093 30.3528 126.447 29.9998C127.687 28.7645 129.635 28.4116 131.229 28.941C132.115 29.2939 132.823 29.9998 133 31.0587V31.2351V40.2351ZM3.69549e-06 25.941C1.59388 25.941 3.18775 25.941 4.78163 25.941C7.43809 26.1175 9.20906 27.5292 9.74035 30.1763C10.0945 31.5881 10.0945 32.9998 9.91745 34.4116C9.91745 35.4704 9.56325 36.5292 9.20906 37.5881C8.50067 38.9998 7.26099 39.8822 5.66711 40.0587C5.13582 40.0587 4.78163 40.2351 4.25034 40.2351C2.83356 40.2351 1.41678 40.2351 -0.177094 40.2351L3.69549e-06 25.941ZM1.23968 39.1763C2.47936 39.1763 3.54195 39.1763 4.60453 39.1763C6.5526 39.1763 7.79228 38.2939 8.32357 36.3528C8.67777 35.6469 8.85486 34.7645 8.85486 34.0587C9.03196 32.8234 8.85486 31.5881 8.50067 30.3528C7.96938 28.0587 6.3755 26.9998 4.25034 26.8234C3.36485 26.8234 2.30227 26.8234 1.41678 26.8234H1.23968V39.1763ZM30.6378 43.4116C30.8149 43.0587 30.992 42.5292 31.1691 42.1763C31.5233 41.6469 31.7004 40.941 32.0546 40.4116C32.0546 40.2351 32.0546 40.0587 32.0546 39.8822C30.6378 36.5292 29.0439 32.9998 27.6272 29.6469C27.6272 29.6469 27.6272 29.4704 27.4501 29.2939C27.8043 29.2939 28.1585 29.2939 28.5127 29.2939L28.6898 29.4704C29.221 30.8822 29.9294 32.1175 30.4607 33.5292C31.1691 35.1175 31.8775 36.8822 32.5859 38.4704C32.5859 38.4704 32.5859 38.6469 32.763 38.6469L33.4714 37.0587C34.534 34.5881 35.5965 31.941 36.8362 29.4704C36.8362 29.2939 37.0133 29.2939 37.0133 29.2939C37.3675 29.2939 37.5446 29.2939 37.8988 29.2939C37.8988 29.4704 37.8988 29.4704 37.7217 29.4704C35.7736 34.0587 33.6485 38.6469 31.7004 43.0586C31.7004 43.0586 31.7004 43.0587 31.7004 43.2351L30.6378 43.4116ZM63.0466 37.0587C63.0466 35.9998 63.2237 35.1175 63.4008 34.2351C63.755 33.5292 64.1092 32.9998 64.6405 32.4704C65.7031 31.4116 66.9427 30.5292 68.3595 29.8234C69.245 29.2939 70.1305 28.941 71.016 28.5881C71.1931 28.5881 71.1931 28.5881 71.3702 28.5881C72.7869 29.2939 74.2037 29.9998 75.6205 30.7057C75.7976 30.7057 75.9747 30.8822 75.9747 30.8822C76.1518 31.0587 76.1518 31.2351 76.1518 31.4116C76.1518 31.4116 76.1518 31.5881 75.9747 31.5881C75.7976 31.7645 75.6205 31.941 75.4434 32.1175L75.2663 32.2939C75.2663 33.8822 75.2663 35.6469 75.2663 37.2351C75.2663 37.4116 75.2663 37.4116 75.4434 37.4116C75.9747 37.7645 76.506 38.1175 77.0373 38.4704C77.3915 38.6469 77.3915 38.9998 77.0373 39.1763C76.3289 39.7057 75.4434 40.4116 74.735 40.941C74.735 40.941 74.5579 41.1175 74.3808 40.941C72.9641 40.2351 71.5473 39.5292 70.1305 38.8234C69.9534 38.8234 69.9534 38.8234 69.7763 38.8234C68.8908 39.5292 68.0053 40.2351 67.2969 40.7645H67.1198C65.8802 40.5881 64.8176 40.0587 63.9321 39.1763C63.4008 38.9998 62.8695 37.941 63.0466 37.0587ZM70.4847 35.2939C70.4847 34.4116 70.4847 33.5292 70.4847 32.4704C70.4847 32.2939 70.4847 32.2939 70.3076 32.1175C69.5992 31.7645 69.0679 31.2351 68.3595 30.8822C68.1824 30.7057 68.0053 30.7057 67.8282 30.8822C66.9427 31.4116 66.4115 32.1175 66.2344 32.9998C66.0573 34.0587 66.2344 35.1175 66.7656 35.9998C67.474 36.8822 68.1824 37.7645 69.245 38.1175C69.4221 38.1175 69.5992 38.2939 69.7763 38.2939C69.9534 38.2939 70.3076 38.1175 70.3076 37.941C70.3076 37.941 70.3076 37.941 70.3076 37.7645C70.4847 37.0587 70.4847 36.1763 70.4847 35.2939ZM90.8509 31.2351C90.8509 33.3528 90.8509 35.4704 90.8509 37.5881C90.8509 37.941 91.028 38.1175 91.2051 38.2939C91.5593 38.4704 92.0905 38.8234 92.4447 38.9998C92.6218 38.9998 92.6218 39.1763 92.6218 39.3528C91.9134 39.8822 91.028 40.5881 90.3196 41.1175H90.1425C88.7257 40.5881 87.486 39.8822 86.0692 39.3528C85.5379 39.1763 85.5379 38.9998 85.8921 38.6469C86.2463 38.2939 86.6005 37.7645 86.4234 37.2351C86.4234 34.4116 86.4234 31.5881 86.4234 28.7645C86.4234 28.4116 86.4234 28.0587 86.4234 27.7057C86.4234 27.1763 86.0692 26.6469 85.715 26.4704L85.5379 26.2939L85.715 26.1175C87.3089 25.5881 88.9028 25.0587 90.3196 24.7057C90.4967 24.7057 90.6738 24.7057 90.6738 24.7057C91.028 24.7057 91.028 24.7057 91.028 25.0587C91.028 26.2939 91.028 27.5292 91.028 28.5881C90.8509 29.2939 90.8509 30.1763 90.8509 31.2351ZM80.0479 28.7645C81.6418 29.4704 82.8815 30.1763 84.1212 30.8822C84.2983 30.8822 84.2983 31.0587 84.2983 31.0587C84.2983 31.2351 84.1212 31.2351 84.1212 31.2351C83.9441 31.7645 83.767 31.7645 83.5899 31.7645C83.4128 31.7645 83.4128 31.941 83.4128 31.941C83.4128 32.1175 83.4128 32.4704 83.4128 32.6469C83.4128 34.2351 83.4128 35.9998 83.4128 37.5881C83.4128 37.7645 83.5899 37.7645 83.5899 37.941C83.9441 38.1175 84.4754 38.4704 84.8296 38.6469C85.1838 38.8234 85.0067 38.8234 84.8296 38.9998C83.9441 39.7057 83.0586 40.2351 82.1731 40.941C81.996 41.1175 81.996 41.1175 81.8189 40.941C80.5792 40.2351 79.3395 39.7057 78.0999 38.9998C77.9228 38.9998 77.9228 38.8234 77.9228 38.6469C77.9228 38.6469 77.9228 38.4704 78.0999 38.4704C78.277 38.2939 78.4541 38.2939 78.6312 38.1175C78.8083 37.941 78.8083 37.7645 78.8083 37.5881C78.8083 36.1763 78.8083 34.5881 78.8083 33.1763C78.8083 32.8234 78.8083 32.4704 78.8083 32.2939C78.8083 32.1175 78.8083 32.1175 78.6312 32.1175C78.277 31.941 77.7457 31.5881 77.3915 31.4116C77.0373 31.2351 77.0373 31.0587 77.3915 30.7057C77.5686 30.5292 77.7457 30.5292 77.9228 30.3528C78.6312 29.8234 79.5166 29.2939 80.225 28.941C79.8708 28.941 79.8708 28.941 80.0479 28.7645ZM19.6578 40.2351H18.5952V38.4704H18.4181C17.8868 39.3528 17.0013 40.0586 15.9388 40.2351C15.0533 40.4116 13.9907 40.4116 12.9281 40.0587C11.6884 39.7057 10.8029 38.4704 10.8029 37.2351C10.8029 36.7057 10.8029 36.1763 10.8029 35.6469C10.98 34.5881 11.6884 33.7057 12.751 33.3528C14.1678 32.6469 15.7617 32.6469 17.1784 33.3528C17.7097 33.5292 18.0639 33.8822 18.241 34.4116C18.241 34.4116 18.241 34.4116 18.241 34.5881C18.241 34.4116 18.241 34.2351 18.241 34.0587C18.241 33.5292 18.241 32.8234 18.241 32.2939C18.241 31.4116 17.7097 30.7057 16.8242 30.3528C16.47 29.9998 15.5846 29.9998 14.8762 29.9998C14.3449 29.9998 13.9907 30.1763 13.6365 30.1763C13.2823 30.3528 12.751 30.5292 12.3968 30.5292C12.3968 30.1763 12.3968 29.9998 12.3968 29.6469L12.5739 29.4704C13.2823 29.1175 14.1678 28.941 14.8762 28.941C15.7617 28.7645 16.6471 28.941 17.5326 29.1175C18.7723 29.4704 19.6578 30.7057 19.6578 31.941C19.6578 34.7645 19.6578 37.4116 19.6578 40.2351C19.6578 40.0586 19.6578 40.0586 19.6578 40.2351ZM15.2304 39.5292C15.7617 39.5292 16.2929 39.3528 16.8242 39.1763C18.241 38.4704 18.9494 36.7057 18.241 35.2939C18.0639 34.941 17.8868 34.5881 17.5326 34.4116C17.0013 33.7057 16.1159 33.5292 15.0533 33.5292C14.3449 33.5292 13.4594 33.7057 12.9281 34.2351C12.0426 34.941 11.8655 35.9998 12.0426 37.0587C12.0426 38.1175 12.9281 38.9998 13.9907 39.3528C14.3449 39.3528 14.6991 39.3528 15.2304 39.5292ZM115.822 34.7645C115.822 35.8234 115.644 36.8822 115.29 37.7645C114.759 39.1763 113.342 40.2351 111.925 40.4116C110.863 40.5881 109.977 40.5881 108.915 40.2351C107.498 39.8822 106.435 38.6469 106.258 37.2351C105.727 35.6469 105.904 34.0587 106.258 32.4704C106.79 30.5292 108.561 29.2939 110.509 29.2939C111.394 29.2939 112.28 29.2939 113.165 29.6469C114.582 30.1763 115.467 31.4116 115.822 32.8234C115.822 33.3528 115.822 34.0587 115.822 34.7645ZM114.759 34.7645C114.759 34.0587 114.759 33.3528 114.582 32.6469C114.405 31.5881 113.873 30.8822 112.988 30.3528C112.28 29.9998 111.571 29.8234 110.863 29.9998C109.269 29.9998 107.852 30.8822 107.498 32.4704C106.967 34.0587 106.967 35.6469 107.498 37.2351C107.852 38.2939 108.738 39.1763 109.8 39.3528C110.332 39.5292 111.04 39.5292 111.571 39.3528C112.811 39.1763 113.874 38.4704 114.228 37.2351C114.582 36.5292 114.759 35.6469 114.759 34.7645ZM104.842 30.7057C104.31 30.5292 103.779 30.3528 103.071 30.1763C102.362 29.9998 101.477 29.9998 100.768 30.1763C99.5286 30.3528 98.466 31.2351 98.2889 32.4704C97.7577 33.8822 97.7577 35.6469 98.2889 37.0587C98.8202 38.4704 99.8828 39.3528 101.477 39.3528C102.716 39.3528 103.779 39.1763 104.842 38.6469C104.842 38.9998 104.842 39.3528 104.842 39.7057L104.664 39.8822C103.779 40.2351 102.893 40.5881 102.008 40.5881C101.3 40.5881 100.414 40.5881 99.7057 40.2351C98.466 39.8822 97.5806 38.9998 97.0493 37.7645C96.3409 35.9998 96.3409 33.8822 97.0493 32.1175C97.5806 30.3528 98.9973 29.2939 100.945 29.1175C102.185 28.941 103.425 29.1175 104.487 29.6469C104.664 29.6469 104.664 29.8234 104.664 29.9998C104.842 30.1763 104.842 30.5292 104.842 30.7057ZM26.2104 40.2351H25.1478V25.941H26.2104V40.2351ZM23.0226 40.2351H21.9601V29.4704H23.0226V40.2351ZM79.8708 26.2939C79.8708 25.4116 80.4021 24.7057 81.1105 24.3528C81.8189 23.9998 82.7044 24.3528 83.0586 25.0587C83.0586 25.2351 83.2357 25.4116 83.2357 25.5881C83.2357 26.1175 83.0586 26.4704 82.8815 26.8234C82.3502 27.5292 81.8189 28.0587 81.1105 28.4116C80.9334 28.5881 80.5792 28.4116 80.4021 28.2351C80.4021 28.2351 80.4021 28.2351 80.4021 28.0587C80.0479 27.7057 79.8708 26.9998 79.8708 26.2939ZM94.3928 40.0587V38.4704H95.9867V40.0587H94.3928ZM21.783 26.4704H23.1997V28.0587C22.6684 28.0587 22.3143 28.0587 21.783 28.0587C21.783 28.0587 21.6059 28.0587 21.6059 27.8822C21.783 27.5292 21.783 26.9998 21.783 26.4704Z" fill="#383B42"/>
</g>
<defs>
<clipPath id="clip0_2040_77">
<rect width="133" height="63" fill="white"/>
</clipPath>
</defs>
</svg>
