<svg width="135" height="26" viewBox="0 0 135 26" fill="none" xmlns="http://www.w3.org/2000/svg">
<g clip-path="url(#clip0_2040_54)">
<path fill-rule="evenodd" clip-rule="evenodd" d="M12.0936 0L11.7653 4.639H9.46696L9.24807 1.72614H5.58168V8.68465H7.16863C7.27807 8.14523 7.38751 7.65975 7.6064 7.12033H9.3028V11.8672H7.66113L7.22335 10.3029H5.6364V17.639H9.3028L9.63113 14.4025L12.1484 14.5104L12.3672 19.3651H0.328334V17.8008L2.02473 17.4772V1.94191L0 1.6722V0H12.0936ZM54.7223 26C54.7223 25.4606 54.8318 25.083 54.8318 24.6515L56.0904 24.3278V7.76763C55.5432 7.65975 55.1601 7.65975 54.6129 7.55187V6.20332L58.6076 5.6639C58.7171 6.20332 58.936 6.6888 59.0454 7.12033C59.1548 7.12033 59.1548 7.01245 59.2643 7.01245C60.1946 5.87967 61.4532 5.55602 62.9307 5.6639C64.5176 5.82573 65.8857 7.01245 66.214 8.57676C66.4329 9.27801 66.5971 10.0332 66.6518 10.7344C66.816 12.2448 66.7612 13.7552 66.5424 15.2656C66.4329 15.805 66.214 16.3983 65.9951 16.9378C65.3932 18.4481 63.9704 19.4191 62.3287 19.527C61.4532 19.6349 60.5229 19.527 59.7021 19.0954H59.4832V24.2739L60.8512 24.5975C60.8512 25.029 60.7418 25.4066 60.7418 25.9461L54.7223 26ZM59.4285 17.4232C60.4135 17.8548 61.5626 17.9087 62.6023 17.5311C62.7665 17.4232 62.9307 17.3154 63.0401 17.0996C63.2043 16.6141 63.3137 16.0747 63.3685 15.5353C63.5874 13.971 63.5874 12.3527 63.4779 10.7884C63.4779 10.195 63.3685 9.6556 63.1496 9.11618C62.8212 7.9834 62.0004 7.55187 60.8512 7.76763H60.6323C59.921 7.82158 59.4285 8.41494 59.4832 9.11618L59.4285 17.4232ZM99.3758 17.6929L100.744 18.0166C100.744 18.5021 100.744 18.9876 100.634 19.473H96.0377V10.1411C96.0377 9.70954 95.9283 9.33195 95.8188 8.90041C95.7094 8.361 95.2716 8.19917 94.7791 8.09129C94.3413 7.9834 93.8488 7.9834 93.411 8.19917C92.9732 8.41494 92.6996 8.6307 92.6996 9.11618V17.6929L94.0677 18.0166C94.0677 18.4481 93.9582 18.9336 93.9582 19.473H88.0482V18.0166L89.4163 17.6929V7.87552C88.8691 7.76763 88.486 7.76763 87.9388 7.65975V6.20332L91.8241 5.6639L92.1524 6.90456C92.4807 6.6888 92.8091 6.36514 93.0827 6.20332C94.2866 5.39419 95.8188 5.23236 97.1869 5.77178C98.2813 6.20332 99.0474 7.17427 99.1569 8.361C99.2663 8.68465 99.2663 9.06224 99.2663 9.38589V17.1535C99.321 17.3693 99.3758 17.5311 99.3758 17.6929ZM18.0584 17.8008L19.4264 18.1245C19.4264 18.6639 19.317 19.0415 19.317 19.5809H13.2975C13.2975 19.0954 13.2975 18.61 13.407 18.1245L14.6656 17.8008C14.775 17.4772 14.775 8.46888 14.6656 7.9834C14.2278 7.87552 13.7353 7.87552 13.1881 7.76763V6.3112L17.0734 5.77178L17.4017 7.01245L17.73 6.6888C18.9339 5.6639 20.5209 5.34025 22.0531 5.77178C23.4212 6.09544 24.1873 7.01245 24.4609 8.361C24.5703 8.68465 24.5703 9.06224 24.5703 9.38589V17.6929L25.9384 18.0166V19.473H21.3417V10.4647C21.3417 10.1411 21.3417 9.76348 21.2323 9.43983C21.1775 8.73859 20.5756 8.14523 19.8642 8.09129C19.2623 7.92946 18.6603 8.14523 18.2773 8.6307C18.1131 8.84647 18.0036 9.11618 18.0584 9.33195V17.8008ZM120.608 7.55187C120.061 7.55187 119.678 7.44398 119.131 7.44398V6.20332L123.672 5.6639C123.946 6.20332 124.056 6.74274 124.11 7.3361V17.8008L125.478 18.1245C125.478 18.6639 125.369 19.0415 125.369 19.5809H121.484C121.374 19.2033 121.265 18.8257 121.155 18.4481C121.046 18.556 120.936 18.6639 120.827 18.6639C119.404 19.8506 117.434 20.1203 115.792 19.3112C114.807 18.8257 114.151 17.9087 113.987 16.8299C113.877 16.4523 113.877 16.0747 113.877 15.6971V7.65975C113.33 7.55187 112.837 7.55187 112.4 7.44398V6.20332L116.832 5.6639C116.996 6.14938 117.106 6.63485 117.161 7.12033V14.9958C117.161 15.3195 117.161 15.6971 117.27 16.0207C117.325 16.8838 118.036 17.5851 118.966 17.5851C119.295 17.5851 119.678 17.4772 120.006 17.4772C120.444 17.2614 120.717 16.8838 120.827 16.4523V7.87552C120.608 7.71369 120.608 7.65975 120.608 7.55187ZM47.2801 13.4855C47.2254 14.5104 47.499 15.5892 47.9915 16.5062C48.484 17.2075 49.3048 17.6929 50.1804 17.7469C51.0559 17.7469 51.9862 17.5851 52.8071 17.2075C52.9165 17.2075 53.0259 17.0996 53.2448 17.0996C53.4637 17.5311 53.5732 17.9087 53.7921 18.3402C53.5732 18.556 53.2448 18.6639 53.0807 18.8797C51.4937 19.8506 49.5784 20.0664 47.8273 19.527C46.2404 19.0954 45.3101 18.0705 44.544 16.6141C43.8326 15.1037 43.559 13.4315 43.8326 11.7593C43.942 10.7344 44.1609 9.70954 44.544 8.73859C45.1459 7.22822 46.514 6.14938 48.1009 5.82573C49.7973 5.50207 51.2748 5.71784 52.5334 6.85062C53.2448 7.60581 53.7373 8.46888 54.0109 9.43983C54.2846 10.4108 54.4487 11.4357 54.4487 12.4606C54.394 12.8382 54.2846 13.1618 54.1204 13.4855H47.2801ZM51.3843 11.7054C51.3843 11.2739 51.2748 11.0041 51.2748 10.6805C51.2201 9.87137 51.0012 9.11618 50.6182 8.41494C50.2351 7.65975 49.3048 7.3361 48.5387 7.71369C48.2651 7.82158 48.0462 8.03734 47.9368 8.30705C47.5537 9.38589 47.2801 10.5726 47.2254 11.7054V12.029L51.3843 11.7054ZM111.579 13.4855L104.739 13.5934C104.629 14.0249 104.684 14.5104 104.848 14.9419C104.957 15.6432 105.231 16.2365 105.669 16.7759C106.161 17.3693 106.873 17.7469 107.639 17.6929C108.514 17.6929 109.335 17.5851 110.156 17.2614C110.32 17.2075 110.484 17.0996 110.703 17.0456C110.922 17.4772 111.032 17.8548 111.251 18.2863C111.141 18.2863 111.141 18.3942 111.032 18.3942C109.609 19.3651 107.912 19.7967 106.216 19.6349C104.191 19.473 102.495 18.1245 101.893 16.2365C100.853 13.8631 100.908 11.166 102.002 8.79253C103.097 6.20332 106.052 4.96266 108.679 6.04149C108.952 6.14938 109.171 6.25726 109.445 6.41909C110.211 7.01245 110.813 7.82158 111.251 8.68465C111.688 9.87137 111.907 11.166 111.907 12.4066C111.852 12.7842 111.743 13.1618 111.579 13.4855ZM108.952 11.7054C108.952 10.8423 108.843 9.92531 108.514 9.11618C108.405 8.68465 108.186 8.30705 107.858 7.9834C107.311 7.28216 105.669 7.44398 105.45 8.41494C105.231 9.17012 105.012 9.92531 104.903 10.6805C104.793 11.112 104.739 11.5975 104.793 12.029L108.952 11.7054ZM87.4463 13.4855L80.606 13.5934C80.5513 14.7261 80.8796 15.8589 81.5363 16.8299C81.9741 17.4232 82.6854 17.7469 83.3968 17.7469C84.2724 17.7469 85.0932 17.639 85.9141 17.3154C86.0782 17.2614 86.2424 17.1535 86.4613 17.0996C86.6802 17.5311 86.7896 17.9087 87.0085 18.3402C86.8443 18.4481 86.7349 18.5021 86.5707 18.6639C85.0932 19.5809 83.2874 19.9046 81.5363 19.5809C79.9493 19.2573 78.636 18.2324 77.9793 16.7759C77.2679 15.2656 76.9943 13.6473 77.1585 12.029C77.2679 10.9502 77.4868 9.87137 77.8699 8.79253C78.3077 7.55187 79.2927 6.58091 80.4966 6.09544C81.9193 5.44813 83.561 5.50207 84.9291 6.20332C85.8046 6.74274 86.516 7.55187 86.8991 8.46888C87.3916 9.70954 87.6652 11.0581 87.6105 12.4066C87.7199 12.7842 87.501 13.0539 87.4463 13.4855ZM84.8196 11.7054C84.8196 11.2739 84.7102 10.8963 84.7102 10.4647C84.6554 9.70954 84.4366 9.0083 84.0535 8.361C83.5063 7.55187 82.7949 7.22822 81.9193 7.65975C81.7004 7.76763 81.4816 7.92946 81.3721 8.19917C80.9891 9.06224 80.7154 9.97925 80.6607 10.8963C80.6607 11.2199 80.5513 11.5436 80.5513 11.9212C81.9193 11.9212 83.2874 11.7593 84.8196 11.7054ZM38.3604 5.82573L38.6887 7.06639C38.9076 6.95851 39.017 6.85062 39.2359 6.74274C40.1662 6.25726 41.2059 5.93361 42.3004 5.82573C42.7929 5.71784 43.2854 5.93361 43.559 6.36514L43.1212 9.97925C42.4098 9.97925 41.6437 9.87137 40.9323 9.87137C40.8229 9.22407 40.7134 8.57676 40.7134 7.92946C40.2209 7.92946 39.7284 8.14523 39.3454 8.46888V17.8008L40.7134 18.1245C40.7134 18.556 40.7134 19.0415 40.604 19.473H34.694V18.1245L35.9526 17.8008V7.87552C35.4053 7.76763 35.0223 7.76763 34.4751 7.65975V6.20332C35.7337 6.14938 37.047 6.04149 38.3604 5.82573ZM126.08 19.473C126.08 19.0415 126.08 18.556 126.19 18.1245L127.448 17.8008V7.9834C127.011 7.87552 126.518 7.87552 125.971 7.76763V6.3112L129.966 5.77178L130.294 6.90456L131.99 6.20332C132.592 6.04149 133.194 5.87967 133.796 5.77178C134.289 5.60996 134.836 5.82573 135.055 6.3112L134.617 9.92531C133.906 9.92531 133.139 9.81743 132.428 9.81743C132.319 9.17012 132.209 8.52282 132.209 7.87552L130.841 8.41494V17.8008L132.209 18.1245C132.209 18.556 132.1 19.0415 132.1 19.473H126.08ZM73.8204 7.87552L72.4524 8.41494V17.8008L73.8204 18.1245C73.8204 18.6639 73.711 19.0415 73.711 19.473H67.8557V18.1245L69.1143 17.8008V7.9834C68.5671 7.87552 68.184 7.87552 67.6368 7.76763V6.3112L71.6315 5.77178L71.9599 6.90456L73.109 6.25726C73.8204 5.93361 74.6413 5.71784 75.4074 5.60996C75.9546 5.55602 76.4471 5.82573 76.7754 6.25726L76.3377 9.87137C75.6263 9.87137 74.8602 9.76348 74.1488 9.76348L73.8204 7.87552ZM30.754 3.23651V6.04149H33.1617C33.0523 6.63485 32.9976 7.22822 33.0523 7.82158C32.2862 7.82158 31.5748 7.92946 30.8634 8.03734V16.8299C30.9181 17.3693 31.3559 17.7469 31.9031 17.7469H33.2712C33.2712 18.2863 33.3806 18.6639 33.3806 19.2033C32.9976 19.4191 32.6145 19.527 32.2315 19.6349C31.4106 19.7967 30.5351 19.8506 29.7142 19.7427C28.4556 19.5809 27.5253 18.61 27.4159 17.3693V7.9834C26.9234 7.87552 26.3762 7.76763 25.8289 7.76763C25.8289 7.22822 25.8289 6.63485 25.9384 6.09544C26.5951 6.09544 27.0876 5.98755 27.7442 5.98755L28.4556 3.39834L30.754 3.23651Z" fill="#383B42"/>
</g>
<defs>
<clipPath id="clip0_2040_54">
<rect width="135" height="26" fill="white"/>
</clipPath>
</defs>
</svg>
