<svg xmlns="http://www.w3.org/2000/svg" width="175.63" height="22.438" viewBox="0 0 175.63 22.438"><path id="familytreeDNA" d="M2.028,0H4.186V-7.9h9.022V-9.828H4.186v-5.59h9.2v-1.924H2.028ZM24.1,0h1.95V-8.632c0-3.042-2.21-4.238-4.862-4.238a6.574,6.574,0,0,0-5.018,2.08l.91,1.352A4.988,4.988,0,0,1,20.93-11.18c1.82,0,3.172.962,3.172,2.652v2.262a5.251,5.251,0,0,0-4.16-1.716,4.113,4.113,0,0,0-4.394,4.134A4.182,4.182,0,0,0,19.942.312,5.432,5.432,0,0,0,24.1-1.43Zm0-2.652a4.205,4.205,0,0,1-3.458,1.56,2.815,2.815,0,0,1-3.094-2.73,2.819,2.819,0,0,1,3.094-2.756A4.205,4.205,0,0,1,24.1-5.018ZM45.11,0h1.95V-9.074c0-2.522-1.222-3.8-3.51-3.8a5.286,5.286,0,0,0-4.212,2.34,3.224,3.224,0,0,0-3.38-2.34A5.429,5.429,0,0,0,31.9-10.738v-1.82h-1.95V0H31.9V-9.178a4.385,4.385,0,0,1,3.3-1.95c1.638,0,2.314,1.014,2.314,2.6V0h1.95V-9.2A4.393,4.393,0,0,1,42.8-11.128c1.612,0,2.314,1.014,2.314,2.6Zm6.812-14.664a1.332,1.332,0,0,0,1.326-1.326,1.31,1.31,0,0,0-1.326-1.3,1.3,1.3,0,0,0-1.3,1.3A1.326,1.326,0,0,0,51.922-14.664ZM50.96,0h1.95V-12.558H50.96Zm5.85,0h1.95V-17.342H56.81Zm5.46,3.146-.312,1.768a6.33,6.33,0,0,0,1.43.182A3.733,3.733,0,0,0,67.08,2.548l6.292-15.106H71.24l-4.16,10.3-4.186-10.3H60.788L66.04.13l-.832,1.9a1.806,1.806,0,0,1-1.872,1.326A2.991,2.991,0,0,1,62.27,3.146ZM78,0h2.158V-15.418H85.67v-1.924H72.514v1.924H78Zm8.242,0h1.95V-8.892a4.594,4.594,0,0,1,3.406-2,3.437,3.437,0,0,1,.78.078v-2a5.338,5.338,0,0,0-4.186,2.288v-2.028h-1.95Zm7.852-6.292a6.227,6.227,0,0,0,6.4,6.6,6.822,6.822,0,0,0,4.992-1.924l-.936-1.274A5.489,5.489,0,0,1,100.672-1.3a4.425,4.425,0,0,1-4.524-4.342h10.166v-.494c0-3.77-2.236-6.734-6.032-6.734A6.28,6.28,0,0,0,94.094-6.292Zm6.162-4.966a4.071,4.071,0,0,1,4.134,4.186H96.148A4.19,4.19,0,0,1,100.256-11.258Zm8.476,4.966a6.227,6.227,0,0,0,6.4,6.6,6.822,6.822,0,0,0,4.992-1.924l-.936-1.274A5.489,5.489,0,0,1,115.31-1.3a4.425,4.425,0,0,1-4.524-4.342h10.166v-.494c0-3.77-2.236-6.734-6.032-6.734A6.28,6.28,0,0,0,108.732-6.292Zm6.162-4.966a4.071,4.071,0,0,1,4.134,4.186h-8.242A4.19,4.19,0,0,1,114.894-11.258ZM123.864,0H130.7c5.434,0,9.2-3.432,9.2-8.658s-3.77-8.684-9.2-8.684h-6.838Zm3.692-3.25V-14.092H130.7a5.075,5.075,0,0,1,5.434,5.434A5.191,5.191,0,0,1,130.7-3.25ZM154.492,0h3.562V-17.342h-3.692V-6.11l-8.034-11.232h-3.8V0h3.692V-11.648Zm19.136,0h4.03l-6.682-17.342h-4.628L159.64,0H163.7l1.092-2.99h7.748Zm-4.966-14.144,2.86,7.956h-5.746Z" transform="translate(-2.028 17.342)" fill="#494949"></path></svg>