<svg width="111" height="28" viewBox="0 0 111 28" fill="none" xmlns="http://www.w3.org/2000/svg">
<g clip-path="url(#clip0_2040_49)">
<path d="M67.5957 8.00018C65.9622 8.00018 64.4064 8.39234 63.0063 9.17665C63.0063 5.09822 63.0063 1.33352 63.1619 0.0786133L54.6055 1.64724V2.43155L55.4611 2.58842C56.6279 2.82371 57.0168 3.45116 57.2502 5.01979C57.4835 8.07861 57.4057 24.5492 57.2502 27.2943C59.5837 27.8433 61.9951 28.157 64.4064 28.157C71.1738 28.157 75.2186 23.9218 75.2186 17.2551C75.2186 11.8433 71.9516 8.00018 67.5957 8.00018ZM64.6398 26.5884C64.0953 26.5884 63.6286 26.5884 63.0841 26.4316C62.9285 24.6276 62.8507 17.0198 62.9285 10.3531C63.5508 10.1178 64.1731 9.96097 64.8732 9.96097C67.6734 9.96097 69.2291 13.3335 69.2291 17.4119C69.2291 22.6668 67.3623 26.5884 64.6398 26.5884ZM22.48 0.549201H0V1.72567L1.24457 1.88253C2.87807 2.11783 3.57814 3.13744 3.81149 5.64724C4.12263 11.2943 4.12263 16.9414 3.81149 22.5884C3.57814 25.0198 2.95585 26.1963 1.24457 26.3531L0 26.51V27.5296H14.3903V26.51L12.8346 26.2747C11.2011 26.1178 10.5011 25.0198 10.2677 22.51C10.1121 20.8629 10.0343 18.1178 10.0343 14.8237L13.068 14.9806C15.0126 14.9806 15.8683 16.5492 16.2572 18.7453H17.424V9.49038H16.335C15.946 11.6865 15.0904 13.2551 13.1458 13.2551L10.1121 13.4119C10.1121 9.01979 10.2677 4.94136 10.3455 2.50999H14.7793C18.2018 2.50999 19.9909 4.70606 21.3132 8.5492L22.5578 8.15704L22.48 0.549201Z" fill="#383B42"/>
<path d="M29.7141 7.68617C36.0925 7.68617 39.2817 12.0783 39.2817 17.8822C39.2817 23.4509 35.7036 28.0783 29.3252 28.0783C22.9467 28.0783 19.7575 23.6862 19.7575 17.8822C19.7575 12.3136 23.3357 7.68617 29.7141 7.68617ZM29.3252 9.0195C26.5249 9.0195 25.747 12.8626 25.747 17.8822C25.747 22.745 26.9916 26.745 29.5585 26.745C32.5144 26.745 33.2922 22.9019 33.2922 17.8822C33.2922 13.0195 32.0477 9.0195 29.3252 9.0195ZM76.9299 18.0391C76.9299 12.7842 80.2747 7.7646 86.7309 7.7646C92.0981 7.7646 94.665 11.7646 94.665 17.0195H82.7638C82.6083 21.8038 84.9418 25.2548 89.5312 25.2548C91.0869 25.3332 92.6426 24.7842 93.8872 23.843L94.4317 24.4705C92.5648 26.8234 89.7645 28.1568 86.8087 28.0783C80.9748 27.9999 76.9299 23.9215 76.9299 18.0391ZM82.7638 15.5293L88.7533 15.3724C88.7533 12.7842 88.3644 8.94107 86.1864 8.94107C84.0084 8.94107 82.9194 12.6273 82.7638 15.5293ZM109.833 8.70578C107.966 7.9999 105.944 7.60774 103.999 7.68617C99.2544 7.68617 96.3763 10.5097 96.3763 13.8822C96.3763 17.2548 98.5543 18.6666 101.588 19.6862C104.777 20.8626 105.633 21.7254 105.633 23.294C105.633 24.9411 104.31 26.2744 102.677 26.2744C102.599 26.2744 102.521 26.2744 102.444 26.2744C100.032 26.2744 98.2432 24.8626 96.843 21.0195L95.9874 21.2548L96.143 26.9019C98.321 27.6862 100.577 28.0783 102.91 28.0783C107.889 28.0783 111.078 25.4901 111.078 21.4901C111.078 18.8234 109.678 17.2548 106.333 15.9215C102.755 14.5097 101.51 13.5685 101.51 11.9215C101.432 10.4313 102.521 9.17637 103.999 9.09793C104.077 9.09793 104.155 9.09793 104.155 9.09793C106.411 9.09793 107.966 10.5097 109.133 13.9607L109.989 13.7254L109.833 8.70578ZM55.85 8.23519C53.672 6.98029 49.8606 7.60774 47.8381 12.2352L47.9937 7.7646L39.4373 9.41166V10.196L40.2929 10.3528C41.4597 10.5097 41.9264 11.1371 42.082 12.7842C42.2376 16.5489 42.2376 20.2352 42.082 23.9999C41.9264 25.5685 41.4597 26.2744 40.2929 26.4313L39.4373 26.5881V27.6077H51.2607V26.5881L49.705 26.4313C48.4604 26.2744 48.0715 25.5685 47.9159 23.9999C47.6826 20.5489 47.6048 17.0195 47.7603 13.5685C48.3826 12.7058 51.1829 11.9215 53.7498 13.5685L55.85 8.23519Z" fill="#383B42"/>
</g>
<defs>
<clipPath id="clip0_2040_49">
<rect width="111" height="28" fill="white"/>
</clipPath>
</defs>
</svg>
