<svg xmlns="http://www.w3.org/2000/svg" width="127.14" height="22.438" viewBox="0 0 127.14 22.438"><path id="livingDNA" d="M2.028,0H12.246V-1.924H4.186V-17.342H2.028ZM16.172-14.664A1.332,1.332,0,0,0,17.5-15.99a1.31,1.31,0,0,0-1.326-1.3,1.3,1.3,0,0,0-1.3,1.3A1.326,1.326,0,0,0,16.172-14.664ZM15.21,0h1.95V-12.558H15.21Zm9.2,0h2.132l5.226-12.558H29.64l-4.16,10.3-4.186-10.3H19.188ZM34.762-14.664a1.332,1.332,0,0,0,1.326-1.326,1.31,1.31,0,0,0-1.326-1.3,1.3,1.3,0,0,0-1.3,1.3A1.326,1.326,0,0,0,34.762-14.664ZM33.8,0h1.95V-12.558H33.8ZM48.126,0h1.95V-8.814c0-2.73-1.378-4.056-4-4.056A6.229,6.229,0,0,0,41.6-10.738v-1.82H39.65V0H41.6V-9.178a4.848,4.848,0,0,1,3.718-1.95c1.69,0,2.808.7,2.808,2.912ZM53.95,3.224A6.417,6.417,0,0,0,59.02,5.1C62.088,5.1,65,3.8,65-.364V-12.558H63.05v1.9a5.2,5.2,0,0,0-4.212-2.21c-3.3,0-5.59,2.5-5.59,6.526,0,4.056,2.314,6.5,5.59,6.5A5.246,5.246,0,0,0,63.05-2.08V-.286c0,2.756-1.95,3.77-4.03,3.77a4.8,4.8,0,0,1-4.082-1.716Zm9.1-6.838A4.648,4.648,0,0,1,59.306-1.56c-2.522,0-4.03-2.028-4.03-4.784,0-2.782,1.508-4.784,4.03-4.784A4.626,4.626,0,0,1,63.05-9.1ZM75.374,0h6.838c5.434,0,9.2-3.432,9.2-8.658s-3.77-8.684-9.2-8.684H75.374Zm3.692-3.25V-14.092h3.146a5.075,5.075,0,0,1,5.434,5.434A5.191,5.191,0,0,1,82.212-3.25ZM106,0h3.562V-17.342h-3.692V-6.11L97.838-17.342h-3.8V0h3.692V-11.648Zm19.136,0h4.03l-6.682-17.342h-4.628L111.15,0h4.056L116.3-2.99h7.748Zm-4.966-14.144,2.86,7.956h-5.746Z" transform="translate(-2.028 17.342)" fill="#1e3b85"></path></svg>