<svg xmlns="http://www.w3.org/2000/svg" width="134.914" height="23.452" viewBox="0 0 134.914 23.452"><path id="myheritage" d="M16.8,0h3.718V-17.342h-5.2L11.1-6.526,6.89-17.342H1.716V0H5.408V-12.48L10.3,0h1.612L16.8-12.48ZM23.92,1.95l-.494,2.964a9.026,9.026,0,0,0,1.638.182c2.158-.052,3.822-.676,4.758-3.042l5.9-14.612H32.162L28.886-3.822,25.61-12.558H22.074L27.17.182,26.7,1.248a1.666,1.666,0,0,1-1.742.91A2.853,2.853,0,0,1,23.92,1.95ZM49.166,0h3.718V-17.342H49.166v6.812h-8.19v-6.812H37.284V0h3.692V-7.28h8.19Zm6.24-6.292a6.36,6.36,0,0,0,6.708,6.6A7.828,7.828,0,0,0,67.288-1.43L65.832-3.562a5.136,5.136,0,0,1-3.354,1.248,3.384,3.384,0,0,1-3.614-2.912H68.2v-.728c0-4.108-2.548-6.916-6.292-6.916A6.391,6.391,0,0,0,55.406-6.292Zm6.5-3.952A2.909,2.909,0,0,1,65-7.462H58.812A3.018,3.018,0,0,1,61.906-10.244ZM70.59,0h3.3V-8.294a4.207,4.207,0,0,1,3.094-1.43,4.18,4.18,0,0,1,.91.1v-3.224a5.372,5.372,0,0,0-4,2v-1.716h-3.3Zm11-14.4a1.975,1.975,0,0,0,1.976-1.976,1.975,1.975,0,0,0-1.976-1.976,1.992,1.992,0,0,0-1.976,1.976A1.992,1.992,0,0,0,81.588-14.4ZM79.95,0h3.3V-12.558h-3.3ZM90.74.312A4.076,4.076,0,0,0,93.5-.494l-.7-2.5a1.8,1.8,0,0,1-1.144.364c-.728,0-1.144-.6-1.144-1.378V-9.672h2.548v-2.886H90.506V-15.99H87.178v3.432H85.1v2.886h2.08V-3.12C87.178-.884,88.426.312,90.74.312ZM102.856,0h3.3V-8.112c0-3.614-2.626-4.758-5.486-4.758a8.238,8.238,0,0,0-5.486,1.976l1.248,2.21a5.284,5.284,0,0,1,3.666-1.482c1.664,0,2.756.832,2.756,2.106v1.742a5.075,5.075,0,0,0-3.978-1.534c-2,0-4.368,1.066-4.368,4A4.184,4.184,0,0,0,98.878.312,5.2,5.2,0,0,0,102.856-1.3Zm0-3.016A3.3,3.3,0,0,1,100.2-1.924c-1.3,0-2.366-.676-2.366-1.846,0-1.222,1.066-1.9,2.366-1.9a3.3,3.3,0,0,1,2.652,1.092Zm6.318,6.24A7.609,7.609,0,0,0,114.582,5.1c3.094,0,6.786-1.17,6.786-5.954v-11.7H118.04v1.612a4.836,4.836,0,0,0-3.874-1.924c-3.172,0-5.538,2.288-5.538,6.4,0,4.186,2.392,6.4,5.538,6.4a4.89,4.89,0,0,0,3.874-1.976V-.78c0,2.47-1.872,3.172-3.458,3.172a4.991,4.991,0,0,1-3.926-1.56Zm8.866-7.67a3.657,3.657,0,0,1-2.834,1.43c-1.872,0-3.172-1.3-3.172-3.458s1.3-3.458,3.172-3.458A3.58,3.58,0,0,1,118.04-8.5Zm5.8-1.846a6.36,6.36,0,0,0,6.708,6.6A7.828,7.828,0,0,0,135.72-1.43l-1.456-2.132a5.136,5.136,0,0,1-3.354,1.248A3.384,3.384,0,0,1,127.3-5.226h9.334v-.728c0-4.108-2.548-6.916-6.292-6.916A6.391,6.391,0,0,0,123.838-6.292Zm6.5-3.952a2.909,2.909,0,0,1,3.094,2.782h-6.188A3.018,3.018,0,0,1,130.338-10.244Z" transform="translate(-1.716 18.356)" fill="#e56c30"></path></svg>