<svg width="23" height="26" viewBox="0 0 23 26" fill="none" xmlns="http://www.w3.org/2000/svg">
<path d="M3.47199 0.200223C2.47359 0.200223 1.59199 0.901023 1.40799 1.90902C1.17119 3.21782 0.799988 5.54742 0.799988 7.40022C0.799988 9.36982 1.81759 11.101 3.35199 12.0978C3.78559 12.381 3.99999 12.7458 3.99999 13.0578V13.7138C3.99999 13.7426 3.99839 13.7714 3.99519 13.8002C3.95199 14.2162 3.75359 16.0866 3.56639 18.0098C3.38239 19.9058 3.19999 21.9298 3.19999 22.6002C3.19999 23.4489 3.53713 24.2628 4.13725 24.863C4.73736 25.4631 5.5513 25.8002 6.39999 25.8002C7.24868 25.8002 8.06261 25.4631 8.66273 24.863C9.26285 24.2628 9.59999 23.4489 9.59999 22.6002C9.59999 21.9282 9.41759 19.9058 9.23359 18.0098C9.09679 16.6065 8.95386 15.2039 8.80479 13.8018L8.79999 13.7138V13.0578C8.79999 12.7442 9.01439 12.3794 9.44799 12.0978C10.2313 11.5896 10.875 10.8937 11.3207 10.0732C11.7665 9.25278 11.9999 8.33391 12 7.40022C12 5.54742 11.6288 3.21782 11.392 1.90902C11.303 1.42733 11.0476 0.992242 10.6703 0.679865C10.2929 0.367489 9.81782 0.197709 9.32799 0.200223C8.78399 0.200223 8.28799 0.403423 7.91359 0.737823C7.48578 0.390097 6.95129 0.200259 6.39999 0.200223C5.82559 0.200223 5.29919 0.401823 4.88639 0.737823C4.49791 0.390457 3.99312 0.198983 3.47199 0.200223ZM5.59999 2.60022C5.59999 2.38805 5.68427 2.18457 5.8343 2.03454C5.98433 1.88451 6.18781 1.80022 6.39999 1.80022C6.61216 1.80022 6.81564 1.88451 6.96567 2.03454C7.1157 2.18457 7.19999 2.38805 7.19999 2.60022V7.40022C7.19999 7.6124 7.28427 7.81588 7.4343 7.96591C7.58433 8.11594 7.78781 8.20022 7.99999 8.20022C8.21216 8.20022 8.41564 8.11594 8.56567 7.96591C8.7157 7.81588 8.79999 7.6124 8.79999 7.40022V2.32822C8.79999 2.25888 8.81365 2.19023 8.84018 2.12617C8.86671 2.06211 8.90561 2.0039 8.95464 1.95487C9.00366 1.90584 9.06187 1.86695 9.12593 1.84041C9.18999 1.81388 9.25865 1.80022 9.32799 1.80022C9.57919 1.80022 9.77599 1.97302 9.81759 2.19542C10.0528 3.49622 10.4 5.70262 10.4 7.40022C10.4001 8.06748 10.2332 8.72416 9.91464 9.31045C9.59606 9.89675 9.13587 10.394 8.57599 10.757C7.87359 11.213 7.19999 12.0146 7.19999 13.0578V13.7138C7.19999 13.7992 7.20425 13.8845 7.21279 13.9698C7.25759 14.3826 7.45439 16.2482 7.64159 18.165C7.83039 20.109 7.99999 22.029 7.99999 22.6002C7.99999 23.0246 7.83142 23.4315 7.53136 23.7316C7.2313 24.0317 6.82433 24.2002 6.39999 24.2002C5.97564 24.2002 5.56868 24.0317 5.26862 23.7316C4.96856 23.4315 4.79999 23.0246 4.79999 22.6002C4.79999 22.029 4.96959 20.109 5.15839 18.165C5.34559 16.2482 5.54239 14.3826 5.58719 13.9698C5.59572 13.8845 5.59999 13.7992 5.59999 13.7138V13.0578C5.59999 12.0146 4.92639 11.213 4.22399 10.757C3.6641 10.394 3.20392 9.89675 2.88534 9.31045C2.56676 8.72416 2.39991 8.06748 2.39999 7.40022C2.39999 5.70422 2.74719 3.49622 2.98239 2.19542C3.0043 2.0821 3.06567 1.98021 3.1556 1.90786C3.24553 1.8355 3.3582 1.79737 3.47359 1.80022C3.61334 1.80065 3.74723 1.85646 3.84591 1.95543C3.94458 2.05441 3.99999 2.18847 3.99999 2.32822V7.40022C3.99999 7.6124 4.08427 7.81588 4.2343 7.96591C4.38433 8.11594 4.58781 8.20022 4.79999 8.20022C5.01216 8.20022 5.21564 8.11594 5.36567 7.96591C5.5157 7.81588 5.59999 7.6124 5.59999 7.40022V2.60022ZM13.6 7.40022C13.6 5.49066 14.3586 3.65932 15.7088 2.30905C17.0591 0.958792 18.8904 0.200223 20.8 0.200223C21.0122 0.200223 21.2156 0.284508 21.3657 0.434538C21.5157 0.584567 21.6 0.78805 21.6 1.00022V12.165L21.632 12.5234C21.7567 13.961 21.8783 15.3989 21.9968 16.837C22.1952 19.2482 22.4 21.8946 22.4 22.6002C22.4 23.4489 22.0628 24.2628 21.4627 24.863C20.8626 25.4631 20.0487 25.8002 19.2 25.8002C18.3513 25.8002 17.5374 25.4631 16.9372 24.863C16.3371 24.2628 16 23.4489 16 22.6002C16 21.8962 16.2048 19.2482 16.4032 16.837C16.5024 15.6194 16.6032 14.4418 16.6784 13.5698L16.7264 13.0002H16C15.3635 13.0002 14.753 12.7474 14.3029 12.2973C13.8528 11.8472 13.6 11.2367 13.6 10.6002V7.40022ZM18.3968 12.2706L18.3632 12.6626L18.272 13.7074C18.1968 14.5778 18.096 15.7522 17.9968 16.9682C17.7952 19.4274 17.6 21.9794 17.6 22.6002C17.6 23.0246 17.7686 23.4315 18.0686 23.7316C18.3687 24.0317 18.7756 24.2002 19.2 24.2002C19.6243 24.2002 20.0313 24.0317 20.3314 23.7316C20.6314 23.4315 20.8 23.0246 20.8 22.6002C20.8 21.9794 20.6048 19.4274 20.4032 16.9682C20.2845 15.5327 20.1624 14.0975 20.0368 12.6626L20.0032 12.2722V12.2706L20 12.2002V1.85622C18.6669 2.04863 17.4479 2.71503 16.5663 3.73327C15.6847 4.75151 15.1996 6.05337 15.2 7.40022V10.6002C15.2 10.8124 15.2843 11.0159 15.4343 11.1659C15.5843 11.3159 15.7878 11.4002 16 11.4002H17.6C17.711 11.4002 17.8207 11.4233 17.9223 11.4681C18.0239 11.5128 18.115 11.5782 18.19 11.66C18.2649 11.7419 18.322 11.8385 18.3576 11.9436C18.3932 12.0487 18.4066 12.1601 18.3968 12.2706Z" fill="#383B42"/>
</svg>
