<svg width="77" height="47" viewBox="0 0 77 47" fill="none" xmlns="http://www.w3.org/2000/svg">
<g id="business-journal-logo.original 1" clip-path="url(#clip0_48_58)">
<path id="Path_39" d="M0 46.2336C0.800122 45.999 1.49042 45.5141 1.97677 44.8572C2.55725 44.0908 2.9024 43.1524 2.96516 42.1983C3.09067 40.6186 3.21618 39.0389 3.23187 37.4592C3.26324 33.4083 3.24756 29.3417 3.24756 25.2908C3.24756 24.8216 3.21618 24.3524 3.16911 23.8832C3.12205 23.2575 2.6357 22.7414 2.00815 22.6476C1.67869 22.5694 1.33354 22.5224 1.00407 22.4911C0.690302 22.4755 0.753056 22.2722 0.737368 22.0845C0.721679 21.8655 0.8315 21.8186 1.03545 21.8186C3.20049 21.8186 5.34984 21.8186 7.51487 21.8186C7.68745 21.8186 7.82865 21.8342 7.81296 22.0689C7.79727 22.2722 7.86002 22.4755 7.53056 22.4911C7.24817 22.5224 6.96577 22.5694 6.68337 22.6476C6.10289 22.757 5.66361 23.2419 5.63223 23.8206C5.56948 24.3993 5.52241 24.978 5.52241 25.5723C5.50672 29.8892 5.5381 34.1903 5.50672 38.5071C5.50672 39.6958 5.41259 40.8845 5.22433 42.0575C4.80073 44.6539 3.21618 46.2336 0.690302 46.9061C0.59617 46.9374 0.517726 46.9687 0.423594 47H0V46.2336Z" fill="#383B42"/>
<path id="Path_40" d="M76.9999 16.6573C76.9685 16.8137 76.9215 16.9701 76.8901 17.1265C76.4979 19.0503 74.8349 20.4423 72.8581 20.5049C71.7285 20.5518 70.5833 20.3172 69.5635 19.848C69.4537 19.7854 69.3752 19.6916 69.3438 19.5821C69.1713 18.5811 69.0301 17.5645 68.8732 16.5478C68.8418 16.3132 68.9987 16.3289 69.1399 16.2819C69.3282 16.2194 69.4066 16.2976 69.4537 16.4696C69.6733 17.2673 70.0655 18.0181 70.5833 18.675C71.352 19.7072 72.7169 20.0826 73.9093 19.6134C74.9133 19.1755 75.2271 18.2996 75.3369 17.3142C75.4938 15.672 74.6623 14.5615 73.3602 13.7169C72.4816 13.1851 71.6344 12.6064 70.8343 11.9808C69.1556 10.6201 68.9046 8.14884 70.2695 6.47529C70.9755 5.61506 72.0266 5.08328 73.1405 5.03636C74.0505 4.95816 74.9604 5.09892 75.8233 5.41173C75.9331 5.45865 76.0272 5.56814 76.0586 5.69326C76.1841 6.5535 76.2782 7.39809 76.4038 8.25832C76.4351 8.52421 76.2626 8.52421 76.1057 8.57113C75.9331 8.6337 75.8703 8.55549 75.8076 8.39909C75.6036 7.80475 75.3369 7.24168 75.0388 6.69426C74.3956 5.67762 73.0464 5.39609 72.0266 6.03736C71.9639 6.06864 71.9168 6.11556 71.854 6.16248C71.1637 6.75683 70.8343 7.67962 70.9912 8.58678C71.1167 9.58777 71.7128 10.4636 72.5914 10.9641C73.2346 11.4021 73.9093 11.7931 74.5682 12.2154C75.4938 12.7628 76.2312 13.5761 76.6705 14.5615C76.8117 14.9369 76.8901 15.3279 76.9999 15.7189V16.6573Z" fill="#383B42"/>
<path id="Path_41" d="M45.1678 25.8695C45.1678 26.1823 45.1678 26.4952 45.1678 26.8236C45.1835 29.4199 45.1992 32.0163 45.2305 34.6126C45.2305 35.1444 45.309 35.6762 45.3717 36.208C45.4031 36.818 45.8267 37.3341 46.4229 37.4749C46.6739 37.5531 46.9249 37.6 47.1759 37.6313C47.3956 37.6469 47.4426 37.7407 47.427 37.9441C47.427 38.1474 47.3015 38.1474 47.1446 38.1474C45.6541 38.1474 44.1794 38.1474 42.689 38.1474C41.4339 38.2256 40.2572 37.5843 39.6454 36.4739C38.8766 35.0818 38.0922 33.6742 37.3862 32.2509C37.1352 31.5314 36.4292 31.0935 35.6605 31.1561C34.8603 31.203 34.9545 31.0466 34.9545 31.8442C34.9545 33.1268 34.9545 34.3937 34.9545 35.6762C34.9545 35.989 34.9858 36.2862 35.0172 36.599C35.0486 37.0526 35.3937 37.4279 35.8487 37.5061C36.0997 37.5687 36.3508 37.6156 36.6018 37.6313C36.79 37.6469 36.8214 37.7564 36.8214 37.9128C36.8214 38.0848 36.7587 38.163 36.5861 38.163C34.8917 38.163 33.1816 38.163 31.4873 38.163C31.3147 38.163 31.2676 38.0848 31.2676 37.9284C31.2676 37.7877 31.2676 37.6625 31.4716 37.6313C31.754 37.6 32.0364 37.5531 32.3188 37.4905C32.7267 37.4123 33.0248 37.0838 33.0875 36.6928C33.1346 36.4426 33.166 36.1923 33.1816 35.9264C33.1816 32.204 33.1816 28.4972 33.1816 24.7747C33.1816 24.759 33.1816 24.759 33.1816 24.7434C33.1346 24.1491 33.1503 23.5234 32.4443 23.2888C31.6598 22.9291 30.7342 23.0386 30.0596 23.586C29.84 23.7893 29.7144 24.0709 29.6988 24.368C29.6046 25.6975 29.5262 27.0426 29.4948 28.3877C29.4321 30.0299 29.4634 31.6878 29.3693 33.3301C29.3222 34.5501 28.93 35.7231 28.2083 36.6928C27.1572 38.1005 25.6825 38.5541 23.9881 38.4133C23.439 38.3664 22.9213 38.2412 22.4035 38.0379C20.9288 37.4436 20.2856 36.208 20.0345 34.7534C19.909 33.9714 19.8463 33.1737 19.8306 32.376C19.7992 30.0925 19.8306 27.7933 19.8149 25.5098C19.8149 25.0875 19.7835 24.6652 19.7521 24.2429C19.7365 23.7581 19.3756 23.3514 18.8893 23.2732C18.6539 23.2106 18.4029 23.1793 18.1676 23.1481C17.9323 23.1324 17.9009 23.0073 17.9009 22.804C17.9009 22.6006 18.0421 22.6006 18.1833 22.6006C19.8306 22.6006 21.4779 22.6006 23.1252 22.6006C23.2978 22.6006 23.4076 22.6163 23.4076 22.8353C23.4076 23.0229 23.3605 23.1324 23.1566 23.1481C22.9526 23.1637 22.7487 23.195 22.5604 23.2576C22.0427 23.3201 21.6348 23.7737 21.6505 24.2898C21.6191 24.6183 21.6034 24.9467 21.6034 25.2752C21.6034 27.6526 21.6034 30.0456 21.6191 32.4229C21.6034 33.4552 21.8074 34.4719 22.1996 35.4103C22.8742 36.9744 24.6941 37.7095 26.2629 37.0213C27.0003 36.7085 27.5965 36.1141 27.8946 35.3634C28.3495 34.3155 28.5849 33.1893 28.5849 32.0319C28.6947 29.592 28.6476 27.1521 28.475 24.7278C28.3809 23.6955 28.0044 23.3201 26.9689 23.1481C26.8748 23.1324 26.7807 23.1168 26.6865 23.1011C26.4512 23.1011 26.4041 22.976 26.4041 22.7727C26.4041 22.5381 26.561 22.5537 26.7179 22.5537H31.4088C33.1032 22.5537 34.8133 22.5381 36.5076 22.5694C37.1666 22.5694 37.8255 22.6476 38.4844 22.7727C39.9435 23.0073 41.0574 24.196 41.2142 25.6662C41.5594 27.2615 40.9632 28.9195 39.6768 29.9204C39.3473 30.1863 38.9708 30.3897 38.5785 30.6399C38.8609 31.203 39.1433 31.766 39.4414 32.3291C40.2729 34.0026 41.3084 35.5823 42.5164 37.0213C42.7204 37.3028 43.0498 37.4905 43.4107 37.5218C43.8343 37.5374 44.0696 37.4279 44.1167 37.0056C44.2265 36.1454 44.2892 35.3008 44.3206 34.4406C44.352 31.4532 44.3363 28.4815 44.3363 25.4942C44.3834 24.9311 44.2422 24.3837 43.9441 23.9145C43.5832 23.4452 43.0341 23.1481 42.438 23.1011C42.3281 23.0855 42.1713 23.0229 42.1399 22.9291C42.0457 22.6789 42.1556 22.5537 42.4223 22.5537C43.2695 22.5537 44.1167 22.5381 44.9638 22.5537C45.1207 22.5694 45.2462 22.6476 45.3404 22.7571C46.9249 25.2283 48.5095 27.7151 50.0783 30.202C50.9412 31.5627 51.8198 32.9391 52.6984 34.2998C52.7297 34.3467 52.7768 34.3937 52.8396 34.4875C52.8552 34.3467 52.8709 34.2685 52.8709 34.1903C52.8709 31.7348 52.8709 29.2792 52.8396 26.808C52.8239 26.0572 52.7768 25.2908 52.6827 24.5401C52.667 23.7893 52.0708 23.1793 51.3178 23.1324C51.1609 23.1011 51.004 23.0855 50.8471 23.0699C50.6431 23.0699 50.5804 22.976 50.5804 22.7727C50.5804 22.5537 50.7059 22.5381 50.8785 22.5381C52.3846 22.5381 53.8907 22.5381 55.3968 22.5381C55.5537 22.5381 55.6792 22.5381 55.6792 22.7414C55.6792 22.9135 55.6635 23.0542 55.4282 23.0699C55.2242 23.0855 55.0203 23.1324 54.832 23.195C54.3143 23.367 53.9534 23.8363 53.9378 24.368C53.8436 25.5254 53.7652 26.6828 53.7495 27.8402C53.7181 31.2343 53.7338 34.6283 53.7338 38.0223C53.7338 38.0848 53.7338 38.1474 53.7181 38.21C53.2004 38.382 53.0435 38.3195 52.7768 37.8972C50.3294 33.9401 47.8976 29.9987 45.4502 26.0416C45.4031 25.9634 45.3404 25.8852 45.2933 25.807L45.1678 25.8695ZM34.9702 27.0113C34.9702 28.0749 34.9702 29.1384 34.9702 30.202C34.9702 30.4366 35.0486 30.5148 35.2839 30.4992C35.6605 30.4679 36.037 30.4835 36.3978 30.4679C37.6843 30.4992 38.8296 29.6233 39.112 28.3564C39.2689 27.6995 39.3473 27.0113 39.3002 26.3387C39.159 24.2116 37.6059 22.9604 35.5506 23.2576C35.0486 23.3358 34.9545 23.414 34.9545 23.9301C34.9702 24.9624 34.9702 25.979 34.9702 27.0113Z" fill="#383B42"/>
<path id="Path_42" d="M42.6891 20.2078C42.595 20.2078 42.5165 20.2234 42.4224 20.2234C39.2533 20.2234 36.0999 20.2234 32.9307 20.2234C32.7111 20.2234 32.5542 20.1921 32.617 19.9419C32.6483 19.848 32.7111 19.7855 32.8052 19.7542C33.0249 19.6916 33.2602 19.676 33.4955 19.6291C33.9662 19.5665 34.3113 19.1755 34.3427 18.7219C34.3898 18.3778 34.4055 18.0181 34.4055 17.674C34.4055 14.4833 34.4055 11.3083 34.4055 8.11759C34.4055 7.71093 34.3741 7.30428 34.3427 6.91326C34.327 6.41276 33.9505 5.99047 33.4642 5.91226C33.2602 5.86534 33.0719 5.83406 32.868 5.80278C32.6483 5.78714 32.617 5.67765 32.617 5.48997C32.617 5.271 32.7739 5.30228 32.8994 5.30228C35.3782 5.30228 37.857 5.30228 40.3358 5.31792C40.4927 5.33356 40.6339 5.4274 40.728 5.55253C42.1871 7.83606 43.6304 10.1196 45.0895 12.4031C45.968 13.7795 46.8466 15.1559 47.7252 16.5166C47.7565 16.5792 47.8036 16.6261 47.8821 16.7356C47.8977 16.6574 47.9134 16.5948 47.9291 16.5166C47.9134 14.0141 47.9134 11.496 47.8821 8.97782C47.8821 8.4304 47.8036 7.86734 47.7722 7.31992C47.8036 6.63173 47.3016 6.02175 46.6113 5.91226C46.4073 5.8497 46.1877 5.81842 45.9837 5.80278C45.7955 5.78714 45.717 5.72458 45.717 5.53689C45.717 5.31792 45.8425 5.30228 46.0151 5.30228C50.5491 5.30228 55.0832 5.30228 59.6172 5.30228C59.6956 5.30228 59.7898 5.31792 59.8839 5.31792C59.8996 5.4274 59.9153 5.53689 59.9153 5.64637C59.978 6.5066 60.0408 7.36684 60.1035 8.22707C60.1192 8.41476 60.0878 8.5086 59.8839 8.52424C59.7113 8.53988 59.5387 8.60245 59.476 8.33656C59.3505 7.91426 59.2093 7.49196 59.021 7.08531C58.7543 6.47532 58.1581 6.08431 57.4992 6.08431C56.5579 6.02175 55.6166 6.02175 54.6752 6.02175C54.2987 6.02175 54.2046 6.11559 54.2046 6.5066C54.2046 8.25835 54.2046 10.0257 54.1889 11.7775C54.1889 11.9965 54.2516 12.0903 54.487 12.0747C55.3342 12.059 56.197 12.059 57.0442 12.0277C57.6718 12.0903 58.2366 11.6367 58.2993 11.0111C58.2993 10.9955 58.2993 10.9798 58.2993 10.9642C58.3307 10.8547 58.3621 10.7608 58.3778 10.6514C58.4091 10.3542 58.6288 10.4324 58.8171 10.4324C59.0367 10.4324 59.0053 10.5888 59.0053 10.7296C59.0053 11.9183 59.0053 13.1069 59.0053 14.3113C59.0053 14.452 59.0367 14.6084 58.8171 14.6084C58.6288 14.6084 58.4562 14.6554 58.3778 14.3738C58.0797 13.0913 57.86 12.9349 56.5422 12.888C55.8676 12.8723 55.1773 12.888 54.487 12.8723C54.2673 12.8723 54.1889 12.9505 54.1889 13.1695C54.2046 14.7023 54.1889 16.2351 54.2046 17.7678C54.2046 18.0181 54.236 18.2527 54.283 18.5029C54.2987 19.0504 54.738 19.4883 55.2871 19.5039C56.2755 19.6291 57.2796 19.6134 58.2523 19.4414C59.2877 19.2537 59.7898 18.5029 60.182 17.6584C60.3232 17.3143 60.433 16.9545 60.4957 16.5948C60.5585 16.3289 60.7468 16.3289 60.935 16.3133C61.0135 16.3133 61.1233 16.454 61.1547 16.5479C61.4214 17.4863 61.9234 18.3465 62.5823 19.0504C63.508 19.9888 64.967 20.1296 66.0495 19.3945C66.4731 19.066 66.7712 18.5968 66.8967 18.0806C67.3674 16.282 66.7085 14.7805 65.0611 13.7482C64.1826 13.2321 63.3511 12.669 62.551 12.0434C60.8566 10.6983 60.5742 8.24271 61.9234 6.55353C62.0019 6.45968 62.096 6.3502 62.1744 6.272C62.802 5.63073 63.6178 5.22408 64.512 5.11459C65.5318 4.97383 66.5829 5.09895 67.54 5.45869C67.6341 5.50561 67.6968 5.58381 67.7282 5.67765C67.8537 6.56917 67.9792 7.44504 68.0891 8.33656C68.1361 8.72757 67.7753 8.52424 67.6341 8.64937C67.3674 8.05502 67.1634 7.46068 66.8653 6.9289C66.4888 6.17815 65.6887 5.70893 64.8415 5.74022C64.0571 5.70893 63.3354 6.14687 62.9902 6.8507C62.4411 7.91426 62.5666 9.21243 63.3354 10.1509C63.9159 10.7765 64.5905 11.277 65.3435 11.6836C66.2378 12.1685 67.0379 12.7941 67.7282 13.5449C69.454 15.5156 68.9676 19.6916 65.2337 20.4737C63.8688 20.7083 62.4568 20.5049 61.2017 19.895C61.1233 19.8324 61.0605 19.7542 61.0448 19.6447C60.9664 19.3006 60.9036 18.9565 60.8252 18.5499C60.7938 18.6281 60.7468 18.7219 60.7311 18.8158C60.6369 19.2381 60.5428 19.6447 60.4644 20.067C60.4487 20.2078 60.3389 20.3173 60.182 20.3173C60.1663 20.3173 60.1663 20.3173 60.1506 20.3173C56.9501 20.3173 53.7339 20.3016 50.5334 20.3173C50.4707 20.3173 50.3922 20.3016 50.3295 20.286C50.251 19.8637 50.251 19.8637 50.6433 19.8011C50.91 19.7542 51.1924 19.7073 51.4591 19.6603C51.9611 19.5821 52.3376 19.1598 52.369 18.6437C52.4004 18.4091 52.4161 18.1745 52.4161 17.9399C52.4161 14.5146 52.4161 11.0893 52.4161 7.64837C52.4161 7.30428 52.369 6.94454 52.2592 6.61609C52.1807 6.41276 52.0395 6.24071 51.8356 6.13123C51.2708 5.8497 50.6119 5.7715 50 5.9279C49.3254 6.05303 48.8391 6.66301 48.8861 7.3512C48.8234 8.57116 48.7449 9.79113 48.7292 11.0267C48.7136 14.0454 48.7292 17.0796 48.7135 20.0983C48.7135 20.2234 48.6351 20.458 48.6037 20.458C48.3841 20.4737 48.1174 20.5831 47.9448 20.3016C47.4428 19.4883 46.9407 18.675 46.4387 17.846C44.8228 15.2341 43.1911 12.6064 41.5752 9.99446C41.3242 9.57216 41.0575 9.16551 40.8065 8.74321C40.7594 8.66501 40.6966 8.60245 40.6025 8.46168C40.5868 8.61809 40.5711 8.69629 40.5711 8.77449C40.5868 11.3865 40.5868 13.9828 40.6182 16.5948C40.6182 17.1579 40.6966 17.7209 40.7437 18.284C40.728 19.0034 41.2614 19.6134 41.9831 19.7073C42.1243 19.7386 42.2498 19.7698 42.391 19.7855C42.7832 19.7855 42.7832 19.7855 42.6891 20.2078ZM36.0999 12.7472C36.0999 14.5302 36.0842 16.2976 36.1155 18.0806C36.1312 19.3163 36.3666 19.6603 37.8413 19.7386C38.6728 19.8793 39.4415 19.3163 39.5827 18.5029C39.5984 18.3935 39.6141 18.2996 39.5984 18.1901C39.6769 17.1422 39.7396 16.0943 39.7553 15.0307C39.771 12.8254 39.771 10.6201 39.7553 8.41476C39.771 8.07067 39.7396 7.71093 39.6926 7.36684C39.4572 6.11559 38.108 5.45868 36.8058 5.95918C36.4764 6.06867 36.2411 6.33456 36.194 6.67865C36.1469 7.0071 36.1155 7.3512 36.0999 7.69529C36.0999 9.38448 36.0999 11.0737 36.0999 12.7472Z" fill="#383B42"/>
<path id="Path_43" d="M9.20942 9.14968C9.77422 9.35301 10.3233 9.50942 10.8097 9.74403C12.7708 10.6981 13.665 12.3091 13.6493 14.4518C13.6179 17.3297 11.7039 19.1597 9.35062 19.8322C8.36224 20.0981 7.35816 20.2232 6.3384 20.2232C4.58127 20.2389 2.80845 20.2232 1.05131 20.2232C0.878739 20.2232 0.706164 20.2545 0.706164 19.9886C0.706164 19.754 0.690475 19.5507 1.03563 19.535C1.36509 19.5038 1.69455 19.4412 2.00832 19.363C2.46329 19.2691 2.80845 18.9094 2.88689 18.4402C2.96533 18.0179 3.02809 17.5956 3.02809 17.1733C3.04378 12.4968 3.04378 7.80459 3.02809 3.12805C3.02809 2.86216 2.99671 2.59627 2.94964 2.33038C2.91827 1.65784 2.38485 1.12606 1.71024 1.06349C1.58473 1.03221 1.45922 1.01657 1.33371 1.00093C0.815984 0.907087 0.815984 0.907087 0.86305 0.344025C0.910116 0.328385 0.957182 0.312744 1.01994 0.312744C3.43599 0.312744 5.85205 0.312744 8.25241 0.344025C9.08391 0.344025 9.88404 0.547353 10.6057 0.938368C11.7353 1.53271 12.4727 2.67447 12.5511 3.94136C12.8335 6.31873 11.7196 8.1174 9.46044 9.00892C9.382 9.0402 9.31924 9.08712 9.20942 9.14968ZM5.5069 13.748C5.5069 14.0921 5.5069 14.4518 5.5069 14.7959C5.5069 15.6562 5.49121 16.5164 5.53827 17.3766C5.60103 18.8938 6.11876 19.3786 7.59349 19.3161C9.33493 19.3474 10.8567 18.1587 11.2333 16.4695C11.5157 15.4528 11.5627 14.3736 11.3588 13.3414C11.1234 11.7773 9.99386 10.4948 8.45637 10.0881C7.60918 9.86915 6.73061 9.79095 5.85205 9.82223C5.58534 9.82223 5.5069 9.90043 5.5069 10.1663C5.52259 11.3706 5.5069 12.5593 5.5069 13.748ZM10.6528 5.19261C10.6057 4.69211 10.59 4.31674 10.5116 3.94136C10.3861 2.86216 9.69577 1.92373 8.6917 1.48579C7.90726 1.17298 7.04439 1.07913 6.1972 1.2199C5.67947 1.28246 5.52259 1.48579 5.49121 2.00193C5.49121 2.11141 5.47552 2.23654 5.47552 2.34602C5.47552 4.39494 5.47552 6.44386 5.47552 8.50842C5.49121 8.58662 5.49121 8.66482 5.52259 8.75867C5.56965 8.83687 5.6481 8.962 5.72654 8.97764C6.71492 9.07148 7.719 8.962 8.66032 8.63354C9.53889 8.30509 10.1978 7.55434 10.4175 6.64719C10.543 6.13105 10.59 5.59927 10.6528 5.19261Z" fill="#383B42"/>
<path id="Path_44" d="M66.41 23.0386V22.5694C66.5355 22.5694 66.6453 22.5537 66.7709 22.5537C68.4025 22.5537 70.0498 22.5537 71.6814 22.5537C71.8383 22.5537 72.0109 22.5068 72.0266 22.7571C72.0423 22.9917 71.9324 23.0855 71.7128 23.0855C71.6971 23.0855 71.6971 23.0855 71.6814 23.0855C70.3636 23.2576 70.0969 23.5547 70.0969 24.8842C70.0812 28.419 70.0812 31.9537 70.0969 35.4885C70.1125 35.8013 70.1439 36.1298 70.191 36.4426C70.2381 36.8493 70.5361 37.1777 70.944 37.2559C71.9638 37.5062 73.0306 37.4905 74.0504 37.209C74.5054 37.0839 74.8819 36.7867 75.0859 36.3644C75.3526 35.8483 75.6036 35.3165 75.8232 34.7691C76.0115 34.2998 75.9958 34.2842 76.5449 34.4875C76.4508 35.0193 76.3723 35.5667 76.2625 36.0985C76.1527 36.6616 76.0115 37.2246 75.9174 37.7877C75.8703 38.0692 75.7291 38.1318 75.4624 38.1318C72.7953 38.1161 70.1439 38.1318 67.4768 38.1318C65.7825 38.1318 64.1038 38.1318 62.4094 38.1318C62.2682 38.1318 62.0486 38.2256 62.0172 37.9441C61.9858 37.6939 62.1113 37.6313 62.331 37.5844C63.4135 37.3967 63.5547 37.1621 63.2566 36.1141C62.9271 34.9411 62.5663 33.7837 62.2055 32.6263C62.1584 32.5168 62.0486 32.4386 61.9231 32.4073C60.715 32.3917 59.507 32.3917 58.299 32.4073C58.1892 32.423 58.0793 32.4855 58.0166 32.5794C57.6871 33.815 57.342 35.0662 57.0596 36.3175C56.9027 37.0526 57.138 37.3498 57.8911 37.5218C58.0009 37.5531 58.1264 37.5687 58.2362 37.5844C58.6441 37.6469 58.6441 37.6469 58.55 38.1005C58.4716 38.1005 58.3774 38.1161 58.2833 38.1161C56.9968 38.1161 55.6947 38.1161 54.4082 38.1161C54.267 38.1161 54.0787 38.1943 54.0473 37.9285C54.0317 37.7095 54.1101 37.6 54.3297 37.5844C54.973 37.5218 55.5221 37.0839 55.726 36.4739C56.1653 35.2539 56.6046 34.0339 56.9968 32.7983C58.095 29.4513 59.1775 26.1042 60.2601 22.7571C60.3699 22.4286 60.6209 22.413 60.8876 22.2722C60.9974 22.6163 61.1072 22.9291 61.2014 23.2419C62.4251 27.2772 63.6488 31.3125 64.8725 35.3321C65.0294 35.8326 65.2334 36.3331 65.4844 36.8023C65.908 37.5531 66.8493 37.819 67.6024 37.3967C67.6808 37.3498 67.7436 37.3028 67.8063 37.2559C67.9946 37.0995 68.1201 36.8805 68.1671 36.6459C68.2456 36.2236 68.277 35.8013 68.2613 35.379C68.277 32.0007 68.277 28.6067 68.2613 25.2283C68.2613 24.8686 68.2299 24.5088 68.1828 24.1491C68.1515 23.6955 67.8063 23.3201 67.367 23.2419C67.1003 23.1481 66.7552 23.1168 66.41 23.0386ZM61.876 31.5002L60.1973 25.6506H60.1032L58.346 31.5002H61.876Z" fill="#383B42"/>
<path id="Path_45" d="M18.5441 30.2176C18.5911 32.0163 18.1832 33.8149 17.3517 35.4259C16.6771 36.8023 15.4534 37.8346 13.963 38.2569C11.845 38.8512 9.57014 37.9753 8.42486 36.0828C6.98151 33.9401 6.66773 31.5314 6.95013 29.0289C7.09133 27.5587 7.56199 26.1354 8.34642 24.8842C9.53876 23.0542 11.1861 22.0845 13.4139 22.3035C14.7474 22.4599 15.9397 23.1637 16.7085 24.2585C17.9322 25.9008 18.5754 27.9184 18.5284 29.9674C18.5441 30.0456 18.5441 30.1394 18.5441 30.2176ZM8.98966 30.0143C8.97397 31.3281 9.13085 32.6263 9.42894 33.8931C9.66427 35.0349 10.2134 36.0985 11.0292 36.9274C12.1431 37.9441 13.8688 37.9284 14.9514 36.8805C15.5632 36.208 15.9554 35.379 16.1123 34.5031C16.6457 31.8911 16.5987 29.1853 16.0025 26.589C15.8142 25.6036 15.3593 24.6808 14.669 23.9301C13.5707 22.757 11.7509 22.6945 10.5742 23.7893C10.5428 23.8206 10.5115 23.8362 10.4958 23.8675C10.0565 24.3837 9.72702 24.978 9.53876 25.6193C9.13086 27.0582 8.94259 28.5284 8.98966 30.0143Z" fill="#383B42"/>
<path id="Path_46" d="M21.2265 5.30226H26.0273V5.7402C25.8861 5.77148 25.7292 5.80276 25.5723 5.83404C24.8349 5.88096 24.2701 6.53787 24.3172 7.27298V7.28862C24.2544 8.55551 24.2074 9.82239 24.176 11.0893C24.1446 12.3718 24.176 13.67 24.1132 14.9525C24.0976 16.2194 23.7524 17.4706 23.1092 18.5655C22.4189 19.6916 21.2265 20.3954 19.9087 20.4736C18.7007 20.6457 17.4613 20.3329 16.4886 19.5821C15.7198 18.9252 15.2335 17.9868 15.108 16.9858C14.9824 16.2507 14.904 15.4843 14.904 14.7179C14.8726 12.3718 14.8883 10.0414 14.8883 7.69527C14.8883 7.41374 14.8569 7.11657 14.8256 6.83504C14.7942 6.38146 14.449 6.00609 13.9941 5.94353C13.7587 5.88096 13.5077 5.83404 13.2724 5.80276C13.0684 5.78712 13.0527 5.662 13.0527 5.48995C13.0527 5.30226 13.1626 5.28662 13.3038 5.28662C14.904 5.28662 16.4886 5.28662 18.0888 5.30226C18.1986 5.3179 18.2928 5.38046 18.3398 5.48995C18.3869 5.662 18.3241 5.77148 18.1045 5.80276C17.8221 5.84968 17.5397 5.91225 17.273 6.00609C16.9906 6.08429 16.7709 6.3189 16.7239 6.61607C16.6611 6.94452 16.6141 7.27298 16.6141 7.60143C16.6141 9.94752 16.5984 12.278 16.6298 14.6241C16.6141 15.7502 16.8494 16.8763 17.3201 17.9086C18.2457 19.8011 21.2736 19.8949 22.3561 18.1276C22.8895 17.236 23.1876 16.235 23.2504 15.1871C23.4386 12.5595 23.4229 9.93188 23.2033 7.30426C23.2504 6.55351 22.6699 5.91224 21.9168 5.88096C21.807 5.84968 21.6815 5.83404 21.5717 5.8184C21.1952 5.8184 21.1324 5.64636 21.2265 5.30226Z" fill="#383B42"/>
<path id="Path_47" d="M28.5689 20.4891C27.5648 20.4891 26.5608 20.2702 25.6508 19.8322C25.5567 19.7853 25.4782 19.6915 25.4469 19.582C25.2743 18.581 25.1331 17.5644 24.9605 16.5634C24.9135 16.3131 25.086 16.3287 25.2429 16.2818C25.4469 16.2193 25.5096 16.3287 25.5567 16.4852C25.8077 17.4079 26.2784 18.2525 26.9216 18.9407C27.5491 19.6133 28.4591 19.9261 29.369 19.801C30.4516 19.6446 31.2831 18.7687 31.3772 17.6895C31.6596 16.0003 31.0163 14.6865 29.4161 13.6855C28.6787 13.2319 27.9414 12.7783 27.2511 12.2622C25.9332 11.2456 25.2429 9.93174 25.541 8.22692C25.8705 6.39697 27.455 5.03623 29.322 5.00495C30.2005 4.95803 31.0791 5.0988 31.9106 5.39597C32.0204 5.44289 32.1146 5.55237 32.1302 5.6775C32.2558 6.52209 32.3499 7.38232 32.4754 8.24256C32.5068 8.47717 32.3813 8.50845 32.2087 8.53973C32.0361 8.57101 31.942 8.57101 31.8792 8.38332C31.691 7.8359 31.4713 7.31976 31.2046 6.80362C30.7496 5.99031 29.8397 5.56802 28.9298 5.70878C28.0355 5.83391 27.3138 6.52209 27.1569 7.41361C26.8118 8.82126 27.3138 10.0256 28.663 10.9327C29.3377 11.3863 30.0593 11.8086 30.7339 12.2622C31.6125 12.7783 32.3028 13.5604 32.7264 14.4988C33.7619 17.1421 32.2871 20.2545 28.9611 20.4891C28.8513 20.5048 28.7101 20.4891 28.5689 20.4891Z" fill="#383B42"/>
<g id="Group_23">
<path id="Path_48" d="M13.6788 2.29916C13.616 1.09483 14.5417 0.0781903 15.734 -1.26529e-05C16.9263 -0.0782156 17.9618 0.84458 18.0402 2.04891C18.103 3.25323 17.1931 4.26987 15.985 4.34807C15.938 4.34807 15.9066 4.34807 15.8595 4.34807C14.7299 4.41064 13.7415 3.5504 13.6788 2.40864C13.6788 2.37736 13.6788 2.33044 13.6788 2.29916ZM17.1146 2.29916C17.0989 1.61097 16.5341 1.06355 15.8438 1.07919C15.1535 1.09483 14.6044 1.67353 14.6201 2.34608C14.6358 3.01862 15.1849 3.56604 15.8595 3.56604C16.5341 3.58168 17.0832 3.0499 17.1146 2.393C17.1146 2.36172 17.1146 2.33044 17.1146 2.29916Z" fill="#383B42"/>
<path id="Path_49" d="M26.7005 1.06349H25.4297V0.312744H28.8969V1.06349H27.6261V4.28546H26.7005V1.06349Z" fill="#383B42"/>
<path id="Path_50" d="M37.4783 1.06349H36.2075V0.312744H39.6747V1.06349H38.4039V4.28546H37.4783V1.06349Z" fill="#383B42"/>
<path id="Path_51" d="M49.7784 3.42522H47.9271L47.5819 4.26982H46.6406L48.4134 0.312744H49.3234L51.1119 4.28546H50.1392L49.7784 3.42522ZM49.496 2.73704L48.8684 1.2199L48.2409 2.73704H49.496Z" fill="#383B42"/>
<path id="Path_52" d="M64.5102 0.312744L63.208 4.28546H62.2196L61.3567 1.59527L60.4468 4.28546H59.4584L58.1562 0.312744H59.1133L60.0075 3.09677L60.9488 0.312744H61.796L62.706 3.12805L63.6316 0.312744H64.5102Z" fill="#383B42"/>
<path id="Path_53" d="M74.7232 3.42522H72.8719L72.5268 4.26982H71.5854L73.3426 0.312744H74.2525L76.041 4.28546H75.0683L74.7232 3.42522ZM74.4251 2.73704L73.7975 1.2199L73.17 2.73704H74.4251Z" fill="#383B42"/>
</g>
</g>
<defs>
<clipPath id="clip0_48_58">
<rect width="77" height="47" fill="white"/>
</clipPath>
</defs>
</svg>
