<svg width="97" height="46" viewBox="0 0 97 46" fill="none" xmlns="http://www.w3.org/2000/svg">
<g id="cnn-logo.original 1" clip-path="url(#clip0_48_81)">
<path id="cnn-logo-2" d="M96.8707 39.042C96.7415 40.0728 96.4832 41.1036 95.9666 42.0056C95.3208 43.423 94.1583 44.4538 92.8667 45.2269C91.7043 45.8711 90.4127 46.1288 89.2502 46C87.9586 46 86.667 45.7423 85.5045 45.2269C83.8254 44.4538 82.2755 43.1653 81.2422 41.619C80.8547 41.1036 78.5298 37.2381 75.9466 32.986L71.2968 25.2549V32.3417C71.2968 39.1709 71.2968 39.4286 71.0385 40.2017C70.651 41.619 70.0052 42.7787 68.9719 43.8095C67.6803 45.2269 65.872 46 64.0638 46C60.9639 46.1288 57.8641 44.7115 56.0558 42.1345L45.7229 25.2549V31.8263C45.7229 38.7843 45.7229 38.7843 45.0771 40.4594C44.6896 41.4902 44.0438 42.3922 43.2688 43.1653C42.7522 43.6807 42.1064 44.1961 41.4606 44.4538C40.8148 44.7115 40.169 44.9692 39.5232 45.2269C38.619 45.4846 38.619 45.4846 30.2236 45.4846C21.3115 45.4846 21.0531 45.4846 18.2116 44.9692C10.4619 43.6807 4.26219 38.3978 1.54981 31.3109C0.904001 29.6359 0.516517 27.9608 0.258195 26.2857C-0.000127427 24.0952 -0.000127427 21.7759 0.258195 19.5854C0.774839 14.9468 2.84142 10.6947 6.07044 7.34454C7.62038 5.41176 9.68696 3.86555 12.0119 2.83473C13.4326 2.06162 14.9826 1.54622 16.5325 1.15966C19.2449 0.515406 20.7948 0.386555 26.2196 0.257703H30.7402V6.05602H25.9613C20.149 6.05602 19.1157 6.18487 16.6617 6.95798C13.1743 8.11765 10.3328 10.437 8.39534 13.5294C6.97457 15.7199 6.19961 18.2969 5.81212 20.8739C5.68296 22.8067 5.68296 24.7395 6.07044 26.6723C6.84541 30.5378 9.04115 34.1457 12.141 36.465C14.7242 38.2689 17.6949 39.4286 20.7948 39.6863C22.2156 39.8151 36.94 39.8151 37.5858 39.6863C38.2316 39.4286 38.7482 39.042 39.1357 38.5266C39.7815 37.6246 39.7815 38.2689 39.7815 22.6779C39.7815 12.4986 39.7815 8.5042 39.9107 8.2465C40.169 7.73109 40.8148 7.47339 41.3314 7.73109C41.4606 7.73109 41.5898 7.85994 41.5898 7.98879C41.7189 8.11765 43.0105 10.0504 44.3021 12.2409C45.5937 14.4314 49.2103 20.1008 52.181 24.7395C55.1517 29.3782 58.3807 34.5322 59.2848 35.9496C59.9306 36.9804 60.5764 38.0112 61.3514 39.042C62.2555 39.944 63.8055 39.944 64.7096 39.042C64.8388 38.9132 64.9679 38.6555 65.0971 38.5266L65.3554 38.0112V23.3221C65.3554 7.60224 65.3554 8.2465 65.872 7.85994C66.2595 7.60224 66.647 7.60224 67.0345 7.85994C67.422 8.2465 67.8095 8.7619 68.0678 9.27731C74.5258 19.07 80.2089 29.2493 86.7961 38.9132C87.1836 39.2997 87.8294 39.6863 88.4752 39.6863C89.2502 39.8151 90.0252 39.5574 90.4127 38.9132C91.3168 38.0112 91.1876 39.6863 91.1876 18.6835L91.0585 0.128852H96.8707C96.7415 13.014 97.129 26.028 96.8707 39.042ZM89.6377 37.4958C89.5085 37.8824 89.121 38.1401 88.7336 38.2689C88.2169 38.2689 87.9586 37.8824 84.2129 32.084C79.3048 24.3529 71.8135 12.4986 70.1344 9.66387C69.3594 8.37535 68.5844 7.21569 68.3261 7.08683C67.9386 6.44258 67.1637 6.05602 66.5179 6.18487C65.4846 6.18487 64.5804 6.82913 64.1929 7.73109C64.0638 8.11765 63.9346 8.89076 64.0638 22.8067C64.0638 37.1092 64.0638 37.4958 63.9346 37.7535C63.8055 38.1401 63.2888 38.3978 62.7722 38.1401C62.643 38.0112 62.5139 38.0112 62.3847 37.8824C62.2555 37.7535 61.6097 36.7227 60.9639 35.6919C57.8641 30.6667 47.402 14.0448 45.4646 10.9524C44.3021 9.01961 43.1397 7.21569 42.8814 6.95798C42.3647 6.31373 41.5898 6.05602 40.8148 6.18487C40.0398 6.18487 39.2649 6.70028 38.8774 7.34454L38.619 7.85994V22.4202C38.619 36.8515 38.619 36.9804 38.3607 37.3669C38.2316 37.6246 37.9732 37.7535 37.8441 38.0112L37.4566 38.2689H29.8361C20.7948 38.2689 20.0198 38.2689 17.1783 37.2381C12.2702 35.563 8.78283 31.3109 7.74954 26.2857C7.49122 25.2549 7.49122 24.0952 7.49122 23.0644C7.36206 21.9048 7.49122 20.8739 7.74954 19.8431C8.26618 16.8796 9.68696 14.1737 11.7535 11.9832C13.8201 9.92157 16.5325 8.5042 19.374 7.85994C20.4073 7.60224 20.7948 7.60224 25.7029 7.60224H30.9985V13.2717L26.2196 13.4006C21.1823 13.5294 20.924 13.5294 19.5032 14.0448C14.7242 15.8487 12.141 20.8739 13.3035 25.6415C13.691 26.8011 14.2076 27.9608 14.9826 28.9916C16.92 31.1821 19.6324 32.5994 22.4739 32.7283C23.1197 32.7283 25.3155 32.8571 27.382 32.8571C31.5152 32.8571 31.6443 32.8571 32.161 32.2129L32.4193 31.9552V19.7143C32.4193 5.79832 32.4193 6.82913 33.3234 4.76751C35.1317 1.03081 39.394 -0.644258 43.2688 0.773109C45.2063 1.54622 47.0145 2.96359 48.177 4.63866L58.1224 21.3894V14.3025C58.1224 7.47339 58.1224 7.21569 58.3807 6.44258C59.414 2.19048 63.6763 -0.515406 68.0678 0.386555C68.1969 0.386555 68.3261 0.386555 68.3261 0.515406C69.3594 0.901961 70.3927 1.41737 71.426 2.06162C72.3301 2.57703 73.2342 3.60784 74.0092 4.63866C74.3967 5.28291 80.4672 15.3333 83.5671 20.6162L83.9546 21.1317V10.5658V0H89.7668C89.3794 12.4986 90.0252 24.9972 89.6377 37.4958Z" fill="#383B42"/>
</g>
<defs>
<clipPath id="clip0_48_81">
<rect width="97" height="46" fill="white"/>
</clipPath>
</defs>
</svg>
