 <svg width="133" height="63" viewBox="0 0 133 63" fill="none" xmlns="http://www.w3.org/2000/svg">
<g id="daily-mail-logo.original 1" clip-path="url(#clip0_48_77)">
<path id="Vector" d="M57.2022 23.8236L57.3793 24.0001C58.619 24.706 59.6816 25.4118 60.9213 26.1177C61.0984 26.2942 61.2755 26.4707 61.2755 26.6471C61.2755 30.0001 61.2755 33.353 61.2755 36.706C61.2755 37.4118 61.6297 38.1177 62.3381 38.4707L62.5152 38.6471C62.6923 38.8236 62.6923 39.0001 62.5152 39.1765C61.6297 39.8824 60.7442 40.4118 59.8587 41.1177H59.6816C58.4419 40.7648 57.3793 39.706 57.0252 38.4707C57.0252 38.2942 57.0252 38.1177 57.0252 37.9412C57.0252 34.7648 57.0252 31.5883 57.0252 28.4118C57.0252 28.0589 56.848 27.8824 56.671 27.706C56.1397 27.5295 55.6084 27.1765 54.9 26.8236C54.9 26.8236 54.9 26.8236 54.7229 26.8236V31.2354H56.671C56.3168 31.5883 56.1397 31.9412 55.9626 32.2942C55.6084 32.8236 55.0771 33.5295 54.7229 34.0589C54.7229 34.2354 54.5458 34.2354 54.5458 34.4118C54.5458 35.4707 54.5458 36.5295 54.5458 37.5883C54.5458 37.7648 54.5458 37.9412 54.7229 37.9412C55.0771 38.1177 55.4313 38.4707 55.7855 38.6471C56.1397 38.8236 55.9626 38.8236 55.7855 39.0001C54.9 39.5295 54.0145 40.0589 53.129 40.5883C52.9519 40.7648 52.5977 40.7648 52.2435 40.5883C51.0038 39.8824 49.5871 39.1765 48.3474 38.4707C48.3474 38.4707 48.1703 38.4707 48.1703 38.2942C47.9932 38.1177 47.9932 37.9412 48.1703 37.7648C48.3474 37.5883 48.5245 37.5883 48.7016 37.4118C48.8787 37.2354 49.0558 37.0589 49.0558 36.706C49.0558 35.8236 49.0558 34.9412 49.0558 33.8824H46.9306C46.9306 34.5883 46.9306 35.4707 46.9306 36.1765C46.9306 36.706 46.9306 37.2354 46.9306 37.7648C46.9306 37.9412 46.9306 38.1177 47.1077 38.1177C47.2848 38.1177 47.4619 38.2942 47.639 38.4707C47.8161 38.6471 47.8161 38.8236 47.639 39.0001C46.7535 39.5295 45.6909 40.0589 44.8054 40.5883H44.6283C43.3887 39.8824 42.149 39.353 40.7322 38.6471C40.378 38.4707 40.378 38.2942 40.7322 38.1177C41.0864 37.9412 41.4406 37.7648 41.6177 37.5883L41.7948 37.4118C41.7948 34.4118 41.7948 31.5883 41.7948 28.5883C41.7948 28.4118 41.7948 28.4118 41.6177 28.4118C40.9093 27.8824 40.378 27.5295 39.6696 27.0001C39.4925 26.8236 39.3154 26.8236 39.3154 26.6471C39.1383 26.4707 39.1383 26.4707 39.3154 26.2942C40.378 25.5883 41.4406 25.0589 42.5032 24.353C42.6803 24.353 42.6803 24.353 42.8574 24.353C43.7429 24.8824 44.6283 25.4118 45.6909 25.9412H45.868C47.1077 25.2354 48.3474 24.5295 49.7642 23.8236C49.9413 23.6471 50.1184 23.6471 50.2955 23.8236C51.358 24.353 52.2435 24.8824 53.3061 25.4118C53.4832 25.4118 53.6603 25.4118 53.6603 25.4118C54.7229 24.706 55.7855 24.0001 57.0252 23.2942L57.2022 23.8236ZM47.1077 27.0001V33.8824C47.639 33.1765 47.9932 32.4707 48.5245 31.7648C48.7016 31.5883 48.8787 31.2354 49.2329 31.2354C49.2329 30.1765 49.2329 29.2942 49.2329 28.2354C49.2329 28.0589 49.2329 28.0589 49.0558 27.8824C49.0558 27.8824 48.8787 27.8824 48.7016 27.706C48.1703 27.706 47.639 27.353 47.1077 27.0001ZM46.7535 27.0001C46.2222 27.0001 46.2222 27.1765 46.2222 27.5295C46.2222 29.2942 46.2222 30.8824 46.2222 32.6471C46.2222 32.8236 46.2222 33.0001 46.2222 33.1765C46.2222 34.7648 46.2222 36.353 46.2222 37.9412V38.1177C46.3993 38.2942 46.5764 38.2942 46.7535 38.2942V27.0001ZM53.8374 31.2354H54.3687V26.6471C54.0145 26.4707 53.8374 26.6471 53.8374 27.0001C53.8374 28.0589 53.8374 28.9412 53.8374 30.0001C53.8374 30.5295 53.8374 30.8824 53.8374 31.2354ZM54.3687 37.7648V34.5883H53.8374C53.8374 35.6471 53.8374 36.5295 53.8374 37.4118C53.8374 37.4118 53.8374 37.5883 54.0145 37.5883C54.1916 37.7648 54.1916 37.7648 54.3687 37.7648ZM133 40.2354H131.76V39.8824C131.76 37.4118 131.76 34.7648 131.76 32.2942C131.76 31.2354 131.052 30.1765 129.989 30.1765C128.395 29.8236 126.624 30.706 125.916 32.1177C125.916 32.2942 125.739 32.4707 125.739 32.6471C125.739 35.1177 125.739 37.4118 125.739 39.8824V40.2354H124.499V39.8824C124.499 37.4118 124.499 34.7648 124.499 32.2942C124.499 30.8824 123.968 30.1765 122.551 30.0001C120.957 29.8236 119.363 30.5295 118.478 31.9412C118.301 32.1177 118.301 32.2942 118.301 32.4707C118.301 34.9412 118.301 37.2354 118.301 39.706V40.0589H117.238V29.2942H118.301V31.0589H118.478C118.478 31.0589 118.478 31.0589 118.478 30.8824C119.54 29.1177 121.843 28.4118 123.791 28.9412C124.676 29.1177 125.385 30.0001 125.562 30.8824V31.0589C125.916 30.706 126.093 30.353 126.447 30.0001C127.687 28.7648 129.635 28.4118 131.229 28.9412C132.114 29.2942 132.823 30.0001 133 31.0589V31.2354V40.2354ZM-0.000148892 25.9412C1.59373 25.9412 3.1876 25.9412 4.78148 25.9412C7.43793 26.1177 9.20891 27.5295 9.7402 30.1765C10.0944 31.5883 10.0944 33.0001 9.91729 34.4118C9.91729 35.4707 9.5631 36.5295 9.20891 37.5883C8.50052 39.0001 7.26084 39.8824 5.66696 40.0589C5.13567 40.0589 4.78148 40.2354 4.25018 40.2354C2.83341 40.2354 1.41663 40.2354 -0.177246 40.2354L-0.000148892 25.9412ZM1.23953 39.1765C2.47921 39.1765 3.54179 39.1765 4.60438 39.1765C6.55245 39.1765 7.79213 38.2942 8.32342 36.353C8.67761 35.6471 8.85471 34.7648 8.85471 34.0589C9.03181 32.8236 8.85471 31.5883 8.50052 30.353C7.96922 28.0589 6.37535 27.0001 4.25018 26.8236C3.3647 26.8236 2.30211 26.8236 1.41663 26.8236H1.23953V39.1765ZM30.6377 43.4118C30.8148 43.0589 30.9919 42.5295 31.169 42.1765C31.5232 41.6471 31.7003 40.9412 32.0544 40.4118C32.0544 40.2354 32.0544 40.0589 32.0544 39.8824C30.6377 36.5295 29.0438 33.0001 27.627 29.6471C27.627 29.6471 27.627 29.4707 27.4499 29.2942C27.8041 29.2942 28.1583 29.2942 28.5125 29.2942L28.6896 29.4707C29.2209 30.8824 29.9293 32.1177 30.4606 33.5295C31.169 35.1177 31.8773 36.8824 32.5857 38.4707C32.5857 38.4707 32.5857 38.6471 32.7628 38.6471L33.4712 37.0589C34.5338 34.5883 35.5964 31.9412 36.8361 29.4707C36.8361 29.2942 37.0132 29.2942 37.0132 29.2942C37.3674 29.2942 37.5445 29.2942 37.8987 29.2942C37.8987 29.4707 37.8987 29.4707 37.7216 29.4707C35.7735 34.0589 33.6483 38.6471 31.7003 43.0589C31.7003 43.0589 31.7003 43.0589 31.7003 43.2354L30.6377 43.4118ZM63.0464 37.0589C63.0464 36.0001 63.2235 35.1177 63.4006 34.2354C63.7548 33.5295 64.109 33.0001 64.6403 32.4707C65.7029 31.4118 66.9426 30.5295 68.3594 29.8236C69.2449 29.2942 70.1303 28.9412 71.0158 28.5883C71.1929 28.5883 71.1929 28.5883 71.37 28.5883C72.7868 29.2942 74.2036 30.0001 75.6204 30.706C75.7975 30.706 75.9745 30.8824 75.9745 30.8824C76.1516 31.0589 76.1516 31.2354 76.1516 31.4118C76.1516 31.4118 76.1516 31.5883 75.9745 31.5883C75.7975 31.7648 75.6204 31.9412 75.4433 32.1177L75.2662 32.2942C75.2662 33.8824 75.2662 35.6471 75.2662 37.2354C75.2662 37.4118 75.2662 37.4118 75.4433 37.4118C75.9745 37.7648 76.5058 38.1177 77.0371 38.4707C77.3913 38.6471 77.3913 39.0001 77.0371 39.1765C76.3287 39.706 75.4433 40.4118 74.7349 40.9412C74.7349 40.9412 74.5578 41.1177 74.3807 40.9412C72.9639 40.2354 71.5471 39.5295 70.1303 38.8236C69.9532 38.8236 69.9532 38.8236 69.7761 38.8236C68.8907 39.5295 68.0052 40.2354 67.2968 40.7648H67.1197C65.88 40.5883 64.8174 40.0589 63.9319 39.1765C63.4006 39.0001 62.8694 37.9412 63.0464 37.0589ZM70.4845 35.2942C70.4845 34.4118 70.4845 33.5295 70.4845 32.4707C70.4845 32.2942 70.4845 32.2942 70.3074 32.1177C69.5991 31.7648 69.0678 31.2354 68.3594 30.8824C68.1823 30.706 68.0052 30.706 67.8281 30.8824C66.9426 31.4118 66.4113 32.1177 66.2342 33.0001C66.0571 34.0589 66.2342 35.1177 66.7655 36.0001C67.4739 36.8824 68.1823 37.7648 69.2449 38.1177C69.422 38.1177 69.5991 38.2942 69.7761 38.2942C69.9532 38.2942 70.3074 38.1177 70.3074 37.9412C70.3074 37.9412 70.3074 37.9412 70.3074 37.7648C70.4845 37.0589 70.4845 36.1765 70.4845 35.2942ZM90.8507 31.2354C90.8507 33.353 90.8507 35.4707 90.8507 37.5883C90.8507 37.9412 91.0278 38.1177 91.2049 38.2942C91.5591 38.4707 92.0904 38.8236 92.4446 39.0001C92.6217 39.0001 92.6217 39.1765 92.6217 39.353C91.9133 39.8824 91.0278 40.5883 90.3194 41.1177H90.1423C88.7255 40.5883 87.4859 39.8824 86.0691 39.353C85.5378 39.1765 85.5378 39.0001 85.892 38.6471C86.2462 38.2942 86.6004 37.7648 86.4233 37.2354C86.4233 34.4118 86.4233 31.5883 86.4233 28.7648C86.4233 28.4118 86.4233 28.0589 86.4233 27.706C86.4233 27.1765 86.0691 26.6471 85.7149 26.4707L85.5378 26.2942L85.7149 26.1177C87.3088 25.5883 88.9026 25.0589 90.3194 24.706C90.4965 24.706 90.6736 24.706 90.6736 24.706C91.0278 24.706 91.0278 24.706 91.0278 25.0589C91.0278 26.2942 91.0278 27.5295 91.0278 28.5883C90.8507 29.2942 90.8507 30.1765 90.8507 31.2354ZM80.0478 28.7648C81.6417 29.4707 82.8813 30.1765 84.121 30.8824C84.2981 30.8824 84.2981 31.0589 84.2981 31.0589C84.2981 31.2354 84.121 31.2354 84.121 31.2354C83.9439 31.7648 83.7668 31.7648 83.5897 31.7648C83.4126 31.7648 83.4126 31.9412 83.4126 31.9412C83.4126 32.1177 83.4126 32.4707 83.4126 32.6471C83.4126 34.2354 83.4126 36.0001 83.4126 37.5883C83.4126 37.7648 83.5897 37.7648 83.5897 37.9412C83.9439 38.1177 84.4752 38.4707 84.8294 38.6471C85.1836 38.8236 85.0065 38.8236 84.8294 39.0001C83.9439 39.706 83.0584 40.2354 82.173 40.9412C81.9959 41.1177 81.9959 41.1177 81.8188 40.9412C80.5791 40.2354 79.3394 39.706 78.0997 39.0001C77.9226 39.0001 77.9226 38.8236 77.9226 38.6471C77.9226 38.6471 77.9226 38.4707 78.0997 38.4707C78.2768 38.2942 78.4539 38.2942 78.631 38.1177C78.8081 37.9412 78.8081 37.7648 78.8081 37.5883C78.8081 36.1765 78.8081 34.5883 78.8081 33.1765C78.8081 32.8236 78.8081 32.4707 78.8081 32.2942C78.8081 32.1177 78.8081 32.1177 78.631 32.1177C78.2768 31.9412 77.7455 31.5883 77.3913 31.4118C77.0371 31.2354 77.0371 31.0589 77.3913 30.706C77.5684 30.5295 77.7455 30.5295 77.9226 30.353C78.631 29.8236 79.5165 29.2942 80.2249 28.9412C79.8707 28.9412 79.8707 28.9412 80.0478 28.7648ZM19.6576 40.2354H18.5951V38.4707H18.418C17.8867 39.353 17.0012 40.0589 15.9386 40.2354C15.0531 40.4118 13.9905 40.4118 12.9279 40.0589C11.6883 39.706 10.8028 38.4707 10.8028 37.2354C10.8028 36.706 10.8028 36.1765 10.8028 35.6471C10.9799 34.5883 11.6883 33.706 12.7508 33.353C14.1676 32.6471 15.7615 32.6471 17.1783 33.353C17.7096 33.5295 18.0638 33.8824 18.2409 34.4118C18.2409 34.4118 18.2409 34.4118 18.2409 34.5883C18.2409 34.4118 18.2409 34.2354 18.2409 34.0589C18.2409 33.5295 18.2409 32.8236 18.2409 32.2942C18.2409 31.4118 17.7096 30.706 16.8241 30.353C16.4699 30.0001 15.5844 30.0001 14.876 30.0001C14.3447 30.0001 13.9905 30.1765 13.6363 30.1765C13.2821 30.353 12.7508 30.5295 12.3967 30.5295C12.3967 30.1765 12.3967 30.0001 12.3967 29.6471L12.5738 29.4707C13.2821 29.1177 14.1676 28.9412 14.876 28.9412C15.7615 28.7648 16.647 28.9412 17.5325 29.1177C18.7722 29.4707 19.6576 30.706 19.6576 31.9412C19.6576 34.7648 19.6576 37.4118 19.6576 40.2354C19.6576 40.0589 19.6576 40.0589 19.6576 40.2354ZM15.2302 39.5295C15.7615 39.5295 16.2928 39.353 16.8241 39.1765C18.2409 38.4707 18.9493 36.706 18.2409 35.2942C18.0638 34.9412 17.8867 34.5883 17.5325 34.4118C17.0012 33.706 16.1157 33.5295 15.0531 33.5295C14.3447 33.5295 13.4592 33.706 12.9279 34.2354C12.0425 34.9412 11.8654 36.0001 12.0425 37.0589C12.0425 38.1177 12.9279 39.0001 13.9905 39.353C14.3447 39.353 14.6989 39.353 15.2302 39.5295ZM115.821 34.7648C115.821 35.8236 115.644 36.8824 115.29 37.7648C114.759 39.1765 113.342 40.2354 111.925 40.4118C110.863 40.5883 109.977 40.5883 108.915 40.2354C107.498 39.8824 106.435 38.6471 106.258 37.2354C105.727 35.6471 105.904 34.0589 106.258 32.4707C106.789 30.5295 108.56 29.2942 110.509 29.2942C111.394 29.2942 112.279 29.2942 113.165 29.6471C114.582 30.1765 115.467 31.4118 115.821 32.8236C115.821 33.353 115.821 34.0589 115.821 34.7648ZM114.759 34.7648C114.759 34.0589 114.759 33.353 114.582 32.6471C114.405 31.5883 113.873 30.8824 112.988 30.353C112.279 30.0001 111.571 29.8236 110.863 30.0001C109.269 30.0001 107.852 30.8824 107.498 32.4707C106.967 34.0589 106.967 35.6471 107.498 37.2354C107.852 38.2942 108.738 39.1765 109.8 39.353C110.331 39.5295 111.04 39.5295 111.571 39.353C112.811 39.1765 113.873 38.4707 114.228 37.2354C114.582 36.5295 114.759 35.6471 114.759 34.7648ZM104.841 30.706C104.31 30.5295 103.779 30.353 103.07 30.1765C102.362 30.0001 101.477 30.0001 100.768 30.1765C99.5285 30.353 98.4659 31.2354 98.2888 32.4707C97.7575 33.8824 97.7575 35.6471 98.2888 37.0589C98.8201 38.4707 99.8827 39.353 101.477 39.353C102.716 39.353 103.779 39.1765 104.841 38.6471C104.841 39.0001 104.841 39.353 104.841 39.706L104.664 39.8824C103.779 40.2354 102.893 40.5883 102.008 40.5883C101.299 40.5883 100.414 40.5883 99.7056 40.2354C98.4659 39.8824 97.5804 39.0001 97.0491 37.7648C96.3407 36.0001 96.3407 33.8824 97.0491 32.1177C97.5804 30.353 98.9972 29.2942 100.945 29.1177C102.185 28.9412 103.425 29.1177 104.487 29.6471C104.664 29.6471 104.664 29.8236 104.664 30.0001C104.841 30.1765 104.841 30.5295 104.841 30.706ZM26.2102 40.2354H25.1477V25.9412H26.2102V40.2354ZM23.0225 40.2354H21.9599V29.4707H23.0225V40.2354ZM79.8707 26.2942C79.8707 25.4118 80.402 24.706 81.1104 24.353C81.8188 24.0001 82.7042 24.353 83.0584 25.0589C83.0584 25.2354 83.2355 25.4118 83.2355 25.5883C83.2355 26.1177 83.0584 26.4707 82.8813 26.8236C82.35 27.5295 81.8188 28.0589 81.1104 28.4118C80.9333 28.5883 80.5791 28.4118 80.402 28.2354C80.402 28.2354 80.402 28.2354 80.402 28.0589C80.0478 27.706 79.8707 27.0001 79.8707 26.2942ZM94.3927 40.0589V38.4707H95.9865V40.0589H94.3927ZM21.7828 26.4707H23.1996V28.0589C22.6683 28.0589 22.3141 28.0589 21.7828 28.0589C21.7828 28.0589 21.6057 28.0589 21.6057 27.8824C21.7828 27.5295 21.7828 27.0001 21.7828 26.4707Z" fill="#383B42"/>
</g>
<defs>
<clipPath id="clip0_48_77">
<rect width="133" height="63" fill="white"/>
</clipPath>
</defs>
</svg>
