<svg width="16" height="16" viewBox="0 0 16 16" fill="none" xmlns="http://www.w3.org/2000/svg">
<g id="solar:dna-linear" clip-path="url(#clip0_0_137)">
<path id="Vector" d="M7.89858 8.10131L8.03058 8.14731C10.2039 8.89531 12.8199 8.17998 14.6666 6.33331M7.89858 8.10131L7.52658 7.97398C5.49858 7.27531 3.05659 7.94331 1.33325 9.66665M7.89858 8.10131L7.85259 7.96931C7.10459 5.79598 7.81992 3.17998 9.66658 1.33331M7.89858 8.10131L8.02592 8.47331C8.72458 10.5006 8.05658 12.9433 6.33325 14.6666M4.50992 7.89531L7.89525 11.2813M7.89592 4.50998L11.2813 7.89531M2.66659 8.66665L4.99992 11M13.1853 7.25998L10.8519 4.92665M6.20325 12.1273L7.26125 13.1853M9.72458 3.72465L8.66658 2.66665" stroke="#00A084" stroke-linecap="round"/>
</g>
<defs>
<clipPath id="clip0_0_137">
<rect width="16" height="16" fill="white"/>
</clipPath>
</defs>
</svg>
