<svg width="42" height="42" viewBox="0 0 42 42" fill="none" xmlns="http://www.w3.org/2000/svg">
<g id="hugeicons:dna-01">
<path id="Vector" d="M15.1672 38.5C16.1017 37.5655 17.0363 36.631 16.1718 31.5M15.1672 26.8345C12.8345 17.5 14.5845 15.75 15.1672 15.1672C15.75 14.5845 17.5 12.8345 26.8345 15.1672M15.1672 26.8345C5.8345 24.5 4.66725 25.6655 3.5 26.8328M15.1672 26.8345C24.5 29.169 26.25 27.4155 26.8328 26.8328C27.4155 26.25 29.169 24.5 26.8345 15.1672M26.8345 15.1672C36.1672 17.5 37.3328 16.3345 38.5 15.1672M26.8328 3.5C25.8983 4.4345 24.9637 5.369 25.8282 10.5" stroke="#383B42" stroke-width="3" stroke-linecap="round" stroke-linejoin="round"/>
</g>
</svg>
