<svg width="24" height="24" viewBox="0 0 24 24" fill="none" xmlns="http://www.w3.org/2000/svg">
<g id="ic:round-fitness-center">
<path id="Vector" d="M20.5699 14.86L21.2899 14.14C21.3826 14.0475 21.4562 13.9376 21.5064 13.8166C21.5565 13.6956 21.5824 13.5659 21.5824 13.435C21.5824 13.304 21.5565 13.1743 21.5064 13.0534C21.4562 12.9324 21.3826 12.8225 21.2899 12.73L21.2699 12.71C21.1774 12.6173 21.0675 12.5437 20.9465 12.4935C20.8256 12.4434 20.6959 12.4175 20.5649 12.4175C20.434 12.4175 20.3043 12.4434 20.1833 12.4935C20.0623 12.5437 19.9524 12.6173 19.8599 12.71L16.9999 15.57L8.42992 6.99998L11.2899 4.13998C11.3826 4.04747 11.4562 3.93758 11.5064 3.8166C11.5565 3.69563 11.5824 3.56595 11.5824 3.43498C11.5824 3.30401 11.5565 3.17433 11.5064 3.05336C11.4562 2.93238 11.3826 2.82249 11.2899 2.72998L11.2699 2.70998C11.1774 2.61728 11.0675 2.54373 10.9465 2.49355C10.8256 2.44337 10.6959 2.41754 10.5649 2.41754C10.434 2.41754 10.3043 2.44337 10.1833 2.49355C10.0623 2.54373 9.95244 2.61728 9.85992 2.70998L9.13993 3.42998L8.41992 2.70998C8.02992 2.31998 7.38992 2.31998 6.99992 2.70998L5.56992 4.13998L4.84992 3.41998C4.65917 3.23249 4.4024 3.12742 4.13492 3.12742C3.86745 3.12742 3.61068 3.23249 3.41992 3.41998C3.23243 3.61074 3.12737 3.86751 3.12737 4.13498C3.12737 4.40245 3.23243 4.65922 3.41992 4.84998L4.13992 5.56998L2.70992 6.99998C2.61722 7.09249 2.54367 7.20238 2.49349 7.32336C2.44331 7.44433 2.41748 7.57401 2.41748 7.70498C2.41748 7.83595 2.44331 7.96563 2.49349 8.0866C2.54367 8.20758 2.61722 8.31747 2.70992 8.40998L3.42992 9.12998L2.70992 9.85998C2.61722 9.95249 2.54367 10.0624 2.49349 10.1834C2.44331 10.3043 2.41748 10.434 2.41748 10.565C2.41748 10.6959 2.44331 10.8256 2.49349 10.9466C2.54367 11.0676 2.61722 11.1775 2.70992 11.27L2.72992 11.29C3.11992 11.68 3.74992 11.68 4.13992 11.29L6.99992 8.42998L15.5699 17L12.7099 19.86C12.6172 19.9525 12.5437 20.0624 12.4935 20.1834C12.4433 20.3043 12.4175 20.434 12.4175 20.565C12.4175 20.6959 12.4433 20.8256 12.4935 20.9466C12.5437 21.0676 12.6172 21.1775 12.7099 21.27L12.7299 21.29C13.1199 21.68 13.7499 21.68 14.1399 21.29L14.8599 20.57L15.5799 21.29C15.9699 21.68 16.5999 21.68 16.9899 21.29L18.4199 19.86L19.1399 20.58C19.5299 20.97 20.1799 20.97 20.5699 20.58C20.9599 20.19 20.9599 19.54 20.5699 19.15L19.8499 18.43L21.2899 17C21.3826 16.9075 21.4562 16.7976 21.5064 16.6766C21.5565 16.5556 21.5824 16.4259 21.5824 16.295C21.5824 16.164 21.5565 16.0343 21.5064 15.9134C21.4562 15.7924 21.3826 15.6825 21.2899 15.59L20.5699 14.86Z" fill="white"/>
</g>
</svg>
