<svg width="111" height="28" viewBox="0 0 111 28" fill="none" xmlns="http://www.w3.org/2000/svg">
<g id="forbes-logo.original 1" clip-path="url(#clip0_48_49)">
<path id="Path_15" d="M67.5957 7.99994C65.9622 7.99994 64.4064 8.39209 63.0063 9.17641C63.0063 5.09798 63.0063 1.33327 63.1619 0.0783691L54.6055 1.647V2.43131L55.4611 2.58817C56.6279 2.82347 57.0168 3.45092 57.2502 5.01955C57.4835 8.07837 57.4057 24.549 57.2502 27.2941C59.5837 27.8431 61.9951 28.1568 64.4064 28.1568C71.1738 28.1568 75.2186 23.9215 75.2186 17.2548C75.2186 11.8431 71.9516 7.99994 67.5957 7.99994ZM64.6398 26.5882C64.0953 26.5882 63.6286 26.5882 63.0841 26.4313C62.9285 24.6274 62.8507 17.0195 62.9285 10.3529C63.5508 10.1176 64.1731 9.96072 64.8732 9.96072C67.6734 9.96072 69.2291 13.3333 69.2291 17.4117C69.2291 22.6666 67.3623 26.5882 64.6398 26.5882ZM22.48 0.548957H0V1.72543L1.24457 1.88229C2.87807 2.11758 3.57814 3.13719 3.81149 5.647C4.12263 11.2941 4.12263 16.9411 3.81149 22.5882C3.57814 25.0195 2.95585 26.196 1.24457 26.3529L0 26.5097V27.5294H14.3903V26.5097L12.8346 26.2744C11.2011 26.1176 10.5011 25.0195 10.2677 22.5097C10.1121 20.8627 10.0343 18.1176 10.0343 14.8235L13.068 14.9803C15.0126 14.9803 15.8683 16.549 16.2572 18.745H17.424V9.49013H16.335C15.946 11.6862 15.0904 13.2548 13.1458 13.2548L10.1121 13.4117C10.1121 9.01955 10.2677 4.94111 10.3455 2.50974H14.7793C18.2018 2.50974 19.9909 4.70582 21.3132 8.54896L22.5578 8.1568L22.48 0.548957Z" fill="#383B42"/>
<path id="Path_16" d="M29.7144 7.68617C36.0928 7.68617 39.282 12.0783 39.282 17.8822C39.282 23.4509 35.7039 28.0783 29.3254 28.0783C22.947 28.0783 19.7578 23.6862 19.7578 17.8822C19.7578 12.3136 23.3359 7.68617 29.7144 7.68617ZM29.3254 9.0195C26.5252 9.0195 25.7473 12.8626 25.7473 17.8822C25.7473 22.745 26.9919 26.745 29.5588 26.745C32.5146 26.745 33.2925 22.9019 33.2925 17.8822C33.2925 13.0195 32.0479 9.0195 29.3254 9.0195ZM76.9302 18.0391C76.9302 12.7842 80.275 7.7646 86.7312 7.7646C92.0984 7.7646 94.6653 11.7646 94.6653 17.0195H82.7641C82.6086 21.8038 84.9421 25.2548 89.5315 25.2548C91.0872 25.3332 92.6429 24.7842 93.8875 23.843L94.432 24.4705C92.5651 26.8234 89.7648 28.1568 86.809 28.0783C80.9751 27.9999 76.9302 23.9215 76.9302 18.0391ZM82.7641 15.5293L88.7536 15.3724C88.7536 12.7842 88.3647 8.94107 86.1867 8.94107C84.0087 8.94107 82.9197 12.6273 82.7641 15.5293ZM109.833 8.70578C107.967 7.9999 105.944 7.60774 104 7.68617C99.2547 7.68617 96.3766 10.5097 96.3766 13.8822C96.3766 17.2548 98.5546 18.6666 101.588 19.6862C104.777 20.8626 105.633 21.7254 105.633 23.294C105.633 24.9411 104.311 26.2744 102.677 26.2744C102.599 26.2744 102.522 26.2744 102.444 26.2744C100.033 26.2744 98.2435 24.8626 96.8433 21.0195L95.9877 21.2548L96.1432 26.9019C98.3212 27.6862 100.577 28.0783 102.911 28.0783C107.889 28.0783 111.078 25.4901 111.078 21.4901C111.078 18.8234 109.678 17.2548 106.333 15.9215C102.755 14.5097 101.51 13.5685 101.51 11.9215C101.433 10.4313 102.522 9.17637 104 9.09793C104.077 9.09793 104.155 9.09793 104.155 9.09793C106.411 9.09793 107.967 10.5097 109.133 13.9607L109.989 13.7254L109.833 8.70578ZM55.8503 8.23519C53.6723 6.98029 49.8608 7.60774 47.8384 12.2352L47.994 7.7646L39.4376 9.41166V10.196L40.2932 10.3528C41.46 10.5097 41.9267 11.1371 42.0823 12.7842C42.2378 16.5489 42.2378 20.2352 42.0823 23.9999C41.9267 25.5685 41.46 26.2744 40.2932 26.4313L39.4376 26.5881V27.6077H51.261V26.5881L49.7053 26.4313C48.4607 26.2744 48.0718 25.5685 47.9162 23.9999C47.6828 20.5489 47.605 17.0195 47.7606 13.5685C48.3829 12.7058 51.1832 11.9215 53.7501 13.5685L55.8503 8.23519Z" fill="#383B42"/>
</g>
<defs>
<clipPath id="clip0_48_49">
<rect width="111" height="28" fill="white"/>
</clipPath>
</defs>
</svg>
