<svg width="24" height="24" viewBox="0 0 24 24" fill="none" xmlns="http://www.w3.org/2000/svg">
<g id="fluent:food-20-regular">
<path id="Vector" d="M5.604 2.40005C4.8552 2.40005 4.194 2.92565 4.056 3.68165C3.8784 4.66324 3.6 6.41044 3.6 7.80004C3.6 9.27724 4.3632 10.5756 5.514 11.3232C5.8392 11.5356 6 11.8092 6 12.0432V12.5352C6 12.5568 5.9988 12.5784 5.9964 12.6C5.964 12.912 5.8152 14.3148 5.6748 15.7572C5.5368 17.1792 5.4 18.6972 5.4 19.2C5.4 19.8366 5.65285 20.447 6.10294 20.8971C6.55303 21.3472 7.16348 21.6 7.8 21.6C8.43652 21.6 9.04697 21.3472 9.49706 20.8971C9.94714 20.447 10.2 19.8366 10.2 19.2C10.2 18.696 10.0632 17.1792 9.9252 15.7572C9.8226 14.7048 9.7154 13.6528 9.6036 12.6012L9.6 12.5352V12.0432C9.6 11.808 9.7608 11.5344 10.086 11.3232C10.6735 10.9421 11.1563 10.4201 11.4906 9.80479C11.8248 9.18946 12 8.50031 12 7.80004C12 6.41044 11.7216 4.66324 11.544 3.68165C11.4773 3.32037 11.2857 2.99406 11.0027 2.75978C10.7197 2.52549 10.3634 2.39816 9.996 2.40005C9.588 2.40005 9.216 2.55244 8.9352 2.80324C8.61434 2.54245 8.21348 2.40007 7.8 2.40005C7.3692 2.40005 6.9744 2.55125 6.6648 2.80324C6.37344 2.54272 5.99485 2.39911 5.604 2.40005ZM7.2 4.20004C7.2 4.04092 7.26321 3.8883 7.37573 3.77578C7.48826 3.66326 7.64087 3.60004 7.8 3.60004C7.95913 3.60004 8.11174 3.66326 8.22426 3.77578C8.33678 3.8883 8.4 4.04092 8.4 4.20004V7.80004C8.4 7.95917 8.46321 8.11179 8.57573 8.22431C8.68826 8.33683 8.84087 8.40004 9 8.40004C9.15913 8.40004 9.31174 8.33683 9.42426 8.22431C9.53678 8.11179 9.6 7.95917 9.6 7.80004V3.99604C9.6 3.94404 9.61024 3.89255 9.63014 3.8445C9.65004 3.79646 9.67921 3.7528 9.71598 3.71603C9.75276 3.67926 9.79641 3.65009 9.84446 3.63019C9.8925 3.61029 9.94399 3.60004 9.996 3.60004C10.1844 3.60004 10.332 3.72964 10.3632 3.89644C10.5396 4.87204 10.8 6.52684 10.8 7.80004C10.8001 8.30049 10.6749 8.793 10.436 9.23272C10.1971 9.67244 9.85191 10.0454 9.432 10.3176C8.9052 10.6596 8.4 11.2608 8.4 12.0432V12.5352C8.4 12.5992 8.4032 12.6632 8.4096 12.7272C8.4432 13.0368 8.5908 14.436 8.7312 15.8736C8.8728 17.3316 9 18.7716 9 19.2C9 19.5183 8.87357 19.8235 8.64853 20.0486C8.42348 20.2736 8.11826 20.4 7.8 20.4C7.48174 20.4 7.17651 20.2736 6.95147 20.0486C6.72643 19.8235 6.6 19.5183 6.6 19.2C6.6 18.7716 6.7272 17.3316 6.8688 15.8736C7.0092 14.436 7.1568 13.0368 7.1904 12.7272C7.1968 12.6632 7.2 12.5992 7.2 12.5352V12.0432C7.2 11.2608 6.6948 10.6596 6.168 10.3176C5.74808 10.0454 5.40294 9.67244 5.16401 9.23272C4.92508 8.793 4.79994 8.30049 4.8 7.80004C4.8 6.52804 5.0604 4.87204 5.2368 3.89644C5.25323 3.81145 5.29926 3.73504 5.36671 3.68077C5.43416 3.6265 5.51866 3.5979 5.6052 3.60004C5.71002 3.60036 5.81043 3.64222 5.88444 3.71645C5.95844 3.79068 6 3.89123 6 3.99604V7.80004C6 7.95917 6.06321 8.11179 6.17573 8.22431C6.28826 8.33683 6.44087 8.40004 6.6 8.40004C6.75913 8.40004 6.91174 8.33683 7.02426 8.22431C7.13678 8.11179 7.2 7.95917 7.2 7.80004V4.20004ZM13.2 7.80004C13.2 6.36788 13.7689 4.99436 14.7816 3.98167C15.7943 2.96897 17.1678 2.40005 18.6 2.40005C18.7591 2.40005 18.9117 2.46326 19.0243 2.57578C19.1368 2.6883 19.2 2.84092 19.2 3.00005V11.3736L19.224 11.6424C19.3175 12.7206 19.4087 13.799 19.4976 14.8776C19.6464 16.686 19.8 18.6708 19.8 19.2C19.8 19.8366 19.5471 20.447 19.0971 20.8971C18.647 21.3472 18.0365 21.6 17.4 21.6C16.7635 21.6 16.153 21.3472 15.7029 20.8971C15.2529 20.447 15 19.8366 15 19.2C15 18.672 15.1536 16.686 15.3024 14.8776C15.3768 13.9644 15.4524 13.0812 15.5088 12.4272L15.5448 12H15C14.5226 12 14.0648 11.8104 13.7272 11.4728C13.3896 11.1353 13.2 10.6774 13.2 10.2V7.80004ZM16.7976 11.4528L16.7724 11.7468L16.704 12.5304C16.6476 13.1832 16.572 14.064 16.4976 14.976C16.3464 16.8204 16.2 18.7344 16.2 19.2C16.2 19.5183 16.3264 19.8235 16.5515 20.0486C16.7765 20.2736 17.0817 20.4 17.4 20.4C17.7183 20.4 18.0235 20.2736 18.2485 20.0486C18.4736 19.8235 18.6 19.5183 18.6 19.2C18.6 18.7344 18.4536 16.8204 18.3024 14.976C18.2134 13.8994 18.1218 12.823 18.0276 11.7468L18.0024 11.454V11.4528L18 11.4V3.64205C17.0002 3.78635 16.0859 4.28615 15.4247 5.04983C14.7635 5.81351 14.3997 6.7899 14.4 7.80004V10.2C14.4 10.3592 14.4632 10.5118 14.5757 10.6243C14.6883 10.7368 14.8409 10.8 15 10.8H16.2C16.2832 10.8001 16.3656 10.8174 16.4417 10.8509C16.5179 10.8845 16.5863 10.9335 16.6425 10.9949C16.6987 11.0563 16.7415 11.1287 16.7682 11.2076C16.7949 11.2864 16.8049 11.3699 16.7976 11.4528Z" fill="white"/>
</g>
</svg>
