<?xml version="1.0" encoding="UTF-8"?>
<svg id="Layer_1" xmlns="http://www.w3.org/2000/svg" version="1.1" viewBox="0 0 108 108">
  <!-- Generator: Adobe Illustrator 29.0.0, SVG Export Plug-In . SVG Version: 2.1.0 Build 186)  -->
  <defs>
    <style>
      .st0 {
        fill: #fff;
        stroke: #fff;
        stroke-miterlimit: 10;
        stroke-width: 2px;
      }
    </style>
  </defs>
  <path class="st0" d="M95.9,38.9c-4.5-27.6-30.9-36-52-29.3-23.5,7.8-22.1,31.2-21.5,35.8,0,.4,0,.8-.3,1.2l-9.9,13.2c-.3.4-.4.9-.3,1.4.1.5.5.9.9,1.1l6.7,3.1h0c-1.1,1.9-1.4,4.3-.7,6.4.6,2.1,2.1,3.9,4.1,4.9-1.6,2.1-1.9,5-.7,7.3,1,1.9,2.9,3.2,5,3.4l11.4,1.2h0c.9.1,1.7.8,1.8,1.8.4,2.6.3,5.3-.4,7.8-.2.5-.1,1.1.2,1.5.3.4.8.7,1.4.7,3.2,0,2.3-9.5,2-11,3.1-1.2,9.3-4.5,9-10.7,0-.9-.8-1.6-1.8-1.5-.9,0-1.6.8-1.6,1.7.2,4.4-5.2,6.8-7.4,7.6-.8-.7-1.8-1.2-2.9-1.3l-11.4-1.2h0c-1-.1-2-.7-2.5-1.7-1.2-1.8.8-4.2,1.5-5.8.2-.4.3-.9,0-1.4-.2-.5-.5-.8-1-1-1.7-.4-3.1-1.6-3.8-3.2-.8-2.6,1.2-5.6,1.2-5.6.3-.4.4-.9.2-1.4-.1-.5-.5-.9-.9-1.1l-6.4-3,8.7-11.6h0c.8-1,1.1-2.3,1-3.6-.7-5.9-1.3-25.5,19.3-32.3,9.1-3.1,18.9-2.8,27.8.8,5.3,2.1,10,5.6,13.5,10.1,3.5,4.5,5.7,9.9,6.4,15.6.2.3.8,10.4-1.4,13.9h0c-2.3,5.6-5.1,10.9-8.3,16.1-.6.8-.9,1.7-1,2.7-.3,7.1.3,14.2,1.7,21.2.2.9,1.1,1.4,2,1.3.9-.2,1.5-1.1,1.3-2-1.3-6.7-1.9-13.5-1.6-20.3,0-.3.1-.7.3-.9,4.3-6.5,7.7-13.6,10.1-21,.6-3.7.6-7.5.2-11.3h0Z"/>
  <path class="st0" d="M56.8,56.4h-14.9l16.1-16.1c.5-.5.6-1.2.3-1.8-.3-.6-.9-1-1.5-1h-18.9c-.9,0-1.7.7-1.7,1.7s.7,1.7,1.7,1.7h14.9l-16.1,16.1c-.5.5-.6,1.2-.3,1.8.3.6.9,1,1.5,1h18.9c.9,0,1.6-.8,1.6-1.7s-.7-1.6-1.6-1.7Z"/>
  <path class="st0" d="M72.3,46h-3.1l4.2-4.2c.5-.5.6-1.2.3-1.8-.3-.6-.9-1-1.5-1h-7.1c-.9,0-1.6.8-1.6,1.7s.7,1.6,1.6,1.7h3.1l-4.2,4.2h0c-.5.5-.6,1.2-.3,1.8.3.6.9,1,1.5,1h7.1c.9,0,1.6-.8,1.6-1.7s-.7-1.6-1.6-1.7h0Z"/>
  <path class="st0" d="M78.7,31.9h-1.9l3.1-3.1c.5-.5.6-1.2.3-1.8-.3-.6-.9-1-1.5-1h-5.9c-.9,0-1.7.7-1.7,1.7s.7,1.7,1.7,1.7h1.9l-3.1,3.1c-.5.5-.6,1.2-.3,1.8.3.6.9,1,1.5,1h5.9c.9,0,1.6-.8,1.6-1.7s-.7-1.6-1.6-1.7Z"/>
</svg>