<svg width="32" height="32" viewBox="0 0 32 32" fill="none" xmlns="http://www.w3.org/2000/svg">
<g id="material-symbols:explore-outline-rounded">
<path id="Vector" d="M16 17.3333C15.6222 17.3333 15.3058 17.2053 15.0507 16.9493C14.7956 16.6933 14.6676 16.3768 14.6667 16C14.6658 15.6231 14.7938 15.3066 15.0507 15.0506C15.3076 14.7946 15.624 14.6666 16 14.6666C16.376 14.6666 16.6929 14.7946 16.9507 15.0506C17.2085 15.3066 17.336 15.6231 17.3333 16C17.3307 16.3768 17.2027 16.6937 16.9493 16.9506C16.696 17.2075 16.3796 17.3351 16 17.3333ZM16 29.3333C14.1556 29.3333 12.4222 28.9831 10.8 28.2826C9.17779 27.5822 7.76667 26.6324 6.56667 25.4333C5.36667 24.2342 4.4169 22.8231 3.71734 21.2C3.01778 19.5768 2.66756 17.8435 2.66667 16C2.66578 14.1564 3.01601 12.4231 3.71734 10.8C4.41867 9.17685 5.36845 7.76574 6.56667 6.56663C7.7649 5.36752 9.17601 4.41774 10.8 3.71729C12.424 3.01685 14.1573 2.66663 16 2.66663C17.8427 2.66663 19.576 3.01685 21.2 3.71729C22.824 4.41774 24.2351 5.36752 25.4333 6.56663C26.6316 7.76574 27.5818 9.17685 28.284 10.8C28.9862 12.4231 29.336 14.1564 29.3333 16C29.3307 17.8435 28.9805 19.5768 28.2827 21.2C27.5849 22.8231 26.6351 24.2342 25.4333 25.4333C24.2316 26.6324 22.8205 27.5826 21.2 28.284C19.5796 28.9853 17.8462 29.3351 16 29.3333ZM16 26.6666C18.9778 26.6666 21.5 25.6333 23.5667 23.5666C25.6333 21.5 26.6667 18.9777 26.6667 16C26.6667 13.0222 25.6333 10.5 23.5667 8.43329C21.5 6.36663 18.9778 5.33329 16 5.33329C13.0222 5.33329 10.5 6.36663 8.43334 8.43329C6.36667 10.5 5.33334 13.0222 5.33334 16C5.33334 18.9777 6.36667 21.5 8.43334 23.5666C10.5 25.6333 13.0222 26.6666 16 26.6666ZM9.90001 22.7666L18.2333 18.8666C18.3667 18.8 18.4889 18.7111 18.6 18.6C18.7111 18.4888 18.8 18.3666 18.8667 18.2333L22.7667 9.89996C22.8778 9.67774 22.8502 9.48307 22.684 9.31596C22.5178 9.14885 22.3231 9.12129 22.1 9.23329L13.7667 13.1333C13.6333 13.2 13.5111 13.2888 13.4 13.4C13.2889 13.5111 13.2 13.6333 13.1333 13.7666L9.23334 22.1C9.12223 22.3222 9.15023 22.5168 9.31734 22.684C9.48445 22.8511 9.67867 22.8786 9.90001 22.7666Z" fill="#383B42"/>
</g>
</svg>
