<?xml version="1.0" encoding="UTF-8"?>
<svg id="Layer_1" xmlns="http://www.w3.org/2000/svg" version="1.1" viewBox="0 0 108 108">
  <!-- Generator: Adobe Illustrator 29.0.0, SVG Export Plug-In . SVG Version: 2.1.0 Build 186)  -->
  <defs>
    <style>
      .st0 {
        fill: #fff;
        fill-rule: evenodd;
        stroke: #fff;
        stroke-miterlimit: 10;
        stroke-width: .8px;
      }
    </style>
  </defs>
  <path class="st0" d="M25,14.7c.4-.2,1.1-.2,1.6.1.7.4.8,1.4.3,2.1-1.9,2.6-3,5.7-3,8.9s.8,6.2,2.7,9c2.1,3.2,5.2,5.3,8.7,6.3,3.5,1,7.2.8,10.7-.9.4-.2,1.1-.2,1.6.1.7.4.8,1.4.3,2.1-.7.9-1.3,1.7-2.1,2.3s-1.6,1.3-2.4,2c-4.2,2.9-9.2,3.7-13.9,2.8-4.6-.9-8.9-3.6-11.7-7.8,0,0,0-.1-.1-.2-2.8-4.2-3.7-9.1-2.7-13.8.9-4.6,3.6-8.9,7.8-11.7,0,0,.1,0,.2-.1.3-.2.8-.4,1.1-.7s.8-.4,1.2-.7h-.2ZM41,44.6c-2.2.2-4.5,0-6.7-.6-4.1-1.1-7.9-3.7-10.5-7.6-2.2-3.3-3.2-7-3.1-10.8,0-1.7.3-3.3.8-4.9-2,2.1-3.3,4.8-3.9,7.6-.8,3.9,0,8.1,2.3,11.6,2.3,3.6,6,5.8,9.9,6.6,3.7.8,7.7.1,11.1-2h0ZM37.9,24.9l-.8-3.2-1.3,3c-.2.6-.9,1-1.6.9l-3.2-.2,2.4,2c.6.4.7,1.1.4,1.8l-1.2,2.9,2.9-1.7h0c.6-.3,1.2-.2,1.7.1l2.6,2.1-.8-3.1h0c-.1-.7,0-1.3.7-1.7l2.7-1.6-3.2-.2c-.7,0-1.2-.4-1.3-1.1h.1ZM38.9,16.7c0-.4-.4-.9-.9-1.1-.8-.3-1.7,0-2,.8l-2.7,6.1-7-.6h0c-.4,0-1,.1-1.3.6-.6.7-.4,1.6.2,2.1l5.3,4.3-2.6,6c-.2.4-.2,1,0,1.4.4.7,1.3,1,2.1.6l6-3.6,5.2,4.3c.3.3.9.6,1.4.3.8-.2,1.3-1,1.1-1.9l-1.7-6.5,5.9-3.5c.4-.2.8-.7.8-1.2,0-.9-.6-1.6-1.4-1.7l-7-.6-1.7-6.5h0v.3ZM85.3,83.3c-.9,0-1.6-.7-1.6-1.4s.7-1.6,1.4-1.6c4.1-.1,7.2.3,9.2,1.6,2.3,1.4,3.3,3.6,2.9,6.5-.1.8-.9,1.4-1.7,1.3-.8-.1-1.4-.9-1.3-1.7.2-1.6-.2-2.8-1.4-3.5-1.6-.9-4-1.3-7.6-1.1h0ZM54.8,57.1h0l2.7,1.2-4.9-9.5h0c-.2-.4-.2-1.1,0-1.6,1.2-1.8,2.2-3.7,2.9-5.8.7-2,1.1-4.1,1.3-6.3.6-6.9-1.8-13.4-5.9-18.3s-10.1-8.1-17-8.7c-6.9-.6-13.4,1.8-18.3,5.9-4.9,4.1-8.1,10.1-8.7,17s1.8,13.4,5.9,18.3c4.1,4.9,10.1,8.1,17,8.7,2.9.2,5.8,0,8.5-.8,2.8-.8,5.5-2,7.8-3.6.4-.3,1-.3,1.4-.1l7,3.2h0l.2.2ZM63.3,83.1h0l-19.6,16.1h19.6v-16.1h0ZM68.1,79l-1.8,1.6v18.7h24.7c2.8,0,5.3-1.1,7.1-3s3-4.3,3-7.1-1.1-5.3-3-7.1-4.3-3-7.1-3h-22.9ZM60.1,81.7l-19.2,15.7c-1.1.9-2.2,1.4-3.6,1.9h0c-1.2.3-2.6.4-3.8.3-2.6-.2-5-1.4-6.8-3.6-1.8-2.1-2.4-4.8-2.2-7.3.2-2.6,1.4-5,3.6-6.8l19.2-15.7,12.8,15.6h0ZM49.7,64.2l4.7-3.9,5.8,2.7c.4.2,1,.2,1.4,0,.8-.3,1-1.3.7-2l-2.6-5,9.1-7.5c2.1-1.8,4.8-2.4,7.3-2.2,2.6.2,5,1.4,6.8,3.6s2.4,4.8,2.2,7.3-1.4,5-3.6,6.8l-14.9,12.2s-.1,0-.2.1l-2.6,2.1s-.1,0-.2.1l-1.2,1-12.8-15.6h0v.2ZM46.5,62.8l-20.3,16.7c-2.8,2.3-4.3,5.6-4.7,8.9-.3,3.3.7,6.8,2.9,9.6,2.3,2.8,5.6,4.3,8.9,4.7,1.6.1,3.2,0,4.7-.4h52.8c3.6,0,6.9-1.4,9.2-3.9,2.3-2.3,3.9-5.7,3.9-9.2s-1.4-6.9-3.9-9.2c-2.3-2.3-5.7-3.9-9.2-3.9h-19.2l11.7-9.6c2.8-2.3,4.3-5.6,4.7-8.9.3-3.3-.6-6.7-2.8-9.5,0,0,0-.1-.2-.2-2.3-2.7-5.5-4.2-8.8-4.6s-6.7.6-9.5,2.8c0,0-.1,0-.2.2l-8.5,7-2.4-4.8c1.1-1.8,2-3.7,2.8-5.7.8-2.2,1.3-4.6,1.4-7h0c.6-7.8-2-15-6.7-20.5s-11.4-9.1-19-9.8h-.1c-7.7-.6-14.9,2-20.4,6.7S4.6,23.5,3.9,31.2h0c-.6,7.8,2,15,6.7,20.5,4.7,5.5,11.4,9.1,19,9.8h.1c3.2.2,6.5,0,9.5-.9,2.9-.8,5.6-2,8-3.6l4.1,1.9-4.8,3.9h0ZM67,55.3c2.7-2.3,4.8-3.7,6.6-3.9,1.3-.2,2.4.3,3.3,1.8.4.7,1.3.9,2.1.6.7-.4.9-1.3.6-2.1-1.6-2.6-3.7-3.6-6.3-3.1-2.3.3-5,1.9-8.1,4.7-.7.6-.7,1.6-.1,2.1s1.6.7,2.1.1h-.1Z"/>
</svg>