<svg width="24" height="24" viewBox="0 0 24 24" fill="none" xmlns="http://www.w3.org/2000/svg">
<g id="solar:dna-outline">
<path id="Vector" fill-rule="evenodd" clip-rule="evenodd" d="M15.0301 1.47001C15.1706 1.61064 15.2495 1.80126 15.2495 2.00001C15.2495 2.19876 15.1706 2.38939 15.0301 2.53001C14.6141 2.94734 14.2408 3.38734 13.9101 3.85001L15.1171 5.05701C15.2496 5.19919 15.3217 5.38723 15.3183 5.58153C15.3149 5.77584 15.2361 5.96122 15.0987 6.09863C14.9613 6.23605 14.7759 6.31476 14.5816 6.31819C14.3873 6.32161 14.1993 6.24949 14.0571 6.11701L13.1091 5.16901C12.8984 5.58368 12.7201 6.00568 12.5741 6.43501L17.4531 11.313C17.4881 11.3498 17.5202 11.3893 17.5491 11.431C17.962 11.2902 18.3652 11.1225 18.7561 10.929L15.7481 7.92001C15.6744 7.85135 15.6153 7.76855 15.5743 7.67655C15.5333 7.58455 15.5113 7.48524 15.5095 7.38453C15.5077 7.28383 15.5263 7.1838 15.564 7.09041C15.6017 6.99703 15.6579 6.91219 15.7291 6.84097C15.8003 6.76975 15.8851 6.71361 15.9785 6.67589C16.0719 6.63817 16.1719 6.61964 16.2726 6.62142C16.3733 6.6232 16.4727 6.64524 16.5647 6.68623C16.6567 6.72722 16.7395 6.78632 16.8081 6.86001L20.0841 10.135C20.5708 9.79368 21.0328 9.40501 21.4701 8.96901C21.5388 8.89532 21.6216 8.83622 21.7136 8.79523C21.8056 8.75424 21.9049 8.7322 22.0056 8.73042C22.1063 8.72864 22.2063 8.74717 22.2997 8.78489C22.3931 8.82261 22.4779 8.87875 22.5492 8.94997C22.6204 9.02119 22.6765 9.10603 22.7142 9.19941C22.752 9.2928 22.7705 9.39283 22.7687 9.49353C22.7669 9.59424 22.7449 9.69355 22.7039 9.78555C22.6629 9.87755 22.6038 9.96035 22.5301 10.029C19.9081 12.652 16.2661 13.883 12.9741 13.242C13.7241 16.417 12.5741 19.986 10.0301 22.529C9.96145 22.6027 9.87865 22.6618 9.78665 22.7028C9.69465 22.7438 9.59534 22.7658 9.49464 22.7676C9.39393 22.7694 9.2939 22.7509 9.20052 22.7131C9.10713 22.6754 9.02229 22.6193 8.95108 22.548C8.87986 22.4768 8.82371 22.392 8.78599 22.2986C8.74827 22.2052 8.72975 22.1052 8.73152 22.0045C8.7333 21.9038 8.75534 21.8045 8.79633 21.7125C8.83732 21.6205 8.89643 21.5377 8.97011 21.469C9.39756 21.04 9.78515 20.5731 10.1281 20.074L8.77411 18.721C8.70251 18.6518 8.64542 18.569 8.60615 18.4775C8.56689 18.386 8.54625 18.2875 8.54543 18.188C8.54461 18.0884 8.56364 17.9896 8.60139 17.8975C8.63914 17.8053 8.69487 17.7216 8.76533 17.6512C8.83578 17.5808 8.91954 17.5252 9.01173 17.4875C9.10392 17.4498 9.20269 17.4309 9.30227 17.4318C9.40186 17.4327 9.50026 17.4535 9.59175 17.4928C9.68323 17.5322 9.76596 17.5893 9.83511 17.661L10.8981 18.723C11.0841 18.319 11.2384 17.9097 11.3611 17.495L11.3131 17.451L6.50011 12.64C6.06011 12.77 5.62611 12.9363 5.19811 13.139L8.02911 15.969C8.16994 16.1096 8.24917 16.3003 8.24935 16.4993C8.24954 16.6983 8.17068 16.8892 8.03011 17.03C7.88955 17.1708 7.6988 17.2501 7.49982 17.2503C7.30085 17.2504 7.10994 17.1716 6.96911 17.031L3.85711 13.918C3.39045 14.2433 2.94778 14.614 2.52911 15.03C2.38694 15.1625 2.19889 15.2346 2.00459 15.2312C1.81029 15.2278 1.62491 15.149 1.48749 15.0116C1.35008 14.8742 1.27137 14.6888 1.26794 14.4945C1.26451 14.3002 1.33663 14.1122 1.46911 13.97C4.01211 11.426 7.58111 10.277 10.7561 11.026C10.1161 7.73401 11.3461 4.09201 13.9691 1.47001C14.1097 1.32956 14.3004 1.25067 14.4991 1.25067C14.6979 1.25067 14.8895 1.32956 15.0301 1.47001ZM15.8491 11.832L12.1691 8.15001C12.0101 9.32001 12.0961 10.484 12.4401 11.562C13.5181 11.906 14.6821 11.992 15.8521 11.833M11.3321 12.955C11.6311 13.822 11.7451 14.755 11.6851 15.702L8.30111 12.318C9.24811 12.258 10.1811 12.372 11.0481 12.671L11.2601 12.743L11.3321 12.955Z" fill="white"/>
</g>
</svg>
