<svg width="24" height="24" viewBox="0 0 24 24" fill="none" xmlns="http://www.w3.org/2000/svg">
<g id="mingcute:bread-fill">
<g id="Group">
<path id="Vector" fill-rule="evenodd" clip-rule="evenodd" d="M14.194 2.88497C16.494 2.58597 18.652 3.09497 19.839 4.28197C20.629 5.07297 21.019 5.99297 20.999 7.00197C20.982 7.96297 20.594 8.89597 20.061 9.76597C19.299 11.011 18.109 12.329 16.791 13.681L16.062 14.421L14.446 16.038L13.755 16.72C12.377 18.066 11.033 19.286 9.766 20.061C8.896 20.594 7.963 20.981 7.002 21C5.993 21.02 5.073 20.63 4.282 19.839C3.095 18.652 2.586 16.495 2.885 14.194C3.192 11.834 4.356 9.15897 6.757 6.75697C9.159 4.35697 11.835 3.19197 14.194 2.88497ZM5.691 11.665C5.35105 12.3927 5.10185 13.1594 4.949 13.948C5.36967 14.3086 5.867 14.5853 6.441 14.778C6.69269 14.8619 6.96742 14.8424 7.20475 14.7238C7.44208 14.6052 7.62256 14.3972 7.7065 14.1455C7.79044 13.8938 7.77096 13.6191 7.65235 13.3817C7.53373 13.1444 7.32569 12.9639 7.074 12.88C6.407 12.658 5.962 12.268 5.691 11.664V11.665ZM8.691 7.67897C8.18739 8.13359 7.71748 8.62422 7.285 9.14697C7.479 9.39797 7.691 9.63597 7.906 9.85097C8.491 10.435 9.239 10.996 9.976 11.241C10.2183 11.3228 10.4826 11.3087 10.7148 11.2015C10.947 11.0944 11.1293 10.9025 11.2243 10.6651C11.3193 10.4277 11.3198 10.1629 11.2256 9.92523C11.1314 9.68751 10.9498 9.4949 10.718 9.38697L10.609 9.34397C10.286 9.23697 9.797 8.91397 9.321 8.43697C9.08655 8.20567 8.87553 7.95177 8.691 7.67897ZM13.111 5.14897C12.493 5.32697 11.852 5.57897 11.204 5.91697C11.724 6.76397 12.503 7.36897 13.512 7.70597C13.6371 7.74955 13.7695 7.76786 13.9017 7.75983C14.0339 7.75179 14.1632 7.71758 14.2821 7.65918C14.4009 7.60077 14.507 7.51934 14.5941 7.4196C14.6813 7.31987 14.7477 7.20382 14.7897 7.07819C14.8316 6.95257 14.8481 6.81986 14.8383 6.68779C14.8286 6.55571 14.7926 6.4269 14.7327 6.30882C14.6727 6.19074 14.5899 6.08575 14.489 5.99994C14.3881 5.91414 14.2712 5.84923 14.145 5.80897C13.711 5.66397 13.371 5.44897 13.111 5.14897Z" fill="white"/>
</g>
</g>
</svg>
