<svg width="18" height="20" viewBox="0 0 18 20" fill="none" xmlns="http://www.w3.org/2000/svg">
<path d="M17.3438 0.262455C17.1428 0.124435 16.9111 0.0376707 16.669 0.00972779C16.4268 -0.0182151 16.1815 0.013512 15.9544 0.102142C14.6391 0.614017 11.9831 1.47277 9 1.47277C6.01688 1.47277 3.36 0.614017 2.04281 0.102142C1.81555 0.0139219 1.5702 -0.0175768 1.32803 0.0103733C1.08585 0.0383234 0.854128 0.12488 0.652933 0.262549C0.451739 0.400219 0.287131 0.584852 0.17336 0.800463C0.0595897 1.01608 8.57163e-05 1.25617 0 1.49995V6.72839C0 10.0884 0.904687 13.2581 2.54813 15.6515C4.25063 18.1321 6.54188 19.4953 9 19.4953C11.4581 19.4953 13.7494 18.1293 15.4519 15.6515C17.0953 13.26 18 10.0903 18 6.73027V1.49995C17.9996 1.25586 17.9396 1.01555 17.8252 0.799899C17.7108 0.584246 17.5456 0.39976 17.3438 0.262455ZM16.5 6.73121C16.5 9.79121 15.6881 12.659 14.2153 14.8059C12.8006 16.8656 10.9491 18 9 18C7.05094 18 5.19938 16.8656 3.78469 14.805C2.31188 12.6562 1.5 9.79027 1.5 6.73027V1.49995C2.91656 2.05027 5.77313 2.97277 9 2.97277C12.2269 2.97277 15.0844 2.05027 16.5 1.49995V6.73121ZM14.8125 8.50027C14.945 8.64945 15.0129 8.84517 15.0011 9.04437C14.9893 9.24357 14.8989 9.42993 14.7497 9.56246C14.6005 9.69498 14.4048 9.76281 14.2056 9.75103C14.0064 9.73926 13.82 9.64883 13.6875 9.49964C13.4363 9.21839 12.8578 8.99996 12.375 8.99996C11.8922 8.99996 11.31 9.21933 11.0625 9.49964C10.9968 9.57351 10.9172 9.63372 10.8283 9.67683C10.7393 9.71994 10.6428 9.74511 10.5441 9.7509C10.3448 9.76259 10.149 9.69464 9.99984 9.56199C9.85066 9.42934 9.76028 9.24286 9.74859 9.04357C9.7369 8.84428 9.80485 8.64851 9.9375 8.49933C10.4728 7.90121 11.4506 7.49996 12.375 7.49996C13.2994 7.49996 14.2734 7.90214 14.8125 8.50027ZM5.625 8.99996C5.13844 8.99996 4.56 9.21933 4.3125 9.49964C4.24682 9.57351 4.16723 9.63372 4.07828 9.67683C3.98933 9.71994 3.89276 9.74511 3.79408 9.7509C3.5948 9.76259 3.39903 9.69464 3.24984 9.56199C3.10066 9.42934 3.01028 9.24286 2.99859 9.04357C2.9869 8.84428 3.05485 8.64851 3.1875 8.49933C3.72656 7.90121 4.70438 7.49996 5.625 7.49996C6.54562 7.49996 7.52344 7.90121 8.0625 8.49933C8.12818 8.5732 8.17867 8.65928 8.21108 8.75266C8.2435 8.84604 8.2572 8.94489 8.25141 9.04357C8.24562 9.14225 8.22045 9.23882 8.17734 9.32777C8.13423 9.41672 8.07402 9.4963 8.00016 9.56199C7.92629 9.62767 7.84021 9.67816 7.74682 9.71057C7.65344 9.74298 7.55459 9.75669 7.45592 9.7509C7.35724 9.74511 7.26067 9.71994 7.17172 9.67683C7.08277 9.63372 7.00318 9.57351 6.9375 9.49964C6.69 9.21933 6.11156 8.99996 5.625 8.99996ZM12.7922 13.2365C12.3267 13.7889 11.7461 14.2329 11.0911 14.5375C10.436 14.842 9.72237 14.9998 9 14.9998C8.27763 14.9998 7.56397 14.842 6.90895 14.5375C6.25392 14.2329 5.67334 13.7889 5.20781 13.2365C5.07864 13.0852 5.01487 12.8888 5.03052 12.6905C5.04616 12.4922 5.13995 12.3082 5.29125 12.179C5.44255 12.0498 5.63896 11.9861 5.83728 12.0017C6.0356 12.0174 6.21958 12.1112 6.34875 12.2625C6.67336 12.65 7.07897 12.9617 7.53704 13.1755C7.9951 13.3893 8.49448 13.5002 9 13.5002C9.50552 13.5002 10.0049 13.3893 10.463 13.1755C10.921 12.9617 11.3266 12.65 11.6512 12.2625C11.7804 12.1112 11.9644 12.0174 12.1627 12.0017C12.2609 11.994 12.3597 12.0056 12.4534 12.0361C12.5471 12.0665 12.6338 12.1151 12.7087 12.179C12.7837 12.243 12.8452 12.3211 12.89 12.4088C12.9347 12.4966 12.9617 12.5923 12.9695 12.6905C12.9772 12.7887 12.9656 12.8874 12.9351 12.9811C12.9047 13.0748 12.8561 13.1616 12.7922 13.2365Z" fill="#383B42"/>
</svg>
