<svg width="24" height="24" viewBox="0 0 24 24" fill="none" xmlns="http://www.w3.org/2000/svg">
<g id="ph:mask-happy">
<path id="Vector" d="M20.3438 3.26252C20.1428 3.1245 19.9111 3.03773 19.669 3.00979C19.4268 2.98185 19.1815 3.01357 18.9544 3.1022C17.6391 3.61408 14.9831 4.47283 12 4.47283C9.01688 4.47283 6.36 3.61408 5.04281 3.1022C4.81555 3.01398 4.5702 2.98248 4.32803 3.01043C4.08585 3.03838 3.85413 3.12494 3.65293 3.26261C3.45174 3.40028 3.28713 3.58491 3.17336 3.80052C3.05959 4.01614 3.00009 4.25623 3 4.50002V9.72845C3 13.0885 3.90469 16.2581 5.54813 18.6516C7.25063 21.1322 9.54187 22.4953 12 22.4953C14.4581 22.4953 16.7494 21.1294 18.4519 18.6516C20.0953 16.26 21 13.0903 21 9.73033V4.50002C20.9996 4.25592 20.9396 4.01561 20.8252 3.79996C20.7108 3.58431 20.5456 3.39982 20.3438 3.26252ZM19.5 9.73127C19.5 12.7913 18.6881 15.6591 17.2153 17.806C15.8006 19.8656 13.9491 21 12 21C10.0509 21 8.19938 19.8656 6.78469 17.805C5.31188 15.6563 4.5 12.7903 4.5 9.73033V4.50002C5.91656 5.05033 8.77313 5.97283 12 5.97283C15.2269 5.97283 18.0844 5.05033 19.5 4.50002V9.7322V9.73127ZM17.8125 11.5003C17.945 11.6495 18.0129 11.8452 18.0011 12.0444C17.9893 12.2436 17.8989 12.43 17.7497 12.5625C17.6005 12.695 17.4048 12.7629 17.2056 12.7511C17.0064 12.7393 16.82 12.6489 16.6875 12.4997C16.4362 12.2185 15.8578 12 15.375 12C14.8922 12 14.31 12.2194 14.0625 12.4997C13.9968 12.5736 13.9172 12.6338 13.8283 12.6769C13.7393 12.72 13.6428 12.7452 13.5441 12.751C13.3448 12.7627 13.149 12.6947 12.9998 12.562C12.8507 12.4294 12.7603 12.2429 12.7486 12.0436C12.7369 11.8443 12.8049 11.6486 12.9375 11.4994C13.4728 10.9013 14.4506 10.5 15.375 10.5C16.2994 10.5 17.2734 10.9013 17.8125 11.4994V11.5003ZM8.625 12C8.13844 12 7.56 12.2194 7.3125 12.4997C7.24682 12.5736 7.16723 12.6338 7.07828 12.6769C6.98933 12.72 6.89276 12.7452 6.79408 12.751C6.5948 12.7627 6.39903 12.6947 6.24984 12.562C6.10066 12.4294 6.01028 12.2429 5.99859 12.0436C5.9869 11.8443 6.05485 11.6486 6.1875 11.4994C6.72656 10.9013 7.70438 10.5 8.625 10.5C9.54562 10.5 10.5234 10.9013 11.0625 11.4994C11.1282 11.5733 11.1787 11.6593 11.2111 11.7527C11.2435 11.8461 11.2572 11.945 11.2514 12.0436C11.2456 12.1423 11.2205 12.2389 11.1773 12.3278C11.1342 12.4168 11.074 12.4964 11.0002 12.562C10.9263 12.6277 10.8402 12.6782 10.7468 12.7106C10.6534 12.743 10.5546 12.7567 10.4559 12.751C10.3572 12.7452 10.2607 12.72 10.1717 12.6769C10.0828 12.6338 10.0032 12.5736 9.9375 12.4997C9.69 12.2194 9.11156 12 8.625 12ZM15.7922 16.2366C15.3267 16.7889 14.7461 17.2329 14.0911 17.5375C13.436 17.8421 12.7224 17.9999 12 17.9999C11.2776 17.9999 10.564 17.8421 9.90895 17.5375C9.25392 17.2329 8.67334 16.7889 8.20781 16.2366C8.07864 16.0853 8.01487 15.8889 8.03052 15.6905C8.04616 15.4922 8.13995 15.3082 8.29125 15.1791C8.44255 15.0499 8.63896 14.9861 8.83728 15.0018C9.0356 15.0174 9.21958 15.1112 9.34875 15.2625C9.67336 15.6501 10.079 15.9617 10.537 16.1756C10.9951 16.3894 11.4945 16.5002 12 16.5002C12.5055 16.5002 13.0049 16.3894 13.463 16.1756C13.921 15.9617 14.3266 15.6501 14.6512 15.2625C14.7804 15.1112 14.9644 15.0174 15.1627 15.0018C15.2609 14.994 15.3597 15.0057 15.4534 15.0361C15.5471 15.0665 15.6338 15.1151 15.7087 15.1791C15.7837 15.243 15.8452 15.3211 15.89 15.4089C15.9347 15.4966 15.9617 15.5924 15.9695 15.6905C15.9772 15.7887 15.9656 15.8875 15.9351 15.9812C15.9047 16.0749 15.8561 16.1617 15.7922 16.2366Z" fill="white"/>
</g>
</svg>
