<svg width="24" height="24" viewBox="0 0 24 24" fill="none" xmlns="http://www.w3.org/2000/svg">
<g id="fluent:food-grains-24-regular">
<path id="Vector" d="M11.39 2.28702C10.438 3.11299 9.71844 4.17346 9.30272 5.36328C8.88699 6.55309 8.78952 7.83092 9.01997 9.07002C7.49797 8.19402 5.81997 7.93002 3.89197 8.09002C3.76626 8.10085 3.64392 8.13634 3.53195 8.19448C3.41998 8.25262 3.32056 8.33226 3.23939 8.42885C3.15821 8.52544 3.09688 8.63709 3.05888 8.7574C3.02089 8.87771 3.00699 9.00433 3.01797 9.13002C3.17497 10.856 3.96997 12.568 5.07797 13.906C4.66035 13.9027 4.24301 13.9284 3.82897 13.983C3.59081 14.0148 3.37386 14.1365 3.22266 14.3232C3.07146 14.5099 2.9975 14.7475 3.01597 14.987C3.16283 16.8949 4.02439 18.6771 5.42839 19.9773C6.8324 21.2775 8.6754 21.9999 10.589 22H13.41C15.3237 22.0001 17.167 21.2779 18.5712 19.9777C19.9754 18.6774 20.8371 16.8951 20.984 14.987C21.0024 14.7473 20.9283 14.5097 20.7769 14.3229C20.6255 14.1362 20.4083 14.0145 20.17 13.983C19.7609 13.9291 19.3486 13.9034 18.936 13.906C20.044 12.567 20.839 10.856 20.996 9.13002C21.0069 9.00426 20.993 8.87756 20.9549 8.75719C20.9169 8.63681 20.8555 8.52513 20.7742 8.42853C20.6929 8.33192 20.5934 8.2523 20.4813 8.19421C20.3692 8.13613 20.2468 8.10072 20.121 8.09002C18.193 7.93002 16.506 8.19402 14.979 9.07002C15.2095 7.831 15.1122 6.55324 14.6967 5.36343C14.2811 4.17362 13.5618 3.11309 12.61 2.28702C12.4408 2.13999 12.2241 2.05902 12 2.05902C11.7758 2.05902 11.5592 2.13999 11.39 2.28702ZM12 11.727C10.973 10.6579 10.3994 9.23298 10.3994 7.75052C10.3994 6.26807 10.973 4.84311 12 3.77402C13.0267 4.84306 13.6 6.26781 13.6 7.75002C13.6 9.23224 13.0267 10.657 12 11.726M12 17.333C10.9107 15.9471 9.43848 14.9116 7.76597 14.355C7.73356 14.3244 7.69915 14.296 7.66297 14.27C6.19297 13.27 4.94297 11.426 4.58997 9.55002C6.45897 9.48802 7.92597 9.93702 9.26497 11.071C10.29 11.94 10.745 12.999 11.082 13.786C11.17 13.99 11.249 14.176 11.329 14.334C11.3913 14.4584 11.4871 14.563 11.6055 14.6361C11.7239 14.7093 11.8603 14.748 11.9995 14.748C12.1386 14.748 12.275 14.7093 12.3935 14.6361C12.5119 14.563 12.6076 14.4584 12.67 14.334C12.7486 14.174 12.831 13.9914 12.917 13.786C13.255 12.999 13.709 11.939 14.734 11.071C16.073 9.93802 17.551 9.48802 19.424 9.55002C19.07 11.426 17.821 13.27 16.351 14.27C16.3174 14.2937 16.2854 14.3194 16.255 14.347C14.5737 14.9025 13.0936 15.9405 12 17.333ZM12.643 19.04C14.036 16.71 16.645 15.26 19.422 15.417C19.1825 16.8382 18.4472 18.1286 17.3465 19.0592C16.2459 19.9897 14.8512 20.5002 13.41 20.5H10.59C7.58997 20.5 5.06597 18.324 4.57897 15.418C7.35497 15.26 9.96397 16.709 11.357 19.04C11.4236 19.1513 11.5178 19.2433 11.6306 19.3073C11.7434 19.3712 11.8708 19.4048 12.0005 19.4048C12.1301 19.4048 12.2575 19.3712 12.3703 19.3073C12.4831 19.2433 12.5774 19.1513 12.644 19.04" fill="white"/>
</g>
</svg>
