<svg width="26" height="26" viewBox="0 0 26 26" fill="none" xmlns="http://www.w3.org/2000/svg">
<path d="M24.944 17.4334C25.216 16.7854 24.4387 16.2334 23.7867 16.5214C22.4832 17.0929 21.0752 17.3871 19.652 17.3854C14.072 17.3854 9.54933 12.9534 9.54933 7.48541C9.54876 5.63941 10.0732 3.83131 11.0613 2.27208C11.44 1.67475 10.9853 0.848079 10.292 1.02408C4.94667 2.38808 1 7.15075 1 12.8161C1 19.5454 6.56667 25.0001 13.4347 25.0001C18.6347 25.0001 23.088 21.8734 24.944 17.4334Z" stroke="white" stroke-width="2"/>
<path d="M17.8147 1.1373C17.108 0.665302 16.2653 1.50797 16.736 2.21464L17.576 3.47464C17.9171 3.98539 18.0992 4.58579 18.0992 5.19997C18.0992 5.81415 17.9171 6.41455 17.576 6.9253L16.736 8.1853C16.2653 8.89197 17.1093 9.73464 17.816 9.26264L19.0747 8.42264C19.5854 8.08154 20.1858 7.89949 20.8 7.89949C21.4142 7.89949 22.0146 8.08154 22.5253 8.42264L23.7853 9.26264C24.492 9.73464 25.3347 8.89197 24.8627 8.1853L24.0227 6.9253C23.6816 6.41455 23.4995 5.81415 23.4995 5.19997C23.4995 4.58579 23.6816 3.98539 24.0227 3.47464L24.8627 2.21464C25.3347 1.50797 24.492 0.665302 23.784 1.1373L22.5253 1.9773C22.0146 2.3184 21.4142 2.50044 20.8 2.50044C20.1858 2.50044 19.5854 2.3184 19.0747 1.9773L17.8147 1.1373Z" stroke="white" stroke-width="1.5"/>
</svg>
