<svg width="24" height="24" viewBox="0 0 24 24" fill="none" xmlns="http://www.w3.org/2000/svg">
<g id="fluent:pill-16-filled">
<path id="Vector" d="M12.0001 4.575C12.9847 3.59038 14.3202 3.03723 15.7126 3.03723C17.1051 3.03723 18.4405 3.59038 19.4251 4.575C20.4097 5.55962 20.9629 6.89504 20.9629 8.2875C20.9629 9.67996 20.4097 11.0154 19.4251 12L12.0001 19.425C11.5126 19.9125 10.9338 20.2993 10.2968 20.5631C9.65982 20.827 8.9771 20.9628 8.28762 20.9628C6.89516 20.9628 5.55974 20.4096 4.57512 19.425C3.59051 18.4404 3.03735 17.105 3.03735 15.7125C3.03735 14.32 3.59051 12.9846 4.57512 12L12.0001 4.575ZM15.1831 14.121L18.3631 10.941C19.0614 10.2368 19.4523 9.28464 19.4503 8.29293C19.4482 7.30121 19.0534 6.35068 18.3523 5.64933C17.6511 4.94798 16.7007 4.55293 15.709 4.55061C14.7173 4.5483 13.765 4.93892 13.0606 5.637L9.87912 8.817L15.1831 14.121ZM11.7811 16.281C11.8508 16.2113 11.906 16.1285 11.9436 16.0374C11.9813 15.9464 12.0006 15.8488 12.0005 15.7502C12.0005 15.6517 11.981 15.5541 11.9432 15.4631C11.9054 15.3721 11.8501 15.2894 11.7804 15.2198C11.7106 15.1501 11.6279 15.0949 11.5368 15.0573C11.4457 15.0196 11.3481 15.0003 11.2496 15.0003C11.151 15.0004 11.0535 15.0199 10.9625 15.0577C10.8714 15.0954 10.7888 15.1508 10.7191 15.2205L8.46912 17.4705C8.39949 17.5402 8.34427 17.623 8.30662 17.7141C8.26898 17.8051 8.24964 17.9027 8.2497 18.0013C8.24985 18.2003 8.32904 18.3911 8.46987 18.5318C8.6107 18.6724 8.80163 18.7513 9.00065 18.7512C9.19967 18.751 9.39049 18.6718 9.53112 18.531L11.7811 16.281Z" fill="white"/>
</g>
</svg>
