<svg width="32" height="32" viewBox="0 0 32 32" fill="none" xmlns="http://www.w3.org/2000/svg">
<g id="hugeicons:dna-01">
<path id="Vector" d="M11.5563 29.3334C12.2683 28.6214 12.9803 27.9094 12.3217 24.0001M11.5563 20.4454C9.77899 13.3334 11.1123 12.0001 11.5563 11.5561C12.0003 11.1121 13.3337 9.77875 20.4457 11.5561M11.5563 20.4454C4.44566 18.6667 3.55633 19.5547 2.66699 20.4441M11.5563 20.4454C18.667 22.2241 20.0003 20.8881 20.4443 20.4441C20.8883 20.0001 22.2243 18.6667 20.4457 11.5561M20.4457 11.5561C27.5563 13.3334 28.4443 12.4454 29.3337 11.5561M20.4443 2.66675C19.7323 3.37875 19.0203 4.09075 19.679 8.00008" stroke="#383B42" stroke-width="2" stroke-linecap="round" stroke-linejoin="round"/>
</g>
</svg>
