<svg width="30" height="30" viewBox="0 0 30 30" fill="none" xmlns="http://www.w3.org/2000/svg">
<path d="M10.556 28.3332C11.268 27.6212 11.98 26.9092 11.3213 22.9998M10.556 19.4452C8.77867 12.3332 10.112 10.9998 10.556 10.5558C11 10.1118 12.3333 8.7785 19.4453 10.5558M10.556 19.4452C3.44534 17.6665 2.55601 18.5545 1.66667 19.4438M10.556 19.4452C17.6667 21.2238 19 19.8878 19.444 19.4438C19.888 18.9998 21.224 17.6665 19.4453 10.5558M19.4453 10.5558C26.556 12.3332 27.444 11.4452 28.3333 10.5558M19.444 1.6665C18.732 2.3785 18.02 3.0905 18.6787 6.99984" stroke="white" stroke-width="2" stroke-linecap="round" stroke-linejoin="round"/>
</svg>
