<svg width="32" height="32" viewBox="0 0 32 32" fill="none" xmlns="http://www.w3.org/2000/svg">
<path d="M7.47199 3.20022C6.47359 3.20022 5.59199 3.90102 5.40799 4.90902C5.17119 6.21782 4.79999 8.54742 4.79999 10.4002C4.79999 12.3698 5.81759 14.101 7.35199 15.0978C7.78559 15.381 7.99999 15.7458 7.99999 16.0578V16.7138C7.99999 16.7426 7.99839 16.7714 7.99519 16.8002C7.95199 17.2162 7.75359 19.0866 7.56639 21.0098C7.38239 22.9058 7.19999 24.9298 7.19999 25.6002C7.19999 26.4489 7.53713 27.2628 8.13725 27.863C8.73736 28.4631 9.5513 28.8002 10.4 28.8002C11.2487 28.8002 12.0626 28.4631 12.6627 27.863C13.2628 27.2628 13.6 26.4489 13.6 25.6002C13.6 24.9282 13.4176 22.9058 13.2336 21.0098C13.0968 19.6065 12.9539 18.2039 12.8048 16.8018L12.8 16.7138V16.0578C12.8 15.7442 13.0144 15.3794 13.448 15.0978C14.2313 14.5896 14.875 13.8937 15.3207 13.0732C15.7665 12.2528 15.9999 11.3339 16 10.4002C16 8.54742 15.6288 6.21782 15.392 4.90902C15.303 4.42733 15.0476 3.99224 14.6703 3.67987C14.2929 3.36749 13.8178 3.19771 13.328 3.20022C12.784 3.20022 12.288 3.40342 11.9136 3.73782C11.4858 3.3901 10.9513 3.20026 10.4 3.20022C9.82559 3.20022 9.29919 3.40182 8.88639 3.73782C8.49791 3.39046 7.99312 3.19898 7.47199 3.20022ZM9.59999 5.60022C9.59999 5.38805 9.68427 5.18457 9.8343 5.03454C9.98433 4.88451 10.1878 4.80022 10.4 4.80022C10.6122 4.80022 10.8156 4.88451 10.9657 5.03454C11.1157 5.18457 11.2 5.38805 11.2 5.60022V10.4002C11.2 10.6124 11.2843 10.8159 11.4343 10.9659C11.5843 11.1159 11.7878 11.2002 12 11.2002C12.2122 11.2002 12.4156 11.1159 12.5657 10.9659C12.7157 10.8159 12.8 10.6124 12.8 10.4002V5.32822C12.8 5.25888 12.8136 5.19023 12.8402 5.12617C12.8667 5.06211 12.9056 5.0039 12.9546 4.95487C13.0037 4.90584 13.0619 4.86695 13.1259 4.84041C13.19 4.81388 13.2586 4.80022 13.328 4.80022C13.5792 4.80022 13.776 4.97302 13.8176 5.19542C14.0528 6.49622 14.4 8.70262 14.4 10.4002C14.4001 11.0675 14.2332 11.7242 13.9146 12.3105C13.5961 12.8967 13.1359 13.394 12.576 13.757C11.8736 14.213 11.2 15.0146 11.2 16.0578V16.7138C11.2 16.7992 11.2043 16.8845 11.2128 16.9698C11.2576 17.3826 11.4544 19.2482 11.6416 21.165C11.8304 23.109 12 25.029 12 25.6002C12 26.0246 11.8314 26.4315 11.5314 26.7316C11.2313 27.0317 10.8243 27.2002 10.4 27.2002C9.97564 27.2002 9.56868 27.0317 9.26862 26.7316C8.96856 26.4315 8.79999 26.0246 8.79999 25.6002C8.79999 25.029 8.96959 23.109 9.15839 21.165C9.34559 19.2482 9.54239 17.3826 9.58719 16.9698C9.59572 16.8845 9.59999 16.7992 9.59999 16.7138V16.0578C9.59999 15.0146 8.92639 14.213 8.22399 13.757C7.6641 13.394 7.20392 12.8967 6.88534 12.3105C6.56676 11.7242 6.39991 11.0675 6.39999 10.4002C6.39999 8.70422 6.74719 6.49622 6.98239 5.19542C7.0043 5.0821 7.06567 4.98021 7.1556 4.90786C7.24553 4.8355 7.3582 4.79737 7.47359 4.80022C7.61334 4.80065 7.74723 4.85646 7.84591 4.95543C7.94458 5.05441 7.99999 5.18847 7.99999 5.32822V10.4002C7.99999 10.6124 8.08427 10.8159 8.2343 10.9659C8.38433 11.1159 8.58781 11.2002 8.79999 11.2002C9.01216 11.2002 9.21564 11.1159 9.36567 10.9659C9.5157 10.8159 9.59999 10.6124 9.59999 10.4002V5.60022ZM17.6 10.4002C17.6 8.49066 18.3586 6.65932 19.7088 5.30905C21.0591 3.95879 22.8904 3.20022 24.8 3.20022C25.0122 3.20022 25.2156 3.28451 25.3657 3.43454C25.5157 3.58457 25.6 3.78805 25.6 4.00022V15.165L25.632 15.5234C25.7567 16.961 25.8783 18.3989 25.9968 19.837C26.1952 22.2482 26.4 24.8946 26.4 25.6002C26.4 26.4489 26.0628 27.2628 25.4627 27.863C24.8626 28.4631 24.0487 28.8002 23.2 28.8002C22.3513 28.8002 21.5374 28.4631 20.9372 27.863C20.3371 27.2628 20 26.4489 20 25.6002C20 24.8962 20.2048 22.2482 20.4032 19.837C20.5024 18.6194 20.6032 17.4418 20.6784 16.5698L20.7264 16.0002H20C19.3635 16.0002 18.753 15.7474 18.3029 15.2973C17.8528 14.8472 17.6 14.2367 17.6 13.6002V10.4002ZM22.3968 15.2706L22.3632 15.6626L22.272 16.7074C22.1968 17.5778 22.096 18.7522 21.9968 19.9682C21.7952 22.4274 21.6 24.9794 21.6 25.6002C21.6 26.0246 21.7686 26.4315 22.0686 26.7316C22.3687 27.0317 22.7756 27.2002 23.2 27.2002C23.6243 27.2002 24.0313 27.0317 24.3314 26.7316C24.6314 26.4315 24.8 26.0246 24.8 25.6002C24.8 24.9794 24.6048 22.4274 24.4032 19.9682C24.2845 18.5327 24.1624 17.0975 24.0368 15.6626L24.0032 15.2722V15.2706L24 15.2002V4.85622C22.6669 5.04863 21.4479 5.71503 20.5663 6.73327C19.6847 7.75151 19.1996 9.05337 19.2 10.4002V13.6002C19.2 13.8124 19.2843 14.0159 19.4343 14.1659C19.5843 14.3159 19.7878 14.4002 20 14.4002H21.6C21.711 14.4002 21.8207 14.4233 21.9223 14.4681C22.0239 14.5128 22.115 14.5782 22.19 14.66C22.2649 14.7419 22.322 14.8385 22.3576 14.9436C22.3932 15.0487 22.4066 15.1601 22.3968 15.2706Z" fill="white"/>
</svg>
