<svg width="32" height="32" viewBox="0 0 32 32" fill="none" xmlns="http://www.w3.org/2000/svg">
<g id="fluent:eyedropper-16-regular">
<path id="Vector" d="M26.8641 5.13809C27.2241 5.49809 27.5121 5.92609 27.7041 6.39809H27.7081C27.9041 6.87009 28.0021 7.37609 28.0021 7.88609C28.0189 8.42386 27.9259 8.95943 27.7289 9.46009C27.5319 9.96076 27.2349 10.416 26.8561 10.7981L25.4561 12.1981L25.9561 12.7181C26.3777 13.1439 26.6142 13.7189 26.6142 14.3181C26.6142 14.9173 26.3777 15.4923 25.9561 15.9181L24.7901 17.0841C24.3643 17.5057 23.7893 17.7422 23.1901 17.7422C22.5909 17.7422 22.0159 17.5057 21.5901 17.0841L21.0801 16.5741L21.0761 16.5701L11.2061 26.4401C11.113 26.5329 11.0026 26.6064 10.8811 26.6566C10.7596 26.7067 10.6295 26.7323 10.4981 26.7321H9.43407L6.86207 27.8361C6.48469 28.0008 6.06646 28.048 5.66187 27.9716C5.25727 27.8952 4.88506 27.6988 4.59369 27.4078C4.30233 27.1169 4.10533 26.745 4.02834 26.3405C3.95136 25.936 3.99795 25.5177 4.16207 25.1401L5.26807 22.5661V21.5021C5.26812 21.2374 5.37313 20.9835 5.56007 20.7961L15.4301 10.9061L14.9221 10.3981C14.5 9.97255 14.2631 9.39746 14.2631 8.79809C14.2631 8.19872 14.5 7.62363 14.9221 7.19809L16.1021 6.02809C16.42 5.71327 16.8235 5.49894 17.2624 5.41181C17.7012 5.32468 18.156 5.3686 18.5701 5.53809C18.8461 5.65409 19.0907 5.81742 19.3041 6.02809L19.8161 6.53609L21.2161 5.13609C21.9459 4.40742 22.9347 3.99753 23.9661 3.99609C24.5011 3.98039 25.0337 4.07332 25.5318 4.26926C26.0299 4.4652 26.4831 4.76208 26.8641 5.13809ZM16.8481 12.3281L7.27807 21.9041V22.7601C7.27917 22.8975 7.25193 23.0337 7.19807 23.1601L5.99807 25.9201L8.82807 24.8061C8.95449 24.7522 9.09065 24.725 9.22807 24.7261H10.0841L19.6601 15.1481L16.8481 12.3281ZM25.4461 9.36809C25.6237 9.19395 25.7633 8.98489 25.8561 8.75409L25.8541 8.75809C25.9452 8.52752 25.9927 8.28201 25.9941 8.03409C26.0076 7.76251 25.9657 7.49102 25.8708 7.23621C25.7759 6.9814 25.63 6.74862 25.4421 6.55209C25.0873 6.19974 24.608 6.0014 24.1081 6.00009C23.8397 5.98952 23.5719 6.03313 23.3207 6.12831C23.0695 6.22349 22.8401 6.3683 22.6461 6.55409L20.5321 8.67009C20.3445 8.85756 20.0902 8.96287 19.8251 8.96287C19.5599 8.96287 19.3056 8.85756 19.1181 8.67009L17.8981 7.45409C17.8717 7.42821 17.8404 7.40782 17.8061 7.39409C17.7726 7.37747 17.7352 7.37055 17.6981 7.37409C17.6609 7.37055 17.6235 7.37747 17.5901 7.39409C17.5557 7.40782 17.5245 7.42821 17.4981 7.45409L16.3321 8.62009C16.3065 8.64463 16.2862 8.67415 16.2724 8.70682C16.2587 8.73949 16.2517 8.77464 16.2521 8.81009C16.2517 8.84554 16.2587 8.88068 16.2724 8.91336C16.2862 8.94603 16.3065 8.97555 16.3321 9.00009L22.9981 15.6641C23.0228 15.6899 23.0527 15.7104 23.0857 15.7241C23.1188 15.7379 23.1543 15.7447 23.1901 15.7441C23.2255 15.7444 23.2607 15.7375 23.2933 15.7237C23.326 15.71 23.3555 15.6897 23.3801 15.6641L24.5461 14.4981C24.5719 14.4733 24.5923 14.4435 24.6061 14.4104C24.6199 14.3774 24.6267 14.3419 24.6261 14.3061C24.6264 14.2706 24.6195 14.2355 24.6057 14.2028C24.5919 14.1701 24.5716 14.1406 24.5461 14.1161L23.3301 12.8961C23.1426 12.7086 23.0373 12.4543 23.0373 12.1891C23.0373 11.9239 23.1426 11.6696 23.3301 11.4821L25.4461 9.36809Z" fill="#383B42"/>
</g>
</svg>
