<svg width="32" height="32" viewBox="0 0 32 32" fill="none" xmlns="http://www.w3.org/2000/svg">
<path d="M26.8639 5.13784C27.2239 5.49784 27.5119 5.92584 27.7039 6.39784H27.7079C27.9039 6.86984 28.0019 7.37584 28.0019 7.88584C28.0188 8.42362 27.9258 8.95919 27.7288 9.45985C27.5318 9.96051 27.2348 10.4158 26.8559 10.7978L25.4559 12.1978L25.9559 12.7178C26.3776 13.1436 26.6141 13.7186 26.6141 14.3178C26.6141 14.9171 26.3776 15.4921 25.9559 15.9178L24.7899 17.0838C24.3641 17.5055 23.7892 17.742 23.1899 17.742C22.5907 17.742 22.0157 17.5055 21.5899 17.0838L21.0799 16.5738L21.0759 16.5698L11.2059 26.4398C11.1129 26.5326 11.0025 26.6062 10.881 26.6563C10.7595 26.7064 10.6294 26.7321 10.4979 26.7318H9.43394L6.86194 27.8358C6.48456 28.0005 6.06634 28.0477 5.66175 27.9713C5.25715 27.895 4.88493 27.6985 4.59357 27.4076C4.30221 27.1166 4.10521 26.7447 4.02822 26.3402C3.95123 25.9358 3.99783 25.5175 4.16194 25.1398L5.26794 22.5658V21.5018C5.268 21.2371 5.37301 20.9833 5.55994 20.7958L15.4299 10.9058L14.9219 10.3978C14.4999 9.9723 14.263 9.39722 14.263 8.79784C14.263 8.19847 14.4999 7.62338 14.9219 7.19784L16.1019 6.02784C16.4199 5.71302 16.8234 5.4987 17.2622 5.41157C17.7011 5.32444 18.1559 5.36835 18.5699 5.53784C18.8459 5.65384 19.0906 5.81718 19.3039 6.02784L19.8159 6.53584L21.2159 5.13584C21.9458 4.40718 22.9346 3.99728 23.9659 3.99584C24.501 3.98015 25.0336 4.07308 25.5317 4.26901C26.0298 4.46495 26.483 4.76183 26.8639 5.13784ZM16.8479 12.3278L7.27794 21.9038V22.7598C7.27904 22.8973 7.25181 23.0334 7.19794 23.1598L5.99794 25.9198L8.82794 24.8058C8.95436 24.752 9.09053 24.7247 9.22794 24.7258H10.0839L19.6599 15.1478L16.8479 12.3278ZM25.4459 9.36784C25.6236 9.19371 25.7632 8.98464 25.8559 8.75384L25.8539 8.75784C25.9451 8.52727 25.9926 8.28177 25.9939 8.03384C26.0075 7.76227 25.9656 7.49078 25.8706 7.23597C25.7757 6.98115 25.6299 6.74837 25.4419 6.55184C25.0872 6.19949 24.6079 6.00116 24.1079 5.99984C23.8395 5.98928 23.5718 6.03288 23.3206 6.12807C23.0694 6.22325 22.8399 6.36805 22.6459 6.55384L20.5319 8.66984C20.3444 8.85732 20.0901 8.96263 19.8249 8.96263C19.5598 8.96263 19.3055 8.85732 19.1179 8.66984L17.8979 7.45384C17.8715 7.42797 17.8403 7.40757 17.8059 7.39384C17.7725 7.37723 17.7351 7.3703 17.6979 7.37384C17.6608 7.3703 17.6234 7.37723 17.5899 7.39384C17.5556 7.40757 17.5243 7.42797 17.4979 7.45384L16.3319 8.61984C16.3064 8.64439 16.2861 8.6739 16.2723 8.70658C16.2585 8.73925 16.2516 8.77439 16.2519 8.80984C16.2516 8.8453 16.2585 8.88044 16.2723 8.91311C16.2861 8.94579 16.3064 8.9753 16.3319 8.99984L22.9979 15.6638C23.0227 15.6897 23.0526 15.7101 23.0856 15.7239C23.1186 15.7376 23.1542 15.7444 23.1899 15.7438C23.2254 15.7442 23.2605 15.7372 23.2932 15.7235C23.3259 15.7097 23.3554 15.6894 23.3799 15.6638L24.5459 14.4978C24.5718 14.4731 24.5922 14.4432 24.606 14.4102C24.6197 14.3772 24.6265 14.3416 24.6259 14.3058C24.6263 14.2704 24.6193 14.2352 24.6056 14.2026C24.5918 14.1699 24.5715 14.1404 24.5459 14.1158L23.3299 12.8958C23.1425 12.7083 23.0372 12.454 23.0372 12.1888C23.0372 11.9237 23.1425 11.6694 23.3299 11.4818L25.4459 9.36784Z" fill="white"/>
</svg>
