<svg width="32" height="32" viewBox="0 0 32 32" fill="none" xmlns="http://www.w3.org/2000/svg">
<g id="akar-icons:moon">
<g id="Group">
<path id="Vector" d="M27.944 20.4334C28.216 19.7854 27.4387 19.2334 26.7867 19.5214C25.4832 20.0929 24.0752 20.3871 22.652 20.3854C17.072 20.3854 12.5493 15.9534 12.5493 10.4854C12.5488 8.63941 13.0732 6.83131 14.0613 5.27208C14.44 4.67475 13.9853 3.84808 13.292 4.02408C7.94667 5.38808 4 10.1507 4 15.8161C4 22.5454 9.56667 28.0001 16.4347 28.0001C21.6347 28.0001 26.088 24.8734 27.944 20.4334Z" stroke="#383B42" stroke-width="2"/>
<path id="Vector_2" d="M20.8147 4.1373C20.108 3.6653 19.2653 4.50797 19.736 5.21464L20.576 6.47464C20.9171 6.98539 21.0992 7.58579 21.0992 8.19997C21.0992 8.81415 20.9171 9.41455 20.576 9.9253L19.736 11.1853C19.2653 11.892 20.1093 12.7346 20.816 12.2626L22.0747 11.4226C22.5854 11.0815 23.1858 10.8995 23.8 10.8995C24.4142 10.8995 25.0146 11.0815 25.5253 11.4226L26.7853 12.2626C27.492 12.7346 28.3347 11.892 27.8627 11.1853L27.0227 9.9253C26.6816 9.41455 26.4995 8.81415 26.4995 8.19997C26.4995 7.58579 26.6816 6.98539 27.0227 6.47464L27.8627 5.21464C28.3347 4.50797 27.492 3.6653 26.784 4.1373L25.5253 4.9773C25.0146 5.3184 24.4142 5.50044 23.8 5.50044C23.1858 5.50044 22.5854 5.3184 22.0747 4.9773L20.8147 4.1373Z" stroke="#383B42" stroke-width="1.5"/>
</g>
</g>
</svg>
