<svg width="32" height="32" viewBox="0 0 32 32" fill="none" xmlns="http://www.w3.org/2000/svg">
<path d="M27.944 20.4334C28.216 19.7854 27.4387 19.2334 26.7867 19.5214C25.4832 20.0929 24.0752 20.3871 22.652 20.3854C17.072 20.3854 12.5493 15.9534 12.5493 10.4854C12.5488 8.63941 13.0732 6.83131 14.0613 5.27208C14.44 4.67475 13.9853 3.84808 13.292 4.02408C7.94667 5.38808 4 10.1507 4 15.8161C4 22.5454 9.56667 28.0001 16.4347 28.0001C21.6347 28.0001 26.088 24.8734 27.944 20.4334Z" stroke="white" stroke-width="2"/>
<path d="M20.8147 4.13755C20.108 3.66555 19.2653 4.50821 19.736 5.21488L20.576 6.47488C20.9171 6.98564 21.0992 7.58603 21.0992 8.20021C21.0992 8.81439 20.9171 9.41479 20.576 9.92555L19.736 11.1855C19.2653 11.8922 20.1093 12.7349 20.816 12.2629L22.0747 11.4229C22.5854 11.0818 23.1858 10.8997 23.8 10.8997C24.4142 10.8997 25.0146 11.0818 25.5253 11.4229L26.7853 12.2629C27.492 12.7349 28.3347 11.8922 27.8627 11.1855L27.0227 9.92555C26.6816 9.41479 26.4995 8.81439 26.4995 8.20021C26.4995 7.58603 26.6816 6.98564 27.0227 6.47488L27.8627 5.21488C28.3347 4.50821 27.492 3.66555 26.784 4.13755L25.5253 4.97755C25.0146 5.31864 24.4142 5.50069 23.8 5.50069C23.1858 5.50069 22.5854 5.31864 22.0747 4.97755L20.8147 4.13755Z" stroke="white" stroke-width="1.5"/>
</svg>
