<svg width="32" height="32" viewBox="0 0 32 32" fill="none" xmlns="http://www.w3.org/2000/svg">
<g id="majesticons:pill-line">
<path id="Vector" d="M12.2295 12.2293L7.51483 16.9426C7.01956 17.4378 6.62668 18.0258 6.35864 18.6729C6.0906 19.32 5.95264 20.0135 5.95264 20.7139C5.95264 21.4143 6.0906 22.1079 6.35864 22.755C6.62668 23.4021 7.01956 23.99 7.51483 24.4853C8.01008 24.9805 8.59804 25.3734 9.24512 25.6414C9.89221 25.9095 10.5858 26.0474 11.2862 26.0474C11.9866 26.0474 12.6801 25.9095 13.3272 25.6414C13.9743 25.3734 14.5622 24.9805 15.0575 24.4853L19.7708 19.7706M12.2295 12.2293L16.9428 7.51459C17.4381 7.01931 18.026 6.62644 18.6731 6.3584C19.3202 6.09035 20.0138 5.95239 20.7142 5.95239C21.4146 5.95239 22.1081 6.09035 22.7552 6.3584C23.4023 6.62644 23.9902 7.01931 24.4855 7.51459C24.9808 8.00984 25.3736 8.59779 25.6417 9.24488C25.9097 9.89197 26.0477 10.5855 26.0477 11.2859C26.0477 11.9863 25.9097 12.6799 25.6417 13.327C25.3736 13.974 24.9808 14.562 24.4855 15.0573L19.7708 19.7706M12.2295 12.2293L19.7708 19.7706" stroke="#383B42" stroke-width="2" stroke-linecap="round" stroke-linejoin="round"/>
</g>
</svg>
