<svg width="32" height="32" viewBox="0 0 32 32" fill="none" xmlns="http://www.w3.org/2000/svg">
<path d="M12.2293 12.2295L7.51465 16.9428C7.01937 17.4381 6.6265 18.026 6.35846 18.6731C6.09041 19.3202 5.95245 20.0138 5.95245 20.7142C5.95245 21.4146 6.09041 22.1081 6.35846 22.7552C6.6265 23.4023 7.01937 23.9902 7.51465 24.4855C8.0099 24.9808 8.59785 25.3736 9.24494 25.6417C9.89203 25.9097 10.5856 26.0477 11.286 26.0477C11.9864 26.0477 12.6799 25.9097 13.327 25.6417C13.9741 25.3736 14.5621 24.9808 15.0573 24.4855L19.7706 19.7708M12.2293 12.2295L16.9426 7.51483C17.4379 7.01956 18.0259 6.62668 18.6729 6.35864C19.32 6.0906 20.0136 5.95264 20.714 5.95264C21.4144 5.95264 22.1079 6.0906 22.755 6.35864C23.4021 6.62668 23.9901 7.01956 24.4853 7.51483C24.9806 8.01008 25.3735 8.59804 25.6415 9.24512C25.9095 9.89221 26.0475 10.5858 26.0475 11.2862C26.0475 11.9866 25.9095 12.6801 25.6415 13.3272C25.3735 13.9743 24.9806 14.5622 24.4853 15.0575L19.7706 19.7708M12.2293 12.2295L19.7706 19.7708" stroke="white" stroke-width="2" stroke-linecap="round" stroke-linejoin="round"/>
</svg>
