<svg width="32" height="32" viewBox="0 0 32 32" fill="none" xmlns="http://www.w3.org/2000/svg">
<g id="ri:flower-line">
<path id="Vector" d="M16 4L16.5561 4.28067C18.7081 5.36632 20.5559 6.9574 21.9363 8.91347C23.0872 8.37593 24.3041 7.98841 25.5566 7.76069L27 7.49809V17.1588C27 20.0341 25.8411 22.7916 23.7782 24.8247C21.7153 26.8578 18.9174 28 16 28C13.0826 28 10.2847 26.8578 8.22183 24.8247C6.15893 22.7916 5 20.0341 5 17.1588V7.49809L6.44222 7.76069C7.69505 7.98831 8.91244 8.37584 10.0637 8.91347C11.4441 6.9574 13.2919 5.36632 15.4439 4.28067L16 4ZM12.1842 10.1301C13.688 11.1702 14.982 12.4774 16 13.9847C17.0179 12.4774 18.312 11.1702 19.8158 10.1301C18.8009 8.74288 17.5007 7.58213 16 6.72355C14.4993 7.58213 13.1991 8.74288 12.1842 10.1301ZM14.6543 16.477C13.5759 14.4126 11.9179 12.6974 9.87789 11.5358C9.10803 11.0984 8.29206 10.7449 7.44444 10.4818V17.1588C7.44444 21.1219 10.2189 24.4465 13.9577 25.3499C13.6896 24.2451 13.5547 23.1131 13.5556 21.9771C13.5556 20.0293 13.9454 18.1719 14.6543 16.477ZM16.5549 25.5728C18.7233 25.4339 20.7568 24.487 22.2427 22.9244C23.7286 21.3617 24.5555 19.3004 24.5556 17.1588V10.4818C22.0738 11.251 19.9058 12.7807 18.367 14.8481C16.8283 16.9156 15.9991 19.4131 16 21.9771C16 23.2311 16.1943 24.4393 16.5537 25.5728" fill="#383B42"/>
</g>
</svg>
