<svg width="24" height="24" viewBox="0 0 24 24" fill="#41c752" xmlns="http://www.w3.org/2000/svg">
<g id="emojione-monotone:anger-symbol" clip-path="url(#clip0_48_4005)">
<path id="Vector" d="M9.56848 1.33523C9.78898 3.55448 11.4896 5.70661 13.9691 6.59236C16.458 7.51448 19.1636 6.94186 20.7559 5.35711C20.8371 5.27943 20.8885 5.17569 20.9011 5.06399C20.9138 4.95228 20.8868 4.8397 20.8249 4.74586C20.7623 4.65096 20.6719 4.57771 20.5661 4.53616C20.4603 4.4946 20.3443 4.48677 20.2339 4.51373C18.5726 4.92736 16.5825 5.16586 14.7341 4.49161C12.8839 3.81998 11.5129 2.35748 10.5056 0.974107C10.4759 0.932955 10.4404 0.896324 10.4002 0.865357C10.1775 0.689857 9.85498 0.708232 9.67236 0.918607C9.62389 0.975221 9.58927 1.04234 9.57124 1.11466C9.55321 1.18697 9.55227 1.26249 9.56848 1.33523ZM14.4311 22.6574C14.2106 20.4381 12.5104 18.286 10.0305 17.3995C7.54198 16.4781 4.83636 17.0507 3.24411 18.6359C3.16287 18.7133 3.11145 18.8169 3.09884 18.9284C3.08623 19.0399 3.11322 19.1523 3.17511 19.246C3.30036 19.4406 3.53848 19.5347 3.76648 19.4789C5.42736 19.0652 7.41786 18.8267 9.26623 19.501C11.1161 20.1719 12.4871 21.6344 13.4947 23.0189C13.5244 23.0599 13.5599 23.0964 13.6001 23.1272C13.8229 23.3031 14.145 23.284 14.3272 23.0744C14.4281 22.957 14.4619 22.8036 14.4311 22.6574ZM22.6609 9.56498C20.4416 9.78548 18.2899 11.4857 17.4034 13.9656C16.4816 16.4537 17.0542 19.1594 18.639 20.7516C18.7166 20.8328 18.8203 20.8841 18.9319 20.8967C19.0435 20.9093 19.1561 20.8824 19.2499 20.8206C19.4441 20.6954 19.5382 20.4572 19.4824 20.2296C19.0687 18.5691 18.8302 16.5786 19.5045 14.7299C20.1757 12.88 21.6375 11.5094 23.022 10.5017C23.0615 10.4725 23.0959 10.4395 23.1251 10.4027L23.1307 10.3964C23.3066 10.1732 23.2879 9.85111 23.0775 9.66848C23.0208 9.62008 22.9537 9.58552 22.8814 9.56756C22.8091 9.5496 22.7336 9.54871 22.6609 9.56498ZM1.33911 14.4269C3.55836 14.2064 5.71048 12.5061 6.59661 10.027C7.51836 7.53848 6.94573 4.83248 5.36098 3.24023C5.28328 3.15913 5.17959 3.10784 5.06797 3.0953C4.95635 3.08276 4.84387 3.10977 4.75011 3.17161C4.55623 3.29723 4.46211 3.53536 4.51761 3.76261C4.93123 5.42386 5.16973 7.41436 4.49548 9.26273C3.82423 11.1126 2.36173 12.4836 0.977983 13.4909C0.939304 13.5188 0.90461 13.5518 0.874858 13.5891L0.869233 13.5962C0.693733 13.8182 0.712483 14.1415 0.922108 14.323C1.03911 14.4242 1.19173 14.4576 1.33911 14.4269Z" fill="#41c752"/>
</g>
<defs>
<clipPath id="clip0_48_4005">
<rect width="24" height="24" fill="#41c752" transform="translate(0 -0.00390625)"/>
</clipPath>
</defs>
</svg>
