<svg width="24" height="24" viewBox="0 0 24 24" fill="#41c752" xmlns="http://www.w3.org/2000/svg">
<g id="hugeicons:agreement-01">
<g id="Group">
<path id="Vector" d="M2 6.99996H4.865C5.592 6.99996 6.289 6.63996 6.803 5.99996C7.536 5.08596 8.622 4.76596 9.607 5.17496L11 5.75396M2 15.967H3.62C4.78 15.967 5.36 15.967 5.908 16.121L5.988 16.145C6.533 16.31 7.015 16.621 7.98 17.243C9.868 18.46 10.812 19.068 11.84 18.994L11.986 18.98C13.01 18.858 13.812 18.082 15.416 16.53L17 15" stroke="white" stroke-width="1.5" stroke-linecap="round" stroke-linejoin="round"/>
<path id="Vector_2" d="M22.0005 7.23398H19.4835C18.4175 7.23398 17.6655 6.65398 16.9005 5.88298C16.4271 5.39278 15.7892 5.095 15.1095 5.04698C14.3665 5.00198 13.5055 4.93698 12.7845 5.13598C11.9815 5.35598 11.4515 5.96098 10.8905 6.59198L9.44348 8.22198C8.85348 8.88598 8.85348 9.96498 9.44348 10.63C9.95348 11.204 10.7525 11.293 11.3525 10.842C11.7845 10.518 12.2745 9.99498 12.7835 9.82998C13.3565 9.64498 13.7115 10.062 14.0355 10.5L16.3555 13.634C17.2175 14.798 17.6475 15.379 18.2355 15.69C18.8255 16 19.4975 16 20.8425 16H22.0005" stroke="white" stroke-width="1.5" stroke-linecap="round" stroke-linejoin="round"/>
</g>
</g>
</svg>
