<svg width="24" height="24" viewBox="0 0 24 24" fill="#41c752" xmlns="http://www.w3.org/2000/svg">
<g id="healthicons:alcohol">
<path id="Vector" fill-rule="evenodd" clip-rule="evenodd" d="M9.75 2.5C9.75 2.36739 9.69732 2.24021 9.60355 2.14645C9.50979 2.05268 9.38261 2 9.25 2H8C7.86739 2 7.74021 2.05268 7.64645 2.14645C7.55268 2.24021 7.5 2.36739 7.5 2.5V8.591C7.49979 8.64106 7.48915 8.69053 7.46875 8.73625C7.44834 8.78196 7.41863 8.82292 7.3815 8.8565C6.6322 9.53137 6.03302 10.3561 5.62276 11.2773C5.21251 12.1985 5.00034 13.1956 5 14.204V20.896C5 21.506 5.4945 22 6.104 22H10.822C11.1344 22 11.4341 21.8759 11.655 21.655C11.8759 21.4341 12 21.1344 12 20.822V14.0315C12 12.0905 11.229 10.229 9.8565 8.8565C9.78847 8.78825 9.75018 8.69587 9.75 8.5995V2.5ZM6 14.5H11V18.5H6V14.5ZM17.8195 12H14.18L14.5 9H17.5L17.8195 12ZM13.6 8H18.4L18.9065 12.768C18.9847 13.5058 18.7797 14.2457 18.3329 14.838C17.8861 15.4303 17.2309 15.8306 16.5 15.958V21H18C18.1326 21 18.2598 21.0527 18.3536 21.1464C18.4473 21.2402 18.5 21.3674 18.5 21.5C18.5 21.6326 18.4473 21.7598 18.3536 21.8536C18.2598 21.9473 18.1326 22 18 22H14C13.8674 22 13.7402 21.9473 13.6464 21.8536C13.5527 21.7598 13.5 21.6326 13.5 21.5C13.5 21.3674 13.5527 21.2402 13.6464 21.1464C13.7402 21.0527 13.8674 21 14 21H15.5V15.9575C14.7692 15.8301 14.1141 15.4298 13.6673 14.8377C13.2205 14.2455 13.0154 13.5057 13.0935 12.768L13.6 8Z" fill="#41c752"/>
</g>
</svg>
