<svg width="24" height="24" viewBox="0 0 24 24" fill="none" xmlns="http://www.w3.org/2000/svg">
<g id="streamline:champagne-party-alcohol">
<g id="Group">
<path id="Vector" d="M6.95836 15.2878L5.29641 21.1155M3 20.4593L7.59126 21.7685M4.53971 10.4845L7.53401 2.54614L13.1868 4.15548L11.5434 12.4807C11.4473 12.9782 11.2487 13.4502 10.9604 13.8669C10.6721 14.2835 10.3003 14.6357 9.86868 14.901C9.43702 15.1663 8.95491 15.339 8.45297 15.408C7.95102 15.4771 7.4402 15.441 6.95293 15.3021C6.46566 15.1633 6.01259 14.9246 5.62248 14.6013C5.23237 14.278 4.91374 13.8771 4.68681 13.4241C4.45989 12.971 4.32963 12.4758 4.30431 11.9698C4.27898 11.4637 4.35914 10.9579 4.53971 10.4845Z" stroke="white" stroke-width="1.75" stroke-linecap="round" stroke-linejoin="round"/>
<path id="Vector_2" d="M6.03906 6.50244L12.3619 8.32069" stroke="white" stroke-width="1.75"/>
<path id="Vector_3" d="M14.4248 15.0526C15.0825 15.3771 15.8226 15.4962 16.5489 15.3945C17.2752 15.2927 17.9541 14.9749 18.4974 14.4822C19.0406 13.9895 19.4231 13.3448 19.5951 12.6318C19.7671 11.9189 19.7206 11.1707 19.4617 10.4845L16.4643 2.54614L15.573 2.79838M17.0415 15.2878L18.7035 21.1155M20.9999 20.4593L16.4086 21.7685M17.9607 6.52152L15.378 7.2643" stroke="white" stroke-width="1.75" stroke-linecap="round" stroke-linejoin="round"/>
</g>
</g>
</svg>
