<svg width="24" height="24" viewBox="0 0 24 24" fill="#41c752" xmlns="http://www.w3.org/2000/svg">
<g id="mdi:fruit-grapes" clip-path="url(#clip0_48_3016)">
<path id="Vector" d="M13.4822 12.9369C12.9322 13.8896 11.7028 14.219 10.7502 13.669C9.79754 13.119 9.46812 11.8896 10.0181 10.9369C10.5681 9.9843 11.7975 9.65487 12.7502 10.2049C13.7028 10.7549 14.0322 11.9843 13.4822 12.9369ZM8.42004 7.70487C7.46741 7.15487 6.23799 7.4843 5.68799 8.43692C5.13799 9.38955 5.46741 10.619 6.42004 11.169C7.37267 11.719 8.60209 11.3896 9.15209 10.4369C9.70209 9.4843 9.37267 8.25487 8.42004 7.70487ZM17.0803 12.7049C16.1277 12.1549 14.8982 12.4843 14.3482 13.4369C13.7982 14.3896 14.1277 15.619 15.0803 16.169C16.0329 16.719 17.2623 16.3896 17.8123 15.4369C18.3623 14.4843 18.0329 13.2549 17.0803 12.7049ZM16.9152 7.99077C15.9626 7.44077 14.7332 7.77019 14.1832 8.72282C13.6332 9.67545 13.9626 10.9049 14.9152 11.4549C15.8679 12.0049 17.0973 11.6755 17.6473 10.7228C18.1973 9.77019 17.8679 8.54077 16.9152 7.99077ZM12.5851 5.49077C11.6325 4.94077 10.4031 5.27019 9.85305 6.22282C9.30305 7.17545 9.63247 8.40487 10.5851 8.95487C11.5377 9.50487 12.7672 9.17545 13.3172 8.22282C13.8672 7.27019 13.5377 6.04077 12.5851 5.49077ZM12.9152 14.919C11.9626 14.369 10.7332 14.6984 10.1832 15.651C9.63318 16.6037 9.9626 17.8331 10.9152 18.3831C11.8679 18.9331 13.0973 18.6037 13.6473 17.651C14.1973 16.6984 13.8679 15.469 12.9152 14.919ZM8.5851 12.419C7.63247 11.869 6.40305 12.1984 5.85305 13.151C5.30305 14.1037 5.63247 15.3331 6.5851 15.8831C7.53773 16.4331 8.76715 16.1037 9.31715 15.151C9.86715 14.1984 9.53773 12.969 8.5851 12.419ZM8.75017 17.1331C7.79754 16.5831 6.56812 16.9125 6.01812 17.8651C5.46812 18.8178 5.79754 20.0472 6.75017 20.5972C7.70279 21.1472 8.93222 20.8178 9.48222 19.8651C10.0322 18.9125 9.70279 17.6831 8.75017 17.1331ZM18.7286 4.64987L18.6358 3.21064C16.2306 2.97667 14.2573 5.99436 14.0573 6.34077L15.3564 7.09077C15.843 6.44795 17.3528 4.43289 18.7286 4.64987Z" fill="#41c752"/>
</g>
<defs>
<clipPath id="clip0_48_3016">
<rect width="24" height="24" fill="#41c752" transform="translate(0 0.00390625)"/>
</clipPath>
</defs>
</svg>
