<svg width="24" height="24" viewBox="0 0 24 24" fill="none" xmlns="http://www.w3.org/2000/svg">
<g id="ep:food">
<path id="Vector" d="M3.00023 8.26738V8.25388C3.00022 6.92047 3.39512 5.61692 4.13513 4.5077C4.87514 3.39848 5.9271 2.53328 7.15829 2.02127C8.38948 1.50925 9.74474 1.37335 11.0531 1.63071C12.3614 1.88808 13.5642 2.52718 14.5097 3.46738C15.2537 3.1002 16.0846 2.94582 16.9108 3.02129C17.737 3.09677 18.5262 3.39917 19.1913 3.89507C19.8564 4.39097 20.3714 5.06108 20.6795 5.83136C20.9877 6.60164 21.0768 7.4421 20.9372 8.25988C21.1425 8.27893 21.3416 8.34008 21.5222 8.43952C21.7027 8.53895 21.8609 8.67454 21.9867 8.83781C22.1125 9.00108 22.2034 9.18854 22.2535 9.38848C22.3037 9.58842 22.3121 9.79655 22.2782 9.99988C21.6002 14.0784 19.9232 16.6599 17.2502 17.7459V18.7539C17.2502 19.3506 17.0132 19.9229 16.5912 20.3449C16.1693 20.7668 15.597 21.0039 15.0002 21.0039H9.00023C8.4035 21.0039 7.8312 20.7668 7.40924 20.3449C6.98729 19.9229 6.75023 19.3506 6.75023 18.7539V17.7459C4.07723 16.6599 2.40023 14.0784 1.72223 9.99988C1.68951 9.80195 1.69683 9.59946 1.74375 9.40441C1.79067 9.20935 1.87625 9.02569 1.99541 8.86429C2.11457 8.70289 2.26489 8.56704 2.43749 8.46477C2.61008 8.3625 2.80144 8.29589 3.00023 8.26888V8.26738ZM4.50023 8.25388H6.00023C6.00023 7.25932 6.39532 6.30549 7.09858 5.60223C7.80185 4.89897 8.75567 4.50388 9.75023 4.50388C10.7448 4.50388 11.6986 4.89897 12.4019 5.60223C13.1051 6.30549 13.5002 7.25932 13.5002 8.25388H15.0002C15.0002 6.8615 14.4471 5.52614 13.4625 4.54157C12.478 3.55701 11.1426 3.00388 9.75023 3.00388C8.35785 3.00388 7.02249 3.55701 6.03792 4.54157C5.05336 5.52614 4.50023 6.8615 4.50023 8.25388ZM7.50023 8.25388H12.0002C12.0002 7.65715 11.7632 7.08485 11.3412 6.66289C10.9193 6.24094 10.347 6.00388 9.75023 6.00388C9.1535 6.00388 8.5812 6.24094 8.15924 6.66289C7.73729 7.08485 7.50023 7.65715 7.50023 8.25388ZM17.7992 8.25388H19.4057C19.519 7.81059 19.5295 7.3473 19.4366 6.89931C19.3437 6.45132 19.1497 6.03045 18.8695 5.66878C18.5893 5.30711 18.2302 5.01418 17.8196 4.8123C17.409 4.61043 16.9578 4.50494 16.5002 4.50388C16.1402 4.50388 15.7982 4.56688 15.4802 4.68238C15.7457 5.10838 15.9647 5.56738 16.1327 6.04888C16.4184 5.97802 16.7186 5.99261 16.9961 6.09084C17.2736 6.18908 17.5161 6.36662 17.6936 6.60145C17.8711 6.83628 17.9757 7.11806 17.9945 7.41181C18.0133 7.70557 17.9454 7.99837 17.7992 8.25388ZM15.7502 18.0039H8.25023V18.7539C8.25023 18.9528 8.32925 19.1436 8.4699 19.2842C8.61056 19.4249 8.80132 19.5039 9.00023 19.5039H15.0002C15.1991 19.5039 15.3899 19.4249 15.5306 19.2842C15.6712 19.1436 15.7502 18.9528 15.7502 18.7539V18.0039ZM7.72223 16.5039H16.2782C18.6572 15.7389 20.1632 13.5759 20.7992 9.75388H3.20123C3.83723 13.5759 5.34323 15.7389 7.72223 16.5039Z" fill="white"/>
</g>
</svg>
