<svg width="19" height="18" viewBox="0 0 19 18" fill="none" xmlns="http://www.w3.org/2000/svg">
<path d="M7.04331 15.0234H1.25131V4.35144H6.86731C8.89931 4.35144 9.93931 5.64744 9.93931 7.07144C9.93931 8.41544 9.10731 9.31144 8.09931 9.51944C9.23531 9.69544 10.1473 10.7994 10.1473 12.1434C10.1473 13.7434 9.07531 15.0234 7.04331 15.0234ZM3.52331 6.28744V8.63944H6.37131C7.13931 8.63944 7.61931 8.14344 7.61931 7.45544C7.61931 6.79944 7.13931 6.28744 6.37131 6.28744H3.52331ZM3.52331 10.5754V13.0874H6.45131C7.31531 13.0874 7.82731 12.5914 7.82731 11.8234C7.82731 11.1514 7.34731 10.5754 6.45131 10.5754H3.52331Z" fill="white"/>
<path d="M14.5454 7.02344H12.9854L15.3754 1.60344H12.0154V0.353437H17.0254V1.34344L14.5454 7.02344Z" fill="white"/>
</svg>
