<?xml version="1.0" encoding="utf-8"?>
<!-- Generator: Adobe Illustrator 26.1.0, SVG Export Plug-In . SVG Version: 6.00 Build 0)  -->
<svg version="1.1" id="Layer_1" xmlns="http://www.w3.org/2000/svg" xmlns:xlink="http://www.w3.org/1999/xlink" x="0px" y="0px"
	 viewBox="0 0 19 18" style="enable-background:new 0 0 19 18;" xml:space="preserve">
<style type="text/css">
	.st0{fill:#FFFFFF;}
</style>
<g>
	<path class="st0" d="M7.7,15.2H2.9v-9h4.7c1.7,0,2.6,1.1,2.6,2.3c0,1.1-0.7,1.9-1.5,2.1c1,0.1,1.7,1.1,1.7,2.2
		C10.3,14.1,9.4,15.2,7.7,15.2z M4.8,7.8v2h2.4c0.6,0,1-0.4,1-1c0-0.6-0.4-1-1-1H4.8z M4.8,11.4v2.1h2.5c0.7,0,1.2-0.4,1.2-1.1
		c0-0.6-0.4-1-1.2-1H4.8z"/>
	<path class="st0" d="M14,8.4h-1.3l2-4.6h-2.8V2.8h4.2v0.8L14,8.4z"/>
</g>
</svg>
