<svg width="24" height="24" viewBox="0 0 24 24" fill="#41c752" xmlns="http://www.w3.org/2000/svg">
<g id="solar:bone-crack-bold">
<path id="Vector" d="M13.2904 5.78995C13.0104 4.77595 13.3944 3.48095 14.1374 2.73795C14.6097 2.26546 15.2504 1.99997 15.9185 1.99988C16.5866 1.99978 17.2274 2.2651 17.6999 2.73745C18.1724 3.2098 18.4379 3.85049 18.438 4.51859C18.438 5.18669 18.1727 5.82746 17.7004 6.29995C18.1729 5.8276 18.8136 5.56228 19.4817 5.56238C20.1498 5.56247 20.7905 5.82796 21.2629 6.30045C21.7352 6.77293 22.0005 7.4137 22.0005 8.0818C22.0004 8.7499 21.7349 9.39059 21.2624 9.86295C20.5194 10.6059 19.2244 10.9909 18.2104 10.7109C17.6744 10.5619 17.0254 10.5379 16.6314 10.9309L15.7894 11.7739L13.1044 12.1869V11.6469C13.1045 11.5281 13.0763 11.4109 13.0222 11.3051C12.9681 11.1993 12.8896 11.1078 12.7932 11.0383C12.6968 10.9687 12.5852 10.9231 12.4677 10.9051C12.3502 10.8872 12.2302 10.8974 12.1174 10.9349L10.9824 11.3129V9.45495L13.0704 7.36995C13.4634 6.97595 13.4394 6.32695 13.2904 5.78995ZM9.48239 10.9549L7.37039 13.0699C6.97639 13.4629 6.32739 13.4389 5.79039 13.2899C4.77739 13.0099 3.48239 13.3949 2.73939 14.1379C2.28447 14.6137 2.03385 15.2486 2.04117 15.9068C2.04849 16.5651 2.31317 17.1943 2.77856 17.6598C3.24395 18.1253 3.87308 18.3902 4.53129 18.3977C5.1895 18.4052 5.8245 18.1547 6.30039 17.6999C5.82804 18.1724 5.56273 18.8132 5.56282 19.4813C5.56291 20.1494 5.8284 20.7901 6.30089 21.2624C6.77337 21.7348 7.41414 22.0001 8.08224 22C8.75034 21.9999 9.39104 21.7344 9.86339 21.2619C10.6064 20.5189 10.9914 19.2239 10.7114 18.2099C10.5624 17.6739 10.5384 17.0249 10.9314 16.6309L13.9954 13.5669L12.4684 13.8019C12.3615 13.8184 12.2524 13.8115 12.1484 13.7818C12.0445 13.7521 11.9482 13.7003 11.8661 13.63C11.7841 13.5596 11.7182 13.4723 11.673 13.3741C11.6278 13.2759 11.6044 13.1691 11.6044 13.0609V12.6869L10.4704 13.0649C10.3576 13.1027 10.2375 13.1131 10.12 13.0952C10.0024 13.0774 9.89081 13.0319 9.7943 12.9625C9.6978 12.893 9.61919 12.8016 9.56496 12.6958C9.51073 12.59 9.48242 12.4728 9.48239 12.3539V10.9549Z" fill="#41c752"/>
</g>
</svg>
