<svg width="24" height="25" viewBox="0 0 24 25" fill="none" xmlns="http://www.w3.org/2000/svg">
<g id="lucide:milk">
<g id="Group">
<path id="Vector" d="M8 2.01562H16M9 2.01562V4.80463C8.99998 5.59441 8.76616 6.36652 8.328 7.02362L7.672 8.00763C7.23366 8.66501 6.99982 9.4375 7 10.2276V20.0156C7 20.5461 7.21071 21.0548 7.58579 21.4298C7.96086 21.8049 8.46957 22.0156 9 22.0156H15C15.5304 22.0156 16.0391 21.8049 16.4142 21.4298C16.7893 21.0548 17 20.5461 17 20.0156V10.2266C17 9.43684 16.7662 8.66473 16.328 8.00763L15.672 7.02362C15.2337 6.36624 14.9998 5.59375 15 4.80363V2.01562" stroke="white" stroke-width="2" stroke-linecap="round" stroke-linejoin="round"/>
<path id="Vector_2" d="M7 15.0156C7.79175 14.6839 8.64158 14.5131 9.5 14.5131C10.3584 14.5131 11.2083 14.6839 12 15.0156C12.7917 15.3473 13.6416 15.5181 14.5 15.5181C15.3584 15.5181 16.2083 15.3473 17 15.0156" stroke="white" stroke-width="2" stroke-linecap="round" stroke-linejoin="round"/>
</g>
</g>
</svg>
