<svg width="24" height="24" viewBox="0 0 24 24" fill="#41c752" xmlns="http://www.w3.org/2000/svg">
<g id="iconoir:waist">
<g id="Group">
<path id="Vector" d="M18.4002 4C18.4002 4 16.8002 7.75 16.8002 10.857C16.8002 11.852 17.1402 12.684 17.6002 13.513M17.6002 13.513C18.1282 14.467 18.8142 15.416 19.3172 16.603C19.7757 17.6764 20.0082 18.8328 20.0002 20M17.6002 13.513H6.4002M5.6002 4C5.6002 4 7.2002 7.75 7.2002 10.857C7.2002 11.852 6.8602 12.684 6.4002 13.513M6.4002 13.513C5.8722 14.467 5.1862 15.416 4.6832 16.603C4.2247 17.6764 3.99221 18.8328 4.0002 20" stroke="white" stroke-width="1.5" stroke-linecap="round" stroke-linejoin="round"/>
<path id="Vector_2" d="M4.68359 16.604C4.68359 16.604 10.4006 17.714 12.0006 20C13.6006 17.714 19.3176 16.604 19.3176 16.604" stroke="white" stroke-width="1.5" stroke-linecap="round" stroke-linejoin="round"/>
</g>
</g>
</svg>
