<svg width="24" height="24" viewBox="0 0 24 24" fill="#41c752" xmlns="http://www.w3.org/2000/svg">
<g id="mdi:sleep-schedule">
<path id="Vector" d="M18.6174 9.67001L15.6957 8.02653V4.64827H17.0652V7.20479L19.2565 8.48305L18.6174 9.67001ZM21.3565 11.6787C21.813 12.3178 22.087 13.0483 22.087 13.7787V21.9961H20.2609V19.257H3.82609V21.9961H2V8.30044H3.82609V16.5178H11.1304V10.6744C10.5826 9.67001 10.2174 8.57435 10.2174 7.3874C10.2174 3.82653 13.0478 0.996094 16.6087 0.996094C20.1696 0.996094 23 3.82653 23 7.3874C23 9.03088 22.3609 10.4917 21.3565 11.6787ZM12.0435 7.3874C12.0435 9.94392 14.0522 11.9526 16.6087 11.9526C19.1652 11.9526 21.1739 9.94392 21.1739 7.3874C21.1739 4.83088 19.1652 2.82218 16.6087 2.82218C14.0522 2.82218 12.0435 4.83088 12.0435 7.3874ZM7.47826 15.6048C9.03044 15.6048 10.2174 14.4178 10.2174 12.8657C10.2174 11.3135 9.03044 10.1265 7.47826 10.1265C5.92609 10.1265 4.73913 11.3135 4.73913 12.8657C4.73913 14.4178 5.92609 15.6048 7.47826 15.6048Z" fill="#41c752"/>
</g>
</svg>
