<svg width="24" height="24" viewBox="0 0 24 24" fill="#41c752" xmlns="http://www.w3.org/2000/svg">
<g id="material-symbols:sentiment-calm-outline-rounded">
<path id="Vector" d="M12 17.5C12.5667 17.5 13.1 17.396 13.6 17.188C14.1 16.98 14.5667 16.684 15 16.3C15.15 16.1667 15.225 15.9917 15.225 15.775C15.225 15.5583 15.15 15.3833 15 15.25C14.85 15.1167 14.671 15.05 14.463 15.05C14.255 15.05 14.0673 15.1167 13.9 15.25C13.6167 15.4667 13.3167 15.6417 13 15.775C12.6833 15.9083 12.35 15.975 12 15.975C11.65 15.975 11.3167 15.9083 11 15.775C10.6833 15.6417 10.3833 15.4667 10.1 15.25C9.93333 15.1167 9.746 15.05 9.538 15.05C9.33 15.05 9.15067 15.1167 9 15.25C8.84933 15.3833 8.77433 15.5583 8.775 15.775C8.77567 15.9917 8.85067 16.1667 9 16.3C9.43333 16.6667 9.9 16.9583 10.4 17.175C10.9 17.3917 11.4333 17.5 12 17.5ZM12 22C10.6167 22 9.31667 21.7373 8.1 21.212C6.88334 20.6867 5.825 19.9743 4.925 19.075C4.025 18.1757 3.31267 17.1173 2.788 15.9C2.26333 14.6827 2.00067 13.3827 2 12C1.99933 10.6173 2.262 9.31733 2.788 8.1C3.314 6.88267 4.02633 5.82433 4.925 4.925C5.82367 4.02567 6.882 3.31333 8.1 2.788C9.318 2.26267 10.618 2 12 2C13.382 2 14.682 2.26267 15.9 2.788C17.118 3.31333 18.1763 4.02567 19.075 4.925C19.9737 5.82433 20.6863 6.88267 21.213 8.1C21.7397 9.31733 22.002 10.6173 22 12C21.998 13.3827 21.7353 14.6827 21.212 15.9C20.6887 17.1173 19.9763 18.1757 19.075 19.075C18.1737 19.9743 17.1153 20.687 15.9 21.213C14.6847 21.739 13.3847 22.0013 12 22ZM12 20C14.2333 20 16.125 19.225 17.675 17.675C19.225 16.125 20 14.2333 20 12C20 9.76667 19.225 7.875 17.675 6.325C16.125 4.775 14.2333 4 12 4C9.76667 4 7.875 4.775 6.325 6.325C4.775 7.875 4 9.76667 4 12C4 14.2333 4.775 16.125 6.325 17.675C7.875 19.225 9.76667 20 12 20ZM8.5 12C9.03333 12 9.51267 11.8333 9.938 11.5C10.3633 11.1667 10.6923 10.7583 10.925 10.275C11.0083 10.0583 11.0127 9.84567 10.938 9.637C10.8633 9.42833 10.7173 9.29933 10.5 9.25C10.3167 9.2 10.1333 9.221 9.95 9.313C9.76667 9.405 9.63334 9.54233 9.55 9.725C9.43333 9.94167 9.28767 10.125 9.113 10.275C8.93833 10.425 8.734 10.5 8.5 10.5C8.266 10.5 8.05767 10.421 7.875 10.263C7.69233 10.105 7.55067 9.91733 7.45 9.7C7.36667 9.51667 7.23334 9.38333 7.05 9.3C6.86667 9.21667 6.68333 9.2 6.5 9.25C6.28333 9.3 6.13767 9.42933 6.063 9.638C5.98833 9.84667 6.00067 10.059 6.1 10.275C6.3 10.775 6.61667 11.1877 7.05 11.513C7.48334 11.8383 7.96667 12.0007 8.5 12ZM15.5 12C16.0333 12 16.5127 11.8333 16.938 11.5C17.3633 11.1667 17.6923 10.7583 17.925 10.275C18.0083 10.0583 18.0127 9.846 17.938 9.638C17.8633 9.43 17.7173 9.30067 17.5 9.25C17.3167 9.2 17.1333 9.221 16.95 9.313C16.7667 9.405 16.6333 9.54233 16.55 9.725C16.4333 9.94167 16.2877 10.125 16.113 10.275C15.9383 10.425 15.734 10.5 15.5 10.5C15.266 10.5 15.0577 10.421 14.875 10.263C14.6923 10.105 14.5507 9.91733 14.45 9.7C14.3667 9.51667 14.2333 9.38333 14.05 9.3C13.8667 9.21667 13.6833 9.2 13.5 9.25C13.2833 9.3 13.1373 9.42933 13.062 9.638C12.9867 9.84667 12.9993 10.059 13.1 10.275C13.3 10.775 13.6167 11.1877 14.05 11.513C14.4833 11.8383 14.9667 12.0007 15.5 12Z" fill="#41c752"/>
</g>
</svg>
