<svg width="24" height="24" viewBox="0 0 24 24" fill="#41c752" xmlns="http://www.w3.org/2000/svg">
<g id="fa-solid:disease">
<path id="Vector" d="M20.4485 9.58657L17.8289 8.66256C17.0758 8.39741 16.5188 7.82212 16.3391 7.12349L15.7141 4.69495C15.2617 2.93652 12.723 2.39979 11.4171 3.78621L9.61667 5.70332C9.09869 6.25411 8.30648 6.54417 7.49943 6.47909L4.69078 6.25331C2.65949 6.0898 1.29501 8.05673 2.38605 9.58135L3.89155 11.6873C4.32437 12.2927 4.39234 13.0476 4.0728 13.7056L2.96223 15.9956C2.15558 17.6524 3.85327 19.4048 5.83182 18.9604L8.56625 18.3466C9.35182 18.1702 10.1854 18.3466 10.7956 18.8178L12.9175 20.4581C14.4535 21.6457 16.8629 20.7623 16.9977 18.9629L17.1813 16.4777C17.234 15.7626 17.6813 15.117 18.3778 14.7502L20.7997 13.475C22.5513 12.5526 22.3447 10.2543 20.4485 9.58657ZM8.24945 12.001C8.00222 12.001 7.76054 11.9256 7.55497 11.7844C7.34941 11.6431 7.18919 11.4423 7.09458 11.2074C6.99997 10.9725 6.97521 10.714 7.02344 10.4647C7.07168 10.2153 7.19073 9.98622 7.36555 9.80643C7.54037 9.62664 7.7631 9.5042 8.00558 9.45459C8.24806 9.40499 8.4994 9.43045 8.72781 9.52775C8.95623 9.62505 9.15145 9.78983 9.28881 10.0012C9.42616 10.2127 9.49948 10.4612 9.49948 10.7155C9.49948 11.0564 9.36778 11.3834 9.13335 11.6245C8.89893 11.8656 8.58098 12.001 8.24945 12.001ZM13.2496 15.8578C13.0023 15.8578 12.7606 15.7824 12.5551 15.6411C12.3495 15.4999 12.1893 15.2991 12.0947 15.0642C12.0001 14.8293 11.9753 14.5708 12.0235 14.3214C12.0718 14.072 12.1908 13.843 12.3657 13.6632C12.5405 13.4834 12.7632 13.3609 13.0057 13.3113C13.2482 13.2617 13.4995 13.2872 13.7279 13.3845C13.9563 13.4818 14.1516 13.6466 14.2889 13.858C14.4263 14.0694 14.4996 14.3179 14.4996 14.5722C14.4996 14.9132 14.3679 15.2402 14.1335 15.4812C13.899 15.7223 13.5811 15.8578 13.2496 15.8578ZM13.8746 10.7155C13.7509 10.7155 13.6301 10.6778 13.5273 10.6071C13.4245 10.5365 13.3444 10.4361 13.2971 10.3187C13.2498 10.2012 13.2374 10.072 13.2616 9.94728C13.2857 9.82259 13.3452 9.70806 13.4326 9.61816C13.52 9.52826 13.6314 9.46705 13.7526 9.44224C13.8739 9.41744 13.9995 9.43017 14.1137 9.47882C14.228 9.52747 14.3256 9.60986 14.3942 9.71557C14.4629 9.82127 14.4996 9.94555 14.4996 10.0727C14.4996 10.2432 14.4337 10.4067 14.3165 10.5272C14.1993 10.6477 14.0403 10.7155 13.8746 10.7155Z" fill="#41c752"/>
</g>
</svg>
