<svg width="20" height="12" viewBox="0 0 20 12" fill="none" xmlns="http://www.w3.org/2000/svg">
<path d="M6.519 11.192C3.399 11.192 0.919 8.952 0.919 5.672C0.919 2.392 3.399 0.151999 6.519 0.151999C8.951 0.151999 10.311 1.432 11.063 2.76L9.111 3.72C8.663 2.856 7.703 2.168 6.519 2.168C4.663 2.168 3.255 3.656 3.255 5.672C3.255 7.688 4.663 9.176 6.519 9.176C7.703 9.176 8.663 8.504 9.111 7.624L11.063 8.568C10.295 9.896 8.951 11.192 6.519 11.192ZM19.6154 11H17.5834V10.024C17.0554 10.616 16.1274 11.192 14.8634 11.192C13.1674 11.192 12.3674 10.264 12.3674 8.76V3.272H14.3994V7.96C14.3994 9.032 14.9594 9.384 15.8234 9.384C16.6074 9.384 17.2314 8.952 17.5834 8.504V3.272H19.6154V11Z" fill="white"/>
</svg>
