<?xml version="1.0" encoding="utf-8"?>
<!-- Generator: Adobe Illustrator 26.1.0, SVG Export Plug-In . SVG Version: 6.00 Build 0)  -->
<svg version="1.1" id="Layer_1" xmlns="http://www.w3.org/2000/svg" xmlns:xlink="http://www.w3.org/1999/xlink" x="0px" y="0px"
	 viewBox="0 0 22 17" style="enable-background:new 0 0 22 17;" xml:space="preserve">
<style type="text/css">
	.st0{fill:#FFFFFF;}
</style>
<g>
	<path class="st0" d="M11.8,10c0,1.3-0.4,2.4-1.2,3.2l0.7,0.8l-1.4,1.1l-0.7-0.9c-0.6,0.3-1.4,0.5-2.2,0.5c-2.8,0-4.8-2-4.8-4.7
		c0-2.8,2-4.7,4.8-4.7C9.8,5.2,11.8,7.2,11.8,10z M7,13c0.3,0,0.7-0.1,1-0.2l-1-1.2l1.4-1.1l1,1.2c0.3-0.5,0.5-1.1,0.5-1.7
		c0-1.7-1.1-3-2.8-3s-2.8,1.3-2.8,3C4.3,11.7,5.3,13,7,13z"/>
	<path class="st0" d="M14.2,7.7h-1.2V3.5l-0.9,1l-0.7-0.7L13.1,2h1.1V7.7z M15,4.8c0-1.5,0.7-3,2.4-3c1.6,0,2.4,1.5,2.4,3
		s-0.7,3-2.4,3C15.7,7.8,15,6.3,15,4.8z M18.5,4.8c0-1.1-0.3-1.9-1.1-1.9c-0.8,0-1.1,0.8-1.1,1.9s0.3,1.9,1.1,1.9
		C18.2,6.7,18.5,5.9,18.5,4.8z"/>
</g>
</svg>
