<svg width="22" height="17" viewBox="0 0 22 17" fill="none" xmlns="http://www.w3.org/2000/svg">
<path d="M12.0788 9.67981C12.0788 11.1838 11.5668 12.4958 10.6868 13.4558L11.4708 14.3678L9.88681 15.6638L9.03881 14.6558C8.28681 15.0078 7.42281 15.1998 6.49481 15.1998C3.27881 15.1998 0.926813 12.8958 0.926813 9.67981C0.926813 6.46381 3.27881 4.15981 6.49481 4.15981C9.72681 4.15981 12.0788 6.46381 12.0788 9.67981ZM6.49481 13.1838C6.89481 13.1838 7.27881 13.1198 7.61481 12.9918L6.39881 11.5678L7.98281 10.2878L9.19881 11.7118C9.55081 11.1518 9.74281 10.4478 9.74281 9.67981C9.74281 7.67981 8.46281 6.17581 6.49481 6.17581C4.52681 6.17581 3.26281 7.67981 3.26281 9.67981C3.26281 11.6638 4.52681 13.1838 6.49481 13.1838Z" fill="white"/>
<path d="M14.7938 7.00781H13.3638V2.16781L12.2638 3.29781L11.4538 2.44781L13.5538 0.337812H14.7938V7.00781ZM15.7951 3.67781C15.7951 1.95781 16.6451 0.237812 18.5551 0.237812C20.4551 0.237812 21.3151 1.95781 21.3151 3.67781C21.3151 5.39781 20.4551 7.12781 18.5551 7.12781C16.6451 7.12781 15.7951 5.39781 15.7951 3.67781ZM19.8651 3.67781C19.8651 2.44781 19.5051 1.49781 18.5551 1.49781C17.5951 1.49781 17.2351 2.44781 17.2351 3.67781C17.2351 4.90781 17.5951 5.86781 18.5551 5.86781C19.5051 5.86781 19.8651 4.90781 19.8651 3.67781Z" fill="white"/>
</svg>
