<svg width="24" height="24" viewBox="0 0 24 24" fill="#41c752" xmlns="http://www.w3.org/2000/svg">
<g id="f7:lightbulb">
<path id="Vector" d="M8.35856 18.4937H15.631C15.9726 18.4937 16.1834 18.2829 16.1834 17.9413V16.3341C16.1834 13.9033 19.7191 12.3364 19.7191 7.99715C19.7191 3.42686 16.6253 0.373291 11.9946 0.373291C7.36384 0.373291 4.28027 3.42686 4.28027 7.99758C4.28027 12.3364 7.80613 13.9033 7.80613 16.3341V17.9413C7.80613 18.2829 8.02684 18.4937 8.35856 18.4937ZM9.3027 16.3547C9.3027 13.4019 5.79699 11.8247 5.79699 8.00786C5.79699 4.33115 8.27842 1.89043 11.9946 1.89043C15.7111 1.89043 18.2024 4.33115 18.2024 8.00786C18.2024 11.8247 14.6868 13.4019 14.6868 16.3547V16.9774H9.3027V16.3547ZM8.73013 21.2061H15.2594C15.7716 21.2061 16.1834 20.7844 16.1834 20.262C16.1834 19.7396 15.7716 19.3179 15.259 19.3179H8.73013C8.21799 19.3179 7.80613 19.74 7.80613 20.262C7.80613 20.7849 8.21756 21.2061 8.73013 21.2061ZM11.9946 23.6271C13.381 23.6271 14.3551 22.9942 14.4554 22.02H9.5337C9.62413 22.9942 10.5983 23.6271 11.9946 23.6271Z" fill="#41c752"/>
</g>
</svg>
