<svg width="24" height="24" viewBox="0 0 24 24" fill="#41c752" xmlns="http://www.w3.org/2000/svg">
<g id="solar:dna-outline">
<path id="Vector" fill-rule="evenodd" clip-rule="evenodd" d="M15.0299 1.46995C15.1703 1.61058 15.2492 1.8012 15.2492 1.99995C15.2492 2.1987 15.1703 2.38933 15.0299 2.52995C14.6139 2.94728 14.2405 3.38728 13.9099 3.84995L15.1169 5.05695C15.2493 5.19913 15.3215 5.38717 15.318 5.58147C15.3146 5.77577 15.2359 5.96116 15.0985 6.09857C14.9611 6.23599 14.7757 6.3147 14.5814 6.31813C14.3871 6.32155 14.199 6.24943 14.0569 6.11695L13.1089 5.16895C12.8982 5.58362 12.7199 6.00562 12.5739 6.43495L17.4529 11.313C17.4878 11.3498 17.5199 11.3892 17.5489 11.431C17.9617 11.2901 18.3649 11.1224 18.7559 10.929L15.7479 7.91995C15.6742 7.85129 15.6151 7.76849 15.5741 7.67649C15.5331 7.58449 15.5111 7.48518 15.5093 7.38447C15.5075 7.28377 15.526 7.18374 15.5637 7.09035C15.6015 6.99696 15.6576 6.91213 15.7288 6.84091C15.8001 6.76969 15.8849 6.71355 15.9783 6.67583C16.0717 6.63811 16.1717 6.61958 16.2724 6.62136C16.3731 6.62314 16.4724 6.64518 16.5644 6.68617C16.6564 6.72716 16.7392 6.78626 16.8079 6.85995L20.0839 10.135C20.5705 9.79362 21.0325 9.40495 21.4699 8.96895C21.5385 8.89526 21.6213 8.83616 21.7133 8.79517C21.8053 8.75418 21.9046 8.73214 22.0053 8.73036C22.1061 8.72858 22.2061 8.74711 22.2995 8.78483C22.3929 8.82255 22.4777 8.87869 22.5489 8.94991C22.6201 9.02113 22.6763 9.10597 22.714 9.19935C22.7517 9.29274 22.7702 9.39277 22.7685 9.49347C22.7667 9.59418 22.7446 9.69349 22.7037 9.78549C22.6627 9.87749 22.6036 9.96029 22.5299 10.029C19.9079 12.652 16.2659 13.8829 12.9739 13.242C13.7239 16.417 12.5739 19.986 10.0299 22.5289C9.96121 22.6026 9.87841 22.6617 9.78641 22.7027C9.69441 22.7437 9.5951 22.7658 9.49439 22.7675C9.39369 22.7693 9.29366 22.7508 9.20027 22.7131C9.10688 22.6754 9.02205 22.6192 8.95083 22.548C8.87961 22.4768 8.82347 22.3919 8.78575 22.2985C8.74803 22.2052 8.7295 22.1051 8.73128 22.0044C8.73305 21.9037 8.7551 21.8044 8.79609 21.7124C8.83708 21.6204 8.89618 21.5376 8.96987 21.469C9.39731 21.04 9.78491 20.5731 10.1279 20.0739L8.77387 18.721C8.70227 18.6517 8.64517 18.5689 8.60591 18.4774C8.56665 18.3859 8.546 18.2875 8.54519 18.1879C8.54437 18.0883 8.56339 17.9896 8.60115 17.8974C8.6389 17.8053 8.69463 17.7215 8.76508 17.6512C8.83553 17.5808 8.9193 17.5251 9.01149 17.4874C9.10368 17.4498 9.20245 17.4309 9.30203 17.4318C9.40161 17.4327 9.50002 17.4534 9.5915 17.4928C9.68299 17.5321 9.76572 17.5893 9.83487 17.6609L10.8979 18.7229C11.0839 18.319 11.2382 17.9096 11.3609 17.495L11.3129 17.451L6.49987 12.64C6.05987 12.77 5.62587 12.9363 5.19787 13.139L8.02887 15.969C8.1697 16.1095 8.24892 16.3003 8.24911 16.4992C8.2493 16.6982 8.17043 16.8891 8.02987 17.03C7.8893 17.1708 7.69855 17.25 7.49958 17.2502C7.3006 17.2504 7.1097 17.1715 6.96887 17.031L3.85687 13.918C3.3902 14.2433 2.94754 14.6139 2.52887 15.03C2.3867 15.1624 2.19865 15.2346 2.00435 15.2311C1.81005 15.2277 1.62466 15.149 1.48725 15.0116C1.34984 14.8742 1.27112 14.6888 1.26769 14.4945C1.26427 14.3002 1.33639 14.1121 1.46887 13.97C4.01187 11.426 7.58087 10.277 10.7559 11.026C10.1159 7.73395 11.3459 4.09195 13.9689 1.46995C14.1095 1.3295 14.3001 1.25061 14.4989 1.25061C14.6976 1.25061 14.8892 1.3295 15.0299 1.46995ZM15.8489 11.832L12.1689 8.14995C12.0099 9.31995 12.0959 10.484 12.4399 11.562C13.5179 11.906 14.6819 11.992 15.8519 11.833M11.3319 12.955C11.6309 13.8219 11.7449 14.7549 11.6849 15.702L8.30087 12.318C9.24787 12.2579 10.1809 12.372 11.0479 12.6709L11.2599 12.743L11.3319 12.955Z" fill="#41c752"/>
</g>
</svg>
