<svg width="24" height="24" viewBox="0 0 24 24" fill="none" xmlns="http://www.w3.org/2000/svg">
<g id="mingcute:face-line" clip-path="url(#clip0_48_3492)">
<g id="Group">
<path id="Vector" fill-rule="evenodd" clip-rule="evenodd" d="M7.34534 5.93511C6.27677 7.01139 5.58605 8.57349 5.30734 10.4804C5.28466 10.6364 5.22877 10.7857 5.14343 10.9182C5.05809 11.0508 4.9453 11.1635 4.81268 11.2487C4.68005 11.3339 4.53068 11.3897 4.37466 11.4122C4.21864 11.4347 4.0596 11.4235 3.90829 11.3793C3.60424 11.2912 3.41366 11.5688 3.31782 11.8266C3.19334 12.1615 3.15588 12.6473 3.30019 13.1871C3.42578 13.6553 3.86973 14.6302 4.50096 14.5718C4.74714 14.5489 4.99389 14.6094 5.2015 14.7437C5.40911 14.8779 5.56551 15.0782 5.64554 15.3121C6.76479 18.5861 9.57502 20.7266 11.9997 20.7266C14.4243 20.7266 17.2346 18.5861 18.3538 15.3121C18.4338 15.0774 18.5906 14.8765 18.7989 14.7419C19.0072 14.6074 19.2549 14.547 19.5017 14.5707C20.1329 14.6313 20.578 13.6553 20.7036 13.1871C20.8479 12.6473 20.8104 12.1615 20.686 11.8266C20.589 11.5677 20.3984 11.2901 20.0933 11.3793C19.9419 11.4239 19.7827 11.4354 19.6265 11.4131C19.4703 11.3908 19.3207 11.3352 19.1878 11.2501C19.0549 11.165 18.9419 11.0523 18.8564 10.9197C18.7708 10.7871 18.7148 10.6376 18.692 10.4815C18.4133 8.57459 17.7226 7.01139 16.654 5.93621C15.6042 4.87866 14.1038 4.20226 11.9997 4.20226C9.89559 4.20226 8.39518 4.87976 7.34534 5.93511ZM5.78214 4.38183C7.29136 2.86379 9.38003 1.99902 11.9997 1.99902C14.6193 1.99902 16.7069 2.86379 18.2172 4.38293C19.4907 5.66411 20.2883 7.34628 20.6959 9.20031C20.7568 9.21133 20.817 9.22528 20.8765 9.24217C21.8338 9.49775 22.4507 10.2513 22.7515 11.0598C23.0522 11.8706 23.0809 12.8279 22.8319 13.7577C22.4827 15.0609 21.5485 16.3465 20.1858 16.6935C18.6964 20.2749 15.3993 22.9298 11.9997 22.9298C8.60008 22.9298 5.30184 20.2727 3.81355 16.6924C2.45305 16.3432 1.52108 15.0587 1.17187 13.7577C0.9229 12.8279 0.951542 11.8706 1.25228 11.0587C1.55303 10.2513 2.16993 9.49775 3.12724 9.24107C3.18599 9.22565 3.24475 9.21243 3.3035 9.20141C3.7111 7.34628 4.50867 5.66411 5.78214 4.38183Z" fill="white"/>
</g>
<g id="Group 445">
<circle id="Ellipse 137" cx="8.47082" cy="13.4706" r="1.47059" transform="rotate(180 8.47082 13.4706)" fill="white"/>
<circle id="Ellipse 138" cx="10.4122" cy="16.8824" r="1.47059" transform="rotate(180 10.4122 16.8824)" fill="white"/>
</g>
</g>
<defs>
<clipPath id="clip0_48_3492">
<rect width="24" height="24" fill="white"/>
</clipPath>
</defs>
</svg>
