<svg width="24" height="24" viewBox="0 0 24 24" fill="#41c752" xmlns="http://www.w3.org/2000/svg">
<g id="clarity:group-solid" clip-path="url(#clip0_48_3930)">
<path id="Vector" d="M8.0003 10.76H7.4203C6.6288 10.7314 5.83987 10.8658 5.10247 11.1548C4.36507 11.4438 3.69492 11.8812 3.13363 12.44L2.97363 12.6267V18.1467H5.69363V15.0133L6.0603 14.6L6.22697 14.4067C7.09492 13.515 8.17549 12.8589 9.36697 12.5C8.77064 12.0459 8.30021 11.4469 8.0003 10.76Z" fill="#41c752"/>
<path id="Vector_2" d="M20.8935 12.42C20.3323 11.8612 19.6621 11.4237 18.9247 11.1347C18.1873 10.8457 17.3984 10.7114 16.6069 10.74C16.3641 10.7413 16.1216 10.7546 15.8802 10.78C15.5747 11.4244 15.1171 11.985 14.5469 12.4133C15.819 12.7649 16.9713 13.4563 17.8802 14.4133L18.0469 14.6L18.4069 15.0133V18.1533H21.0335V12.6066L20.8935 12.42Z" fill="#41c752"/>
<path id="Vector_3" d="M7.39992 9.45999H7.60658C7.51056 8.63549 7.65523 7.80081 8.02314 7.05672C8.39104 6.31263 8.96645 5.69092 9.67992 5.26666C9.42129 4.87156 9.06449 4.5504 8.64445 4.33462C8.22441 4.11885 7.75554 4.01586 7.28374 4.03574C6.81194 4.05563 6.35339 4.1977 5.95299 4.44804C5.5526 4.69839 5.22408 5.04843 4.99962 5.46389C4.77515 5.87935 4.66243 6.34598 4.67249 6.81809C4.68256 7.2902 4.81506 7.75161 5.05702 8.15713C5.29898 8.56264 5.64211 8.89837 6.05281 9.13143C6.46351 9.36449 6.9277 9.4869 7.39992 9.48666V9.45999Z" fill="#41c752"/>
<path id="Vector_4" d="M16.2868 8.96004C16.2944 9.11328 16.2944 9.2668 16.2868 9.42004C16.4147 9.44053 16.5439 9.45167 16.6735 9.45337H16.8001C17.2703 9.4283 17.7259 9.28193 18.1227 9.02849C18.5195 8.77506 18.8439 8.4232 19.0643 8.00718C19.2847 7.59116 19.3937 7.12515 19.3806 6.65453C19.3674 6.1839 19.2327 5.72469 18.9894 5.32161C18.7461 4.91853 18.4026 4.58531 17.9923 4.35439C17.582 4.12347 17.1189 4.00273 16.6481 4.00391C16.1773 4.0051 15.7148 4.12817 15.3057 4.36115C14.8966 4.59413 14.5547 4.92907 14.3135 5.33337C14.9169 5.72733 15.413 6.26491 15.7574 6.89788C16.1018 7.53086 16.2837 8.23943 16.2868 8.96004Z" fill="#41c752"/>
<path id="Vector_5" d="M11.9136 11.9467C13.5594 11.9467 14.8936 10.6125 14.8936 8.96669C14.8936 7.32089 13.5594 5.98669 11.9136 5.98669C10.2678 5.98669 8.93359 7.32089 8.93359 8.96669C8.93359 10.6125 10.2678 11.9467 11.9136 11.9467Z" fill="#41c752"/>
<path id="Vector_6" d="M12.0737 13.5333C11.2031 13.4986 10.3344 13.6401 9.51989 13.9494C8.70536 14.2587 7.96173 14.7294 7.33366 15.3333L7.16699 15.52V19.74C7.16959 19.8774 7.19925 20.013 7.25427 20.139C7.30929 20.265 7.38859 20.379 7.48764 20.4743C7.5867 20.5696 7.70356 20.6445 7.83157 20.6947C7.95957 20.7449 8.0962 20.7693 8.23366 20.7667H15.8937C16.0311 20.7693 16.1677 20.7449 16.2958 20.6947C16.4238 20.6445 16.5406 20.5696 16.6397 20.4743C16.7387 20.379 16.818 20.265 16.873 20.139C16.9281 20.013 16.9577 19.8774 16.9603 19.74V15.5333L16.8003 15.3333C16.1765 14.7273 15.4355 14.255 14.6228 13.9455C13.81 13.636 12.9426 13.4957 12.0737 13.5333Z" fill="#41c752"/>
</g>
<defs>
<clipPath id="clip0_48_3930">
<rect width="24" height="24" fill="#41c752"/>
</clipPath>
</defs>
</svg>
