<svg width="24" height="24" viewBox="0 0 24 24" fill="none" xmlns="http://www.w3.org/2000/svg">
<g id="mingcute:dry-line">
<g id="Group">
<path id="Vector" fill-rule="evenodd" clip-rule="evenodd" d="M7.37091 3.07109C7.49285 3.11987 7.60399 3.19219 7.69797 3.28393C7.79196 3.37566 7.86695 3.48501 7.91868 3.60572C7.9704 3.72644 7.99784 3.85617 7.99942 3.98749C8.00101 4.11881 7.97671 4.24916 7.92791 4.37109L7.10091 6.44109C6.79975 7.19407 6.68627 8.009 6.77024 8.81561C6.85421 9.62222 7.13312 10.3963 7.58291 11.0711L8.08091 11.8191C8.71083 12.7639 9.10143 13.8478 9.21903 14.9772C9.33662 16.1067 9.17768 17.2478 8.75591 18.3021L7.92791 20.3721C7.87906 20.494 7.80667 20.6051 7.71488 20.6991C7.62308 20.7931 7.51368 20.868 7.39292 20.9197C7.27216 20.9714 7.1424 20.9987 7.01105 21.0003C6.87971 21.0018 6.74935 20.9774 6.62741 20.9286C6.50548 20.8797 6.39437 20.8074 6.30041 20.7156C6.20645 20.6238 6.1315 20.5144 6.07982 20.3936C6.02815 20.2728 6.00076 20.1431 5.99923 20.0117C5.99771 19.8804 6.02206 19.75 6.07091 19.6281L6.89891 17.5581C7.20007 16.8051 7.31356 15.9902 7.22959 15.1836C7.14562 14.377 6.86671 13.6029 6.41691 12.9281L5.91891 12.1811C5.289 11.2363 4.8984 10.1524 4.7808 9.02295C4.66321 7.89351 4.82215 6.75241 5.24391 5.69809L6.07091 3.62809C6.11969 3.50616 6.19201 3.39502 6.28375 3.30103C6.37548 3.20705 6.48483 3.13205 6.60555 3.08033C6.72626 3.02861 6.85599 3.00117 6.98731 2.99958C7.11863 2.998 7.24898 3.0223 7.37091 3.07109ZM12.3709 3.07109C12.4929 3.11987 12.604 3.19219 12.698 3.28393C12.792 3.37566 12.867 3.48501 12.9187 3.60572C12.9704 3.72644 12.9978 3.85617 12.9994 3.98749C13.001 4.11881 12.9767 4.24916 12.9279 4.37109L12.1009 6.44109C11.7998 7.19407 11.6863 8.009 11.7702 8.81561C11.8542 9.62222 12.1331 10.3963 12.5829 11.0711L13.0809 11.8191C13.7108 12.7639 14.1014 13.8478 14.219 14.9772C14.3366 16.1067 14.1777 17.2478 13.7559 18.3021L12.9279 20.3721C12.8293 20.6183 12.6368 20.8153 12.3929 20.9197C12.149 21.024 11.8737 21.0273 11.6274 20.9286C11.3812 20.8299 11.1842 20.6375 11.0798 20.3936C10.9755 20.1497 10.9723 19.8743 11.0709 19.6281L11.8989 17.5581C12.2001 16.8051 12.3136 15.9902 12.2296 15.1836C12.1456 14.377 11.8667 13.6029 11.4169 12.9281L10.9189 12.1811C10.289 11.2363 9.8984 10.1524 9.7808 9.02295C9.66321 7.89351 9.82215 6.75241 10.2439 5.69809L11.0709 3.62809C11.1197 3.50616 11.192 3.39502 11.2837 3.30103C11.3755 3.20705 11.4848 3.13205 11.6055 3.08033C11.7263 3.02861 11.856 3.00117 11.9873 2.99958C12.1186 2.998 12.249 3.0223 12.3709 3.07109ZM17.3709 3.07109C17.4929 3.11987 17.604 3.19219 17.698 3.28393C17.792 3.37566 17.867 3.48501 17.9187 3.60572C17.9704 3.72644 17.9978 3.85617 17.9994 3.98749C18.001 4.11881 17.9767 4.24916 17.9279 4.37109L17.1009 6.44109C16.7998 7.19407 16.6863 8.009 16.7702 8.81561C16.8542 9.62222 17.1331 10.3963 17.5829 11.0711L18.0809 11.8191C18.7108 12.7639 19.1014 13.8478 19.219 14.9772C19.3366 16.1067 19.1777 17.2478 18.7559 18.3021L17.9279 20.3721C17.8791 20.494 17.8067 20.6051 17.7149 20.6991C17.6231 20.7931 17.5137 20.868 17.3929 20.9197C17.2722 20.9714 17.1424 20.9987 17.0111 21.0003C16.8797 21.0018 16.7493 20.9774 16.6274 20.9286C16.5055 20.8797 16.3944 20.8074 16.3004 20.7156C16.2065 20.6238 16.1315 20.5144 16.0798 20.3936C16.0281 20.2728 16.0008 20.1431 15.9992 20.0117C15.9977 19.8804 16.0221 19.75 16.0709 19.6281L16.8989 17.5581C17.2001 16.8051 17.3136 15.9902 17.2296 15.1836C17.1456 14.377 16.8667 13.6029 16.4169 12.9281L15.9189 12.1811C15.289 11.2363 14.8984 10.1524 14.7808 9.02295C14.6632 7.89351 14.8221 6.75241 15.2439 5.69809L16.0709 3.62809C16.1197 3.50616 16.192 3.39502 16.2837 3.30103C16.3755 3.20705 16.4848 3.13205 16.6055 3.08033C16.7263 3.02861 16.856 3.00117 16.9873 2.99958C17.1186 2.998 17.249 3.0223 17.3709 3.07109Z" fill="white"/>
</g>
</g>
</svg>
