<svg width="24" height="24" viewBox="0 0 24 24" fill="#41c752" xmlns="http://www.w3.org/2000/svg">
<g id="streamline:heart-rate-pulse-graph-solid">
<path id="Vector" fill-rule="evenodd" clip-rule="evenodd" d="M11.9864 5.44078C10.4489 3.8969 8.84449 3.13058 7.30224 3.01491C5.55923 2.88639 4.02016 3.59969 2.91126 4.72748C0.731712 6.9445 0.0657371 10.9528 2.79018 13.7112L2.81408 13.7337L11.4463 21.7857C11.5936 21.9235 11.787 22 11.988 22C12.1889 22 12.3824 21.9235 12.5297 21.7857L21.1618 13.7337L21.1794 13.7161C23.942 10.9689 23.2745 6.96057 21.0838 4.74355C19.9717 3.61576 18.4278 2.90085 16.6816 3.02776C15.1362 3.14022 13.5254 3.90011 11.9864 5.44078ZM11.4447 8.62494C11.3703 8.45053 11.2485 8.30094 11.0933 8.19352C10.9381 8.0861 10.7558 8.02524 10.5677 8.01801C10.3796 8.01078 10.1933 8.05747 10.0304 8.15266C9.86754 8.24786 9.73477 8.38766 9.64749 8.55586L8.28367 11.1825H6.44667C6.18257 11.1825 5.92929 11.2883 5.74255 11.4766C5.5558 11.6649 5.45089 11.9203 5.45089 12.1866C5.45089 12.4529 5.5558 12.7083 5.74255 12.8966C5.92929 13.0849 6.18257 13.1907 6.44667 13.1907H8.88592C9.25714 13.1907 9.5965 12.9819 9.76857 12.6525L10.4425 11.3561L12.1043 15.2439C12.1719 15.4028 12.2791 15.5414 12.4154 15.6463C12.5518 15.7512 12.7127 15.8188 12.8826 15.8425C13.0525 15.8663 13.2255 15.8454 13.3851 15.7819C13.5446 15.7184 13.6851 15.6144 13.7931 15.48L15.6349 13.1907H17.55C17.8141 13.1907 18.0673 13.0849 18.2541 12.8966C18.4408 12.7083 18.5457 12.4529 18.5457 12.1866C18.5457 11.9203 18.4408 11.6649 18.2541 11.4766C18.0673 11.2883 17.8141 11.1825 17.55 11.1825H15.1601C15.0119 11.1829 14.8656 11.2164 14.7317 11.2806C14.5978 11.3447 14.4797 11.438 14.3858 11.5537L13.2817 12.9272L11.4431 8.62655L11.4447 8.62494Z" fill="#41c752"/>
</g>
</svg>
