<svg width="24" height="24" viewBox="0 0 24 24" fill="#41c752" xmlns="http://www.w3.org/2000/svg">
<g id="tabler:heart-rate-monitor">
<g id="Group">
<path id="Vector" d="M7 19.9961H17M9 15.9961V19.9961M15 15.9961V19.9961M3 4.99609C3 4.73088 3.10536 4.47652 3.29289 4.28899C3.48043 4.10145 3.73478 3.99609 4 3.99609H20C20.2652 3.99609 20.5196 4.10145 20.7071 4.28899C20.8946 4.47652 21 4.73088 21 4.99609V14.9961C21 15.2613 20.8946 15.5157 20.7071 15.7032C20.5196 15.8907 20.2652 15.9961 20 15.9961H4C3.73478 15.9961 3.48043 15.8907 3.29289 15.7032C3.10536 15.5157 3 15.2613 3 14.9961V4.99609Z" stroke="white" stroke-width="2" stroke-linecap="round" stroke-linejoin="round"/>
<path id="Vector_2" d="M7 9.99609H9L11 12.9961L13 6.99609L14 9.99609H17" stroke="white" stroke-width="2" stroke-linecap="round" stroke-linejoin="round"/>
</g>
</g>
</svg>
