<svg width="24" height="24" viewBox="0 0 24 24" fill="none" xmlns="http://www.w3.org/2000/svg">
<g id="hugeicons:conversation">
<path id="Vector" d="M6.99975 6V5C6.99975 3.586 6.99975 2.879 7.43975 2.44C7.87775 2 8.58475 2 9.99975 2H13.9997C15.4137 2 16.1207 2 16.5597 2.44C16.9997 2.878 16.9997 3.585 16.9997 5V6C16.9997 7.414 16.9997 8.121 16.5597 8.56C16.1217 9 15.4147 9 13.9997 9H12.9997L9.99975 11V9C8.58575 9 7.87875 9 7.43975 8.56C6.99975 8.122 6.99975 7.415 6.99975 6ZM3.58975 18.74C2.96075 19.162 1.31275 20.022 2.31675 21.098C2.80675 21.624 3.35375 22 4.03975 22H7.95975C8.64575 22 9.19275 21.624 9.68275 21.098C10.6867 20.022 9.03875 19.162 8.40975 18.741C7.69876 18.2582 6.85916 18.0001 5.99975 18.0001C5.14034 18.0001 4.30073 18.2572 3.58975 18.74ZM15.5897 18.74C14.9607 19.162 13.3127 20.022 14.3167 21.098C14.8067 21.624 15.3537 22 16.0397 22H19.9597C20.6457 22 21.1927 21.624 21.6827 21.098C22.6867 20.022 21.0387 19.162 20.4097 18.741C19.6988 18.2582 18.8592 18.0001 17.9997 18.0001C17.1403 18.0001 16.3007 18.2572 15.5897 18.74ZM7.99975 13.5C7.99975 14.0304 7.78903 14.5391 7.41396 14.9142C7.03889 15.2893 6.53018 15.5 5.99975 15.5C5.46931 15.5 4.96061 15.2893 4.58553 14.9142C4.21046 14.5391 3.99975 14.0304 3.99975 13.5C3.99975 12.9696 4.21046 12.4609 4.58553 12.0858C4.96061 11.7107 5.46931 11.5 5.99975 11.5C6.53018 11.5 7.03889 11.7107 7.41396 12.0858C7.78903 12.4609 7.99975 12.9696 7.99975 13.5ZM19.9997 13.5C19.9997 14.0304 19.789 14.5391 19.414 14.9142C19.0389 15.2893 18.5302 15.5 17.9997 15.5C17.4693 15.5 16.9606 15.2893 16.5855 14.9142C16.2105 14.5391 15.9997 14.0304 15.9997 13.5C15.9997 12.9696 16.2105 12.4609 16.5855 12.0858C16.9606 11.7107 17.4693 11.5 17.9997 11.5C18.5302 11.5 19.0389 11.7107 19.414 12.0858C19.789 12.4609 19.9997 12.9696 19.9997 13.5Z" stroke="white" stroke-width="1.5" stroke-linecap="round" stroke-linejoin="round"/>
</g>
</svg>
