<svg width="24" height="24" viewBox="0 0 24 24" fill="#41c752" xmlns="http://www.w3.org/2000/svg">
<g id="ph:waves">
<path id="Vector" d="M19.7894 13.7733C16.8053 16.2464 14.7531 15.1326 12.3766 13.8426C9.88188 12.4898 7.05532 10.9561 3.28938 14.0761C3.1381 14.2037 3.04339 14.3859 3.02587 14.583C3.00836 14.7801 3.06947 14.9762 3.19588 15.1285C3.3223 15.2807 3.50377 15.3768 3.70075 15.3959C3.89773 15.4149 4.09426 15.3554 4.2475 15.2301C7.23156 12.757 9.28375 13.8708 11.6603 15.1608C13.0769 15.9286 14.5994 16.7545 16.3413 16.7545C17.6669 16.7545 19.12 16.2754 20.7475 14.9264C20.8241 14.8638 20.8876 14.7866 20.9343 14.6993C20.981 14.612 21.0099 14.5163 21.0194 14.4178C21.029 14.3193 21.0189 14.2199 20.9898 14.1252C20.9607 14.0306 20.9132 13.9427 20.85 13.8665C20.7868 13.7904 20.7091 13.7275 20.6214 13.6815C20.5338 13.6355 20.4379 13.6073 20.3393 13.5986C20.2407 13.5898 20.1414 13.6007 20.047 13.6305C19.9526 13.6603 19.865 13.7094 19.7894 13.7733ZM4.2475 9.98107C7.23156 7.50889 9.28375 8.62264 11.6603 9.9117C13.0769 10.6804 14.5994 11.5054 16.3413 11.5054C17.6669 11.5054 19.12 11.0254 20.7475 9.67732C20.8241 9.61469 20.8876 9.53751 20.9343 9.45022C20.981 9.36293 21.0099 9.26727 21.0194 9.16875C21.029 9.07022 21.0189 8.97079 20.9898 8.87618C20.9607 8.78156 20.9132 8.69364 20.85 8.61749C20.7868 8.54133 20.7091 8.47844 20.6214 8.43245C20.5338 8.38645 20.4379 8.35827 20.3393 8.34951C20.2407 8.34075 20.1414 8.35159 20.047 8.38141C19.9526 8.41123 19.865 8.45944 19.7894 8.52326C16.8053 10.9964 14.7531 9.88264 12.3766 8.59264C9.88188 7.2417 7.05532 5.70795 3.28938 8.82795C3.21006 8.88968 3.14395 8.96672 3.095 9.0545C3.04604 9.14228 3.01522 9.239 3.00438 9.33892C2.99353 9.43885 3.00289 9.53993 3.03188 9.63617C3.06087 9.7324 3.10891 9.82183 3.17314 9.89914C3.23738 9.97645 3.31649 10.0401 3.40579 10.0862C3.49509 10.1323 3.59275 10.16 3.69297 10.1677C3.79319 10.1753 3.89392 10.1627 3.98918 10.1307C4.08444 10.0986 4.17229 10.0477 4.2475 9.98107Z" fill="#41c752"/>
</g>
</svg>
