<svg width="16" height="16" viewBox="0 0 16 16" fill="#41c752" xmlns="http://www.w3.org/2000/svg">
<g id="ic:round-fitness-center">
<path id="Vector" d="M13.713 9.90657L14.193 9.42657C14.2548 9.3649 14.3038 9.29164 14.3372 9.21099C14.3707 9.13034 14.3879 9.04388 14.3879 8.95657C14.3879 8.86926 14.3707 8.7828 14.3372 8.70216C14.3038 8.62151 14.2548 8.54825 14.193 8.48657L14.1796 8.47324C14.1179 8.41144 14.0447 8.3624 13.964 8.32895C13.8834 8.2955 13.7969 8.27828 13.7096 8.27828C13.6223 8.27828 13.5359 8.2955 13.4552 8.32895C13.3746 8.3624 13.3013 8.41144 13.2396 8.47324L11.333 10.3799L5.61962 4.66657L7.52629 2.75991C7.58809 2.69823 7.63713 2.62497 7.67058 2.54432C7.70403 2.46367 7.72125 2.37722 7.72125 2.28991C7.72125 2.20259 7.70403 2.11614 7.67058 2.03549C7.63713 1.95484 7.58809 1.88158 7.52629 1.81991L7.51296 1.80657C7.45128 1.74477 7.37802 1.69574 7.29737 1.66228C7.21673 1.62883 7.13027 1.61161 7.04296 1.61161C6.95565 1.61161 6.86919 1.62883 6.78854 1.66228C6.70789 1.69574 6.63463 1.74477 6.57296 1.80657L6.09296 2.28657L5.61296 1.80657C5.35296 1.54657 4.92629 1.54657 4.66629 1.80657L3.71296 2.75991L3.23296 2.27991C3.10579 2.15491 2.93461 2.08487 2.75629 2.08487C2.57798 2.08487 2.4068 2.15491 2.27962 2.27991C2.15463 2.40708 2.08459 2.57826 2.08459 2.75657C2.08459 2.93489 2.15463 3.10607 2.27962 3.23324L2.75962 3.71324L1.80629 4.66657C1.74449 4.72825 1.69546 4.80151 1.662 4.88216C1.62855 4.96281 1.61133 5.04926 1.61133 5.13657C1.61133 5.22388 1.62855 5.31034 1.662 5.39099C1.69546 5.47164 1.74449 5.5449 1.80629 5.60657L2.28629 6.08657L1.80629 6.57324C1.74449 6.63491 1.69546 6.70817 1.662 6.78882C1.62855 6.86947 1.61133 6.95593 1.61133 7.04324C1.61133 7.13055 1.62855 7.21701 1.662 7.29766C1.69546 7.3783 1.74449 7.45156 1.80629 7.51324L1.81962 7.52657C2.07962 7.78657 2.49962 7.78657 2.75962 7.52657L4.66629 5.61991L10.3796 11.3332L8.47296 13.2399C8.41116 13.3016 8.36212 13.3748 8.32867 13.4555C8.29522 13.5361 8.278 13.6226 8.278 13.7099C8.278 13.7972 8.29522 13.8837 8.32867 13.9643C8.36212 14.045 8.41116 14.1182 8.47296 14.1799L8.48629 14.1932C8.74629 14.4532 9.16629 14.4532 9.42629 14.1932L9.90629 13.7132L10.3863 14.1932C10.6463 14.4532 11.0663 14.4532 11.3263 14.1932L12.2796 13.2399L12.7596 13.7199C13.0196 13.9799 13.453 13.9799 13.713 13.7199C13.973 13.4599 13.973 13.0266 13.713 12.7666L13.233 12.2866L14.193 11.3332C14.2548 11.2716 14.3038 11.1983 14.3372 11.1177C14.3707 11.037 14.3879 10.9506 14.3879 10.8632C14.3879 10.7759 14.3707 10.6895 14.3372 10.6088C14.3038 10.5282 14.2548 10.4549 14.193 10.3932L13.713 9.90657Z" fill="#41c752"/>
</g>
</svg>
