<svg width="24" height="24" viewBox="0 0 24 24" fill="none" xmlns="http://www.w3.org/2000/svg">
<g id="ri:dice-line">
<path id="Vector" d="M10.998 1.57611C11.3025 1.39983 11.6481 1.30701 12 1.30701C12.3519 1.30701 12.6975 1.39983 13.002 1.57611L20.502 5.91811C20.8055 6.09381 21.0575 6.34623 21.2327 6.65005C21.4078 6.95387 21.5 7.29841 21.5 7.64911V16.3431C21.4998 16.6936 21.4076 17.038 21.2324 17.3416C21.0572 17.6452 20.8054 17.8975 20.502 18.0731L13.002 22.4161C12.6975 22.5924 12.3519 22.6852 12 22.6852C11.6481 22.6852 11.3025 22.5924 10.998 22.4161L3.498 18.0741C3.19449 17.8984 2.94251 17.646 2.76735 17.3422C2.59218 17.0384 2.49998 16.6938 2.5 16.3431V7.64911C2.50016 7.29858 2.59244 6.95425 2.7676 6.65062C2.94275 6.34699 3.19463 6.09473 3.498 5.91911L10.998 1.57611ZM4.5 7.64911V7.65411L11.002 11.4181C11.3055 11.5938 11.5575 11.8462 11.7327 12.1501C11.9078 12.4539 12 12.7984 12 13.1491V20.6851L19.5 16.3431V7.64911L12 3.30711L4.5 7.64911ZM6.132 12.2961C6.132 11.7441 5.744 11.0721 5.266 10.7961C4.788 10.5201 4.4 10.7441 4.4 11.2961C4.4 11.8481 4.788 12.5201 5.266 12.7961C5.744 13.0721 6.132 12.8481 6.132 12.2961ZM8.729 18.7941C9.207 19.0701 9.595 18.8471 9.595 18.2941C9.595 17.7421 9.207 17.0701 8.729 16.7941C8.251 16.5181 7.863 16.7421 7.863 17.2941C7.863 17.8461 8.251 18.5181 8.729 18.7941ZM5.266 16.7961C5.744 17.0721 6.132 16.8481 6.132 16.2961C6.132 15.7441 5.744 15.0721 5.266 14.7961C4.788 14.5201 4.4 14.7441 4.4 15.2961C4.4 15.8481 4.788 16.5201 5.266 16.7961ZM8.729 14.7961C9.207 15.0731 9.595 14.8491 9.594 14.2961C9.594 13.7441 9.207 13.0731 8.728 12.7961C8.25 12.5201 7.862 12.7441 7.862 13.2961C7.862 13.8491 8.25 14.5201 8.729 14.7961ZM14.898 7.99611C15.376 7.72011 15.376 7.27211 14.898 6.99611C14.42 6.72011 13.644 6.72011 13.166 6.99611C12.687 7.27211 12.687 7.72011 13.166 7.99611C13.644 8.27211 14.42 8.27211 14.898 7.99611ZM10.098 6.99611C10.576 7.27211 10.576 7.72011 10.098 7.99611C9.62 8.27211 8.844 8.27211 8.366 7.99611C7.888 7.72011 7.888 7.27211 8.366 6.99611C8.844 6.72011 9.62 6.72011 10.098 6.99611ZM15.995 15.3461C16.593 15.0001 17.078 14.1611 17.078 13.4711C17.078 12.7811 16.593 12.5011 15.996 12.8461C15.399 13.1911 14.913 14.0301 14.913 14.7211C14.913 15.4111 15.398 15.6911 15.995 15.3461Z" fill="white"/>
</g>
</svg>
