<svg width="24" height="25" viewBox="0 0 24 25" fill="#41c752" xmlns="http://www.w3.org/2000/svg">
<g id="hugeicons:kidneys">
<g id="Group">
<path id="Vector" d="M9.98598 6.02344C10.143 4.61744 9.00498 3.02344 6.57098 3.02344C4.04698 3.02344 2.00098 5.48544 2.00098 8.52344C2.00098 11.5614 3.53798 14.0234 6.06298 14.0234C7.67898 14.0234 8.53498 12.7694 8.35498 11.6824" stroke="white" stroke-width="1.5" stroke-linecap="round" stroke-linejoin="round"/>
<path id="Vector_2" d="M7 8.02344C8.5 8.02344 10.5 8.51944 10.5 11.6634C10.5 15.8234 8.5 17.3834 10 21.0234M17 8.02344C15.5 8.02344 13.5 8.51944 13.5 11.6634C13.5 15.8234 15.5 17.3834 14 21.0234" stroke="white" stroke-width="1.5" stroke-linecap="round" stroke-linejoin="round"/>
<path id="Vector_3" d="M6.61 6.02344C6.814 6.59444 7.16 7.96644 6.916 8.88044C6.814 9.26144 6.488 10.0234 6 10.0234M14.014 6.02344C13.857 4.61744 14.995 3.02344 17.429 3.02344C19.953 3.02344 21.999 5.48544 21.999 8.52344C21.999 11.5614 20.462 14.0234 17.937 14.0234C16.242 14.0234 15.383 12.6434 15.679 11.5234" stroke="white" stroke-width="1.5" stroke-linecap="round" stroke-linejoin="round"/>
<path id="Vector_4" d="M17.3899 6.02344C17.1859 6.59444 16.8399 7.96644 17.0839 8.88044C17.1859 9.26144 17.5119 10.0234 17.9999 10.0234" stroke="white" stroke-width="1.5" stroke-linecap="round" stroke-linejoin="round"/>
</g>
</g>
</svg>
