<svg width="24" height="24" viewBox="0 0 24 24" fill="none" xmlns="http://www.w3.org/2000/svg">
<g id="healthicons:gluten-free">
<path id="Vector" fill-rule="evenodd" clip-rule="evenodd" d="M22 12C22 17.523 17.523 22 12 22C6.477 22 2 17.523 2 12C2 6.477 6.477 2 12 2C17.523 2 22 6.477 22 12ZM18.0005 18.708C16.3521 20.1869 14.2146 21.0034 12 21C7.0295 21 3 16.9705 3 12C3 9.631 3.915 7.476 5.4115 5.8685L7.3965 7.8535C7.4908 7.94458 7.6171 7.99498 7.7482 7.99384C7.8793 7.9927 8.00471 7.94011 8.09741 7.84741C8.19011 7.75471 8.2427 7.6293 8.24384 7.4982C8.24498 7.3671 8.19458 7.2408 8.1035 7.1465L6.1325 5.1755C7.76353 3.7691 9.84635 2.99685 12 3C16.9705 3 21 7.0295 21 12C21 14.305 20.133 16.4085 18.708 18.0005L14.4355 13.7285C14.7679 13.4599 15.036 13.1204 15.2202 12.7348C15.4044 12.3492 15.5 11.9273 15.5 11.5L14.419 11.67C14.0333 11.7305 13.664 11.8693 13.334 12.0779C13.004 12.2866 12.7201 12.5605 12.5 12.883V11.4215L13.081 11.33C13.7552 11.2237 14.3693 10.8803 14.8128 10.3615C15.2563 9.84264 15.5 9.18253 15.5 8.5L14.419 8.67C14.0333 8.73049 13.664 8.86932 13.334 9.07794C13.004 9.28655 12.7201 9.56053 12.5 9.883V9L12.7325 8.7675C13.2012 8.29868 13.4645 7.66291 13.4645 7C13.4645 6.33709 13.2012 5.70132 12.7325 5.2325L12 4.5L11.268 5.232C10.7992 5.70084 10.5358 6.33672 10.5358 6.99975C10.5358 7.66278 10.7992 8.29866 11.268 8.7675L11.5 9V9.883C11.2799 9.56053 10.996 9.28655 10.666 9.07794C10.336 8.86932 9.96672 8.73049 9.581 8.67L8.5 8.5C8.50002 9.18253 8.7437 9.84264 9.18718 10.3615C9.63066 10.8803 10.2448 11.2237 10.919 11.33L11.5 11.4215V12.883C11.2799 12.5605 10.996 12.2866 10.666 12.0779C10.336 11.8693 9.96672 11.7305 9.581 11.67L8.5 11.5C8.50002 12.1825 8.7437 12.8426 9.18718 13.3615C9.63066 13.8803 10.2448 14.2237 10.919 14.33L11.5 14.4215V15.883C11.2799 15.5605 10.996 15.2866 10.666 15.0779C10.336 14.8693 9.96672 14.7305 9.581 14.67L8.5 14.5C8.50002 15.1825 8.7437 15.8426 9.18718 16.3615C9.63066 16.8803 10.2448 17.2237 10.919 17.33L11.5 17.4215V19H12.5V17.2265C12.6763 17.3261 12.8812 17.3626 13.081 17.33C13.5165 17.2615 13.9302 17.0935 14.2901 16.8389C14.65 16.5844 14.9463 16.2503 15.156 15.8625L18.0005 18.708ZM14.047 14.7545L13.5185 14.2255C13.3755 14.2712 13.2292 14.3062 13.081 14.33L12.5 14.4215V15.883C12.871 15.3405 13.4172 14.9421 14.047 14.7545Z" fill="white" stroke="white" stroke-width="0.25"/>
</g>
</svg>
