<svg width="24" height="24" viewBox="0 0 24 24" fill="#41c752" xmlns="http://www.w3.org/2000/svg">
<g id="game-icons:gem-pendant">
<path id="Vector" d="M1.36026 0.884812C1.23698 1.36748 1.36247 1.90294 1.73733 2.27794C2.20772 2.74828 2.93076 2.82619 3.4853 2.51231C3.75198 2.7537 4.02323 2.98999 4.29891 3.22106C4.28272 3.30758 4.27453 3.3954 4.27444 3.48342C4.27444 4.28142 4.93106 4.93655 5.72897 4.93655C5.95945 4.93655 6.17784 4.8817 6.37209 4.78467C6.64251 4.96818 6.9157 5.14758 7.19156 5.3228C7.16885 5.42491 7.15735 5.5292 7.15725 5.63381C7.15725 6.43181 7.81387 7.08694 8.61178 7.08694C8.96695 7.08694 9.29381 6.957 9.54759 6.74264L10.1979 7.1235C10.1852 7.19675 10.1787 7.27096 10.1785 7.34531V9.16894L5.34708 11.9658V19.4688L11.8291 23.2213L18.3112 19.4688V11.9658L13.434 9.14241V7.34536C13.434 7.29928 13.4308 7.25414 13.4259 7.20956C13.6787 7.06566 13.9253 6.92456 14.1617 6.78797C14.4067 6.97509 14.7118 7.08689 15.0412 7.08689C15.8391 7.08689 16.4943 6.43177 16.4943 5.63377C16.4943 5.54625 16.486 5.46056 16.4709 5.37708C16.7552 5.18986 17.0361 4.99768 17.3137 4.80061C17.4997 4.88756 17.7065 4.93655 17.924 4.93655C18.7219 4.93655 19.3785 4.28142 19.3785 3.48342C19.3784 3.39249 19.3698 3.30178 19.3526 3.21248C19.6101 2.99495 19.8651 2.77437 20.1175 2.5508C20.6612 2.81864 21.3426 2.72789 21.7926 2.27789C22.1675 1.90298 22.293 1.36758 22.1697 0.884766H21.2129C21.4012 1.11389 21.388 1.44333 21.173 1.6582C20.9439 1.88733 20.5847 1.88742 20.3557 1.6582C20.1407 1.44328 20.1275 1.1138 20.3158 0.884766H19.3589C19.2691 1.23633 19.312 1.61564 19.4864 1.94077C19.2998 2.10548 19.1118 2.26851 18.9223 2.42986C18.661 2.18198 18.309 2.02884 17.924 2.02884C17.126 2.02884 16.4695 2.68556 16.4695 3.48347C16.4695 3.73894 16.5369 3.97955 16.6545 4.18894C16.4563 4.32702 16.2564 4.46255 16.0547 4.59548C15.7922 4.33861 15.4341 4.17923 15.0412 4.17923C14.2432 4.17923 13.5866 4.83595 13.5866 5.63386C13.5866 5.78227 13.6093 5.92566 13.6515 6.06089C13.4532 6.1755 13.2416 6.29658 13.0305 6.41738C12.9831 6.37116 12.9322 6.3286 12.8783 6.29006C12.5647 6.06656 12.1883 5.96747 11.8136 5.96128C11.4388 5.95509 11.0566 6.04181 10.7369 6.26616C10.6988 6.29294 10.6622 6.3219 10.6274 6.35288C10.4227 6.23227 10.2165 6.11081 10.0205 5.99559C10.0506 5.87981 10.0666 5.75859 10.0666 5.63391C10.0666 4.83591 9.41002 4.17928 8.61206 4.17928C8.23814 4.17928 7.89534 4.32342 7.6365 4.55869C7.42797 4.42674 7.22096 4.29242 7.0155 4.15575C7.12509 3.94864 7.18238 3.71788 7.18237 3.48356C7.18237 2.68552 6.5272 2.02889 5.72925 2.02889C5.34206 2.02889 4.98844 2.18377 4.72669 2.43398C4.50828 2.24882 4.29279 2.06025 4.08028 1.86834C4.22386 1.56014 4.25442 1.21069 4.17122 0.884906H3.21417C3.40251 1.11398 3.3893 1.44342 3.17433 1.65834C2.94525 1.88742 2.58605 1.88747 2.35697 1.65834C2.14209 1.44337 2.12892 1.11389 2.31722 0.884906H1.36026V0.884812ZM5.72902 2.90484C6.05358 2.90484 6.30619 3.15891 6.30619 3.48342C6.30619 3.80794 6.05367 4.06055 5.72916 4.06055C5.4045 4.06055 5.15048 3.80789 5.15048 3.48338C5.15048 3.15886 5.40455 2.9048 5.72911 2.9048L5.72902 2.90484ZM17.9239 2.90484C18.2484 2.90484 18.5025 3.15891 18.5025 3.48342C18.5025 3.80794 18.2484 4.06055 17.9238 4.06055C17.5993 4.06055 17.3452 3.80789 17.3452 3.48338C17.3452 3.15886 17.5993 2.9048 17.9239 2.9048V2.90484ZM8.61192 5.05519C8.93639 5.05519 9.1905 5.30925 9.1905 5.63381C9.1905 5.95837 8.93644 6.21094 8.61187 6.21094C8.28722 6.21094 8.0332 5.95828 8.0332 5.63377C8.0332 5.30925 8.28727 5.05519 8.61183 5.05519H8.61192ZM15.0411 5.05519C15.3656 5.05519 15.6182 5.30925 15.6182 5.63381C15.6182 5.95837 15.3656 6.21094 15.0411 6.21094C14.7165 6.21094 14.4624 5.95828 14.4624 5.63377C14.4624 5.30925 14.7165 5.05519 15.0411 5.05519H15.0411ZM11.799 6.83705C12.0191 6.8407 12.2375 6.90905 12.3699 7.00345C12.5024 7.09777 12.5579 7.18181 12.5579 7.34527V8.63527L11.8292 8.21339L11.0545 8.66175V7.34536C11.0545 7.15364 11.1135 7.07185 11.2398 6.98325C11.3662 6.89466 11.5791 6.83348 11.799 6.83709L11.799 6.83705ZM11.4183 9.46345V10.9976L7.941 13.023L6.60234 12.2514L11.4183 9.46345ZM12.2942 9.49486L17.083 12.267L15.7412 13.0405L12.2944 11.0328L12.2942 9.49486ZM11.826 11.7739L15.213 13.7467L15.213 17.699L11.8261 19.6718L8.43909 17.699L8.43923 13.7468L11.8261 11.7739L11.826 11.7739ZM11.8478 12.6331L9.18145 17.2339V17.2679L11.833 18.8137L14.4844 17.2679V14.1701L11.8478 12.6331ZM6.22312 13.044L7.56309 13.8165V17.7552L6.22312 18.5277V13.044V13.044ZM17.4352 13.0753L17.435 18.4963L16.089 17.7203V13.8513L17.4352 13.0753ZM15.6325 18.4683L16.9644 19.2361L12.2943 21.9398V20.4128L15.6325 18.4683ZM8.04956 18.4859L11.4182 20.4481V21.9713L6.72084 19.2519L8.04951 18.4859L8.04956 18.4859Z" fill="#41c752"/>
</g>
</svg>
