<svg width="24" height="24" viewBox="0 0 24 24" fill="#41c752" xmlns="http://www.w3.org/2000/svg">
<g id="hugeicons:hand-grip">
<path id="Vector" d="M8.50027 11.5L9.25027 8.75M14.0383 6.212L15.5483 11.64M2.34227 19.816C4.06027 18.576 4.98627 15.62 5.46027 13.348C5.59827 12.688 5.65727 11.353 6.41327 11.05C6.84627 10.876 7.41327 11.166 8.54927 11.746C9.42227 12.191 9.85927 12.414 9.97127 12.884C10.2413 14.01 8.41927 14.444 8.85227 15.594C9.33527 16.878 9.00727 17.253 8.06827 18.094C7.35027 18.737 8.28427 19.551 7.86827 20.259C6.83427 22.02 5.19827 22.545 3.03627 21.372C2.46327 21.061 1.47427 20.442 2.34227 19.816ZM21.6583 19.816C19.9403 18.576 19.0143 15.62 18.5403 13.348C18.4023 12.688 18.3433 11.353 17.5873 11.05C17.1543 10.876 16.5873 11.166 15.4513 11.746C14.5783 12.191 14.1413 12.414 14.0293 12.884C13.7603 14.005 15.5773 14.454 15.1493 15.594C14.6653 16.878 14.9933 17.253 15.9323 18.094C16.6503 18.737 15.7163 19.551 16.1323 20.259C17.1663 22.02 18.8023 22.545 20.9643 21.372C21.5373 21.061 22.5263 20.442 21.6583 19.816ZM14.5003 4.5C14.5003 5.16304 14.2369 5.79893 13.768 6.26777C13.2992 6.73661 12.6633 7 12.0003 7C11.3372 7 10.7013 6.73661 10.2325 6.26777C9.76367 5.79893 9.50027 5.16304 9.50027 4.5C9.50027 3.83696 9.76367 3.20107 10.2325 2.73223C10.7013 2.26339 11.3372 2 12.0003 2C12.6633 2 13.2992 2.26339 13.768 2.73223C14.2369 3.20107 14.5003 3.83696 14.5003 4.5Z" stroke="white" stroke-width="1.5" stroke-linecap="round" stroke-linejoin="round"/>
</g>
</svg>
