<svg width="24" height="24" viewBox="0 0 24 24" fill="#41c752" xmlns="http://www.w3.org/2000/svg">
<g id="octicon:stop-16">
<path id="Vector" d="M7.5875 2.275C7.76315 2.09913 8.00144 2.00022 8.25 2H15.75C15.9987 2 16.2362 2.09875 16.4125 2.275L21.725 7.5875C21.9012 7.7625 22 8.00125 22 8.25V15.75C21.9998 15.9986 21.9009 16.2369 21.725 16.4125L16.4125 21.725C16.2369 21.9009 15.9986 21.9998 15.75 22H8.25C8.00144 21.9998 7.76315 21.9009 7.5875 21.725L2.275 16.4125C2.09913 16.2369 2.00022 15.9986 2 15.75V8.25C2 8.00125 2.09875 7.76375 2.275 7.5875L7.5875 2.275ZM8.6375 3.875L3.875 8.6375V15.3625L8.6375 20.125H15.3625L20.125 15.3625V8.6375L15.3625 3.875H8.6375ZM12 7C12.2486 7 12.4871 7.09877 12.6629 7.27459C12.8387 7.4504 12.9375 7.68886 12.9375 7.9375V12.3125C12.9375 12.5611 12.8387 12.7996 12.6629 12.9754C12.4871 13.1512 12.2486 13.25 12 13.25C11.7514 13.25 11.5129 13.1512 11.3371 12.9754C11.1613 12.7996 11.0625 12.5611 11.0625 12.3125V7.9375C11.0625 7.68886 11.1613 7.4504 11.3371 7.27459C11.5129 7.09877 11.7514 7 12 7ZM12 17C11.6685 17 11.3505 16.8683 11.1161 16.6339C10.8817 16.3995 10.75 16.0815 10.75 15.75C10.75 15.4185 10.8817 15.1005 11.1161 14.8661C11.3505 14.6317 11.6685 14.5 12 14.5C12.3315 14.5 12.6495 14.6317 12.8839 14.8661C13.1183 15.1005 13.25 15.4185 13.25 15.75C13.25 16.0815 13.1183 16.3995 12.8839 16.6339C12.6495 16.8683 12.3315 17 12 17Z" fill="#41c752"/>
</g>
</svg>
