<svg width="24" height="24" viewBox="0 0 24 24" fill="#41c752" xmlns="http://www.w3.org/2000/svg">
<g id="healthicons:pain" clip-path="url(#clip0_48_3270)">
<path id="Vector" fill-rule="evenodd" clip-rule="evenodd" d="M8.61054 23.9935C8.53086 23.9862 8.4534 23.9633 8.3826 23.9261C8.31179 23.889 8.24903 23.8383 8.19789 23.7769C8.14675 23.7156 8.10824 23.6448 8.08456 23.5686C8.06087 23.4924 8.05248 23.4123 8.05986 23.3329L8.54901 18.0408L11.0131 19.3401L11.5796 15.9436C11.6061 15.7848 11.6949 15.6429 11.8264 15.5493C11.8915 15.503 11.9652 15.4699 12.0431 15.4519C12.1211 15.4339 12.2018 15.4314 12.2807 15.4445C12.3596 15.4576 12.4352 15.4861 12.503 15.5283C12.5709 15.5706 12.6298 15.6257 12.6763 15.6906C12.7228 15.7555 12.756 15.8289 12.774 15.9066C12.7921 15.9843 12.7946 16.0647 12.7814 16.1434L11.9371 21.2011L9.59433 19.9661L9.2733 23.4446C9.26596 23.524 9.24299 23.6012 9.20571 23.6718C9.16842 23.7424 9.11755 23.805 9.05601 23.8559C8.99446 23.9069 8.92344 23.9453 8.847 23.9689C8.77057 23.9925 8.69022 24.0009 8.61054 23.9935ZM0.077476 15.8295C0.0384271 15.7599 0.0135179 15.6833 0.00417102 15.6041C-0.00517589 15.5249 0.0012227 15.4446 0.0230012 15.3679C0.0447797 15.2911 0.0815115 15.2194 0.131099 15.1568C0.180686 15.0943 0.242157 15.042 0.312001 15.0031L5.15053 12.3079L5.48496 15.1962L8.80059 13.654C8.94705 13.5859 9.11462 13.5787 9.26644 13.6338C9.41826 13.6889 9.54191 13.8019 9.61016 13.9478C9.67842 14.0938 9.68571 14.2608 9.63041 14.4122C9.57512 14.5635 9.46179 14.6867 9.31533 14.7548L4.46828 17.0092L4.14969 14.2569L0.906538 16.0632C0.765559 16.1417 0.599116 16.1611 0.443777 16.1172C0.288438 16.0734 0.156299 15.9699 0.077476 15.8295ZM2.90944 3.564C2.99327 3.42646 3.12844 3.32771 3.28527 3.28946C3.4421 3.25121 3.60774 3.27657 3.74582 3.35999L8.59896 6.29566L6.17635 8.05828L9.26355 10.2484C9.32875 10.2946 9.38417 10.3532 9.42665 10.4208C9.46913 10.4884 9.49783 10.5637 9.51112 10.6423C9.52442 10.721 9.52204 10.8014 9.50412 10.8792C9.4862 10.9569 9.4531 11.0304 9.40671 11.0954C9.36031 11.1603 9.30152 11.2156 9.23371 11.2579C9.16589 11.3003 9.09037 11.3289 9.01147 11.3421C8.93256 11.3554 8.8518 11.353 8.77381 11.3351C8.69583 11.3173 8.62213 11.2843 8.55693 11.238L4.09243 8.07103L6.40478 6.38917L3.11412 4.39765C2.97613 4.3141 2.87706 4.17936 2.83869 4.02305C2.80031 3.86673 2.82576 3.70162 2.90944 3.564ZM16.2512 1.00538C16.4101 1.03351 16.5513 1.12335 16.6438 1.25518C16.7364 1.38701 16.7726 1.55004 16.7446 1.70848L15.8297 6.8828L13.513 5.40555L12.6809 8.6861C12.6405 8.84128 12.5401 8.9742 12.4017 9.05588C12.2633 9.13756 12.098 9.16135 11.9421 9.12207C11.7861 9.08279 11.6521 8.98362 11.5692 8.84621C11.4864 8.70879 11.4614 8.54429 11.4998 8.38859L12.7461 3.47414L14.947 4.87853L15.5452 1.49779C15.5591 1.41925 15.5884 1.3442 15.6314 1.27694C15.6744 1.20967 15.7303 1.15152 15.7958 1.10579C15.8614 1.06006 15.9354 1.02766 16.0135 1.01043C16.0916 0.9932 16.1724 0.991483 16.2512 1.00538ZM23.9247 9.52096C23.9633 9.59085 23.9876 9.66761 23.9963 9.74687C24.0051 9.82613 23.9981 9.90634 23.9758 9.9829C23.9534 10.0595 23.9162 10.1309 23.8661 10.1931C23.8161 10.2553 23.7542 10.3071 23.6841 10.3455L19.0448 12.8817L18.7506 10.1439L15.6457 11.5586C15.4987 11.6256 15.331 11.6317 15.1795 11.5754C15.028 11.5192 14.9052 11.4052 14.8379 11.2587C14.7707 11.1121 14.7647 10.945 14.8211 10.794C14.8776 10.643 14.9918 10.5206 15.1389 10.4536L19.7812 8.3394L20.0615 10.9405L23.0981 9.28052C23.2397 9.20322 23.4063 9.18512 23.5613 9.2302C23.7163 9.27529 23.847 9.37987 23.9247 9.52096ZM20.7632 20.5266C20.6794 20.6641 20.5442 20.7628 20.3874 20.8011C20.2306 20.8393 20.0649 20.814 19.9268 20.7306L15.3466 17.96L17.6108 16.3128L14.777 14.3024C14.7118 14.2562 14.6564 14.1976 14.6139 14.13C14.5715 14.0624 14.5428 13.9871 14.5295 13.9085C14.5162 13.8298 14.5185 13.7493 14.5365 13.6716C14.5544 13.5939 14.5875 13.5204 14.6339 13.4554C14.7276 13.3242 14.8698 13.2354 15.0291 13.2087C15.108 13.1954 15.1888 13.1978 15.2668 13.2157C15.3448 13.2335 15.4185 13.2665 15.4837 13.3127L19.6941 16.3L17.5408 17.8665L20.5585 19.6923C20.6269 19.7337 20.6865 19.7881 20.7338 19.8524C20.7811 19.9167 20.8153 19.9897 20.8343 20.0672C20.8533 20.1446 20.8568 20.2251 20.8446 20.3039C20.8324 20.3827 20.8047 20.4584 20.7632 20.5266Z" fill="#41c752" stroke="white"/>
</g>
<defs>
<clipPath id="clip0_48_3270">
<rect width="24" height="24" fill="#41c752" transform="translate(0 -0.00390625)"/>
</clipPath>
</defs>
</svg>
