<svg width="24" height="24" viewBox="0 0 24 24" fill="none" xmlns="http://www.w3.org/2000/svg">
<g id="healthicons:pain" clip-path="url(#clip0_48_3295)">
<path id="Vector" fill-rule="evenodd" clip-rule="evenodd" d="M8.61054 23.9974C8.53086 23.9901 8.4534 23.9672 8.3826 23.93C8.31179 23.8929 8.24903 23.8422 8.19789 23.7808C8.14675 23.7195 8.10824 23.6487 8.08456 23.5725C8.06087 23.4963 8.05248 23.4162 8.05986 23.3368L8.54901 18.0447L11.0131 19.344L11.5796 15.9475C11.6061 15.7887 11.6949 15.6468 11.8264 15.5532C11.8915 15.5069 11.9652 15.4738 12.0431 15.4558C12.1211 15.4378 12.2018 15.4353 12.2807 15.4484C12.3596 15.4616 12.4352 15.49 12.503 15.5323C12.5709 15.5745 12.6298 15.6296 12.6763 15.6945C12.7228 15.7594 12.756 15.8328 12.774 15.9105C12.7921 15.9882 12.7946 16.0686 12.7814 16.1473L11.9371 21.205L9.59433 19.97L9.2733 23.4485C9.26596 23.528 9.24299 23.6052 9.20571 23.6757C9.16842 23.7463 9.11755 23.8089 9.05601 23.8598C8.99446 23.9108 8.92344 23.9492 8.847 23.9728C8.77057 23.9964 8.69022 24.0048 8.61054 23.9974ZM0.077476 15.8334C0.0384271 15.7638 0.0135179 15.6872 0.00417102 15.608C-0.00517589 15.5288 0.0012227 15.4485 0.0230012 15.3718C0.0447797 15.295 0.0815115 15.2233 0.131099 15.1607C0.180686 15.0982 0.242157 15.0459 0.312001 15.007L5.15053 12.3118L5.48496 15.2001L8.80059 13.6579C8.94705 13.5898 9.11462 13.5826 9.26644 13.6377C9.41826 13.6928 9.54191 13.8058 9.61016 13.9518C9.67842 14.0977 9.68571 14.2648 9.63041 14.4161C9.57512 14.5674 9.46179 14.6907 9.31533 14.7587L4.46828 17.0131L4.14969 14.2608L0.906538 16.0671C0.765559 16.1456 0.599116 16.165 0.443777 16.1211C0.288438 16.0773 0.156299 15.9738 0.077476 15.8334ZM2.90944 3.56791C2.99327 3.43037 3.12844 3.33162 3.28527 3.29337C3.4421 3.25511 3.60774 3.28048 3.74582 3.3639L8.59896 6.29957L6.17635 8.06219L9.26355 10.2523C9.32875 10.2985 9.38417 10.3571 9.42665 10.4247C9.46913 10.4923 9.49783 10.5676 9.51112 10.6462C9.52442 10.7249 9.52204 10.8054 9.50412 10.8831C9.4862 10.9608 9.4531 11.0343 9.40671 11.0993C9.36031 11.1642 9.30152 11.2195 9.23371 11.2618C9.16589 11.3042 9.09037 11.3328 9.01147 11.346C8.93256 11.3593 8.8518 11.3569 8.77381 11.339C8.69583 11.3212 8.62213 11.2882 8.55693 11.2419L4.09243 8.07494L6.40478 6.39307L3.11412 4.40155C2.97613 4.318 2.87706 4.18327 2.83869 4.02695C2.80031 3.87064 2.82576 3.70553 2.90944 3.56791ZM16.2512 1.00928C16.4101 1.03741 16.5513 1.12726 16.6438 1.25909C16.7364 1.39091 16.7726 1.55395 16.7446 1.71239L15.8297 6.88671L13.513 5.40946L12.6809 8.69001C12.6405 8.84518 12.5401 8.97811 12.4017 9.05979C12.2633 9.14146 12.098 9.16526 11.9421 9.12598C11.7861 9.0867 11.6521 8.98753 11.5692 8.85011C11.4864 8.7127 11.4614 8.54819 11.4998 8.39249L12.7461 3.47804L14.947 4.88243L15.5452 1.5017C15.5591 1.42315 15.5884 1.3481 15.6314 1.28084C15.6744 1.21358 15.7303 1.15543 15.7958 1.1097C15.8614 1.06397 15.9354 1.03156 16.0135 1.01434C16.0916 0.997106 16.1724 0.995389 16.2512 1.00928ZM23.9247 9.52487C23.9633 9.59475 23.9876 9.67152 23.9963 9.75078C24.0051 9.83004 23.9981 9.91024 23.9758 9.98681C23.9534 10.0634 23.9162 10.1348 23.8661 10.197C23.8161 10.2592 23.7542 10.311 23.6841 10.3494L19.0448 12.8856L18.7506 10.1478L15.6457 11.5625C15.4987 11.6295 15.331 11.6356 15.1795 11.5793C15.028 11.5231 14.9052 11.4091 14.8379 11.2626C14.7707 11.1161 14.7647 10.9489 14.8211 10.7979C14.8776 10.6469 14.9918 10.5245 15.1389 10.4575L19.7812 8.34331L20.0615 10.9444L23.0981 9.28443C23.2397 9.20712 23.4063 9.18902 23.5613 9.23411C23.7163 9.27919 23.847 9.38378 23.9247 9.52487ZM20.7632 20.5305C20.6794 20.668 20.5442 20.7667 20.3874 20.805C20.2306 20.8433 20.0649 20.8179 19.9268 20.7345L15.3466 17.9639L17.6108 16.3167L14.777 14.3063C14.7118 14.2601 14.6564 14.2015 14.6139 14.1339C14.5715 14.0663 14.5428 13.991 14.5295 13.9124C14.5162 13.8337 14.5185 13.7533 14.5365 13.6755C14.5544 13.5978 14.5875 13.5243 14.6339 13.4593C14.7276 13.3281 14.8698 13.2393 15.0291 13.2126C15.108 13.1993 15.1888 13.2017 15.2668 13.2196C15.3448 13.2374 15.4185 13.2704 15.4837 13.3167L19.6941 16.3039L17.5408 17.8704L20.5585 19.6962C20.6269 19.7376 20.6865 19.792 20.7338 19.8563C20.7811 19.9206 20.8153 19.9936 20.8343 20.0711C20.8533 20.1485 20.8568 20.229 20.8446 20.3078C20.8324 20.3866 20.8047 20.4623 20.7632 20.5305Z" fill="white" stroke="white"/>
</g>
<defs>
<clipPath id="clip0_48_3295">
<rect width="24" height="24" fill="white"/>
</clipPath>
</defs>
</svg>
