<svg width="24" height="24" viewBox="0 0 24 24" fill="none" xmlns="http://www.w3.org/2000/svg">
<g id="ph:brain">
<path id="Vector" d="M23.2497 11.6211C23.2487 10.6277 22.9664 9.6548 22.4355 8.81512C21.9046 7.97545 21.1468 7.30328 20.2497 6.87641V6.74609C20.2489 5.77974 19.9369 4.83933 19.3601 4.06401C18.7833 3.2887 17.9722 2.71967 17.0468 2.44112C16.1215 2.16257 15.1311 2.1893 14.2221 2.51735C13.3131 2.84541 12.5339 3.45736 11.9997 4.26266C11.4656 3.45736 10.6863 2.84541 9.77736 2.51735C8.86839 2.1893 7.87796 2.16257 6.95262 2.44112C6.02727 2.71967 5.21618 3.2887 4.63935 4.06401C4.06252 4.83933 3.75059 5.77974 3.74973 6.74609V6.87641C2.85192 7.30211 2.09335 7.97386 1.56217 8.81358C1.031 9.65331 0.749023 10.6265 0.749023 11.6202C0.749023 12.6138 1.031 13.587 1.56217 14.4267C2.09335 15.2665 2.85192 15.9382 3.74973 16.3639V16.4961C3.75059 17.4625 4.06252 18.4029 4.63935 19.1782C5.21618 19.9535 6.02727 20.5225 6.95262 20.8011C7.87796 21.0796 8.86839 21.0529 9.77736 20.7248C10.6863 20.3968 11.4656 19.7848 11.9997 18.9795C12.5339 19.7848 13.3131 20.3968 14.2221 20.7248C15.1311 21.0529 16.1215 21.0796 17.0468 20.8011C17.9722 20.5225 18.7833 19.9535 19.3601 19.1782C19.9369 18.4029 20.2489 17.4625 20.2497 16.4961V16.3639C21.1466 15.9374 21.9044 15.2655 22.4353 14.4262C22.9662 13.5868 23.2486 12.6143 23.2497 11.6211ZM8.24973 19.4961C7.50999 19.496 6.79637 19.2226 6.24594 18.7284C5.6955 18.2342 5.34706 17.554 5.26754 16.8186C5.51008 16.8532 5.75474 16.8707 5.99973 16.8711H6.74973C6.94864 16.8711 7.1394 16.7921 7.28006 16.6514C7.42071 16.5108 7.49973 16.32 7.49973 16.1211C7.49973 15.9222 7.42071 15.7314 7.28006 15.5908C7.1394 15.4501 6.94864 15.3711 6.74973 15.3711H5.99973C5.11431 15.3721 4.25709 15.0598 3.57983 14.4895C2.90257 13.9192 2.44896 13.1276 2.2993 12.2549C2.14964 11.3823 2.3136 10.4848 2.76214 9.72139C3.21068 8.95799 3.91487 8.37794 4.75004 8.08391C4.89617 8.03217 5.02268 7.93642 5.11216 7.80984C5.20164 7.68325 5.2497 7.53205 5.24973 7.37703V6.74609C5.24973 5.95044 5.5658 5.18738 6.12841 4.62477C6.69102 4.06216 7.45408 3.74609 8.24973 3.74609C9.04538 3.74609 9.80844 4.06216 10.371 4.62477C10.9337 5.18738 11.2497 5.95044 11.2497 6.74609V13.1455C10.4261 12.4047 9.35741 11.9953 8.24973 11.9961C8.05081 11.9961 7.86005 12.0751 7.7194 12.2158C7.57874 12.3564 7.49973 12.5472 7.49973 12.7461C7.49973 12.945 7.57874 13.1358 7.7194 13.2764C7.86005 13.4171 8.05081 13.4961 8.24973 13.4961C9.04538 13.4961 9.80844 13.8122 10.371 14.3748C10.9337 14.9374 11.2497 15.7004 11.2497 16.4961C11.2497 17.2917 10.9337 18.0548 10.371 18.6174C9.80844 19.18 9.04538 19.4961 8.24973 19.4961ZM17.9997 15.3711H17.2497C17.0508 15.3711 16.86 15.4501 16.7194 15.5908C16.5787 15.7314 16.4997 15.9222 16.4997 16.1211C16.4997 16.32 16.5787 16.5108 16.7194 16.6514C16.86 16.7921 17.0508 16.8711 17.2497 16.8711H17.9997C18.2447 16.8707 18.4894 16.8532 18.7319 16.8186C18.6696 17.3948 18.4417 17.9407 18.0758 18.3902C17.7098 18.8397 17.2215 19.1735 16.6699 19.3514C16.1182 19.5292 15.5268 19.5435 14.9673 19.3924C14.4077 19.2413 13.9039 18.9313 13.5167 18.5C13.1296 18.0687 12.8756 17.5344 12.7857 16.9618C12.6957 16.3892 12.7735 15.8028 13.0097 15.2735C13.2459 14.7442 13.6304 14.2947 14.1166 13.9793C14.6029 13.6638 15.1701 13.496 15.7497 13.4961C15.9486 13.4961 16.1394 13.4171 16.2801 13.2764C16.4207 13.1358 16.4997 12.945 16.4997 12.7461C16.4997 12.5472 16.4207 12.3564 16.2801 12.2158C16.1394 12.0751 15.9486 11.9961 15.7497 11.9961C14.642 11.9953 13.5733 12.4047 12.7497 13.1455V6.74609C12.7497 5.95044 13.0658 5.18738 13.6284 4.62477C14.191 4.06216 14.9541 3.74609 15.7497 3.74609C16.5454 3.74609 17.3084 4.06216 17.871 4.62477C18.4337 5.18738 18.7497 5.95044 18.7497 6.74609V7.37703C18.7498 7.53205 18.7978 7.68325 18.8873 7.80984C18.9768 7.93642 19.1033 8.03217 19.2494 8.08391C20.0846 8.37794 20.7888 8.95799 21.2373 9.72139C21.6859 10.4848 21.8498 11.3823 21.7002 12.2549C21.5505 13.1276 21.0969 13.9192 20.4196 14.4895C19.7424 15.0598 18.8851 15.3721 17.9997 15.3711ZM19.4997 10.4961C19.4997 10.695 19.4207 10.8858 19.2801 11.0264C19.1394 11.1671 18.9486 11.2461 18.7497 11.2461H18.3747C17.4796 11.2461 16.6212 10.8905 15.9882 10.2576C15.3553 9.62464 14.9997 8.7662 14.9997 7.87109V7.49609C14.9997 7.29718 15.0787 7.10642 15.2194 6.96576C15.36 6.82511 15.5508 6.74609 15.7497 6.74609C15.9486 6.74609 16.1394 6.82511 16.2801 6.96576C16.4207 7.10642 16.4997 7.29718 16.4997 7.49609V7.87109C16.4997 8.36837 16.6973 8.84529 17.0489 9.19692C17.4005 9.54855 17.8774 9.74609 18.3747 9.74609H18.7497C18.9486 9.74609 19.1394 9.82511 19.2801 9.96576C19.4207 10.1064 19.4997 10.2972 19.4997 10.4961ZM5.62473 11.2461H5.24973C5.05081 11.2461 4.86005 11.1671 4.7194 11.0264C4.57874 10.8858 4.49973 10.695 4.49973 10.4961C4.49973 10.2972 4.57874 10.1064 4.7194 9.96576C4.86005 9.82511 5.05081 9.74609 5.24973 9.74609H5.62473C6.12201 9.74609 6.59892 9.54855 6.95055 9.19692C7.30218 8.84529 7.49973 8.36837 7.49973 7.87109V7.49609C7.49973 7.29718 7.57874 7.10642 7.7194 6.96576C7.86005 6.82511 8.05081 6.74609 8.24973 6.74609C8.44864 6.74609 8.6394 6.82511 8.78006 6.96576C8.92071 7.10642 8.99973 7.29718 8.99973 7.49609V7.87109C8.99973 8.7662 8.64415 9.62464 8.01121 10.2576C7.37828 10.8905 6.51983 11.2461 5.62473 11.2461Z" fill="white"/>
</g>
</svg>
