<?xml version="1.0" encoding="utf-8"?>
<!-- Generator: Adobe Illustrator 26.1.0, SVG Export Plug-In . SVG Version: 6.00 Build 0)  -->
<svg version="1.1" id="Layer_1" xmlns="http://www.w3.org/2000/svg" xmlns:xlink="http://www.w3.org/1999/xlink" x="0px" y="0px"
	 viewBox="0 0 18 12" style="enable-background:new 0 0 18 12;" xml:space="preserve">
<style type="text/css">
	.st0{fill:#FFFFFF;}
</style>
<path class="st0" d="M3.9,10.5h-2V1.3h6.5V3H3.9v2h4.4v1.7H3.9V10.5z M9.3,7.2c0-1.9,1.4-3.5,3.4-3.5c2,0,3.3,1.5,3.3,3.7v0.4h-4.9
	c0.1,0.8,0.8,1.5,1.9,1.5c0.6,0,1.3-0.2,1.8-0.7l0.8,1.1c-0.7,0.6-1.7,0.9-2.7,0.9C10.8,10.7,9.3,9.3,9.3,7.2z M12.8,5.1
	c-1.1,0-1.6,0.8-1.6,1.5h3.3C14.3,5.9,13.9,5.1,12.8,5.1z"/>
</svg>
