<svg width="18" height="12" viewBox="0 0 18 12" fill="none" xmlns="http://www.w3.org/2000/svg">
<path d="M2.83581 11H0.563812V0.327999H8.11581V2.28H2.83581V4.6H8.00381V6.552H2.83581V11ZM9.16044 7.128C9.16044 4.888 10.8084 3.08 13.1604 3.08C15.4644 3.08 17.0324 4.808 17.0324 7.336V7.784H11.2884C11.4164 8.76 12.2004 9.576 13.5124 9.576C14.2324 9.576 15.0804 9.288 15.5764 8.808L16.4724 10.12C15.6884 10.84 14.4884 11.192 13.2884 11.192C10.9364 11.192 9.16044 9.608 9.16044 7.128ZM13.1604 4.696C11.8964 4.696 11.3524 5.64 11.2564 6.408H15.0644C15.0164 5.672 14.5044 4.696 13.1604 4.696Z" fill="white"/>
</svg>
