<svg width="24" height="24" viewBox="0 0 24 24" fill="none" xmlns="http://www.w3.org/2000/svg">
<g id="hugeicons:kidneys">
<g id="Group">
<path id="Vector" d="M9.98598 6C10.143 4.594 9.00498 3 6.57098 3C4.04698 3 2.00098 5.462 2.00098 8.5C2.00098 11.538 3.53798 14 6.06298 14C7.67898 14 8.53498 12.746 8.35498 11.659" stroke="white" stroke-width="1.5" stroke-linecap="round" stroke-linejoin="round"/>
<path id="Vector_2" d="M7 8C8.5 8 10.5 8.496 10.5 11.64C10.5 15.8 8.5 17.36 10 21M17 8C15.5 8 13.5 8.496 13.5 11.64C13.5 15.8 15.5 17.36 14 21" stroke="white" stroke-width="1.5" stroke-linecap="round" stroke-linejoin="round"/>
<path id="Vector_3" d="M6.61 6C6.814 6.571 7.16 7.943 6.916 8.857C6.814 9.238 6.488 10 6 10M14.014 6C13.857 4.594 14.995 3 17.429 3C19.953 3 21.999 5.462 21.999 8.5C21.999 11.538 20.462 14 17.937 14C16.242 14 15.383 12.62 15.679 11.5" stroke="white" stroke-width="1.5" stroke-linecap="round" stroke-linejoin="round"/>
<path id="Vector_4" d="M17.3899 6C17.1859 6.571 16.8399 7.943 17.0839 8.857C17.1859 9.238 17.5119 10 17.9999 10" stroke="white" stroke-width="1.5" stroke-linecap="round" stroke-linejoin="round"/>
</g>
</g>
</svg>
