<svg width="24" height="24" viewBox="0 0 24 24" fill="none" xmlns="http://www.w3.org/2000/svg">
<g id="material-symbols-light:exercise">
<path id="Vector" d="M19.4748 9.2939L14.6748 4.4939L15.0998 4.0689C15.3038 3.8649 15.5511 3.7639 15.8418 3.7659C16.1331 3.7679 16.3808 3.8709 16.5848 4.0749L19.9048 7.4149C20.1095 7.6189 20.2118 7.86223 20.2118 8.1449C20.2118 8.42757 20.1098 8.6709 19.9058 8.8749L19.4748 9.2939ZM8.8228 19.9769C8.63146 20.1682 8.3948 20.2702 8.1128 20.2829C7.8308 20.2956 7.5938 20.2066 7.4018 20.0159L4.0228 16.6559C3.8188 16.4519 3.7168 16.2052 3.7168 15.9159C3.7168 15.6272 3.8188 15.3809 4.0228 15.1769L4.5188 14.6809L9.3188 19.4809L8.8228 19.9769ZM12.1408 19.9119C11.9788 20.0732 11.7901 20.1539 11.5748 20.1539C11.3595 20.1539 11.1711 20.0732 11.0098 19.9119L4.0878 12.9899C3.9258 12.8279 3.8448 12.6392 3.8448 12.4239C3.8448 12.2086 3.92546 12.0202 4.0868 11.8589L5.5698 10.3699C5.7318 10.2086 5.92146 10.1279 6.1388 10.1279C6.35613 10.1279 6.54546 10.2086 6.7068 10.3699L8.5698 12.2529L12.2578 8.5649L10.3758 6.7009C10.2138 6.53957 10.1328 6.35123 10.1328 6.1359C10.1328 5.92057 10.2138 5.7319 10.3758 5.5699L11.8578 4.0629C12.0198 3.9009 12.2125 3.8199 12.4358 3.8199C12.6591 3.8199 12.8518 3.90056 13.0138 4.0619L19.9348 10.9829C20.0968 11.1449 20.1778 11.3376 20.1778 11.5609C20.1778 11.7842 20.0968 11.9769 19.9348 12.1389L18.4278 13.6219C18.2658 13.7832 18.0771 13.8639 17.8618 13.8639C17.6465 13.8639 17.4581 13.7832 17.2968 13.6219L15.4328 11.7389L11.7448 15.4279L13.6278 17.2909C13.7891 17.4522 13.8698 17.6416 13.8698 17.8589C13.8698 18.0762 13.7891 18.2659 13.6278 18.4279L12.1408 19.9119Z" fill="white"/>
</g>
</svg>
