<svg width="24" height="24" viewBox="0 0 24 24" fill="none" xmlns="http://www.w3.org/2000/svg">
<g id="healthicons:liver-alt">
<path id="Vector" fill-rule="evenodd" clip-rule="evenodd" d="M18.29 3.377C18.712 3.1575 19.1215 3 19.474 3C19.888 3 20.2705 3.125 20.568 3.414C20.873 3.7105 21 4.1035 21 4.526C21 5.35367 20.884 6.17167 20.652 6.98C20.424 7.776 20.1335 8.481 19.7775 9.09C19.4525 9.65107 19.0786 10.1823 18.66 10.6775C18.264 11.1405 17.8775 11.5105 17.499 11.773C17.1475 12.017 16.769 12.207 16.3965 12.207C15.9765 12.207 15.568 12.013 15.1865 11.733C14.798 11.4475 14.431 11.0715 14.0835 10.6155C13.716 10.1335 13.4185 9.533 13.1815 8.8285C12.9385 8.10302 12.816 7.3426 12.819 6.5775C12.819 6.401 12.824 6.2465 12.8385 6.1265C12.8615 5.95945 12.9134 5.7977 12.992 5.6485C13.122 5.3875 13.348 5.2285 13.5985 5.148C13.8175 5.078 14.073 5.0515 14.345 5.0515C14.7275 5.0515 15.17 4.9625 15.6785 4.765C16.2055 4.56 16.6535 4.339 17.027 4.103C17.4377 3.84357 17.8591 3.60136 18.29 3.377ZM6.07 7.4115C7.0115 6.9115 8.038 6.664 9.142 6.664C9.379 6.664 9.569 6.6665 9.7075 6.6725C9.84283 6.67783 10.0313 6.68867 10.273 6.705C10.5305 6.722 10.7635 6.755 10.956 6.814C11.123 6.86567 11.2933 6.93367 11.467 7.018C11.6915 7.1265 11.887 7.285 12.0215 7.505C12.149 7.715 12.2065 7.9485 12.2065 8.19C12.2065 8.697 12.3265 9.2375 12.5805 9.815C12.8442 10.4101 13.1958 10.9623 13.6235 11.453C13.7345 11.581 13.9135 11.749 14.1755 11.9595C14.4538 12.1832 14.6852 12.3812 14.8695 12.5535C14.9726 12.6471 15.0638 12.7531 15.141 12.869C15.212 12.98 15.284 13.134 15.284 13.319C15.284 13.749 15.026 14.1475 14.7115 14.4905C14.3779 14.851 14.0119 15.1801 13.618 15.4735C13.1611 15.8221 12.7149 16.1844 12.28 16.56C11.776 16.991 11.3715 17.3865 11.0615 17.746C10.7493 18.1249 10.4918 18.5456 10.2965 18.996C10.0695 19.506 9.9195 19.897 9.838 20.176C9.79877 20.3192 9.74896 20.4592 9.689 20.595C9.664 20.6485 9.627 20.72 9.574 20.786C9.539 20.828 9.3955 21 9.142 21C8.6885 21 8.197 20.7885 7.697 20.4745C7.1755 20.146 6.651 19.6925 6.123 19.1255C5.57916 18.5381 5.08104 17.9099 4.633 17.2465C4.15267 16.5388 3.76167 15.749 3.46 14.877C3.155 13.9975 3 13.1355 3 12.293C3 11.268 3.2785 10.3165 3.832 9.451C4.383 8.5895 5.133 7.909 6.0705 7.411" fill="white"/>
</g>
</svg>
