<?xml version="1.0" encoding="utf-8"?>
<!-- Generator: Adobe Illustrator 26.1.0, SVG Export Plug-In . SVG Version: 6.00 Build 0)  -->
<svg version="1.1" id="Layer_1" xmlns="http://www.w3.org/2000/svg" xmlns:xlink="http://www.w3.org/1999/xlink" x="0px" y="0px"
	 viewBox="0 0 22 15" style="enable-background:new 0 0 22 15;" xml:space="preserve">
<style type="text/css">
	.st0{fill:#FFFFFF;}
</style>
<path class="st0" d="M11.8,10.4h-1.8V4.5l-2.3,5.9H7L4.7,4.5v5.9H3V2.2h2.4l2,5.1l2-5.1h2.4V10.4z M13.3,11.9l0.7-1.1
	c0.5,0.5,1.1,0.7,1.8,0.7c0.7,0,1.6-0.3,1.6-1.5V9.4c-0.5,0.6-1.1,0.9-1.8,0.9c-1.5,0-2.6-1-2.6-3c0-1.9,1.1-3,2.6-3
	c0.7,0,1.3,0.3,1.8,0.9V4.5H19V10c0,2.3-1.7,2.8-3.2,2.8C14.8,12.8,14,12.6,13.3,11.9z M17.5,8.3V6.4c-0.3-0.4-0.8-0.7-1.3-0.7
	c-0.9,0-1.5,0.6-1.5,1.6c0,1,0.6,1.6,1.5,1.6C16.6,9,17.2,8.7,17.5,8.3z"/>
</svg>
