<svg width="22" height="15" viewBox="0 0 22 15" fill="none" xmlns="http://www.w3.org/2000/svg">
<path d="M11.6006 11.0078H9.31256V3.32781L6.30456 11.0078H5.31256L2.30456 3.32781V11.0078H0.0325625V0.335812H3.21656L5.80856 6.99181L8.40056 0.335812H11.6006V11.0078ZM13.5121 12.9918L14.4241 11.5198C15.0481 12.2078 15.8641 12.4798 16.8401 12.4798C17.8161 12.4798 18.9681 12.0478 18.9681 10.5278V9.74381C18.3601 10.5118 17.5281 10.9598 16.5841 10.9598C14.6481 10.9598 13.1761 9.59981 13.1761 7.02381C13.1761 4.49581 14.6321 3.08781 16.5841 3.08781C17.5121 3.08781 18.3441 3.48781 18.9681 4.27181V3.27981H21.0161V10.4798C21.0161 13.4238 18.7441 14.1438 16.8401 14.1438C15.5121 14.1438 14.4721 13.8398 13.5121 12.9918ZM18.9681 8.27181V5.77581C18.6321 5.26381 17.8961 4.89581 17.2241 4.89581C16.0721 4.89581 15.2721 5.69581 15.2721 7.02381C15.2721 8.35181 16.0721 9.15181 17.2241 9.15181C17.8961 9.15181 18.6321 8.76781 18.9681 8.27181Z" fill="white"/>
</svg>
