<svg width="24" height="24" viewBox="0 0 24 24" fill="none" xmlns="http://www.w3.org/2000/svg">
<g id="icon-park:hair-brush">
<g id="Group">
<path id="Vector" d="M9.09863 15.7121C10.6607 17.2742 14.4597 16.0079 17.5839 12.8837C20.7081 9.7595 21.9744 5.96055 20.4123 4.39844" stroke="white" stroke-width="2" stroke-linecap="round" stroke-linejoin="round"/>
<path id="Vector_2" d="M13.6943 3.33765L14.4014 4.04476" stroke="white" stroke-width="2" stroke-linecap="round" stroke-linejoin="round"/>
<path id="Vector_3" d="M11.2197 5.8125L11.9268 6.5196" stroke="white" stroke-width="2" stroke-linecap="round" stroke-linejoin="round"/>
<path id="Vector_4" d="M9.09863 8.64111L9.80573 9.34821" stroke="white" stroke-width="2" stroke-linecap="round" stroke-linejoin="round"/>
<path id="Vector_5" d="M8.3916 12.1765L9.0987 12.8836" stroke="white" stroke-width="2" stroke-linecap="round" stroke-linejoin="round"/>
<path id="Vector_6" d="M17.584 2.2771L18.2911 2.9842" stroke="white" stroke-width="2" stroke-linecap="round" stroke-linejoin="round"/>
<path id="Vector_7" d="M16.877 6.51978L18.2912 7.93398" stroke="white" stroke-width="2" stroke-linecap="round" stroke-linejoin="round"/>
<path id="Vector_8" d="M14.4023 8.99463L15.8165 10.4088" stroke="white" stroke-width="2" stroke-linecap="round" stroke-linejoin="round"/>
<path id="Vector_9" d="M11.5732 11.116L12.9874 12.5302" stroke="white" stroke-width="2" stroke-linecap="round" stroke-linejoin="round"/>
<path id="Vector_10" d="M9.09875 17.8335C9.68453 17.2477 9.68453 16.2979 9.09875 15.7121C8.51296 15.1264 7.56321 15.1264 6.97743 15.7122L4.149 18.5406C3.56321 19.1264 3.56321 20.0761 4.149 20.6619C4.73478 21.2477 5.68453 21.2477 6.27032 20.6619L9.09875 17.8335Z" stroke="white" stroke-width="2" stroke-linecap="round" stroke-linejoin="round"/>
</g>
</g>
</svg>
