<svg width="24" height="24" viewBox="0 0 24 24" fill="none" xmlns="http://www.w3.org/2000/svg">
<g id="hugeicons:baby-02">
<g id="Group">
<path id="Vector" d="M12 13.9961C15.3137 13.9961 18 11.3098 18 7.99609C18 4.68239 15.3137 1.99609 12 1.99609C8.68629 1.99609 6 4.68239 6 7.99609C6 11.3098 8.68629 13.9961 12 13.9961Z" stroke="white" stroke-width="1.5" stroke-linecap="round" stroke-linejoin="round"/>
<path id="Vector_2" d="M16.8741 11.9961C17.613 13.0821 18.0056 14.3665 18.0001 15.6801C18.0001 16.4981 17.8521 17.2791 17.5841 17.9961M17.5841 17.9961C16.7061 20.3381 14.5371 21.9961 12.0001 21.9961C8.68606 21.9961 6.00006 19.1681 6.00006 15.6801C5.99452 14.3665 6.3871 13.0821 7.12606 11.9961M17.5841 17.9961C14.8511 16.7961 12.0561 14.8291 11.0001 13.9961M12.0001 1.99609C11.0061 1.99609 10.2001 2.78009 10.2001 3.74609C10.2001 4.71209 11.0061 5.49609 12.0001 5.49609C12.4611 5.49609 12.8821 5.32809 13.2001 5.05009M10.0001 7.99609H10.0081M14.0001 7.99609H14.0081" stroke="white" stroke-width="1.5" stroke-linecap="round" stroke-linejoin="round"/>
</g>
</g>
</svg>
