<svg width="24" height="24" viewBox="0 0 24 24" fill="none" xmlns="http://www.w3.org/2000/svg">
<g id="fluent:math-symbols-20-filled">
<path id="Vector" d="M5.70038 6.29611V8.69611C5.70038 8.9348 5.7952 9.16372 5.96398 9.3325C6.13277 9.50128 6.36168 9.59611 6.60038 9.59611C6.83907 9.59611 7.06799 9.50128 7.23678 9.3325C7.40556 9.16372 7.50038 8.9348 7.50038 8.69611V6.29611H9.90038C10.1391 6.29611 10.368 6.20128 10.5368 6.0325C10.7056 5.86372 10.8004 5.6348 10.8004 5.39611C10.8004 5.15741 10.7056 4.92849 10.5368 4.75971C10.368 4.59093 10.1391 4.49611 9.90038 4.49611H7.50038V2.09611C7.50038 1.85741 7.40556 1.62849 7.23678 1.45971C7.06799 1.29093 6.83907 1.19611 6.60038 1.19611C6.36168 1.19611 6.13277 1.29093 5.96398 1.45971C5.7952 1.62849 5.70038 1.85741 5.70038 2.09611V4.49611H3.30038C3.06168 4.49611 2.83277 4.59093 2.66398 4.75971C2.4952 4.92849 2.40038 5.15741 2.40038 5.39611C2.40038 5.6348 2.4952 5.86372 2.66398 6.0325C2.83277 6.20128 3.06168 6.29611 3.30038 6.29611H5.70038ZM13.2004 5.39611C13.2004 5.15741 13.2952 4.92849 13.464 4.75971C13.6328 4.59093 13.8617 4.49611 14.1004 4.49611H20.7004C20.9391 4.49611 21.168 4.59093 21.3368 4.75971C21.5056 4.92849 21.6004 5.15741 21.6004 5.39611C21.6004 5.6348 21.5056 5.86372 21.3368 6.0325C21.168 6.20128 20.9391 6.29611 20.7004 6.29611H14.1004C13.8617 6.29611 13.6328 6.20128 13.464 6.0325C13.2952 5.86372 13.2004 5.6348 13.2004 5.39611ZM2.66438 13.5321L5.32838 16.1961L2.66438 18.8601C2.57596 18.9425 2.50503 19.0419 2.45584 19.1523C2.40665 19.2627 2.3802 19.3818 2.37807 19.5027C2.37594 19.6235 2.39817 19.7436 2.44343 19.8556C2.4887 19.9677 2.55607 20.0695 2.64153 20.155C2.727 20.2404 2.8288 20.3078 2.94086 20.3531C3.05293 20.3983 3.17296 20.4205 3.29381 20.4184C3.41465 20.4163 3.53383 20.3898 3.64423 20.3406C3.75462 20.2915 3.85398 20.2205 3.93638 20.1321L6.60038 17.4681L9.26438 20.1321C9.43499 20.2911 9.66064 20.3776 9.89381 20.3735C10.127 20.3694 10.3494 20.2749 10.5143 20.1101C10.6792 19.9452 10.7737 19.7227 10.7778 19.4895C10.7819 19.2564 10.6954 19.0307 10.5364 18.8601L7.87238 16.1961L10.5364 13.5321C10.6248 13.4497 10.6957 13.3504 10.7449 13.24C10.7941 13.1296 10.8206 13.0104 10.8227 12.8895C10.8248 12.7687 10.8026 12.6487 10.7573 12.5366C10.7121 12.4245 10.6447 12.3227 10.5592 12.2373C10.4738 12.1518 10.372 12.0844 10.2599 12.0392C10.1478 11.9939 10.0278 11.9717 9.90695 11.9738C9.78611 11.9759 9.66693 12.0024 9.55653 12.0516C9.44613 12.1008 9.34677 12.1717 9.26438 12.2601L6.60038 14.9241L3.93638 12.2601C3.85398 12.1717 3.75462 12.1008 3.64423 12.0516C3.53383 12.0024 3.41465 11.9759 3.29381 11.9738C3.17296 11.9717 3.05293 11.9939 2.94086 12.0392C2.8288 12.0844 2.727 12.1518 2.64153 12.2373C2.55607 12.3227 2.4887 12.4245 2.44343 12.5366C2.39817 12.6487 2.37594 12.7687 2.37807 12.8895C2.3802 13.0104 2.40665 13.1296 2.45584 13.24C2.50503 13.3504 2.57596 13.4497 2.66438 13.5321ZM14.1004 15.2961C13.8617 15.2961 13.6328 15.3909 13.464 15.5597C13.2952 15.7285 13.2004 15.9574 13.2004 16.1961C13.2004 16.4348 13.2952 16.6637 13.464 16.8325C13.6328 17.0013 13.8617 17.0961 14.1004 17.0961H20.7004C20.9391 17.0961 21.168 17.0013 21.3368 16.8325C21.5056 16.6637 21.6004 16.4348 21.6004 16.1961C21.6004 15.9574 21.5056 15.7285 21.3368 15.5597C21.168 15.3909 20.9391 15.2961 20.7004 15.2961H14.1004ZM18.6004 13.1961C18.6004 13.5144 18.4739 13.8196 18.2489 14.0446C18.0239 14.2697 17.7186 14.3961 17.4004 14.3961C17.0821 14.3961 16.7769 14.2697 16.5519 14.0446C16.3268 13.8196 16.2004 13.5144 16.2004 13.1961C16.2004 12.8778 16.3268 12.5726 16.5519 12.3476C16.7769 12.1225 17.0821 11.9961 17.4004 11.9961C17.7186 11.9961 18.0239 12.1225 18.2489 12.3476C18.4739 12.5726 18.6004 12.8778 18.6004 13.1961ZM17.4004 20.3961C17.7186 20.3961 18.0239 20.2697 18.2489 20.0446C18.4739 19.8196 18.6004 19.5144 18.6004 19.1961C18.6004 18.8778 18.4739 18.5726 18.2489 18.3476C18.0239 18.1225 17.7186 17.9961 17.4004 17.9961C17.0821 17.9961 16.7769 18.1225 16.5519 18.3476C16.3268 18.5726 16.2004 18.8778 16.2004 19.1961C16.2004 19.5144 16.3268 19.8196 16.5519 20.0446C16.7769 20.2697 17.0821 20.3961 17.4004 20.3961Z" fill="#41c752"/>
</g>
</svg>
