<svg width="24" height="25" viewBox="0 0 24 25" fill="none" xmlns="http://www.w3.org/2000/svg">
<g id="akar-icons:moon-fill">
<path id="Vector" d="M20.958 15.3407C21.162 14.8547 20.579 14.4407 20.09 14.6567C19.1124 15.0853 18.0564 15.306 16.989 15.3047C12.804 15.3047 9.412 11.9807 9.412 7.87968C9.41157 6.49519 9.80487 5.13911 10.546 3.96968C10.83 3.52168 10.489 2.90168 9.969 3.03368C5.96 4.05668 3 7.62868 3 11.8777C3 16.9247 7.175 21.0157 12.326 21.0157C16.226 21.0157 19.566 18.6707 20.958 15.3407Z" fill="#41c752"/>
<path id="Vector_2" d="M15.611 3.11866C15.081 2.76466 14.449 3.39666 14.802 3.92666L15.432 4.87166C15.6878 5.25473 15.8244 5.70503 15.8244 6.16566C15.8244 6.6263 15.6878 7.0766 15.432 7.45966L14.802 8.40466C14.449 8.93466 15.082 9.56666 15.612 9.21266L16.556 8.58266C16.9391 8.32684 17.3894 8.19031 17.85 8.19031C18.3106 8.19031 18.7609 8.32684 19.144 8.58266L20.089 9.21266C20.619 9.56666 21.251 8.93466 20.897 8.40466L20.267 7.45966C20.0112 7.0766 19.8747 6.6263 19.8747 6.16566C19.8747 5.70503 20.0112 5.25473 20.267 4.87166L20.897 3.92666C21.251 3.39666 20.619 2.76466 20.088 3.11866L19.144 3.74866C18.7609 4.00448 18.3106 4.14102 17.85 4.14102C17.3894 4.14102 16.9391 4.00448 16.556 3.74866L15.611 3.11866Z" fill="#41c752"/>
</g>
</svg>
