<svg width="24" height="24" viewBox="0 0 24 24" fill="none" xmlns="http://www.w3.org/2000/svg">
<g id="material-symbols:cycle-rounded">
<path id="Vector" d="M3.99969 12.025C3.99969 13.4417 4.35402 14.7583 5.06269 15.975C5.77136 17.1917 6.73369 18.1667 7.94969 18.9C8.18302 19.05 8.34569 19.2543 8.43769 19.513C8.52969 19.7717 8.50869 20.0173 8.37469 20.25C8.24136 20.5 8.03736 20.6627 7.76269 20.738C7.48802 20.8133 7.22536 20.784 6.97469 20.65C5.42469 19.75 4.20802 18.5333 3.32469 17C2.44136 15.4667 1.99969 13.8083 1.99969 12.025C1.99969 11.5917 2.02902 11.1667 2.08769 10.75C2.14636 10.3333 2.22536 9.91667 2.32469 9.5L1.99969 9.7C1.76636 9.85 1.51636 9.88767 1.24969 9.813C0.983023 9.73833 0.783023 9.584 0.64969 9.35C0.516356 9.116 0.487023 8.86167 0.56169 8.587C0.636356 8.31233 0.790689 8.10833 1.02469 7.975L4.04969 6.225C4.28302 6.09167 4.53736 6.06267 4.81269 6.138C5.08802 6.21333 5.29202 6.36733 5.42469 6.6L7.17469 9.6C7.30802 9.83333 7.33736 10.0877 7.26269 10.363C7.18802 10.6383 7.03369 10.8423 6.79969 10.975C6.56569 11.1077 6.31169 11.137 6.03769 11.063C5.76369 10.989 5.55936 10.8347 5.42469 10.6L4.57469 9.125C4.39136 9.59167 4.24969 10.0667 4.14969 10.55C4.04969 11.0333 3.99969 11.525 3.99969 12.025ZM11.9997 4C11.3164 4 10.6414 4.08767 9.97469 4.263C9.30802 4.43833 8.67469 4.69233 8.07469 5.025C7.82469 5.15833 7.56236 5.20433 7.28769 5.163C7.01302 5.12167 6.80869 4.984 6.67469 4.75C6.52469 4.48333 6.49136 4.21267 6.57469 3.938C6.65802 3.66333 6.83302 3.45067 7.09969 3.3C7.84969 2.86667 8.63736 2.54167 9.46269 2.325C10.288 2.10833 11.1337 2 11.9997 2C13.3164 2 14.579 2.246 15.7877 2.738C16.9964 3.23 18.0754 3.94233 19.0247 4.875V4.5C19.0247 4.21667 19.1207 3.97933 19.3127 3.788C19.5047 3.59667 19.742 3.50067 20.0247 3.5C20.3074 3.49933 20.545 3.59533 20.7377 3.788C20.9304 3.98067 21.026 4.218 21.0247 4.5V8C21.0247 8.28333 20.929 8.521 20.7377 8.713C20.5464 8.905 20.3087 9.00067 20.0247 9H16.5247C16.2414 9 16.004 8.904 15.8127 8.712C15.6214 8.52 15.5254 8.28267 15.5247 8C15.524 7.71733 15.62 7.48 15.8127 7.288C16.0054 7.096 16.2427 7 16.5247 7H18.2497C17.483 6.05 16.558 5.31267 15.4747 4.788C14.3914 4.26333 13.233 4.00067 11.9997 4ZM18.0497 17.275C18.683 16.5417 19.1664 15.7333 19.4997 14.85C19.833 13.9667 19.9997 13.0417 19.9997 12.075C19.9997 11.7917 20.0957 11.5417 20.2877 11.325C20.4797 11.1083 20.717 11 20.9997 11C21.2824 11 21.52 11.1083 21.7127 11.325C21.9054 11.5417 22.001 11.7917 21.9997 12.075C21.9997 13.1583 21.8287 14.204 21.4867 15.212C21.1447 16.22 20.649 17.1577 19.9997 18.025C19.3504 18.8923 18.5797 19.634 17.6877 20.25C16.7957 20.866 15.8247 21.3243 14.7747 21.625L15.0247 21.775C15.258 21.9083 15.408 22.1127 15.4747 22.388C15.5414 22.6633 15.508 22.9173 15.3747 23.15C15.2414 23.3827 15.0414 23.5327 14.7747 23.6C14.508 23.6673 14.258 23.634 14.0247 23.5L10.9747 21.75C10.7414 21.6167 10.5874 21.4123 10.5127 21.137C10.438 20.8617 10.467 20.6077 10.5997 20.375L12.3497 17.35C12.483 17.1167 12.683 16.9667 12.9497 16.9C13.2164 16.8333 13.4664 16.8667 13.6997 17C13.933 17.1333 14.0874 17.3377 14.1627 17.613C14.238 17.8883 14.2087 18.1423 14.0747 18.375L13.1497 19.95C14.0997 19.8167 14.9957 19.5207 15.8377 19.062C16.6797 18.6033 17.417 18.0077 18.0497 17.275Z" fill="white"/>
</g>
</svg>
