<svg width="24" height="24" viewBox="0 0 24 24" fill="none" xmlns="http://www.w3.org/2000/svg">
<g id="healthicons:exercise-running">
<g id="Group">
<path id="Vector" d="M15.2494 6.5C15.8461 6.5 16.4184 6.26295 16.8404 5.84099C17.2623 5.41903 17.4994 4.84674 17.4994 4.25C17.4994 3.65326 17.2623 3.08097 16.8404 2.65901C16.4184 2.23705 15.8461 2 15.2494 2C14.6527 2 14.0804 2.23705 13.6584 2.65901C13.2365 3.08097 12.9994 3.65326 12.9994 4.25C12.9994 4.84674 13.2365 5.41903 13.6584 5.84099C14.0804 6.26295 14.6527 6.5 15.2494 6.5ZM10.7294 8.641C10.1059 8.796 9.6804 9.029 9.3369 9.318C8.8219 9.752 8.4059 10.378 7.8439 11.362C7.71229 11.5923 7.49459 11.7608 7.23869 11.8306C6.9828 11.9004 6.70967 11.8656 6.4794 11.734C6.24913 11.6024 6.08057 11.3847 6.0108 11.1288C5.94104 10.8729 5.97579 10.5998 6.1074 10.3695C6.6669 9.391 7.2324 8.4755 8.0489 7.7885C8.9009 7.0705 9.9439 6.6645 11.3504 6.508C11.9384 6.443 12.5854 6.456 13.1919 6.7265C13.8284 7.011 14.2934 7.5205 14.6104 8.2015C15.0374 9.118 15.3549 9.6635 15.6089 9.98C15.7314 10.1315 15.8169 10.202 15.8654 10.2335C15.9039 10.2585 15.9204 10.2605 15.9264 10.2615C15.9699 10.2665 16.1114 10.2615 16.5254 10.078C16.7059 9.998 16.9029 9.902 17.1439 9.7845L17.2014 9.7565C17.4962 9.61108 17.7935 9.47106 18.0934 9.3365C18.3355 9.23022 18.6098 9.22414 18.8564 9.3196C19.103 9.41506 19.3017 9.60429 19.4091 9.8459C19.5166 10.0875 19.5239 10.3618 19.4296 10.6088C19.3353 10.8558 19.147 11.0555 18.9059 11.164C18.628 11.2887 18.3525 11.4185 18.0794 11.5535L18.0139 11.5855C17.7834 11.698 17.5514 11.8115 17.3339 11.9075C16.8839 12.1065 16.3089 12.3225 15.6854 12.247C15.0274 12.167 14.5204 11.7955 14.1029 11.297L12.7364 13.9335L14.6264 16.3925C14.7389 16.5395 14.8084 16.7145 14.8279 16.8985L15.2439 20.8965C15.2597 21.0282 15.2492 21.1618 15.2129 21.2894C15.1767 21.417 15.1154 21.5361 15.0326 21.6398C14.9498 21.7435 14.8472 21.8297 14.7308 21.8933C14.6144 21.957 14.4865 21.9969 14.3546 22.0106C14.2226 22.0243 14.0892 22.0117 13.9622 21.9733C13.8352 21.935 13.7171 21.8718 13.6147 21.7874C13.5124 21.703 13.4279 21.599 13.3661 21.4816C13.3043 21.3642 13.2665 21.2357 13.2549 21.1035L12.8679 17.387L11.7199 15.893L11.7099 15.9115L11.6679 15.8255L9.5469 13.0655C9.44264 12.9298 9.37492 12.7697 9.35023 12.6004C9.32555 12.4311 9.34471 12.2583 9.4059 12.0985L10.7294 8.641Z" fill="#41c752"/>
<path id="Vector_2" d="M9.21577 14.5035L8.47977 16.4835L5.57977 16.2535C5.44792 16.2413 5.31495 16.2554 5.18858 16.2949C5.06221 16.3345 4.94496 16.3987 4.84362 16.484C4.74228 16.5692 4.65888 16.6737 4.59826 16.7914C4.53764 16.9092 4.501 17.0378 4.49047 17.1697C4.47994 17.3017 4.49573 17.4345 4.53693 17.5604C4.57813 17.6862 4.64391 17.8026 4.73045 17.9028C4.817 18.0031 4.92258 18.0851 5.04109 18.1442C5.15959 18.2033 5.28865 18.2382 5.42077 18.247L9.07477 18.537C9.29163 18.5543 9.5082 18.5004 9.69164 18.3834C9.87508 18.2665 10.0154 18.0929 10.0913 17.889L10.6538 16.375L9.21577 14.5035Z" fill="#41c752"/>
</g>
</g>
</svg>
