<svg width="24" height="24" viewBox="0 0 24 24" fill="none" xmlns="http://www.w3.org/2000/svg">
<g id="eva:music-fill">
<path id="Vector" d="M19.0004 14.9961V3.99612C18.9997 3.84592 18.9652 3.6978 18.8994 3.56276C18.8336 3.42773 18.7383 3.30925 18.6204 3.21612C18.5043 3.12214 18.3685 3.0554 18.2231 3.02079C18.0778 2.98617 17.9265 2.98458 17.7804 3.01612L8.78043 5.01612C8.55825 5.06623 8.35983 5.19067 8.21799 5.36888C8.07616 5.54708 7.9994 5.76837 8.00043 5.99612V14.3361C7.31776 14.0138 6.549 13.9216 5.80946 14.0732C5.06993 14.2249 4.39951 14.6122 3.89877 15.1772C3.39803 15.7421 3.09397 16.4542 3.03221 17.2066C2.97045 17.959 3.15432 18.7111 3.55623 19.3501C3.95814 19.9892 4.55642 20.4807 5.26133 20.7509C5.96623 21.0211 6.73975 21.0555 7.46583 20.8488C8.19192 20.6422 8.83142 20.2057 9.28841 19.6048C9.7454 19.0039 9.99523 18.271 10.0004 17.5161C10.0117 17.343 10.0117 17.1693 10.0004 16.9961V6.79612L17.0004 5.24612V12.3361C16.3174 12.0136 15.5481 11.9215 14.8082 12.0735C14.0683 12.2254 13.3977 12.6134 12.8971 13.179C12.3965 13.7446 12.0929 14.4574 12.0319 15.2103C11.9709 15.9631 12.1558 16.7155 12.5588 17.3543C12.9619 17.9931 13.5613 18.484 14.2671 18.7531C14.9729 19.0222 15.7469 19.055 16.473 18.8467C17.199 18.6384 17.8379 18.2002 18.2936 17.5978C18.7494 16.9954 18.9974 16.2615 19.0004 15.5061C19.0091 15.3362 19.0091 15.166 19.0004 14.9961Z" fill="white"/>
</g>
</svg>
