<svg width="24" height="24" viewBox="0 0 24 24" fill="none" xmlns="http://www.w3.org/2000/svg">
<g id="lucide-lab:peach">
<g id="Group">
<path id="Vector" d="M13.8 3C13.3226 3 12.8648 3.18964 12.5272 3.5272C12.1896 3.86477 12 4.3226 12 4.79999V6.59998" stroke="white" stroke-width="2" stroke-linecap="round" stroke-linejoin="round"/>
<path id="Vector_2" d="M11.9999 7.04968C12.7785 6.35329 13.7423 5.89766 14.7746 5.73801C15.8069 5.57836 16.8634 5.72153 17.8159 6.15018C18.7685 6.57884 19.5763 7.27457 20.1414 8.15306C20.7065 9.03156 21.0047 10.0551 20.9999 11.0997C20.9999 16.5896 16.9499 20.9996 11.9999 20.9996C7.04997 20.9996 3 16.5896 3 11.0997C3 9.6675 3.56892 8.294 4.58161 7.28131C5.5943 6.26862 6.9678 5.69969 8.39996 5.69969C9.83212 5.69969 11.2056 6.26862 12.2183 7.28131C13.231 8.294 13.7999 9.6675 13.7999 11.0997" stroke="white" stroke-width="2" stroke-linecap="round" stroke-linejoin="round"/>
</g>
</g>
</svg>
