<svg width="24" height="24" viewBox="0 0 24 24" fill="none" xmlns="http://www.w3.org/2000/svg">
<g id="mdi:peanut-outline" clip-path="url(#clip0_48_3598)">
<path id="Vector" d="M4.19724 19.7888C3.8649 19.4564 3.57499 19.0958 3.32043 18.6998C1.36882 15.6876 2.23856 11.6641 5.25083 9.7125C6.262 9.05489 7.43579 8.70134 8.63787 8.67306C8.87594 8.66676 9.10251 8.56938 9.2709 8.40099C9.4393 8.23259 9.53668 8.00602 9.54297 7.76796C9.89652 4.47284 12.8522 2.08282 16.1473 2.43637C19.4425 2.78993 21.8275 5.75058 21.4719 9.04782C21.1749 11.848 18.9687 14.0541 16.1473 14.3723C15.6524 14.4572 15.2776 14.8885 15.2705 15.3906C15.1503 18.9756 12.1451 21.797 8.55302 21.6697C6.91464 21.6199 5.35689 20.9472 4.19724 19.7888ZM18.3394 5.64664C17.6959 5.00317 16.8474 4.59305 15.9423 4.5082C15.4211 4.44913 14.8934 4.49367 14.3895 4.63925C13.8856 4.78483 13.4154 5.02858 13.006 5.35649C12.5966 5.68439 12.2561 6.08998 12.004 6.54994C11.7519 7.0099 11.5932 7.51516 11.537 8.03666C11.4097 9.52158 10.1652 10.6671 8.66616 10.6954C6.18421 10.7732 4.23967 12.8591 4.31745 15.3411C4.39523 17.823 6.47413 19.7746 8.96314 19.6898C10.1045 19.652 11.1888 19.1817 11.9963 18.3742C12.8038 17.5667 13.2741 16.4824 13.3118 15.3411C13.3191 14.6022 13.5987 13.8921 14.0972 13.3466C14.5956 12.8012 15.2778 12.4589 16.013 12.3854C17.0667 12.2686 18.031 11.7383 18.694 10.9109C19.3569 10.0836 19.6643 9.02687 19.5485 7.97302C19.4637 7.35077 19.2798 6.78508 18.9616 6.26889L18.3394 5.64664ZM16.2181 7.76796C15.8291 8.15687 15.8291 8.79326 16.2181 9.18217C16.607 9.57108 17.2434 9.57108 17.6323 9.18217C18.0212 8.79326 18.0212 8.15687 17.6323 7.76796C17.2434 7.37905 16.607 7.37905 16.2181 7.76796ZM8.43988 18.3746C8.82879 18.7635 9.46519 18.7635 9.8541 18.3746C10.243 17.9857 10.243 17.3493 9.8541 16.9603C9.46519 16.5714 8.82879 16.5714 8.43988 16.9603C8.05098 17.3493 8.05098 17.9857 8.43988 18.3746ZM9.8541 15.5461C10.243 15.935 10.8794 15.935 11.2683 15.5461C11.6572 15.1572 11.6572 14.5208 11.2683 14.1319C10.8794 13.743 10.243 13.743 9.8541 14.1319C9.46519 14.5208 9.46519 15.1572 9.8541 15.5461ZM7.02567 15.5461C7.41458 15.935 8.05098 15.935 8.43988 15.5461C8.82879 15.1572 8.82879 14.5208 8.43988 14.1319C8.05098 13.743 7.41458 13.743 7.02567 14.1319C6.63676 14.5208 6.63676 15.1572 7.02567 15.5461Z" fill="#41c752"/>
</g>
<defs>
<clipPath id="clip0_48_3598">
<rect width="24" height="24" fill="#41c752"/>
</clipPath>
</defs>
</svg>
