<svg width="16" height="16" viewBox="0 0 16 16" fill="none" xmlns="http://www.w3.org/2000/svg">
<g id="ph:mask-happy">
<path id="Vector" d="M13.5625 2.17505C13.4285 2.08304 13.2741 2.0252 13.1126 2.00657C12.9512 1.98794 12.7876 2.00909 12.6362 2.06818C11.7594 2.40943 9.98875 2.98193 8 2.98193C6.01125 2.98193 4.24 2.40943 3.36188 2.06818C3.21037 2.00936 3.0468 1.98836 2.88535 2.007C2.7239 2.02563 2.56942 2.08333 2.43529 2.17511C2.30116 2.26689 2.19142 2.38998 2.11557 2.53372C2.03973 2.67746 2.00006 2.83753 2 3.00005V6.48568C2 8.72568 2.60312 10.8388 3.69875 12.4344C4.83375 14.0882 6.36125 14.9969 8 14.9969C9.63875 14.9969 11.1663 14.0863 12.3013 12.4344C13.3969 10.8401 14 8.72693 14 6.48693V3.00005C13.9997 2.83732 13.9597 2.67712 13.8835 2.53335C13.8072 2.38958 13.697 2.26659 13.5625 2.17505ZM13 6.48755C13 8.52755 12.4588 10.4394 11.4769 11.8707C10.5338 13.2438 9.29938 14.0001 8 14.0001C6.70062 14.0001 5.46625 13.2438 4.52313 11.8701C3.54125 10.4376 3 8.52693 3 6.48693V3.00005C3.94438 3.36693 5.84875 3.98193 8 3.98193C10.1512 3.98193 12.0562 3.36693 13 3.00005V6.48818V6.48755ZM11.875 7.66693C11.9634 7.76638 12.0086 7.89686 12.0007 8.02966C11.9929 8.16246 11.9326 8.2867 11.8331 8.37505C11.7337 8.4634 11.6032 8.50862 11.4704 8.50077C11.3376 8.49292 11.2134 8.43263 11.125 8.33318C10.9575 8.14568 10.5719 8.00005 10.25 8.00005C9.92812 8.00005 9.54 8.1463 9.375 8.33318C9.33121 8.38242 9.27815 8.42256 9.21885 8.4513C9.15955 8.48004 9.09517 8.49682 9.02939 8.50068C8.89653 8.50847 8.76602 8.46317 8.66656 8.37474C8.56711 8.28631 8.50685 8.16199 8.49906 8.02913C8.49126 7.89627 8.53657 7.76576 8.625 7.6663C8.98187 7.26755 9.63375 7.00005 10.25 7.00005C10.8663 7.00005 11.5156 7.26755 11.875 7.6663V7.66693ZM5.75 8.00005C5.42563 8.00005 5.04 8.1463 4.875 8.33318C4.83121 8.38242 4.77815 8.42256 4.71885 8.4513C4.65955 8.48004 4.59517 8.49682 4.52939 8.50068C4.39653 8.50847 4.26602 8.46317 4.16656 8.37474C4.06711 8.28631 4.00685 8.16199 3.99906 8.02913C3.99126 7.89627 4.03657 7.76576 4.125 7.6663C4.48438 7.26755 5.13625 7.00005 5.75 7.00005C6.36375 7.00005 7.01562 7.26755 7.375 7.6663C7.41879 7.71555 7.45245 7.77294 7.47406 7.83519C7.49566 7.89744 7.5048 7.96334 7.50094 8.02913C7.49708 8.09491 7.4803 8.15929 7.45156 8.21859C7.42282 8.27789 7.38268 8.33095 7.33344 8.37474C7.28419 8.41853 7.2268 8.45219 7.16455 8.47379C7.1023 8.4954 7.0364 8.50454 6.97061 8.50068C6.90483 8.49682 6.84045 8.48004 6.78115 8.4513C6.72185 8.42256 6.66879 8.38242 6.625 8.33318C6.46 8.1463 6.07438 8.00005 5.75 8.00005ZM10.5281 10.8244C10.2178 11.1927 9.83072 11.4887 9.39404 11.6917C8.95735 11.8948 8.48158 12 8 12C7.51842 12 7.04265 11.8948 6.60596 11.6917C6.16928 11.4887 5.78223 11.1927 5.47188 10.8244C5.38576 10.7236 5.34325 10.5926 5.35368 10.4604C5.36411 10.3282 5.42664 10.2055 5.5275 10.1194C5.62837 10.0333 5.75931 9.9908 5.89152 10.0012C6.02373 10.0117 6.14639 10.0742 6.2325 10.1751C6.4489 10.4334 6.71932 10.6412 7.02469 10.7837C7.33007 10.9263 7.66299 11.0002 8 11.0002C8.33701 11.0002 8.66993 10.9263 8.97531 10.7837C9.28068 10.6412 9.5511 10.4334 9.7675 10.1751C9.85361 10.0742 9.97627 10.0117 10.1085 10.0012C10.1739 9.99606 10.2398 10.0038 10.3022 10.0241C10.3647 10.0444 10.4226 10.0768 10.4725 10.1194C10.5224 10.1621 10.5635 10.2141 10.5933 10.2726C10.6231 10.3311 10.6412 10.3949 10.6463 10.4604C10.6515 10.5259 10.6437 10.5917 10.6234 10.6542C10.6031 10.7166 10.5708 10.7745 10.5281 10.8244Z" fill="white"/>
</g>
</svg>
