<svg width="24" height="24" viewBox="0 0 24 24" fill="none" xmlns="http://www.w3.org/2000/svg">
<g id="healthicons:exercise-yoga">
<path id="Vector" d="M14.5 4.99609C14.5 5.65913 14.2366 6.29502 13.7677 6.76386C13.2989 7.2327 12.663 7.49609 12 7.49609C11.3369 7.49609 10.701 7.2327 10.2322 6.76386C9.76336 6.29502 9.49997 5.65913 9.49997 4.99609C9.49997 4.33305 9.76336 3.69717 10.2322 3.22833C10.701 2.75949 11.3369 2.49609 12 2.49609C12.663 2.49609 13.2989 2.75949 13.7677 3.22833C14.2366 3.69717 14.5 4.33305 14.5 4.99609ZM15.5 21.4961C15.5 21.6287 15.4473 21.7559 15.3535 21.8496C15.2598 21.9434 15.1326 21.9961 15 21.9961H6.42797C6.11756 21.9961 5.81561 21.8949 5.56784 21.708C5.32006 21.521 5.13996 21.2584 5.0548 20.9599C4.96963 20.6614 4.98405 20.3433 5.09586 20.0537C5.20768 19.7641 5.4108 19.5189 5.67447 19.3551L8.31646 17.7141C8.53314 17.5795 8.71191 17.3919 8.83589 17.1689C8.95986 16.946 9.02493 16.6952 9.02496 16.4401V15.9961H10.212C10.7424 15.996 11.251 15.7852 11.626 15.4101L12 15.0366L12.3735 15.4101C12.5593 15.5959 12.7799 15.7434 13.0226 15.8439C13.2654 15.9445 13.5257 15.9962 13.7885 15.9961H15V16.4421C15 16.6964 15.0648 16.9465 15.1881 17.169C15.3114 17.3914 15.4893 17.5788 15.705 17.7136L18.328 19.3531C18.5915 19.5176 18.7942 19.7634 18.9056 20.0534C19.0169 20.3434 19.0309 20.6617 18.9452 20.9603C18.8596 21.2589 18.6791 21.5215 18.4309 21.7084C18.1828 21.8952 17.8806 21.9962 17.57 21.9961H16.415C16.47 21.8396 16.5 21.6711 16.5 21.4961V21.3711C16.4999 21.0078 16.368 20.6568 16.1287 20.3834C15.8894 20.1101 15.5591 19.9328 15.199 19.8846L8.59147 19.0006C8.46109 18.9851 8.32985 19.0215 8.22609 19.102C8.12234 19.1824 8.05439 19.3005 8.03692 19.4306C8.01946 19.5607 8.05388 19.6925 8.13275 19.7975C8.21162 19.9024 8.32862 19.9722 8.45846 19.9916L15.0665 20.8756C15.1865 20.8917 15.2966 20.9508 15.3763 21.0419C15.456 21.1331 15.5 21.25 15.5 21.3711V21.4961ZM13.081 14.7031L12.5 14.1221V12.2511C12.5746 12.2941 12.6436 12.3471 12.707 12.4101L13.6465 13.3501C13.7403 13.4437 13.8674 13.4962 14 13.4961H15.5C15.5852 13.496 15.6689 13.4742 15.7433 13.4327C15.8177 13.3912 15.8803 13.3314 15.9251 13.2589C15.9698 13.1864 15.9954 13.1037 15.9992 13.0186C16.003 12.9335 15.985 12.8488 15.947 12.7726L15.447 11.7726C15.4189 11.7118 15.3789 11.6573 15.3293 11.6122C15.2798 11.5672 15.2217 11.5326 15.1585 11.5104C15.0953 11.4883 15.0283 11.479 14.9615 11.4833C14.8946 11.4875 14.8293 11.5051 14.7694 11.5351C14.7096 11.565 14.6563 11.6067 14.6128 11.6576C14.5693 11.7085 14.5365 11.7677 14.5163 11.8315C14.4961 11.8954 14.489 11.9626 14.4953 12.0293C14.5016 12.0959 14.5212 12.1607 14.553 12.2196L14.691 12.4961H14.207L13.414 11.7031C13.0389 11.3282 12.5303 11.1175 12 11.1175C11.4696 11.1175 10.961 11.3282 10.586 11.7031L9.79297 12.4961H9.30897L9.44696 12.2196C9.47875 12.1607 9.49837 12.0959 9.50466 12.0293C9.51096 11.9626 9.50379 11.8954 9.4836 11.8315C9.46341 11.7677 9.4306 11.7085 9.38712 11.6576C9.34364 11.6067 9.29037 11.565 9.23048 11.5351C9.17059 11.5051 9.10529 11.4875 9.03847 11.4833C8.97164 11.479 8.90464 11.4883 8.84145 11.5104C8.77826 11.5326 8.72016 11.5672 8.67061 11.6122C8.62105 11.6573 8.58105 11.7118 8.55297 11.7726L8.05297 12.7726C8.01488 12.8488 7.99691 12.9335 8.00074 13.0186C8.00457 13.1037 8.03009 13.1864 8.07487 13.2589C8.11965 13.3314 8.1822 13.3912 8.2566 13.4327C8.331 13.4742 8.41477 13.496 8.49996 13.4961H9.99997C10.1326 13.4961 10.2597 13.4434 10.3535 13.3496L11.293 12.4101C11.3566 12.3471 11.4256 12.2941 11.5 12.2511V14.1221L10.919 14.7031C10.7315 14.8906 10.4772 14.996 10.212 14.9961H7.19296C7.03035 14.9961 6.87019 14.9564 6.72637 14.8806C6.58254 14.8047 6.45938 14.6949 6.36757 14.5607C6.27577 14.4265 6.21807 14.2719 6.1995 14.1103C6.18092 13.9488 6.20202 13.7851 6.26097 13.6336L7.76296 9.77109C7.90905 9.39552 8.16517 9.07284 8.49779 8.84533C8.8304 8.61782 9.22398 8.49609 9.62697 8.49609H14.373C14.7759 8.49609 15.1695 8.61782 15.5021 8.84533C15.8348 9.07284 16.0909 9.39552 16.237 9.77109L17.7395 13.6336C17.7984 13.7852 17.8195 13.949 17.8009 14.1106C17.7823 14.2722 17.7245 14.4269 17.6326 14.5611C17.5406 14.6953 17.4174 14.8051 17.2734 14.8809C17.1294 14.9567 16.9692 14.9963 16.8065 14.9961H13.7875C13.5223 14.996 13.268 14.8906 13.0805 14.7031" fill="#41c752"/>
</g>
</svg>
