<svg width="24" height="24" viewBox="0 0 24 24" fill="none" xmlns="http://www.w3.org/2000/svg">
<g id="fa6-solid:cannabis">
<path id="Vector" d="M12.0019 2C12.2006 2 12.388 2.10547 12.5005 2.27734C13.0929 3.19531 13.8765 4.76562 14.3451 6.53516C14.6151 7.56641 14.7875 8.69141 14.7351 9.81641C15.1662 9.47266 15.6236 9.16406 16.0773 8.89453C17.6145 7.98438 19.2416 7.45312 20.2839 7.23438C20.4789 7.19531 20.6851 7.25781 20.8238 7.40625C20.9625 7.55469 21.0262 7.76562 20.9888 7.97266C20.7788 9.05469 20.2652 10.7422 19.3878 12.3359C19.0467 12.957 18.6417 13.5742 18.1731 14.1445C19.2154 14.4023 20.1377 14.8203 20.6926 15.1406C20.8838 15.25 21 15.4609 21 15.6875C21 15.9141 20.88 16.125 20.6926 16.2344C20.1227 16.5625 19.1591 16.9961 18.0756 17.2539C17.3183 17.4336 16.4672 17.5352 15.6311 17.4336L15.9423 18.7266C15.9985 18.9648 15.9198 19.2109 15.7361 19.3672C15.5524 19.5234 15.3012 19.5469 15.0912 19.4414L12.9017 18.2969V21.0625C12.9017 21.582 12.5005 22 12.0019 22C11.5032 22 11.1021 21.582 11.1021 21.0625V18.2969L8.90877 19.4336C8.69881 19.543 8.44762 19.5156 8.2639 19.3594C8.08019 19.2031 8.00146 18.957 8.0577 18.7188L8.36888 17.4258C7.53656 17.5273 6.68173 17.4258 5.92439 17.2461C4.84087 16.9883 3.87732 16.5586 3.30744 16.2266C3.11623 16.1172 3 15.9063 3 15.6797C3 15.4531 3.11998 15.2422 3.30744 15.1328C3.86232 14.8125 4.78463 14.3984 5.82691 14.1367C5.36201 13.5742 4.95709 12.957 4.61591 12.3359C3.7386 10.7422 3.22495 9.05469 3.015 7.97266C2.97376 7.76953 3.03749 7.55469 3.17996 7.40625C3.32243 7.25781 3.52489 7.19531 3.71985 7.23438C4.76588 7.44922 6.38929 7.98438 7.92647 8.89453C8.38013 9.16406 8.83753 9.46875 9.26869 9.81641C9.21621 8.69531 9.38492 7.56641 9.65861 6.53516C10.1273 4.76562 10.9109 3.19531 11.5032 2.27734C11.6157 2.10547 11.8032 2 12.0019 2Z" fill="white"/>
</g>
</svg>
