<svg width="24" height="24" viewBox="0 0 24 24" fill="none" xmlns="http://www.w3.org/2000/svg">
<g id="healthicons:exercise-bicycle">
<g id="Group">
<path id="Vector" fill-rule="evenodd" clip-rule="evenodd" d="M18.3336 18.7779C18.4514 18.6895 18.5996 18.6515 18.7455 18.6723C18.8913 18.6932 19.0229 18.7711 19.1113 18.889L20.6113 20.889H21.4447C21.592 20.889 21.7333 20.9475 21.8375 21.0517C21.9417 21.1559 22.0002 21.2972 22.0002 21.4445C22.0002 21.5919 21.9417 21.7332 21.8375 21.8374C21.7333 21.9416 21.592 22.0001 21.4447 22.0001H18.6669C18.5195 22.0001 18.3782 21.9416 18.274 21.8374C18.1699 21.7332 18.1113 21.5919 18.1113 21.4445C18.1113 21.2972 18.1699 21.1559 18.274 21.0517C18.3782 20.9475 18.5195 20.889 18.6669 20.889H19.2224L18.2224 19.5556C18.134 19.4378 18.0961 19.2896 18.1169 19.1437C18.1378 18.9979 18.2157 18.8663 18.3336 18.7779Z" fill="white"/>
<path id="Vector_2" fill-rule="evenodd" clip-rule="evenodd" d="M17 19.7778C17.8638 19.7777 18.7128 19.5537 19.4643 19.1279C20.2158 18.702 20.8441 18.0887 21.2881 17.3477C21.732 16.6068 21.9765 15.7634 21.9976 14.8999C22.0187 14.0364 21.8157 13.1821 21.4084 12.4204C21.0012 11.6587 20.4035 11.0154 19.6737 10.5533C18.9439 10.0913 18.1068 9.82617 17.2441 9.78384C16.3814 9.74151 15.5224 9.9234 14.7508 10.3118C13.9793 10.7002 13.3215 11.2818 12.8417 12.0001H16.765C17.495 11.9996 18.2002 12.2642 18.7498 12.7446C19.2994 13.225 19.6558 13.8886 19.7529 14.6121C19.85 15.3355 19.6811 16.0697 19.2777 16.678C18.8743 17.2863 18.2637 17.7275 17.5594 17.9195L14.1139 18.8612C14.9574 19.459 15.9661 19.7794 17 19.7778ZM13.1533 17.9723L17.2661 16.8473C17.7104 16.7259 18.0955 16.4474 18.35 16.0636C18.6045 15.6797 18.711 15.2165 18.6498 14.76C18.5885 14.3036 18.3637 13.8848 18.0171 13.5816C17.6705 13.2783 17.2256 13.1112 16.765 13.1112H12.2844C12.0957 13.6465 11.9995 14.2102 12 14.7778C12 15.9923 12.4333 17.1056 13.1533 17.9723Z" fill="white"/>
<path id="Vector_3" fill-rule="evenodd" clip-rule="evenodd" d="M15.6498 19.5925C15.0999 19.4379 14.5805 19.1902 14.1142 18.8603L17.5598 17.9186C18.264 17.7266 18.8746 17.2854 19.278 16.6771C19.6815 16.0687 19.8503 15.3346 19.7532 14.6112C19.6561 13.8877 19.2997 13.2241 18.7501 12.7437C18.2006 12.2632 17.4953 11.9987 16.7653 11.9991H12.842C13.1223 11.5797 13.4645 11.2051 13.857 10.888C14.5242 10.3492 15.3188 9.99099 16.1644 9.84791C17.01 9.70483 17.8782 9.78166 18.6855 10.071C19.4929 10.3604 20.2122 10.8525 20.7744 11.5002C21.3366 12.1478 21.7228 12.9292 21.8958 13.7692C22.0688 14.6092 22.0228 15.4796 21.7623 16.2967C21.5018 17.1138 21.0355 17.8501 20.4082 18.435C19.7809 19.0198 19.0137 19.4334 18.1804 19.6362C17.3471 19.8389 16.4756 19.8238 15.6498 19.5925ZM20.8876 14.8925C20.8887 14.8547 20.8892 14.8162 20.8892 14.7769C20.8892 14.2564 20.7847 13.7412 20.582 13.2618C20.3792 12.7824 20.0822 12.3486 19.7087 11.9861C19.3351 11.6236 18.8926 11.3397 18.4073 11.1514C17.9221 10.9631 17.4039 10.8741 16.8837 10.8897C17.9359 10.92 18.9367 11.3515 19.6811 12.0958C20.4254 12.8401 20.8571 13.8403 20.8876 14.8925ZM13.1537 17.9714L17.2664 16.8469C17.7112 16.7259 18.0969 16.4476 18.3518 16.0635C18.6067 15.6795 18.7134 15.216 18.6521 14.7592C18.5909 14.3023 18.3658 13.8833 18.0187 13.58C17.6716 13.2767 17.2262 13.1098 16.7653 13.1103H12.2848C12.096 13.6456 11.9998 14.2092 12.0003 14.7769C12.0003 15.9914 12.4337 17.1047 13.1537 17.9714ZM13.1503 14.2214C13.1244 14.4028 13.1113 14.588 13.1109 14.7769C13.1109 15.4747 13.2942 16.1275 13.6148 16.693L16.9731 15.7747C17.1579 15.7244 17.3181 15.6087 17.4241 15.4491C17.53 15.2895 17.5744 15.0969 17.549 14.9071C17.5236 14.7173 17.4301 14.5431 17.286 14.417C17.1419 14.2909 16.9568 14.2213 16.7653 14.2214H13.1503ZM6.22255 18.7769C6.34042 18.8653 6.41835 18.9969 6.43919 19.1428C6.46003 19.2887 6.42207 19.4368 6.33366 19.5547L4.66699 21.7769C4.57859 21.8948 4.44698 21.9727 4.30112 21.9936C4.15526 22.0144 4.00709 21.9764 3.88922 21.888C3.77134 21.7996 3.69342 21.668 3.67258 21.5222C3.65174 21.3763 3.6897 21.2281 3.77811 21.1103L5.44477 18.888C5.53318 18.7702 5.66479 18.6922 5.81065 18.6714C5.95651 18.6506 6.10468 18.6885 6.22255 18.7769Z" fill="white"/>
<path id="Vector_4" d="M2.55566 21.4445C2.55566 21.2971 2.6142 21.1558 2.71838 21.0516C2.82257 20.9474 2.96388 20.8889 3.11122 20.8889H5.889C6.03634 20.8889 6.17765 20.9474 6.28183 21.0516C6.38602 21.1558 6.44455 21.2971 6.44455 21.4445C6.44455 21.5918 6.38602 21.7331 6.28183 21.8373C6.17765 21.9415 6.03634 22 5.889 22H3.11122C2.96388 22 2.82257 21.9415 2.71838 21.8373C2.6142 21.7331 2.55566 21.5918 2.55566 21.4445Z" fill="white"/>
<path id="Vector_5" fill-rule="evenodd" clip-rule="evenodd" d="M3.11122 20.8889C2.96388 20.8889 2.82257 20.9474 2.71838 21.0516C2.6142 21.1558 2.55566 21.2971 2.55566 21.4444C2.55566 21.5918 2.6142 21.7331 2.71838 21.8373C2.82257 21.9414 2.96388 22 3.11122 22H5.889C6.03634 22 6.17765 21.9414 6.28183 21.8373C6.38602 21.7331 6.44455 21.5918 6.44455 21.4444C6.44455 21.2971 6.38602 21.1558 6.28183 21.0516C6.17765 20.9474 6.03634 20.8889 5.889 20.8889H3.11122ZM3.11122 16.4555C3.11122 15.5685 3.46358 14.7179 4.09078 14.0907C4.71799 13.4634 5.56866 13.1111 6.45566 13.1111H16.7668C17.2253 13.1107 17.6684 13.2762 18.0145 13.5769C18.3605 13.8777 18.5862 14.2934 18.6498 14.7474C18.7134 15.2015 18.6107 15.6632 18.3606 16.0475C18.1105 16.4318 17.7299 16.7126 17.289 16.8383L7.374 19.6711C5.23789 20.2811 3.11122 18.6766 3.11122 16.4555ZM7.40677 17C7.28447 17.2118 7.0957 17.3773 6.86973 17.4709C6.64376 17.5645 6.39322 17.5809 6.15697 17.5176C5.92072 17.4543 5.71196 17.3148 5.56306 17.1208C5.41417 16.9268 5.33345 16.689 5.33344 16.4444C5.33345 16.1998 5.41417 15.9621 5.56306 15.768C5.71196 15.574 5.92072 15.4345 6.15697 15.3712C6.39322 15.3079 6.64376 15.3243 6.86973 15.4179C7.0957 15.5115 7.28447 15.6771 7.40677 15.8889H9.22233C9.36967 15.8889 9.51098 15.9474 9.61517 16.0516C9.71935 16.1558 9.77789 16.2971 9.77789 16.4444C9.77789 16.5918 9.71935 16.7331 9.61517 16.8373C9.51098 16.9414 9.36967 17 9.22233 17H7.40677Z" fill="white"/>
<path id="Vector_6" fill-rule="evenodd" clip-rule="evenodd" d="M4.22244 16.45V16.4555C4.22244 17.9389 5.64244 19.01 7.06911 18.6027L8.78911 18.1111H7.91411C7.5937 18.3935 7.1987 18.5776 6.77637 18.6414C6.35404 18.7051 5.92229 18.6458 5.5328 18.4706C5.1433 18.2953 4.81256 18.0115 4.58017 17.6532C4.34777 17.2948 4.22358 16.8771 4.22244 16.45ZM6.45022 14.2222H16.7669C16.9574 14.2219 17.1415 14.2906 17.2853 14.4155C17.4292 14.5404 17.5229 14.7131 17.5493 14.9017C17.5757 15.0904 17.533 15.2822 17.429 15.4418C17.325 15.6014 17.1668 15.7179 16.9836 15.77L10.3602 17.6622C10.6046 17.4339 10.7746 17.1373 10.8482 16.811C10.9217 16.4848 10.8955 16.144 10.7727 15.8329C10.65 15.5217 10.4365 15.2547 10.1601 15.0666C9.88358 14.8784 9.55688 14.7778 9.22244 14.7778H7.91411C7.5097 14.4211 6.98942 14.2236 6.45022 14.2222ZM7.40688 17C7.28458 17.2118 7.09581 17.3773 6.86984 17.4709C6.64387 17.5645 6.39333 17.5809 6.15708 17.5176C5.92083 17.4543 5.71207 17.3148 5.56317 17.1208C5.41427 16.9267 5.33356 16.689 5.33355 16.4444C5.33356 16.1998 5.41427 15.9621 5.56317 15.768C5.71207 15.574 5.92083 15.4345 6.15708 15.3712C6.39333 15.3079 6.64387 15.3243 6.86984 15.4179C7.09581 15.5115 7.28458 15.6771 7.40688 15.8889H9.22244C9.36978 15.8889 9.51109 15.9474 9.61528 16.0516C9.71946 16.1558 9.77799 16.2971 9.77799 16.4444C9.77799 16.5918 9.71946 16.7331 9.61528 16.8373C9.51109 16.9414 9.36978 17 9.22244 17H7.40688ZM6.45577 13.1111C5.56877 13.1111 4.7181 13.4634 4.09089 14.0906C3.46369 14.7179 3.11133 15.5685 3.11133 16.4555C3.11133 18.6772 5.23799 20.2811 7.37411 19.6711L17.2886 16.8378C17.729 16.7117 18.109 16.4308 18.3587 16.0467C18.6084 15.6627 18.7109 15.2014 18.6474 14.7477C18.5839 14.294 18.3587 13.8786 18.0131 13.5778C17.6675 13.2771 17.225 13.1113 16.7669 13.1111H6.45577Z" fill="white"/>
<path id="Vector_7" fill-rule="evenodd" clip-rule="evenodd" d="M4.61228 8.692C4.75285 8.64817 4.90506 8.66194 5.03548 8.73028C5.1659 8.79861 5.26386 8.91592 5.30784 9.05644L6.69673 13.5009C6.73517 13.6398 6.71808 13.7883 6.64908 13.9149C6.58007 14.0415 6.46455 14.1363 6.32693 14.1793C6.1893 14.2223 6.04036 14.2101 5.91156 14.1453C5.78277 14.0805 5.68421 13.9681 5.63673 13.832L4.24784 9.38755C4.20401 9.24699 4.21778 9.09477 4.28611 8.96435C4.35445 8.83393 4.47176 8.73597 4.61228 8.692ZM18.3017 2.03311C18.3703 2.05815 18.4332 2.09645 18.487 2.14583C18.5407 2.19521 18.5842 2.2547 18.615 2.32089C18.6457 2.38708 18.6631 2.45869 18.6662 2.53161C18.6693 2.60453 18.6579 2.67735 18.6328 2.74589L18.0773 4.267C18.0503 4.34093 18.0079 4.40828 17.9529 4.4646C17.898 4.52092 17.8317 4.56491 17.7584 4.59366L15.7651 5.37422L17.5212 10.1409C17.5482 10.2097 17.5612 10.2832 17.5595 10.3571C17.5577 10.4311 17.5413 10.5039 17.511 10.5713C17.4808 10.6388 17.4374 10.6996 17.3833 10.75C17.3293 10.8005 17.2657 10.8397 17.1964 10.8653C17.127 10.8909 17.0532 10.9023 16.9793 10.899C16.9055 10.8958 16.833 10.8777 16.7662 10.8461C16.6994 10.8144 16.6396 10.7697 16.5902 10.7147C16.5409 10.6596 16.5031 10.5952 16.4789 10.5253L14.5345 5.24755C14.4842 5.11116 14.4893 4.96049 14.5489 4.82785C14.6084 4.69522 14.7175 4.5912 14.8528 4.53811L17.1195 3.65033L17.5895 2.36478C17.6401 2.22645 17.7435 2.11387 17.8771 2.05178C18.0106 1.98969 18.1634 1.98262 18.3017 2.03311Z" fill="white"/>
<path id="Vector_8" d="M2 8.19337C1.99991 7.97208 2.0462 7.75323 2.1359 7.55093C2.22559 7.34864 2.3567 7.16739 2.52075 7.01889C2.6848 6.87038 2.87817 6.75791 3.08836 6.68873C3.29856 6.61955 3.52092 6.5952 3.74111 6.61726L6.24222 6.86726C6.61454 6.90445 6.95831 7.08332 7.20244 7.36688C7.44656 7.65043 7.57236 8.01697 7.55381 8.39068C7.53525 8.76439 7.37377 9.11666 7.10276 9.37465C6.83175 9.63263 6.47195 9.77657 6.09778 9.7767H3.58333C3.16341 9.7767 2.76068 9.60989 2.46375 9.31295C2.16682 9.01602 2 8.61329 2 8.19337Z" fill="white"/>
<path id="Vector_9" fill-rule="evenodd" clip-rule="evenodd" d="M6.13216 7.97491L3.6305 7.72491C3.56692 7.71872 3.50275 7.7255 3.44186 7.74483C3.38098 7.76416 3.32465 7.79564 3.27629 7.83737C3.22792 7.87909 3.18852 7.9302 3.16048 7.98759C3.13244 8.04499 3.11633 8.10747 3.11313 8.17127C3.10993 8.23507 3.11971 8.29885 3.14188 8.35876C3.16404 8.41867 3.19813 8.47346 3.24208 8.51982C3.28603 8.56617 3.33893 8.60313 3.39758 8.62845C3.45622 8.65377 3.5194 8.66693 3.58327 8.66713H6.09716C6.18552 8.66611 6.27016 8.63144 6.33384 8.57019C6.39753 8.50894 6.43546 8.42571 6.43993 8.33746C6.44439 8.24922 6.41504 8.16259 6.35786 8.09522C6.30068 8.02786 6.21996 7.98483 6.13216 7.97491ZM3.74105 6.61935C3.52762 6.59812 3.31209 6.62047 3.10756 6.68505C2.90302 6.74964 2.71374 6.85511 2.5512 6.99506C2.38866 7.13501 2.25625 7.30653 2.16201 7.49921C2.06776 7.69188 2.01365 7.9017 2.00295 8.11592C1.99225 8.33014 2.02519 8.54431 2.09976 8.74541C2.17434 8.94652 2.289 9.13038 2.43678 9.28583C2.58457 9.44129 2.7624 9.56509 2.95948 9.64973C3.15656 9.73438 3.36878 9.7781 3.58327 9.77824H6.09716C6.47045 9.77688 6.829 9.63243 7.09897 9.37463C7.36894 9.11684 7.52978 8.76534 7.54837 8.39252C7.56695 8.0197 7.44186 7.65394 7.19886 7.37058C6.95587 7.08722 6.61346 6.90783 6.24216 6.86935L3.74105 6.61935Z" fill="white"/>
</g>
</g>
</svg>
