<svg width="24" height="24" viewBox="0 0 24 24" fill="none" xmlns="http://www.w3.org/2000/svg">
<g id="fluent:food-pizza-24-regular">
<path id="Vector" d="M9.00009 10.9939C9.26531 10.9939 9.51966 10.8885 9.7072 10.701C9.89474 10.5134 10.0001 10.2591 10.0001 9.99387C10.0001 9.72866 9.89474 9.4743 9.7072 9.28677C9.51966 9.09923 9.26531 8.99387 9.00009 8.99387C8.73488 8.99387 8.48052 9.09923 8.29299 9.28677C8.10545 9.4743 8.00009 9.72866 8.00009 9.99387C8.00009 10.2591 8.10545 10.5134 8.29299 10.701C8.48052 10.8885 8.73488 10.9939 9.00009 10.9939ZM14.0001 12.9919C14.0001 13.2571 13.8947 13.5114 13.7072 13.699C13.5197 13.8865 13.2653 13.9919 13.0001 13.9919C12.7349 13.9919 12.4805 13.8865 12.293 13.699C12.1055 13.5114 12.0001 13.2571 12.0001 12.9919C12.0001 12.7267 12.1055 12.4723 12.293 12.2848C12.4805 12.0972 12.7349 11.9919 13.0001 11.9919C13.2653 11.9919 13.5197 12.0972 13.7072 12.2848C13.8947 12.4723 14.0001 12.7267 14.0001 12.9919ZM9.00009 16.9899C9.26531 16.9899 9.51966 16.8845 9.7072 16.697C9.89474 16.5094 10.0001 16.2551 10.0001 15.9899C10.0001 15.7247 9.89474 15.4703 9.7072 15.2828C9.51966 15.0952 9.26531 14.9899 9.00009 14.9899C8.73488 14.9899 8.48052 15.0952 8.29299 15.2828C8.10545 15.4703 8.00009 15.7247 8.00009 15.9899C8.00009 16.2551 8.10545 16.5094 8.29299 16.697C8.48052 16.8845 8.73488 16.9899 9.00009 16.9899ZM5.00009 4.66387C5.00009 3.16687 6.23009 1.85887 7.82009 2.01587C12.9975 2.52884 17.7942 4.96536 21.2621 8.84387C22.3321 10.0369 21.9991 11.8079 20.7831 12.6889C19.2011 13.8369 16.8431 15.5459 15.5001 16.5219C15.4981 16.9589 15.4981 17.2429 15.4991 17.6139V18.2419C15.4992 18.4977 15.4433 18.7504 15.3352 18.9823C15.2271 19.2141 15.0695 19.4194 14.8735 19.5838C14.6775 19.7482 14.4478 19.8675 14.2007 19.9336C13.9536 19.9996 13.695 20.0106 13.4431 19.9659C13.2391 20.7919 12.5111 21.4929 11.4991 21.4929C10.7991 21.4929 10.2371 21.1579 9.89009 20.6779L8.56509 21.6349C7.07709 22.7089 4.99509 21.6459 4.99609 19.8089L5.00009 4.66387ZM7.67309 3.50887C7.06409 3.44887 6.49909 3.95187 6.49909 4.66387V5.18387C9.00935 5.28946 11.4677 5.9328 13.7079 7.0704C15.948 8.208 17.9178 9.81334 19.4841 11.7779L19.9031 11.4739C20.4811 11.0539 20.5551 10.3009 20.1451 9.84387C16.9271 6.24605 12.4766 3.98619 7.67309 3.51087M6.49609 19.8109C6.49598 19.9492 6.5341 20.0848 6.60623 20.2028C6.67837 20.3207 6.78172 20.4165 6.90486 20.4794C7.028 20.5423 7.16614 20.5699 7.30401 20.5593C7.44188 20.5486 7.57411 20.5 7.68609 20.4189L9.81409 18.8859C9.92608 18.8053 10.0581 18.7572 10.1957 18.7468C10.3332 18.7364 10.471 18.7642 10.5938 18.827C10.7166 18.8899 10.8197 18.9854 10.8917 19.103C10.9638 19.2207 11.0019 19.3559 11.0021 19.4939C11.0021 19.7639 11.2111 19.9939 11.4991 19.9939C11.565 19.9945 11.6304 19.9821 11.6915 19.9572C11.7526 19.9323 11.8081 19.8956 11.8548 19.849C11.9016 19.8025 11.9385 19.7471 11.9637 19.6862C11.9888 19.6252 12.0015 19.5598 12.0011 19.4939V18.2429C12.0011 18.044 12.0801 17.8532 12.2208 17.7125C12.3614 17.5719 12.5522 17.4929 12.7511 17.4929C12.95 17.4929 13.1408 17.5719 13.2814 17.7125C13.4221 17.8532 13.5011 18.044 13.5011 18.2429C13.5011 18.3829 13.6121 18.4929 13.7491 18.4929C13.8154 18.4929 13.879 18.4665 13.9259 18.4197C13.9728 18.3728 13.9991 18.3092 13.9991 18.2429V17.6209C13.9981 17.1509 13.9971 16.8129 14.0041 16.1319C14.005 16.0148 14.0334 15.8995 14.0868 15.7953C14.1403 15.6911 14.2175 15.6009 14.3121 15.5319C15.2141 14.8759 16.8081 13.7199 18.2681 12.6619C16.8423 10.8881 15.0554 9.43809 13.0261 8.40809C10.9967 7.37808 8.77148 6.79169 6.49809 6.68787L6.49609 19.8109Z" fill="#41c752"/>
</g>
</svg>
