<svg width="24" height="24" viewBox="0 0 24 24" fill="none" xmlns="http://www.w3.org/2000/svg">
<g id="hugeicons:bacteria">
<g id="Group">
<path id="Vector" d="M15.7636 9.39565C17.2062 9.39565 18.3757 8.22613 18.3757 6.78346C18.3757 5.34078 17.2062 4.17126 15.7636 4.17126C14.3209 4.17126 13.1514 5.34078 13.1514 6.78346C13.1514 8.22613 14.3209 9.39565 15.7636 9.39565Z" stroke="white" stroke-width="1.5" stroke-linecap="round" stroke-linejoin="round"/>
<path id="Vector_2" d="M4.00879 12.6609L4.28307 12.9678C4.78983 13.5373 5.64663 13.3818 5.96793 12.6609C6.28923 11.9399 7.14603 11.7845 7.6528 12.3539L7.92708 12.6609M16.8621 19.8444L17.0071 19.3938C17.2761 18.5566 16.644 17.7899 15.7636 17.8853C14.8833 17.9806 14.2512 17.2139 14.5202 16.3767L14.6639 15.9261M20.9998 13.3139H20.988M7.93883 18.5383H7.92708M6.63273 6.78345H6.62098" stroke="white" stroke-width="1.5" stroke-linecap="round" stroke-linejoin="round"/>
</g>
</g>
</svg>
