<svg width="24" height="24" viewBox="0 0 24 24" fill="none" xmlns="http://www.w3.org/2000/svg">
<g id="mdi:meat-outline">
<path id="Vector" d="M15.7099 4C16.5399 4 17.3299 4.22 17.9999 4.66C19.1399 5.4 19.8399 6.53 19.9999 7.84C20.0571 8.47455 19.9749 9.11392 19.759 9.71334C19.543 10.3127 19.1986 10.8577 18.7499 11.31C18.0499 12 17.1599 12.44 16.1799 12.54C14.2699 12.74 12.5899 13.5 11.3399 14.77C11.1887 14.9172 10.986 14.9996 10.7749 14.9996C10.5639 14.9996 10.3612 14.9172 10.2099 14.77L9.21993 13.78C9.14982 13.7108 9.09425 13.6282 9.05647 13.5372C9.01869 13.4462 8.99947 13.3485 8.99993 13.25C8.99993 13 9.10993 12.78 9.31993 12.57C10.5299 11.35 11.2699 9.73 11.4499 7.87C11.5799 6.54 12.2899 5.4 13.4499 4.65C14.1099 4.22 14.8899 4 15.7099 4ZM15.7099 2C14.5399 2 13.3699 2.32 12.3599 2.97C10.5999 4.1 9.62993 5.86 9.45993 7.68C9.32993 9 8.82993 10.23 7.90993 11.15L7.87993 11.18C6.71993 12.34 6.71993 14.11 7.80993 15.19L8.79993 16.18C9.34994 16.73 10.0599 17 10.7699 17C11.4799 17 12.1999 16.73 12.7499 16.18C13.7199 15.21 14.9999 14.68 16.3899 14.53C17.7599 14.38 19.0999 13.78 20.1599 12.73C20.825 12.0659 21.3322 11.2608 21.6441 10.3742C21.956 9.48759 22.0646 8.54223 21.9619 7.60801C21.8591 6.67379 21.5477 5.77462 21.0506 4.977C20.5535 4.17939 19.8834 3.50373 19.0899 3C18.0799 2.33 16.8999 2 15.7099 2ZM6.25993 19.86C6.52993 20.42 6.43993 21.1 5.96993 21.56C5.76638 21.7666 5.50694 21.9093 5.22344 21.9707C4.93995 22.032 4.64472 22.0092 4.37397 21.9052C4.10323 21.8011 3.86874 21.6203 3.69927 21.3849C3.5298 21.1495 3.43272 20.8698 3.41993 20.58C3.13017 20.5672 2.85043 20.4701 2.61504 20.3007C2.37964 20.1312 2.19883 19.8967 2.09478 19.626C1.99073 19.3552 1.96796 19.06 2.02927 18.7765C2.09059 18.493 2.23331 18.2336 2.43993 18.03C2.89993 17.57 3.58993 17.47 4.13993 17.74L6.61993 15.31C6.75993 15.5 6.91993 15.72 7.09993 15.9L8.08993 16.89C8.29993 17.09 8.49994 17.26 8.75993 17.41L6.25993 19.86Z" fill="white"/>
</g>
</svg>
