<svg width="24" height="25" viewBox="0 0 24 25" fill="none" xmlns="http://www.w3.org/2000/svg">
<g id="healthicons:kidneys">
<path id="Vector" d="M5.02032 18.7573C-1.64158 15.9971 0.987245 6.67975 5.61207 5.14061C7.5308 4.50206 9.64699 6.62072 9.63411 7.93576C9.62798 8.50443 9.32934 9.05924 9.01783 9.63695C8.60944 10.396 8.17896 11.1942 8.3617 12.1176C8.68364 13.7441 9.0442 16.4887 8.11519 17.7911C7.18618 19.0941 6.25226 19.2676 5.02032 18.7573ZM18.3877 5.14061C23.0125 6.67975 25.6419 15.9971 18.9794 18.7573C17.7475 19.2682 16.8136 19.0941 15.8846 17.7911C14.9555 16.4887 15.3161 13.7441 15.638 12.1176C15.8208 11.1942 15.3903 10.3954 14.9819 9.63695C14.6704 9.05924 14.3718 8.50443 14.3662 7.93576C14.3528 6.62072 16.4696 4.50206 18.3877 5.14061Z" fill="white"/>
</g>
</svg>
