<svg width="24" height="24" viewBox="0 0 24 24" fill="none" xmlns="http://www.w3.org/2000/svg">
<g id="vaadin:hand" clip-path="url(#clip0_48_3485)">
<path id="Vector" d="M19.2504 3.60078C18.6504 3.00078 17.7504 2.85078 17.0004 3.15078C17.0004 2.70078 16.8504 2.25078 16.4004 1.80078C16.1004 1.50078 15.5004 1.20078 14.7504 1.20078C14.3004 1.20078 14.0004 1.35078 13.7004 1.35078C13.7004 1.05078 13.5504 0.900781 13.4004 0.600781C12.6504 -0.299219 11.1504 -0.299219 10.4004 0.600781C10.1004 0.900781 9.80043 1.20078 9.80043 1.50078C9.50043 1.50078 9.20043 1.35078 8.90043 1.35078C8.15043 1.35078 7.70043 1.65078 7.25043 2.10078C6.50043 2.85078 6.50043 4.05078 6.50043 4.05078V9.75078C6.05043 9.30078 5.30043 8.55078 4.25043 8.55078C3.95043 8.55078 3.50043 8.70078 3.20043 8.85078C2.60043 9.15078 2.30043 9.60078 2.15043 10.2008C1.70043 11.7008 3.05043 13.8008 3.05043 13.9508C3.20043 14.1008 4.85043 18.0008 6.35043 19.6508C7.85043 21.4508 9.50043 22.5008 13.7004 22.5008C18.0504 22.5008 20.0004 20.1008 20.0004 14.8508V6.60078C20.0004 6.45078 20.1504 4.65078 19.2504 3.60078ZM11.0004 3.00078C11.0004 2.55078 10.8504 1.50078 11.7504 1.50078C12.5004 1.50078 12.5004 2.25078 12.5004 3.00078V9.00078C12.5004 9.45078 12.8004 9.75078 13.2504 9.75078C13.7004 9.75078 14.0004 9.45078 14.0004 9.00078V3.30078C14.0004 3.30078 14.0004 2.70078 14.7504 2.70078C15.6504 2.70078 15.5004 4.05078 15.5004 4.05078V9.00078C15.5004 9.45078 15.8004 9.75078 16.2504 9.75078C16.7004 9.75078 17.0004 9.45078 17.0004 9.00078V5.40078C17.0004 5.25078 17.0004 4.50078 17.7504 4.50078C18.5004 4.50078 18.5004 6.00078 18.5004 6.00078V14.8508C18.5004 19.9508 16.5504 21.0008 13.7004 21.0008C10.1004 21.0008 8.75043 20.2508 7.55043 18.6008C6.20043 17.1008 4.40043 13.2008 4.40043 13.0508C3.95043 12.6008 3.35043 11.2508 3.50043 10.6508C3.50043 10.5008 3.65043 10.3508 3.80043 10.2008C3.95043 10.2008 4.10043 10.0508 4.10043 10.0508C4.70043 10.0508 5.30043 10.8008 5.45043 11.1008L6.35043 12.4508C6.50043 12.7508 6.95043 12.9008 7.25043 12.7508C7.85043 12.7508 8.00043 12.4508 8.00043 12.1508V4.35078C8.00043 3.75078 8.00043 2.85078 8.75043 2.85078C9.35043 2.85078 9.50043 3.30078 9.50043 4.05078V9.00078C9.50043 9.45078 9.80043 9.75078 10.2504 9.75078C10.7004 9.75078 11.0004 9.45078 11.0004 9.00078V3.00078Z" fill="#41c752"/>
<ellipse id="Ellipse 137" cx="13" cy="13" rx="1" ry="1" transform="rotate(180 13 13)" fill="#41c752"/>
<ellipse id="Ellipse 138" cx="15" cy="16" rx="1" ry="1" transform="rotate(180 15 16)" fill="#41c752"/>
</g>
<defs>
<clipPath id="clip0_48_3485">
<rect width="24" height="24" fill="#41c752"/>
</clipPath>
</defs>
</svg>
