<svg width="14" height="14" viewBox="0 0 14 14" fill="none" xmlns="http://www.w3.org/2000/svg">
<path d="M12.713 8.90657L13.193 8.42657C13.2548 8.3649 13.3038 8.29164 13.3372 8.21099C13.3707 8.13034 13.3879 8.04388 13.3879 7.95657C13.3879 7.86926 13.3707 7.7828 13.3372 7.70216C13.3038 7.62151 13.2548 7.54825 13.193 7.48657L13.1796 7.47324C13.1179 7.41144 13.0447 7.3624 12.964 7.32895C12.8834 7.2955 12.7969 7.27828 12.7096 7.27828C12.6223 7.27828 12.5359 7.2955 12.4552 7.32895C12.3746 7.3624 12.3013 7.41144 12.2396 7.47324L10.333 9.37991L4.61962 3.66657L6.52629 1.75991C6.58809 1.69823 6.63713 1.62497 6.67058 1.54432C6.70403 1.46367 6.72125 1.37722 6.72125 1.28991C6.72125 1.20259 6.70403 1.11614 6.67058 1.03549C6.63713 0.954841 6.58809 0.881581 6.52629 0.819906L6.51296 0.806572C6.45128 0.74477 6.37802 0.695738 6.29737 0.662284C6.21673 0.62883 6.13027 0.61161 6.04296 0.61161C5.95565 0.61161 5.86919 0.62883 5.78854 0.662284C5.70789 0.695738 5.63463 0.74477 5.57296 0.806572L5.09296 1.28657L4.61296 0.806572C4.35296 0.546572 3.92629 0.546572 3.66629 0.806572L2.71296 1.75991L2.23296 1.27991C2.10579 1.15491 1.93461 1.08487 1.75629 1.08487C1.57798 1.08487 1.4068 1.15491 1.27962 1.27991C1.15463 1.40708 1.08459 1.57826 1.08459 1.75657C1.08459 1.93489 1.15463 2.10607 1.27962 2.23324L1.75962 2.71324L0.806291 3.66657C0.744488 3.72825 0.695457 3.80151 0.662002 3.88216C0.628548 3.96281 0.611328 4.04926 0.611328 4.13657C0.611328 4.22388 0.628548 4.31034 0.662002 4.39099C0.695457 4.47164 0.744488 4.5449 0.806291 4.60657L1.28629 5.08657L0.806291 5.57324C0.744488 5.63491 0.695457 5.70817 0.662002 5.78882C0.628548 5.86947 0.611328 5.95593 0.611328 6.04324C0.611328 6.13055 0.628548 6.21701 0.662002 6.29766C0.695457 6.3783 0.744488 6.45156 0.806291 6.51324L0.819624 6.52657C1.07962 6.78657 1.49962 6.78657 1.75962 6.52657L3.66629 4.61991L9.37962 10.3332L7.47296 12.2399C7.41116 12.3016 7.36212 12.3748 7.32867 12.4555C7.29522 12.5361 7.278 12.6226 7.278 12.7099C7.278 12.7972 7.29522 12.8837 7.32867 12.9643C7.36212 13.045 7.41116 13.1182 7.47296 13.1799L7.48629 13.1932C7.74629 13.4532 8.16629 13.4532 8.42629 13.1932L8.90629 12.7132L9.38629 13.1932C9.64629 13.4532 10.0663 13.4532 10.3263 13.1932L11.2796 12.2399L11.7596 12.7199C12.0196 12.9799 12.453 12.9799 12.713 12.7199C12.973 12.4599 12.973 12.0266 12.713 11.7666L12.233 11.2866L13.193 10.3332C13.2548 10.2716 13.3038 10.1983 13.3372 10.1177C13.3707 10.037 13.3879 9.95055 13.3879 9.86324C13.3879 9.77593 13.3707 9.68947 13.3372 9.60882C13.3038 9.52817 13.2548 9.45492 13.193 9.39324L12.713 8.90657Z" fill="white"/>
</svg>
