<svg width="24" height="24" viewBox="0 0 24 24" fill="none" xmlns="http://www.w3.org/2000/svg">
<g id="ri:gemini-fill">
<path id="Vector" d="M18 9.018C13.1722 9.309 9.3075 13.1722 9.01725 18H8.982C8.691 13.1722 4.827 9.309 0 9.018V8.98275C4.82775 8.691 8.691 4.82775 8.982 0H9.01725C9.30825 4.82775 13.1722 8.691 18 8.98275V9.018Z" fill="#41c752"/>
<path id="Vector_2" d="M22 18.01C19.3179 18.1717 17.1708 20.3179 17.0096 23H16.99C16.8283 20.3179 14.6817 18.1717 12 18.01V17.9904C14.6821 17.8283 16.8283 15.6821 16.99 13H17.0096C17.1712 15.6821 19.3179 17.8283 22 17.9904V18.01Z" fill="#41c752"/>
</g>
</svg>
