<svg width="24" height="24" viewBox="0 0 24 24" fill="none" xmlns="http://www.w3.org/2000/svg">
<g id="jam:triangle-danger">
<path id="Vector" d="M14.8 4.60895L21.501 15.77C22.464 17.373 21.991 19.482 20.444 20.48C19.9251 20.8168 19.3197 20.9961 18.701 20.996H5.298C3.477 20.996 2 19.466 2 17.577C2 16.938 2.173 16.313 2.498 15.77L9.2 4.60895C10.162 3.00595 12.196 2.51495 13.743 3.51295C14.171 3.78895 14.533 4.16395 14.8 4.60895ZM12.58 5.44795C12.4576 5.36921 12.3205 5.3161 12.1769 5.29183C12.0334 5.26756 11.8865 5.27264 11.745 5.30675C11.6035 5.34087 11.4703 5.40331 11.3536 5.49031C11.2369 5.57732 11.1391 5.68707 11.066 5.81295L4.365 16.976C4.25615 17.1579 4.19877 17.366 4.199 17.578C4.199 18.208 4.691 18.718 5.299 18.718H18.7C18.906 18.718 19.107 18.658 19.281 18.546C19.5307 18.3801 19.7067 18.1242 19.7725 17.8318C19.8383 17.5393 19.7886 17.2327 19.634 16.976L12.933 5.81295C12.8457 5.66553 12.7252 5.54055 12.581 5.44795H12.58ZM12 16.996C11.7348 16.996 11.4804 16.8906 11.2929 16.7031C11.1054 16.5155 11 16.2612 11 15.996C11 15.7307 11.1054 15.4764 11.2929 15.2888C11.4804 15.1013 11.7348 14.996 12 14.996C12.2652 14.996 12.5196 15.1013 12.7071 15.2888C12.8946 15.4764 13 15.7307 13 15.996C13 16.2612 12.8946 16.5155 12.7071 16.7031C12.5196 16.8906 12.2652 16.996 12 16.996ZM12 7.99595C12.2652 7.99595 12.5196 8.10131 12.7071 8.28885C12.8946 8.47638 13 8.73074 13 8.99595V12.996C13 13.2612 12.8946 13.5155 12.7071 13.7031C12.5196 13.8906 12.2652 13.996 12 13.996C11.7348 13.996 11.4804 13.8906 11.2929 13.7031C11.1054 13.5155 11 13.2612 11 12.996V8.99595C11 8.73074 11.1054 8.47638 11.2929 8.28885C11.4804 8.10131 11.7348 7.99595 12 7.99595Z" fill="white"/>
</g>
</svg>
