<svg width="24" height="24" viewBox="0 0 24 24" fill="none" xmlns="http://www.w3.org/2000/svg">
<g id="circum:bacon">
<path id="Vector" d="M22.5993 6.50136L18.3001 2.27887C18.1247 2.10888 17.8908 2.00962 17.6445 2.00066C17.3982 1.99171 17.1575 2.0737 16.9697 2.23047C16.6376 2.48135 16.2409 2.63637 15.8241 2.67813C14.788 2.81842 13.8296 3.29547 13.1017 4.0332C12.3513 4.75498 11.8623 5.69845 11.7097 6.71914C11.6698 7.22749 11.4367 7.70252 11.0569 8.05001C10.6982 8.41661 10.2173 8.64422 9.70184 8.69125C8.66636 8.85232 7.70939 9.33123 6.96807 10.0593C6.22675 10.7874 5.73915 11.7273 5.57516 12.7444C5.53519 13.2527 5.30215 13.7277 4.92228 14.0752C4.56256 14.4472 4.07561 14.6756 3.55493 14.7165C2.84089 14.8238 2.15961 15.084 1.55935 15.4787C1.4017 15.591 1.27056 15.7354 1.17487 15.902C1.07917 16.0686 1.02116 16.2535 1.00479 16.4441C0.988427 16.6347 1.01409 16.8266 1.08002 17.0065C1.14596 17.1865 1.25062 17.3504 1.38689 17.4871L5.69834 21.7217C5.87776 21.8989 6.12141 21.999 6.37586 22C6.61429 22.0014 6.84556 21.92 7.02874 21.7701C7.35702 21.5108 7.75511 21.351 8.17435 21.3103C9.21046 21.1701 10.1689 20.693 10.8967 19.9553C11.6481 19.2325 12.1408 18.2902 12.301 17.2693C12.3401 16.7633 12.5682 16.2893 12.9416 15.9385C13.3053 15.5719 13.7901 15.3446 14.3089 15.2972C15.3422 15.1338 16.2964 14.6539 17.0353 13.926C17.7742 13.1981 18.26 12.2594 18.4233 11.2441C18.4609 10.7351 18.6943 10.2593 19.0762 9.91324C19.4359 9.54126 19.9229 9.31289 20.4435 9.272C21.1523 9.16663 21.8291 8.91063 22.4268 8.52187C22.5883 8.41097 22.7229 8.26653 22.8211 8.0988C22.9194 7.93107 22.9788 7.74416 22.9953 7.55132C23.0118 7.35849 22.9848 7.16447 22.9164 6.98301C22.8479 6.80155 22.7397 6.63712 22.5993 6.50136ZM2.26766 16.4769C2.72997 16.183 3.25067 15.9892 3.79514 15.9082C4.56157 15.8257 5.27319 15.4783 5.80305 14.9282C6.35692 14.4147 6.70632 13.724 6.78853 12.9803C6.89098 12.1956 7.26502 11.4694 7.84791 10.9235C8.40674 10.3549 9.14462 9.9883 9.94205 9.88299C10.6993 9.79031 11.4024 9.44926 11.9376 8.91508C12.4856 8.39228 12.8335 7.70017 12.9231 6.95507C13.0303 6.17185 13.4036 5.44713 13.9825 4.89827C14.534 4.32863 15.2699 3.96507 16.0643 3.86986C16.6136 3.79955 17.1375 3.60036 17.5918 3.28912L19.1932 4.86197C18.8272 5.08814 18.4151 5.23269 17.986 5.28543C17.0716 5.42122 16.2255 5.84098 15.5716 6.48323C14.9177 7.12549 14.4903 7.95651 14.3521 8.85459C14.2906 9.48361 13.9971 10.0688 13.5267 10.5C13.0863 10.9602 12.4912 11.2481 11.8514 11.3107C10.935 11.4401 10.087 11.8608 9.43699 12.5084C8.7753 13.1436 8.35014 13.9788 8.22979 14.8798C8.14691 15.5027 7.8568 16.0812 7.40456 16.5254C6.95232 16.9695 6.36331 17.2545 5.72914 17.3359C5.0192 17.4258 4.34695 17.7016 3.78283 18.1344L2.26766 16.6402V16.4769ZM21.7308 7.52371C21.273 7.81764 20.7563 8.01156 20.2156 8.09236C19.4498 8.17696 18.7389 8.52395 18.2077 9.07237C17.6539 9.58592 17.3045 10.2765 17.2223 11.0203C17.1198 11.8049 16.7458 12.5311 16.1629 13.0771C15.6072 13.6432 14.8741 14.0097 14.081 14.1176C13.323 14.2126 12.6183 14.5514 12.0769 15.081C11.5354 15.6107 11.1876 16.3014 11.0877 17.0455C10.9823 17.8293 10.6088 18.5546 10.0283 19.1023C9.47999 19.6695 8.7488 20.0328 7.95878 20.1307C7.40524 20.1991 6.87687 20.3984 6.41897 20.7115L4.81758 19.1507C5.17993 18.9262 5.58763 18.7817 6.01246 18.7272C6.93057 18.603 7.78023 18.1815 8.42688 17.5295C9.08624 16.8911 9.51458 16.0582 9.64641 15.1581C9.71308 14.5331 10.0008 13.9508 10.4594 13.5126C10.9085 13.0642 11.4991 12.7785 12.1347 12.702C13.0546 12.5833 13.906 12.1609 14.5492 11.5042C15.2154 10.8708 15.645 10.0354 15.7687 9.13286C15.8515 8.51 16.1417 7.93149 16.5939 7.48731C17.0461 7.04313 17.6352 6.75819 18.2693 6.6768C18.9797 6.57493 19.653 6.30046 20.228 5.87827L21.7431 7.36643L21.7308 7.52371Z" fill="white"/>
</g>
</svg>
