<svg width="24" height="24" viewBox="0 0 24 24" fill="none" xmlns="http://www.w3.org/2000/svg">
<g id="ep:fries">
<path id="Vector" d="M14.2502 5.25006V3.75006C14.2502 3.55114 14.1712 3.36038 14.0305 3.21973C13.8899 3.07907 13.6991 3.00006 13.5002 3.00006C13.3013 3.00006 13.1105 3.07907 12.9699 3.21973C12.8292 3.36038 12.7502 3.55114 12.7502 3.75006V11.6251H13.3802C13.6921 11.6248 13.9963 11.5273 14.2502 11.3461V5.25006ZM16.6202 9.00006C16.3082 9.00033 16.0041 9.09785 15.7502 9.27906V9.00006H17.2502V5.25006C17.2502 5.05114 17.1712 4.86038 17.0305 4.71973C16.8899 4.57907 16.6991 4.50006 16.5002 4.50006C16.3013 4.50006 16.1105 4.57907 15.9699 4.71973C15.8292 4.86038 15.7502 5.05114 15.7502 5.25006V9.00006H16.6202ZM18.3752 9.00006C18.6953 9.00007 19.0114 9.07062 19.3011 9.20671C19.5908 9.34279 19.847 9.54105 20.0513 9.78738C20.2557 10.0337 20.4033 10.3221 20.4835 10.6319C20.5638 10.9418 20.5748 11.2655 20.5157 11.5801L19.0937 19.1641C18.9971 19.6799 18.7233 20.1458 18.3195 20.4811C17.9158 20.8163 17.4075 20.9999 16.8827 21.0001H7.11769C6.59287 20.9999 6.08462 20.8163 5.68086 20.4811C5.27711 20.1458 5.00325 19.6799 4.90669 19.1641L3.48469 11.5801C3.42561 11.2655 3.43659 10.9418 3.51685 10.6319C3.59711 10.3221 3.74468 10.0337 3.94905 9.78738C4.15342 9.54105 4.40957 9.34279 4.69927 9.20671C4.98898 9.07062 5.30511 9.00007 5.62519 9.00006H5.25019V5.25006C5.25026 4.70515 5.44808 4.17878 5.80692 3.76871C6.16575 3.35863 6.6612 3.0927 7.20128 3.02031C7.74136 2.94793 8.28936 3.07399 8.74351 3.3751C9.19767 3.67621 9.52712 4.1319 9.67069 4.65756C10.1761 4.45642 10.7375 4.44576 11.2502 4.62756V3.75006C11.2503 3.20515 11.4481 2.67878 11.8069 2.26871C12.1657 1.85863 12.6612 1.5927 13.2013 1.52031C13.7414 1.44793 14.2894 1.57399 14.7435 1.8751C15.1977 2.17621 15.5271 2.6319 15.6707 3.15756C16.012 3.02218 16.3813 2.9724 16.7464 3.01258C17.1114 3.05275 17.461 3.18166 17.7647 3.38805C18.0685 3.59443 18.3171 3.87203 18.4889 4.19659C18.6606 4.52116 18.7503 4.88284 18.7502 5.25006V9.00006H18.3752ZM15.7217 12.0001C15.4407 12.3511 15.0843 12.6344 14.679 12.8291C14.2737 13.0239 13.8298 13.125 13.3802 13.1251H10.6202C10.1708 13.1248 9.7272 13.0235 9.32218 12.8288C8.91716 12.6341 8.56106 12.3509 8.28019 12.0001H8.25019V11.9641C8.16405 11.8527 8.08585 11.7354 8.01619 11.6131L7.38019 10.5001H5.62519C5.52536 10.4999 5.42673 10.5217 5.33633 10.5641C5.24593 10.6064 5.16599 10.6682 5.10222 10.745C5.03846 10.8218 4.99244 10.9117 4.96746 11.0084C4.94247 11.105 4.93914 11.206 4.95769 11.3041L5.65069 15.0001H18.3497L19.0427 11.3041C19.0612 11.206 19.0579 11.105 19.0329 11.0084C19.0079 10.9117 18.9619 10.8218 18.8981 10.745C18.8344 10.6682 18.7544 10.6064 18.664 10.5641C18.5736 10.5217 18.475 10.4999 18.3752 10.5001H16.6202L15.9842 11.6131C15.9143 11.7352 15.8361 11.8525 15.7502 11.9641V12.0001H15.7217ZM11.2502 6.75006C11.2502 6.55114 11.1712 6.36038 11.0305 6.21973C10.8899 6.07907 10.6991 6.00006 10.5002 6.00006C10.3013 6.00006 10.1105 6.07907 9.96986 6.21973C9.8292 6.36038 9.75019 6.55114 9.75019 6.75006V11.3461C10.0041 11.5273 10.3082 11.6248 10.6202 11.6251H11.2502V6.75006ZM8.25019 9.00006V5.25006C8.25019 5.05114 8.17117 4.86038 8.03052 4.71973C7.88986 4.57907 7.6991 4.50006 7.50019 4.50006C7.30127 4.50006 7.11051 4.57907 6.96986 4.71973C6.8292 4.86038 6.75019 5.05114 6.75019 5.25006V9.00006H8.25019ZM8.25019 9.00006H7.38019C7.69214 9.00033 7.99625 9.09785 8.25019 9.27906V9.00006ZM5.93269 16.5001L6.37969 18.8881C6.41191 19.0602 6.50334 19.2156 6.63813 19.3274C6.77292 19.4392 6.94258 19.5002 7.11769 19.5001H16.8827C17.0578 19.5002 17.2275 19.4392 17.3622 19.3274C17.497 19.2156 17.5885 19.0602 17.6207 18.8881L18.0677 16.5001H5.93269Z" fill="white"/>
</g>
</svg>
