<svg width="24" height="24" viewBox="0 0 24 24" fill="none" xmlns="http://www.w3.org/2000/svg">
<g id="ep:sugar">
<path id="Vector" d="M18.7907 8.18395L18.8957 8.28895C19.4581 8.85153 19.7741 9.61446 19.7741 10.41C19.7741 11.2054 19.4581 11.9684 18.8957 12.531L12.5312 18.8939C12.2526 19.1727 11.9219 19.3937 11.5578 19.5446C11.1938 19.6954 10.8035 19.7731 10.4095 19.7731C10.0154 19.7731 9.62521 19.6954 9.26115 19.5446C8.89709 19.3937 8.56632 19.1727 8.28773 18.8939L8.18273 18.7889L7.72823 21.3599C7.68071 21.6303 7.55993 21.8824 7.37904 22.0888C7.19815 22.2953 6.96408 22.4481 6.70233 22.5307C6.44058 22.6133 6.16118 22.6225 5.89456 22.5573C5.62794 22.4921 5.38432 22.355 5.19023 22.1609L1.83923 18.8099C1.64515 18.6159 1.50804 18.3722 1.44284 18.1056C1.37764 17.839 1.38684 17.5596 1.46945 17.2978C1.55206 17.0361 1.70491 16.802 1.91134 16.6211C2.11778 16.4402 2.3699 16.3195 2.64023 16.2719L5.21273 15.8189L5.10623 15.7125C4.82753 15.4339 4.60644 15.1031 4.4556 14.739C4.30476 14.375 4.22712 13.9848 4.22712 13.5907C4.22712 13.1966 4.30476 12.8064 4.4556 12.4424C4.60644 12.0783 4.82753 11.7475 5.10623 11.469L11.4692 5.10595C11.7478 4.82725 12.0786 4.60616 12.4426 4.45532C12.8067 4.30448 13.1969 4.22684 13.591 4.22684C13.985 4.22684 14.3753 4.30448 14.7393 4.45532C15.1034 4.60616 15.4341 4.82725 15.7127 5.10595L15.8177 5.21095L16.2722 2.64445C16.32 2.37406 16.4411 2.12197 16.6222 1.91565C16.8034 1.70933 17.0377 1.5567 17.2997 1.47438C17.5616 1.39207 17.8411 1.38324 18.1078 1.44884C18.3744 1.51445 18.6179 1.65198 18.8117 1.84645L22.1537 5.19895C22.347 5.39323 22.4833 5.63674 22.548 5.90305C22.6126 6.16935 22.603 6.44827 22.5203 6.70953C22.4376 6.97079 22.2849 7.2044 22.0788 7.38499C21.8727 7.56559 21.6211 7.68628 21.3512 7.73395L18.7907 8.18395ZM5.92823 12.8414H16.4087V12.8939L17.8337 11.469C18.1107 11.1928 18.2685 10.8191 18.2732 10.4279H8.26823L6.16673 12.531C6.07348 12.6235 5.99279 12.7279 5.92673 12.8414H5.92823ZM5.92823 14.3414C5.99273 14.4524 6.07223 14.5559 6.16673 14.6519L9.34823 17.8335C9.62952 18.1147 10.011 18.2726 10.4087 18.2726C10.8065 18.2726 11.1879 18.1147 11.4692 17.8335L14.9627 14.3414H5.92823ZM17.4137 8.92795L14.6522 6.16645C14.3709 5.88524 13.9895 5.72727 13.5917 5.72727C13.194 5.72727 12.8125 5.88524 12.5312 6.16645L9.76823 8.92795H17.4137ZM2.89973 17.7495L6.25073 21.1005L6.82073 17.8755C6.83742 17.7804 6.83094 17.6827 6.80184 17.5907C6.77274 17.4987 6.72188 17.4151 6.65358 17.347C6.58527 17.2788 6.50154 17.2281 6.40947 17.1992C6.31741 17.1703 6.21973 17.1641 6.12473 17.181L2.89973 17.7495ZM17.7497 2.90545L17.1797 6.12745C17.1631 6.22234 17.1696 6.31984 17.1986 6.4117C17.2276 6.50356 17.2784 6.58709 17.3465 6.65521C17.4146 6.72333 17.4981 6.77404 17.59 6.80307C17.6818 6.83209 17.7793 6.83857 17.8742 6.82195L21.0917 6.25795L17.7482 2.90545H17.7497Z" fill="#41c752"/>
</g>
</svg>
