<svg width="24" height="24" viewBox="0 0 24 24" fill="none" xmlns="http://www.w3.org/2000/svg">
<g id="ion:male">
<path id="Vector" d="M20.7187 2.24609H16.4999C16.2264 2.24609 15.9641 2.35474 15.7707 2.54814C15.5773 2.74154 15.4687 3.00384 15.4687 3.27734C15.4687 3.55085 15.5773 3.81315 15.7707 4.00655C15.9641 4.19994 16.2264 4.30859 16.4999 4.30859H18.2291L15.3984 7.13937C12.202 4.66156 7.57023 4.88938 4.63867 7.82234C1.45867 11.0028 1.45867 16.1769 4.64055 19.3555C6.17128 20.8816 8.24464 21.7386 10.4062 21.7386C12.5677 21.7386 14.6411 20.8816 16.1718 19.3555C19.1048 16.422 19.3326 11.7922 16.8548 8.59578L19.6874 5.76688V7.49609C19.6874 7.7696 19.7961 8.0319 19.9895 8.2253C20.1829 8.41869 20.4452 8.52734 20.7187 8.52734C20.9922 8.52734 21.2545 8.41869 21.4479 8.2253C21.6413 8.0319 21.7499 7.7696 21.7499 7.49609V3.27734C21.7499 3.14192 21.7232 3.00782 21.6714 2.8827C21.6196 2.75758 21.5436 2.6439 21.4479 2.54814C21.3521 2.45238 21.2384 2.37642 21.1133 2.32459C20.9882 2.27277 20.8541 2.24609 20.7187 2.24609ZM14.7149 17.8986C13.5713 19.0398 12.0218 19.6807 10.4062 19.6807C8.79059 19.6807 7.241 19.0398 6.09742 17.8986C3.72133 15.523 3.72133 11.6567 6.09742 9.28109C8.47352 6.90547 12.3393 6.905 14.7149 9.28109C17.0905 11.6572 17.091 15.523 14.7149 17.8986Z" fill="#41c752"/>
</g>
</svg>
