<svg width="24" height="24" viewBox="0 0 24 24" fill="none" xmlns="http://www.w3.org/2000/svg">
<g id="healthicons:thyroid">
<g id="Group">
<path id="Vector" fill-rule="evenodd" clip-rule="evenodd" d="M10.7919 5.05126L10.7889 5.05426L10.7824 4.93726L10.7784 4.85826C10.7604 4.52826 10.7324 4.02826 10.5294 3.63326C10.413 3.39652 10.2231 3.2039 9.98794 3.08426C9.73044 2.95626 9.43644 2.92726 9.12244 2.97026C8.84394 3.00876 8.59744 3.12026 8.40244 3.30926C8.21144 3.49426 8.09744 3.72626 8.03544 3.96326C7.91394 4.42226 7.96544 4.97126 8.09044 5.49976C8.34394 6.56776 8.95944 7.79976 9.65194 8.63776C9.91844 8.96026 9.99994 9.44626 9.99994 9.65576V10.7578L10.9999 11.0078V10.3503C11.4414 10.1863 11.7394 10.1113 12.0189 10.1053C12.2899 10.1003 12.5789 10.1593 12.9999 10.3333V11.0078L13.9999 10.7578V9.65576C13.9999 9.44626 14.0819 8.96076 14.3479 8.63776C15.0354 7.80526 15.6819 6.57876 15.9679 5.51376C16.1089 4.98826 16.1794 4.43976 16.0734 3.97876C16.0189 3.74076 15.9119 3.50426 15.7224 3.31476C15.5289 3.12176 15.2809 3.00876 15.0024 2.97026C14.6884 2.92726 14.3939 2.95626 14.1369 3.08426C13.8769 3.21426 13.7054 3.41826 13.5949 3.63326C13.3919 4.02826 13.3644 4.52826 13.3464 4.85826L13.3419 4.93726L13.3354 5.05426L13.3324 5.05126C13.0939 4.83876 12.7779 4.76626 12.5649 4.73526C12.4191 4.71518 12.2721 4.70433 12.1249 4.70276H11.9999C11.8527 4.70433 11.7058 4.71568 11.5599 4.73576C11.3464 4.76676 11.0309 4.83926 10.7919 5.05176M11.4569 5.79876L11.4719 5.78926L11.4999 5.77626V8.00776H12.4999V5.73876C12.5393 5.74709 12.5733 5.75642 12.6019 5.76676C12.6248 5.77495 12.6468 5.78551 12.6674 5.79826C12.8789 5.98676 13.0939 6.14576 13.3094 6.21826C13.4254 6.25676 13.5729 6.28126 13.7314 6.24226C13.8817 6.20518 14.0146 6.11763 14.1079 5.99426C14.2504 5.80926 14.2889 5.57326 14.3069 5.43126C14.3249 5.29126 14.3334 5.13026 14.3409 4.98376L14.3449 4.91276C14.3649 4.53976 14.3959 4.26276 14.4849 4.09026C14.5199 4.02126 14.5529 3.99426 14.5819 3.98026C14.6139 3.96376 14.6939 3.93726 14.8659 3.96076C14.9559 3.97326 14.9949 4.00176 15.0159 4.02226C15.0404 4.04726 15.0749 4.09776 15.0989 4.20226C15.1504 4.42726 15.1274 4.78726 15.0019 5.25476C14.7549 6.17626 14.1769 7.27476 13.5769 8.00126C13.2419 8.40626 13.0914 8.90376 13.0324 9.27776C12.6754 9.15876 12.3434 9.09876 11.9984 9.10576C11.6584 9.11276 11.3264 9.18526 10.9709 9.30076C10.9144 8.92426 10.7644 8.41476 10.4229 8.00076C9.82794 7.28076 9.28144 6.18726 9.06394 5.26926C8.95394 4.80426 8.94244 4.44426 9.00244 4.21826C9.03044 4.11226 9.06794 4.05676 9.09794 4.02776C9.12444 4.00276 9.16794 3.97326 9.25894 3.96076C9.43044 3.93726 9.51044 3.96376 9.54244 3.97976C9.57144 3.99426 9.60444 4.02126 9.63994 4.09026C9.72894 4.26276 9.75994 4.53976 9.77994 4.91276L9.78394 4.98376C9.79144 5.13026 9.79994 5.29126 9.81744 5.43126C9.83594 5.57326 9.87394 5.80926 10.0164 5.99426C10.1009 6.10426 10.2254 6.20126 10.3929 6.24226C10.5519 6.28126 10.6994 6.25676 10.8149 6.21776C11.0309 6.14576 11.2454 5.98676 11.4574 5.79776M12.9999 17.6653C12.5584 17.8293 12.2604 17.9043 11.9809 17.9103C11.7099 17.9153 11.4209 17.8563 10.9999 17.6823V16.8413L9.99994 17.9243V19.0078C9.99994 19.5382 10.2107 20.0469 10.5857 20.422C10.9608 20.797 11.4695 21.0078 11.9999 21.0078C12.5304 21.0078 13.0391 20.797 13.4142 20.422C13.7892 20.0469 13.9999 19.5382 13.9999 19.0078V17.9243L12.9999 16.8413V17.6653ZM11.9999 20.0078C11.7347 20.0078 11.4804 19.9024 11.2928 19.7149C11.1053 19.5273 10.9999 19.273 10.9999 19.0078V18.7483C11.3449 18.8603 11.6669 18.9168 12.0014 18.9098C12.3324 18.9028 12.6554 18.8343 12.9999 18.7243V19.0078C12.9999 19.273 12.8946 19.5273 12.707 19.7149C12.5195 19.9024 12.2652 20.0078 11.9999 20.0078Z" fill="white"/>
<path id="Vector_2" fill-rule="evenodd" clip-rule="evenodd" d="M6.181 5.7357C6.6765 6.0492 7.0845 6.6172 7.387 7.3702C7.464 7.5617 7.539 7.7682 7.6175 7.9842C7.877 8.6957 8.174 9.5117 8.696 10.2417C9.343 11.1457 10.318 11.8767 12 11.8767C13.682 11.8767 14.657 11.1457 15.304 10.2417C15.826 9.5117 16.123 8.6957 16.3825 7.9842C16.461 7.7682 16.536 7.5617 16.613 7.3702C16.9155 6.6172 17.323 6.0492 17.819 5.7357C18.3415 5.4057 18.933 5.3827 19.459 5.6857C19.955 5.9707 20.336 6.5107 20.592 7.1962C20.8505 7.8912 21 8.7822 21 9.8487V14.9422C21 15.3672 20.918 16.3502 20.4415 17.2462C19.9465 18.1777 19.0225 19.0077 17.423 19.0077C16.6255 19.0077 16.03 18.7827 15.547 18.4322C15.1145 18.1192 14.784 17.7112 14.497 17.3572L14.439 17.2857C14.124 16.8987 13.845 16.5717 13.4805 16.3307C13.1305 16.0992 12.677 15.9327 12 15.9327C11.323 15.9327 10.8695 16.0992 10.52 16.3307C10.155 16.5712 9.876 16.8987 9.561 17.2857L9.503 17.3577C9.216 17.7112 8.8855 18.1187 8.453 18.4322C7.97 18.7822 7.3745 19.0077 6.577 19.0077C4.9775 19.0077 4.0535 18.1772 3.5585 17.2462C3.082 16.3502 3 15.3667 3 14.9427V9.8487C3 8.7822 3.1495 7.8907 3.408 7.1967C3.664 6.5102 4.045 5.9707 4.5405 5.6857C5.067 5.3827 5.6585 5.4057 6.1805 5.7357M6 9.0077C6 9.14031 5.94732 9.26748 5.85355 9.36125C5.75979 9.45502 5.63261 9.5077 5.5 9.5077C5.36739 9.5077 5.24021 9.45502 5.14645 9.36125C5.05268 9.26748 5 9.14031 5 9.0077C5 8.87509 5.05268 8.74791 5.14645 8.65414C5.24021 8.56038 5.36739 8.5077 5.5 8.5077C5.63261 8.5077 5.75979 8.56038 5.85355 8.65414C5.94732 8.74791 6 8.87509 6 9.0077ZM6.5 11.5077C6.63261 11.5077 6.75979 11.455 6.85355 11.3613C6.94732 11.2675 7 11.1403 7 11.0077C7 10.8751 6.94732 10.7479 6.85355 10.6541C6.75979 10.5604 6.63261 10.5077 6.5 10.5077C6.36739 10.5077 6.24021 10.5604 6.14645 10.6541C6.05268 10.7479 6 10.8751 6 11.0077C6 11.1403 6.05268 11.2675 6.14645 11.3613C6.24021 11.455 6.36739 11.5077 6.5 11.5077ZM6 13.0077C6 13.1403 5.94732 13.2675 5.85355 13.3613C5.75979 13.455 5.63261 13.5077 5.5 13.5077C5.36739 13.5077 5.24021 13.455 5.14645 13.3613C5.05268 13.2675 5 13.1403 5 13.0077C5 12.8751 5.05268 12.7479 5.14645 12.6541C5.24021 12.5604 5.36739 12.5077 5.5 12.5077C5.63261 12.5077 5.75979 12.5604 5.85355 12.6541C5.94732 12.7479 6 12.8751 6 13.0077ZM8 16.0077C8.13261 16.0077 8.25979 15.955 8.35355 15.8613C8.44732 15.7675 8.5 15.6403 8.5 15.5077C8.5 15.3751 8.44732 15.2479 8.35355 15.1541C8.25979 15.0604 8.13261 15.0077 8 15.0077C7.86739 15.0077 7.74021 15.0604 7.64645 15.1541C7.55268 15.2479 7.5 15.3751 7.5 15.5077C7.5 15.6403 7.55268 15.7675 7.64645 15.8613C7.74021 15.955 7.86739 16.0077 8 16.0077ZM6.5 15.5077C6.5 15.6403 6.44732 15.7675 6.35355 15.8613C6.25979 15.955 6.13261 16.0077 6 16.0077C5.86739 16.0077 5.74021 15.955 5.64645 15.8613C5.55268 15.7675 5.5 15.6403 5.5 15.5077C5.5 15.3751 5.55268 15.2479 5.64645 15.1541C5.74021 15.0604 5.86739 15.0077 6 15.0077C6.13261 15.0077 6.25979 15.0604 6.35355 15.1541C6.44732 15.2479 6.5 15.3751 6.5 15.5077ZM8 14.0077C8.13261 14.0077 8.25979 13.955 8.35355 13.8613C8.44732 13.7675 8.5 13.6403 8.5 13.5077C8.5 13.3751 8.44732 13.2479 8.35355 13.1541C8.25979 13.0604 8.13261 13.0077 8 13.0077C7.86739 13.0077 7.74021 13.0604 7.64645 13.1541C7.55268 13.2479 7.5 13.3751 7.5 13.5077C7.5 13.6403 7.55268 13.7675 7.64645 13.8613C7.74021 13.955 7.86739 14.0077 8 14.0077ZM10.5 14.0077C10.5 14.1403 10.4473 14.2675 10.3536 14.3613C10.2598 14.455 10.1326 14.5077 10 14.5077C9.86739 14.5077 9.74021 14.455 9.64645 14.3613C9.55268 14.2675 9.5 14.1403 9.5 14.0077C9.5 13.8751 9.55268 13.7479 9.64645 13.6541C9.74021 13.5604 9.86739 13.5077 10 13.5077C10.1326 13.5077 10.2598 13.5604 10.3536 13.6541C10.4473 13.7479 10.5 13.8751 10.5 14.0077ZM18.5 9.5077C18.3674 9.5077 18.2402 9.45502 18.1464 9.36125C18.0527 9.26748 18 9.14031 18 9.0077C18 8.87509 18.0527 8.74791 18.1464 8.65414C18.2402 8.56038 18.3674 8.5077 18.5 8.5077C18.6326 8.5077 18.7598 8.56038 18.8536 8.65414C18.9473 8.74791 19 8.87509 19 9.0077C19 9.14031 18.9473 9.26748 18.8536 9.36125C18.7598 9.45502 18.6326 9.5077 18.5 9.5077ZM17 11.0077C17 11.1403 17.0527 11.2675 17.1464 11.3613C17.2402 11.455 17.3674 11.5077 17.5 11.5077C17.6326 11.5077 17.7598 11.455 17.8536 11.3613C17.9473 11.2675 18 11.1403 18 11.0077C18 10.8751 17.9473 10.7479 17.8536 10.6541C17.7598 10.5604 17.6326 10.5077 17.5 10.5077C17.3674 10.5077 17.2402 10.5604 17.1464 10.6541C17.0527 10.7479 17 10.8751 17 11.0077ZM18.5 13.5077C18.3674 13.5077 18.2402 13.455 18.1464 13.3613C18.0527 13.2675 18 13.1403 18 13.0077C18 12.8751 18.0527 12.7479 18.1464 12.6541C18.2402 12.5604 18.3674 12.5077 18.5 12.5077C18.6326 12.5077 18.7598 12.5604 18.8536 12.6541C18.9473 12.7479 19 12.8751 19 13.0077C19 13.1403 18.9473 13.2675 18.8536 13.3613C18.7598 13.455 18.6326 13.5077 18.5 13.5077ZM15.5 15.5077C15.5 15.6403 15.5527 15.7675 15.6464 15.8613C15.7402 15.955 15.8674 16.0077 16 16.0077C16.1326 16.0077 16.2598 15.955 16.3536 15.8613C16.4473 15.7675 16.5 15.6403 16.5 15.5077C16.5 15.3751 16.4473 15.2479 16.3536 15.1541C16.2598 15.0604 16.1326 15.0077 16 15.0077C15.8674 15.0077 15.7402 15.0604 15.6464 15.1541C15.5527 15.2479 15.5 15.3751 15.5 15.5077ZM18 16.0077C17.8674 16.0077 17.7402 15.955 17.6464 15.8613C17.5527 15.7675 17.5 15.6403 17.5 15.5077C17.5 15.3751 17.5527 15.2479 17.6464 15.1541C17.7402 15.0604 17.8674 15.0077 18 15.0077C18.1326 15.0077 18.2598 15.0604 18.3536 15.1541C18.4473 15.2479 18.5 15.3751 18.5 15.5077C18.5 15.6403 18.4473 15.7675 18.3536 15.8613C18.2598 15.955 18.1326 16.0077 18 16.0077ZM15.5 13.5077C15.5 13.6403 15.5527 13.7675 15.6464 13.8613C15.7402 13.955 15.8674 14.0077 16 14.0077C16.1326 14.0077 16.2598 13.955 16.3536 13.8613C16.4473 13.7675 16.5 13.6403 16.5 13.5077C16.5 13.3751 16.4473 13.2479 16.3536 13.1541C16.2598 13.0604 16.1326 13.0077 16 13.0077C15.8674 13.0077 15.7402 13.0604 15.6464 13.1541C15.5527 13.2479 15.5 13.3751 15.5 13.5077ZM14 14.5077C13.8674 14.5077 13.7402 14.455 13.6464 14.3613C13.5527 14.2675 13.5 14.1403 13.5 14.0077C13.5 13.8751 13.5527 13.7479 13.6464 13.6541C13.7402 13.5604 13.8674 13.5077 14 13.5077C14.1326 13.5077 14.2598 13.5604 14.3536 13.6541C14.4473 13.7479 14.5 13.8751 14.5 14.0077C14.5 14.1403 14.4473 14.2675 14.3536 14.3613C14.2598 14.455 14.1326 14.5077 14 14.5077ZM12.5 14.0077C12.5 14.1403 12.4473 14.2675 12.3536 14.3613C12.2598 14.455 12.1326 14.5077 12 14.5077C11.8674 14.5077 11.7402 14.455 11.6464 14.3613C11.5527 14.2675 11.5 14.1403 11.5 14.0077C11.5 13.8751 11.5527 13.7479 11.6464 13.6541C11.7402 13.5604 11.8674 13.5077 12 13.5077C12.1326 13.5077 12.2598 13.5604 12.3536 13.6541C12.4473 13.7479 12.5 13.8751 12.5 14.0077Z" fill="white"/>
</g>
</g>
</svg>
