<svg width="24" height="24" viewBox="0 0 24 24" fill="none" xmlns="http://www.w3.org/2000/svg">
<g id="healthicons:varicose-vein-outline">
<g id="Group">
<path id="Vector" fill-rule="evenodd" clip-rule="evenodd" d="M11.4304 2H10.4654L9.9904 5.2705L11.9439 17.652C11.9439 17.652 8.1174 19.3265 7.3999 19.3265C7.1504 19.3265 6.9009 19.2685 6.6624 19.213C6.2144 19.1095 5.8034 19.014 5.5004 19.3265C5.0359 19.8045 4.6569 20.3915 5.5004 21.2395C6.3439 22.087 7.8819 22.195 9.7914 21.718C12.2784 21.096 13.0504 21.393 13.6879 21.639C14.0319 21.7715 14.3364 21.889 14.8494 21.8395C16.1289 21.7165 16.5764 21.0055 16.8724 20.5345C16.9151 20.4658 16.9557 20.4035 16.9944 20.3475C17.2994 19.9085 17.0669 18.183 15.9709 17.4105C15.8909 16.9815 16.4909 13.959 17.2299 11.3315C18.3839 7.2275 16.9759 4.4735 16.0459 2.6545C15.9474 2.462 15.8544 2.172 15.7699 2H14.6839L15.1719 3.052H15.1744L15.1934 3.09C15.3051 3.30767 15.4192 3.535 15.5359 3.772L15.5409 3.7815C16.3829 5.5115 17.2304 7.7965 16.3089 11.0725C15.946 12.3716 15.6281 13.6829 15.3559 15.004C15.2518 15.5035 15.161 16.0057 15.0834 16.51C15.0534 16.713 15.0304 16.9 15.0179 17.0585C15.0079 17.183 14.9944 17.3935 15.0304 17.586L15.1019 17.9685L15.4194 18.1925C15.7269 18.409 15.9639 18.8055 16.0844 19.2525C16.1424 19.4685 16.1629 19.66 16.1609 19.796C16.1604 19.8236 16.1587 19.8511 16.1559 19.8785C16.0974 19.966 16.0509 20.04 16.0099 20.1055C15.9109 20.2645 15.8419 20.374 15.6964 20.5135C15.5374 20.665 15.2784 20.8375 14.7579 20.8875C14.5954 20.9082 14.4304 20.8905 14.2759 20.836C14.1978 20.8098 14.1204 20.7815 14.0439 20.751L14.0069 20.737L13.9554 20.717C13.7936 20.6539 13.6289 20.5985 13.4619 20.551C12.6374 20.322 11.5564 20.291 9.5594 20.79C7.6979 21.255 6.6344 21.023 6.1784 20.5645C6.0284 20.4145 5.9774 20.319 5.9619 20.282L5.9604 20.278C5.96891 20.2606 5.97843 20.2438 5.9889 20.2275C6.02476 20.1739 6.06489 20.1232 6.1089 20.076C6.1289 20.0787 6.15373 20.0827 6.1834 20.088C6.2694 20.1035 6.3329 20.1185 6.4134 20.1375C6.4784 20.1525 6.5559 20.171 6.6664 20.1945C6.90709 20.2498 7.15296 20.2795 7.3999 20.283C7.6249 20.283 7.8679 20.226 8.0454 20.179C8.2494 20.1255 8.4814 20.052 8.7214 19.97C9.2039 19.805 9.7674 19.589 10.2964 19.3775C10.9621 19.1106 11.624 18.8342 12.2819 18.5485L12.3269 18.5285L13.0039 18.2325L10.9579 5.2645L11.4304 2Z" fill="#41c752"/>
<path id="Vector_2" d="M12.2818 4.45995C12.3729 4.37174 12.4952 4.32325 12.6219 4.32513C12.7486 4.327 12.8695 4.37908 12.9578 4.46995C13.1713 4.68945 13.3243 4.90795 13.4213 5.13095C13.8491 4.89433 14.3434 4.80689 14.8263 4.88245C14.9502 4.90255 15.0612 4.97049 15.1355 5.07165C15.2097 5.17281 15.2412 5.29909 15.2233 5.42328C15.2053 5.54747 15.1393 5.65963 15.0394 5.7356C14.9395 5.81157 14.8138 5.84527 14.6893 5.82945C14.4555 5.7943 14.2165 5.82386 13.9983 5.91491C13.78 6.00596 13.5909 6.15503 13.4513 6.34595L13.4088 6.48595C13.3573 6.64995 13.3193 6.77145 13.3228 6.93595C13.3263 7.11195 13.3888 7.37095 13.7378 7.72095C13.8238 7.81157 13.8709 7.9322 13.8691 8.05708C13.8673 8.18196 13.8168 8.3012 13.7282 8.38931C13.6397 8.47743 13.5203 8.52745 13.3954 8.52869C13.2705 8.52993 13.1501 8.48229 13.0598 8.39595C12.5653 7.89895 12.3753 7.41495 12.3663 6.95445C12.3598 6.61545 12.4628 6.29395 12.5203 6.11545C12.5327 6.07711 12.5422 6.04611 12.5488 6.02245C12.5943 5.85645 12.6063 5.74245 12.5823 5.63095C12.5593 5.52195 12.4903 5.36095 12.2718 5.13645C12.1835 5.0454 12.1349 4.92299 12.1368 4.79613C12.1386 4.66926 12.1908 4.54834 12.2818 4.45995Z" fill="#41c752"/>
<path id="Vector_3" fill-rule="evenodd" clip-rule="evenodd" d="M14.5391 10.3085C14.5776 10.1901 14.6607 10.0913 14.7708 10.0332C14.8809 9.97502 15.0093 9.96208 15.1288 9.99709C15.2483 10.0321 15.3494 10.1123 15.4107 10.2207C15.472 10.3291 15.4887 10.4571 15.4571 10.5775C15.2411 11.3135 14.6371 11.5055 14.4511 11.5645L14.4261 11.573C14.3935 11.5837 14.3611 11.592 14.3291 11.598C14.1987 11.6372 14.0789 11.7054 13.9786 11.7975C13.8611 11.9085 13.7676 12.0675 13.7766 12.321C13.7807 12.3848 13.772 12.4488 13.7509 12.5092C13.7299 12.5696 13.6969 12.6251 13.6541 12.6725C13.6112 12.72 13.5592 12.7583 13.5013 12.7853C13.4433 12.8123 13.3805 12.8275 13.3166 12.8298C13.2527 12.8321 13.189 12.8217 13.1292 12.799C13.0695 12.7763 13.0148 12.7418 12.9686 12.6976C12.9224 12.6535 12.8854 12.6005 12.86 12.5418C12.8346 12.4831 12.8212 12.42 12.8206 12.356C12.8016 11.841 12.9931 11.446 13.2541 11.169C13.1265 11.0501 13.0121 10.9177 12.9131 10.774C12.8434 10.6692 12.8179 10.5412 12.8419 10.4177C12.8659 10.2941 12.9377 10.185 13.0416 10.114C13.1455 10.043 13.2731 10.0158 13.397 10.0382C13.5208 10.0607 13.6308 10.131 13.7031 10.234C13.8001 10.3765 13.9331 10.5065 14.0546 10.5875C14.1066 10.622 14.1466 10.6405 14.1716 10.6495C14.2451 10.625 14.3056 10.6035 14.3676 10.5605C14.4291 10.5175 14.4976 10.449 14.5391 10.3085Z" fill="#41c752"/>
</g>
</g>
</svg>
