<svg width="24" height="25" viewBox="0 0 24 25" fill="none" xmlns="http://www.w3.org/2000/svg">
<g id="fluent:eye-12-filled">
<path id="Vector" d="M3.94778 13.3414C3.85825 13.5859 3.67695 13.7857 3.4424 13.8986C3.20784 14.0115 2.93852 14.0284 2.69166 13.9459C2.4448 13.8633 2.23985 13.6878 2.12037 13.4565C2.00089 13.2253 1.97628 12.9565 2.05178 12.7074C2.08841 12.5977 2.12978 12.4876 2.17578 12.3814C2.25578 12.1914 2.37378 11.9294 2.53578 11.6194C2.86578 10.9994 3.37978 10.1734 4.13778 9.34744C5.66778 7.67744 8.17378 6.02344 11.9998 6.02344C15.8258 6.02344 18.3318 7.67744 19.8618 9.34744C20.6778 10.2439 21.3401 11.269 21.8218 12.3814L21.9138 12.6074C21.9198 12.6234 21.9398 12.7274 21.9598 12.8274L21.9998 13.0234C21.9998 13.0234 22.1678 13.6894 21.3158 13.9714C21.0649 14.0552 20.791 14.0362 20.5541 13.9185C20.3172 13.8008 20.1366 13.594 20.0518 13.3434V13.3374L20.0398 13.3054L19.9778 13.1494C19.5849 12.2509 19.0478 11.4227 18.3878 10.6974C17.1678 9.37144 15.1738 8.02344 11.9998 8.02344C8.82578 8.02344 6.83178 9.36944 5.61178 10.6994C4.95192 11.4241 4.41485 12.2516 4.02178 13.1494L3.96178 13.3054L3.94778 13.3414ZM7.99978 14.0234C7.99978 12.9626 8.42121 11.9452 9.17135 11.195C9.9215 10.4449 10.9389 10.0234 11.9998 10.0234C13.0606 10.0234 14.0781 10.4449 14.8282 11.195C15.5784 11.9452 15.9998 12.9626 15.9998 14.0234C15.9998 15.0843 15.5784 16.1017 14.8282 16.8519C14.0781 17.602 13.0606 18.0234 11.9998 18.0234C10.9389 18.0234 9.9215 17.602 9.17135 16.8519C8.42121 16.1017 7.99978 15.0843 7.99978 14.0234Z" fill="#41c752"/>
</g>
</svg>
