<?xml version="1.0" encoding="utf-8"?>
<!-- Generator: Adobe Illustrator 26.1.0, SVG Export Plug-In . SVG Version: 6.00 Build 0)  -->
<svg version="1.1" id="Layer_1" xmlns="http://www.w3.org/2000/svg" xmlns:xlink="http://www.w3.org/1999/xlink" x="0px" y="0px"
	 viewBox="0 0 21 17" style="enable-background:new 0 0 21 17;" xml:space="preserve">
<style type="text/css">
	.st0{fill:#FFFFFF;}
</style>
<g>
	<path class="st0" d="M7.6,14.5H2.9V5.8h4.5c1.6,0,2.5,1,2.5,2.2c0,1.1-0.7,1.8-1.5,2c0.9,0.1,1.7,1,1.7,2.1
		C10.1,13.4,9.2,14.5,7.6,14.5z M4.7,7.4v1.9H7c0.6,0,1-0.4,1-1c0-0.5-0.4-0.9-1-0.9H4.7z M4.7,10.9v2h2.4c0.7,0,1.1-0.4,1.1-1
		c0-0.5-0.4-1-1.1-1H4.7z"/>
	<path class="st0" d="M13.1,8H12V4.1L11.1,5l-0.7-0.7l1.7-1.7h1V8z M18.1,8H14V7.1c2.2-1.6,2.9-2.2,2.9-2.8c0-0.5-0.4-0.7-0.9-0.7
		c-0.6,0-1.1,0.2-1.4,0.6l-0.7-0.8c0.5-0.6,1.3-0.9,2.1-0.9c1.1,0,2.1,0.6,2.1,1.7c0,0.9-0.8,1.7-2.2,2.7h2.2V8z"/>
</g>
</svg>
