<?xml version="1.0" encoding="utf-8"?>
<!-- Generator: Adobe Illustrator 26.1.0, SVG Export Plug-In . SVG Version: 6.00 Build 0)  -->
<svg version="1.1" id="Layer_1" xmlns="http://www.w3.org/2000/svg" xmlns:xlink="http://www.w3.org/1999/xlink" x="0px" y="0px"
	 viewBox="0 0 24 28" style="enable-background:new 0 0 24 28;" xml:space="preserve">
<style type="text/css">
	.st0{fill:#FFFFFF;}
</style>
<g id="fa6-regular:lemon">
	<path id="Vector" class="st0" d="M18.3,6.3c-0.1,0-0.3,0-0.4,0.1c-0.8,0.2-2,0.5-3.2,0.1C12.1,5.9,9.2,6.8,7,9
		c-2.2,2.2-3.2,5.1-2.5,7.6c0.3,1.2,0.1,2.4-0.1,3.2c0,0.1-0.1,0.3-0.1,0.4c0,0.8,0.6,1.4,1.4,1.4c0.1,0,0.3,0,0.4-0.1
		c0.8-0.2,2-0.5,3.2-0.1c2.5,0.7,5.4-0.3,7.6-2.5c2.2-2.2,3.2-5.1,2.5-7.6c-0.3-1.2-0.1-2.4,0.1-3.2c0-0.1,0.1-0.3,0.1-0.4
		C19.7,6.9,19.1,6.3,18.3,6.3z M18.3,4.2c1.9,0,3.5,1.6,3.5,3.5c0,0.3,0,0.7-0.1,1c-0.2,0.7-0.3,1.4-0.1,2.1
		c0.9,3.4-0.5,7.1-3.1,9.6s-6.3,3.9-9.6,3.1c-0.7-0.2-1.4-0.1-2.1,0.1c-0.3,0.1-0.6,0.1-1,0.1c-1.9,0-3.5-1.6-3.5-3.5
		c0-0.3,0-0.7,0.1-1c0.2-0.7,0.3-1.4,0.1-2.1C1.6,13.8,3,10.1,5.5,7.5c2.6-2.6,6.3-3.9,9.6-3.1c0.7,0.2,1.4,0.1,2.1-0.1
		C17.6,4.3,18,4.2,18.3,4.2z M13,10.1c-2.3,0.7-4.2,2.6-4.9,4.9c-0.2,0.6-0.7,0.9-1.3,0.7c-0.6-0.2-0.9-0.7-0.7-1.3
		c0.9-3,3.3-5.4,6.3-6.3c0.6-0.2,1.1,0.2,1.3,0.7C13.9,9.4,13.5,9.9,13,10.1z"/>
</g>
</svg>
