<svg width="24" height="25" viewBox="0 0 24 25" fill="none" xmlns="http://www.w3.org/2000/svg">
<g id="jam:sun">
<path id="Vector" d="M12 15.0156C12.7956 15.0156 13.5587 14.6996 14.1213 14.1369C14.6839 13.5743 15 12.8113 15 12.0156C15 11.22 14.6839 10.4569 14.1213 9.8943C13.5587 9.3317 12.7956 9.01562 12 9.01562C11.2044 9.01562 10.4413 9.3317 9.87868 9.8943C9.31607 10.4569 9 11.22 9 12.0156C9 12.8113 9.31607 13.5743 9.87868 14.1369C10.4413 14.6996 11.2044 15.0156 12 15.0156ZM12 17.0156C10.6739 17.0156 9.40215 16.4888 8.46447 15.5512C7.52678 14.6135 7 13.3417 7 12.0156C7 10.6895 7.52678 9.41777 8.46447 8.48009C9.40215 7.54241 10.6739 7.01562 12 7.01562C13.3261 7.01562 14.5979 7.54241 15.5355 8.48009C16.4732 9.41777 17 10.6895 17 12.0156C17 13.3417 16.4732 14.6135 15.5355 15.5512C14.5979 16.4888 13.3261 17.0156 12 17.0156ZM12 2.01562C12.2652 2.01562 12.5196 2.12098 12.7071 2.30852C12.8946 2.49605 13 2.75041 13 3.01562V5.01562C13 5.28084 12.8946 5.5352 12.7071 5.72273C12.5196 5.91027 12.2652 6.01562 12 6.01562C11.7348 6.01562 11.4804 5.91027 11.2929 5.72273C11.1054 5.5352 11 5.28084 11 5.01562V3.01562C11 2.75041 11.1054 2.49605 11.2929 2.30852C11.4804 2.12098 11.7348 2.01563 12 2.01562ZM12 18.0156C12.2652 18.0156 12.5196 18.121 12.7071 18.3085C12.8946 18.4961 13 18.7504 13 19.0156V21.0156C13 21.2808 12.8946 21.5352 12.7071 21.7227C12.5196 21.9103 12.2652 22.0156 12 22.0156C11.7348 22.0156 11.4804 21.9103 11.2929 21.7227C11.1054 21.5352 11 21.2808 11 21.0156V19.0156C11 18.7504 11.1054 18.4961 11.2929 18.3085C11.4804 18.121 11.7348 18.0156 12 18.0156ZM3 11.0156H5C5.26522 11.0156 5.51957 11.121 5.70711 11.3085C5.89464 11.4961 6 11.7504 6 12.0156C6 12.2808 5.89464 12.5352 5.70711 12.7227C5.51957 12.9103 5.26522 13.0156 5 13.0156H3C2.73478 13.0156 2.48043 12.9103 2.29289 12.7227C2.10536 12.5352 2 12.2808 2 12.0156C2 11.7504 2.10536 11.4961 2.29289 11.3085C2.48043 11.121 2.73478 11.0156 3 11.0156ZM19 11.0156H21C21.2652 11.0156 21.5196 11.121 21.7071 11.3085C21.8946 11.4961 22 11.7504 22 12.0156C22 12.2808 21.8946 12.5352 21.7071 12.7227C21.5196 12.9103 21.2652 13.0156 21 13.0156H19C18.7348 13.0156 18.4804 12.9103 18.2929 12.7227C18.1054 12.5352 18 12.2808 18 12.0156C18 11.7504 18.1054 11.4961 18.2929 11.3085C18.4804 11.121 18.7348 11.0156 19 11.0156ZM19.071 4.94462C19.2585 5.13215 19.3638 5.38646 19.3638 5.65162C19.3638 5.91679 19.2585 6.1711 19.071 6.35862L17.657 7.77262C17.5648 7.86813 17.4544 7.94432 17.3324 7.99673C17.2104 8.04914 17.0792 8.07672 16.9464 8.07788C16.8136 8.07903 16.6819 8.05373 16.559 8.00345C16.4361 7.95317 16.3245 7.87891 16.2306 7.78502C16.1367 7.69113 16.0625 7.57948 16.0122 7.45658C15.9619 7.33368 15.9366 7.202 15.9377 7.06922C15.9389 6.93644 15.9665 6.80522 16.0189 6.68322C16.0713 6.56122 16.1475 6.45087 16.243 6.35862L17.657 4.94462C17.8445 4.75715 18.0988 4.65184 18.364 4.65184C18.6292 4.65184 18.8835 4.75715 19.071 4.94462ZM7.757 16.2586C7.94447 16.4462 8.04979 16.7005 8.04979 16.9656C8.04979 17.2308 7.94447 17.4851 7.757 17.6726L6.343 19.0856C6.25075 19.1811 6.14041 19.2573 6.0184 19.3097C5.8964 19.3621 5.76518 19.3897 5.6324 19.3909C5.49962 19.392 5.36794 19.3667 5.24505 19.3164C5.12215 19.2662 5.0105 19.1919 4.9166 19.098C4.82271 19.0041 4.74846 18.8925 4.69818 18.7696C4.6479 18.6467 4.6226 18.515 4.62375 18.3822C4.6249 18.2494 4.65249 18.1182 4.7049 17.9962C4.75731 17.8742 4.83349 17.7639 4.929 17.6716L6.343 16.2576C6.53053 16.0702 6.78484 15.9648 7.05 15.9648C7.31516 15.9648 7.56947 16.0702 7.757 16.2576V16.2586ZM6.343 4.94462L7.757 6.35862C7.93916 6.54723 8.03995 6.79983 8.03767 7.06203C8.0354 7.32422 7.93023 7.57504 7.74482 7.76044C7.55941 7.94585 7.3086 8.05102 7.0464 8.0533C6.7842 8.05558 6.5316 7.95478 6.343 7.77262L4.93 6.35862C4.75525 6.16876 4.66066 5.91869 4.666 5.6607C4.67135 5.40271 4.77621 5.15677 4.95868 4.97431C5.14115 4.79184 5.38708 4.68697 5.64507 4.68163C5.90306 4.67628 6.15313 4.77087 6.343 4.94563V4.94462ZM17.657 16.2586L19.071 17.6726C19.2532 17.8612 19.354 18.1138 19.3517 18.376C19.3494 18.6382 19.2442 18.889 19.0588 19.0744C18.8734 19.2599 18.6226 19.365 18.3604 19.3673C18.0982 19.3696 17.8456 19.2688 17.657 19.0866L16.243 17.6726C16.1475 17.5804 16.0713 17.47 16.0189 17.348C15.9665 17.226 15.9389 17.0948 15.9377 16.962C15.9366 16.8292 15.9619 16.6976 16.0122 16.5747C16.0625 16.4518 16.1367 16.3401 16.2306 16.2462C16.3245 16.1523 16.4361 16.0781 16.559 16.0278C16.6819 15.9775 16.8136 15.9522 16.9464 15.9534C17.0792 15.9545 17.2104 15.9821 17.3324 16.0345C17.4544 16.0869 17.5648 16.1631 17.657 16.2586Z" fill="#41c752"/>
</g>
</svg>
