<?xml version="1.0" encoding="utf-8"?>
<!-- Generator: Adobe Illustrator 26.1.0, SVG Export Plug-In . SVG Version: 6.00 Build 0)  -->
<svg version="1.1" id="Layer_1" xmlns="http://www.w3.org/2000/svg" xmlns:xlink="http://www.w3.org/1999/xlink" x="0px" y="0px"
	 viewBox="0 0 19 18" style="enable-background:new 0 0 19 18;" xml:space="preserve">
<style type="text/css">
	.st0{fill:#FFFFFF;}
</style>
<g>
	<path class="st0" d="M7.6,15.5H2.4V6h5c1.8,0,2.7,1.2,2.7,2.4c0,1.2-0.7,2-1.6,2.2c1,0.2,1.8,1.1,1.8,2.3
		C10.3,14.4,9.4,15.5,7.6,15.5z M4.4,7.8v2.1H7c0.7,0,1.1-0.4,1.1-1.1c0-0.6-0.4-1-1.1-1H4.4z M4.4,11.6v2.2H7
		c0.8,0,1.2-0.4,1.2-1.1c0-0.6-0.4-1.1-1.2-1.1H4.4z"/>
	<path class="st0" d="M11.9,7.6l0.7-0.9c0.4,0.4,1,0.6,1.6,0.6c0.7,0,1.1-0.4,1.1-0.9c0-0.5-0.4-0.9-1.1-0.9c-0.5,0-0.9,0.2-1.2,0.5
		l-0.9-0.2V2.5h4.1v1.1h-2.8V5c0.3-0.3,0.8-0.5,1.3-0.5c1,0,1.9,0.7,1.9,1.9c0,1.3-0.9,2-2.4,2C13.2,8.5,12.4,8.2,11.9,7.6z"/>
</g>
</svg>
