<?xml version="1.0" encoding="utf-8"?>
<!-- Generator: Adobe Illustrator 26.1.0, SVG Export Plug-In . SVG Version: 6.00 Build 0)  -->
<svg version="1.1" id="Layer_1" xmlns="http://www.w3.org/2000/svg" xmlns:xlink="http://www.w3.org/1999/xlink" x="0px" y="0px"
	 viewBox="0 0 19 17" style="enable-background:new 0 0 19 17;" xml:space="preserve">
<style type="text/css">
	.st0{fill:#FFFFFF;}
</style>
<g>
	<path class="st0" d="M7.7,14.5H3V5.8h4.6c1.7,0,2.5,1.1,2.5,2.2c0,1.1-0.7,1.8-1.5,2c0.9,0.1,1.7,1,1.7,2.1
		C10.3,13.5,9.4,14.5,7.7,14.5z M4.8,7.4v1.9h2.3c0.6,0,1-0.4,1-1c0-0.5-0.4-1-1-1H4.8z M4.8,10.9V13h2.4c0.7,0,1.1-0.4,1.1-1
		c0-0.5-0.4-1-1.1-1H4.8z"/>
	<path class="st0" d="M11.9,7.5l0.5-0.9c0.3,0.3,0.6,0.4,1.1,0.4c0.9,0,1.4-0.7,1.4-1.6V5.4c-0.3,0.4-0.8,0.7-1.4,0.7
		c-1,0-1.9-0.6-1.9-1.8c0-1.1,0.9-1.9,2.1-1.9c1.7,0,2.3,1.3,2.3,2.8c0,1.6-0.9,2.8-2.5,2.8C12.8,8.1,12.3,7.9,11.9,7.5z M14.8,4.6
		c0-0.5-0.3-1.1-1.1-1.1c-0.6,0-1,0.4-1,0.8c0,0.6,0.5,0.8,1,0.8C14.2,5.1,14.6,4.9,14.8,4.6z"/>
</g>
</svg>
