<svg width="24" height="28" viewBox="0 0 24 28" fill="none" xmlns="http://www.w3.org/2000/svg">
<g id="fa6-regular:lemon">
<path id="Vector" d="M19.0709 5.35707C18.9137 5.35707 18.7664 5.37671 18.6339 5.4209C17.696 5.69095 16.3702 5.94135 14.9855 5.58293C12.1669 4.85135 8.86718 5.94627 6.4071 8.40613C3.94702 10.866 2.85201 14.1655 3.58365 16.9838C3.94211 18.3683 3.69168 19.694 3.42161 20.6318C3.38233 20.7693 3.35778 20.9166 3.35778 21.0688C3.35778 21.9379 4.05996 22.64 4.92909 22.64C5.08622 22.64 5.23353 22.6203 5.36611 22.5761C6.30398 22.3061 7.62977 22.0508 9.01449 22.4141C11.833 23.1457 15.1328 22.0508 17.5929 19.5909C20.0529 17.131 21.1479 13.8316 20.4163 11.0133C20.0578 9.6287 20.3083 8.30302 20.5783 7.36523C20.6176 7.22775 20.6422 7.08045 20.6422 6.92825C20.6422 6.05919 19.94 5.35707 19.0709 5.35707ZM19.0709 3.00032C21.2412 3.00032 22.9991 4.75807 22.9991 6.92825C22.9991 7.30631 22.9451 7.67455 22.8469 8.02316C22.621 8.79892 22.4983 9.63852 22.6996 10.4241C23.6866 14.2342 22.1644 18.3536 19.2624 21.2603C16.3604 24.167 12.2357 25.689 8.42525 24.6972C7.6396 24.4959 6.80484 24.6187 6.02409 24.8445C5.67546 24.9427 5.30718 24.9967 4.92909 24.9967C2.75872 24.9967 1.00081 23.239 1.00081 21.0688C1.00081 20.6907 1.05483 20.3225 1.15303 19.9739C1.37891 19.1981 1.50167 18.3585 1.30034 17.5729C0.313365 13.7678 1.83557 9.64343 4.74249 6.74167C7.64942 3.83991 11.7692 2.31293 15.5747 3.29982C16.3604 3.50113 17.1951 3.37838 17.9759 3.15252C18.3245 3.05433 18.6928 3.00032 19.0709 3.00032ZM13.1146 9.6287C10.5612 10.375 8.37615 12.5599 7.62977 15.1131C7.44809 15.7366 6.79011 16.0951 6.16649 15.9134C5.54288 15.7317 5.18442 15.0738 5.36611 14.4502C6.33835 11.1262 9.12743 8.33739 12.4517 7.36523C13.0753 7.18356 13.7333 7.54199 13.915 8.16555C14.0967 8.7891 13.7382 9.44703 13.1146 9.6287Z" fill="white"/>
</g>
</svg>
