<svg width="16" height="16" viewBox="0 0 16 16" fill="#41c752"  xmlns="http://www.w3.org/2000/svg">
<g id="fluent:pill-16-filled">
<path id="Vector" d="M8.00008 3.05008C8.65649 2.39367 9.54678 2.0249 10.4751 2.0249C11.4034 2.0249 12.2937 2.39367 12.9501 3.05008C13.6065 3.70649 13.9753 4.59678 13.9753 5.52508C13.9753 6.45339 13.6065 7.34367 12.9501 8.00008L8.00008 12.9501C7.67506 13.2751 7.2892 13.5329 6.86454 13.7088C6.43988 13.8847 5.98473 13.9753 5.52508 13.9753C4.59678 13.9753 3.70649 13.6065 3.05008 12.9501C2.39367 12.2937 2.0249 11.4034 2.0249 10.4751C2.0249 9.54678 2.39367 8.65649 3.05008 8.00008L8.00008 3.05008ZM10.1221 9.41408L12.2421 7.29408C12.7076 6.8246 12.9682 6.18984 12.9668 5.5287C12.9655 4.86756 12.7023 4.23387 12.2349 3.7663C11.7674 3.29873 11.1338 3.03537 10.4727 3.03382C9.81152 3.03228 9.17669 3.2927 8.70708 3.75808L6.58608 5.87808L10.1221 9.41408ZM7.85408 10.8541C7.9005 10.8076 7.93731 10.7524 7.96241 10.6917C7.98751 10.631 8.00041 10.5659 8.00036 10.5002C8.00031 10.4345 7.98733 10.3695 7.96214 10.3088C7.93696 10.2481 7.90007 10.193 7.85358 10.1466C7.80709 10.1002 7.75192 10.0633 7.6912 10.0382C7.63049 10.0132 7.56543 10.0003 7.49973 10.0003C7.43403 10.0004 7.36899 10.0133 7.30831 10.0385C7.24763 10.0637 7.1925 10.1006 7.14608 10.1471L5.64608 11.6471C5.59966 11.6936 5.56285 11.7487 5.53775 11.8095C5.51265 11.8702 5.49976 11.9352 5.4998 12.0009C5.4999 12.1336 5.55269 12.2608 5.64658 12.3546C5.74047 12.4483 5.86775 12.501 6.00043 12.5009C6.13312 12.5008 6.26033 12.448 6.35408 12.3541L7.85408 10.8541Z" fill="#41c752" />
</g>
</svg>
