<svg width="19" height="18" viewBox="0 0 19 18" fill="none" xmlns="http://www.w3.org/2000/svg">
<path d="M7.04331 15.0234H1.25131V4.35144H6.86731C8.89931 4.35144 9.93931 5.64744 9.93931 7.07144C9.93931 8.41544 9.10731 9.31144 8.09931 9.51944C9.23531 9.69544 10.1473 10.7994 10.1473 12.1434C10.1473 13.7434 9.07531 15.0234 7.04331 15.0234ZM3.52331 6.28744V8.63944H6.37131C7.13931 8.63944 7.61931 8.14344 7.61931 7.45544C7.61931 6.79944 7.13931 6.28744 6.37131 6.28744H3.52331ZM3.52331 10.5754V13.0874H6.45131C7.31531 13.0874 7.82731 12.5914 7.82731 11.8234C7.82731 11.1514 7.34731 10.5754 6.45131 10.5754H3.52331Z" fill="#41c752"/>
<path d="M11.948 6.14344L12.728 5.18344C13.188 5.65344 13.808 5.90344 14.508 5.90344C15.298 5.90344 15.748 5.45344 15.748 4.90344C15.748 4.29344 15.308 3.88344 14.548 3.88344C13.998 3.88344 13.548 4.05344 13.148 4.43344L12.158 4.16344V0.353437H16.738V1.57344H13.548V3.24344C13.898 2.93344 14.438 2.69344 15.048 2.69344C16.178 2.69344 17.188 3.49344 17.188 4.84344C17.188 6.25344 16.128 7.14344 14.518 7.14344C13.358 7.14344 12.518 6.76344 11.948 6.14344Z" fill="#41c752"/>
</svg>
