<?xml version="1.0" encoding="utf-8"?>
<!-- Generator: Adobe Illustrator 26.1.0, SVG Export Plug-In . SVG Version: 6.00 Build 0)  -->
<svg version="1.1" id="Layer_1" xmlns="http://www.w3.org/2000/svg" xmlns:xlink="http://www.w3.org/1999/xlink" x="0px" y="0px"
	 viewBox="0 0 19 17" style="enable-background:new 0 0 19 17;" xml:space="preserve">
<style type="text/css">
	.st0{fill:#FFFFFF;}
</style>
<g>
	<path class="st0" d="M7.9,14H3.5V6h4.2c1.5,0,2.3,1,2.3,2c0,1-0.6,1.7-1.4,1.8c0.9,0.1,1.5,1,1.5,2C10.2,13.1,9.4,14,7.9,14z
		 M5.2,7.5v1.8h2.1c0.6,0,0.9-0.4,0.9-0.9c0-0.5-0.4-0.9-0.9-0.9H5.2z M5.2,10.7v1.9h2.2c0.6,0,1-0.4,1-0.9c0-0.5-0.4-0.9-1-0.9H5.2
		z"/>
	<path class="st0" d="M11.4,5.6C11.4,4,12.3,3,13.7,3c0.6,0,1.1,0.2,1.5,0.5l-0.5,0.8c-0.3-0.3-0.6-0.4-1-0.4
		c-0.8,0-1.3,0.7-1.3,1.4c0,0,0,0.1,0,0.1c0.2-0.3,0.7-0.6,1.3-0.6c0.9,0,1.7,0.5,1.7,1.6c0,1-0.8,1.7-1.9,1.7
		C12.1,8.1,11.4,7,11.4,5.6z M14.4,6.5c0-0.5-0.4-0.8-0.9-0.8c-0.4,0-0.7,0.2-1,0.5c0,0.5,0.3,1,1,1C14.1,7.2,14.4,6.8,14.4,6.5z"/>
</g>
</svg>
