<svg width="21" height="17" viewBox="0 0 21 17" fill="none" xmlns="http://www.w3.org/2000/svg">
<path d="M7.04331 15H1.25131V4.328H6.86731C8.89931 4.328 9.93931 5.624 9.93931 7.048C9.93931 8.392 9.10731 9.288 8.09931 9.496C9.23531 9.672 10.1473 10.776 10.1473 12.12C10.1473 13.72 9.07531 15 7.04331 15ZM3.52331 6.264V8.616H6.37131C7.13931 8.616 7.61931 8.12 7.61931 7.432C7.61931 6.776 7.13931 6.264 6.37131 6.264H3.52331ZM3.52331 10.552V13.064H6.45131C7.31531 13.064 7.82731 12.568 7.82731 11.8C7.82731 11.128 7.34731 10.552 6.45131 10.552H3.52331Z" fill="white"/>
<path d="M13.8963 7H12.4663V2.16L11.3663 3.29L10.5563 2.44L12.6563 0.329999H13.8963V7ZM20.0476 7H15.0276V5.88C17.7576 3.87 18.5576 3.18 18.5576 2.36C18.5576 1.78 18.0276 1.49 17.4676 1.49C16.7176 1.49 16.1376 1.79 15.6876 2.26L14.8776 1.32C15.5276 0.57 16.5176 0.23 17.4476 0.23C18.8676 0.23 19.9976 1.03 19.9976 2.36C19.9976 3.5 19.0576 4.49 17.2676 5.75H20.0476V7Z" fill="white"/>
</svg>
