<svg width="19" height="17" viewBox="0 0 19 17" fill="none" xmlns="http://www.w3.org/2000/svg">
<path d="M7.04331 15.0078H1.25131V4.33581H6.86731C8.89931 4.33581 9.93931 5.63181 9.93931 7.05581C9.93931 8.39981 9.10731 9.29581 8.09931 9.50381C9.23531 9.67981 10.1473 10.7838 10.1473 12.1278C10.1473 13.7278 9.07531 15.0078 7.04331 15.0078ZM3.52331 6.27181V8.62381H6.37131C7.13931 8.62381 7.61931 8.12781 7.61931 7.43981C7.61931 6.78381 7.13931 6.27181 6.37131 6.27181H3.52331ZM3.52331 10.5598V13.0718H6.45131C7.31531 13.0718 7.82731 12.5758 7.82731 11.8078C7.82731 11.1358 7.34731 10.5598 6.45131 10.5598H3.52331Z" fill="#41c752"/>
<path d="M12.128 6.42781L12.758 5.36781C13.118 5.69781 13.498 5.87781 14.088 5.87781C15.158 5.87781 15.758 4.96781 15.758 3.95781V3.81781C15.438 4.26781 14.768 4.67781 14.038 4.67781C12.838 4.67781 11.758 3.93781 11.758 2.51781C11.758 1.21781 12.798 0.227812 14.318 0.227812C16.338 0.227812 17.188 1.78781 17.188 3.67781C17.188 5.68781 16.058 7.11781 14.088 7.11781C13.278 7.11781 12.598 6.84781 12.128 6.42781ZM15.738 2.85781C15.688 2.21781 15.328 1.45781 14.378 1.45781C13.618 1.45781 13.208 1.98781 13.208 2.45781C13.208 3.16781 13.798 3.47781 14.438 3.47781C14.938 3.47781 15.428 3.24781 15.738 2.85781Z" fill="#41c752"/>
</svg>
