<svg width="24" height="24" viewBox="0 0 24 24" fill="none" xmlns="http://www.w3.org/2000/svg">
<g id="tabler:scale-outline">
<g id="Group">
<path id="Vector" d="M3 7C3 5.93913 3.42143 4.92172 4.17157 4.17157C4.92172 3.42143 5.93913 3 7 3H17C18.0609 3 19.0783 3.42143 19.8284 4.17157C20.5786 4.92172 21 5.93913 21 7V17C21 18.0609 20.5786 19.0783 19.8284 19.8284C19.0783 20.5786 18.0609 21 17 21H7C5.93913 21 4.92172 20.5786 4.17157 19.8284C3.42143 19.0783 3 18.0609 3 17V7Z" stroke="white" stroke-width="2" stroke-linecap="round" stroke-linejoin="round"/>
<path id="Vector_2" d="M12.0002 7.00001C13.9562 7.00001 15.7242 7.80201 17.0002 9.09501L14.0442 11.999C13.4898 11.4855 12.7619 11.2001 12.0062 11.2C11.2506 11.1999 10.5228 11.4849 9.96821 11.998L7.01221 9.09501C7.66379 8.43 8.44182 7.90206 9.30051 7.54227C10.1592 7.18248 11.0812 6.99811 12.0122 7.00001H12.0002Z" stroke="white" stroke-width="2" stroke-linecap="round" stroke-linejoin="round"/>
</g>
</g>
</svg>
