<svg width="24" height="24" viewBox="0 0 24 24" fill="#41c752"  xmlns="http://www.w3.org/2000/svg">
<g id="game-icons:measure-tape">
<path id="Vector" d="M19.3916 3C18.6016 3.06366 17.8434 3.15343 17.109 3.2636L17.367 4.26576L17.0217 4.36001L16.6763 4.45427L16.3984 3.37867C15.6005 3.5174 14.8343 3.68307 14.0959 3.86954L14.4453 4.91863L13.7704 5.15529L13.4052 4.05602C12.6271 4.27392 11.8808 4.51425 11.1702 4.775L11.595 5.8759L10.9281 6.14521L10.4993 5.03125C9.77287 5.31729 9.07419 5.6225 8.41124 5.93711L8.90746 7.05107L8.25642 7.36118L7.76417 6.25946C6.96227 6.66343 6.20802 7.07963 5.48393 7.504L6.10877 8.51187L5.50537 8.90359L4.86624 7.87124C4.2545 8.23848 3.66102 8.6098 3.09413 8.97296C2.93018 9.36877 2.99211 9.78905 3.18941 10.1726C3.36606 10.5154 3.65665 10.7888 3.91111 10.9275C8.42315 7.51624 14.7708 5.49846 20.912 4.41592C20.5706 3.89403 20.0109 3.3093 19.3916 3ZM11.4044 9.10762C10.8963 9.10762 10.3842 9.11578 9.87211 9.12802L9.8602 9.89106L9.14565 9.8829L9.15756 9.14842C8.81219 9.15658 8.47079 9.16882 8.12542 9.18106C6.998 9.75233 5.9341 10.3766 4.95675 11.0622C10.2294 10.1359 15.922 10.7928 20.3841 11.9313L20.3801 11.9272C20.388 11.9313 20.4238 11.9354 20.5309 11.8089C20.6421 11.6783 20.7612 11.4498 20.8485 11.205C20.9359 10.9601 20.9914 10.6949 20.9994 10.5031C21.0033 10.4093 20.9875 10.344 20.9795 10.3073C20.5706 10.1726 20.1498 10.0543 19.7171 9.94819C19.0383 9.77681 18.3357 9.63808 17.6132 9.52382L17.375 10.3154L17.0336 10.2053L16.6922 10.0951L16.8946 9.42589C16.3547 9.35652 15.8069 9.29532 15.2472 9.25043L15.1479 10.0257L14.4413 9.92779L14.5326 9.20147C13.8855 9.16066 13.2266 9.1321 12.5596 9.11986L12.5716 9.79721L11.857 9.81353L11.8451 9.1117C11.6982 9.1117 11.5513 9.10762 11.4044 9.10762ZM15.0725 11.6742C14.5406 11.813 14.0245 11.968 13.5243 12.1394L13.9292 13.0534L13.2782 13.3554L12.8494 12.3842C12.1389 12.6535 11.468 12.9555 10.8447 13.286L11.3012 14.0572L10.6899 14.4408L10.2175 13.6369C9.87608 13.8369 9.55056 14.045 9.24489 14.2612C8.89555 14.5101 8.57003 14.7713 8.26833 15.0406L9.03846 15.6649L8.59385 16.2443L7.74035 15.5506C7.18458 16.1219 6.74394 16.7258 6.4343 17.3501C6.37872 17.4644 6.32711 17.5827 6.27947 17.701C6.60896 17.648 6.91861 17.6276 7.21634 17.6317C7.8118 17.6439 8.34375 17.7663 8.83203 17.954C8.836 17.9418 8.836 17.9255 8.83997 17.9132C9.06625 17.0645 9.64187 16.33 10.547 15.6649C12.1468 14.4938 14.8462 13.4859 18.8636 12.3271C18.0141 12.1394 17.1288 11.9721 16.2158 11.8334L16.319 12.1027L15.6521 12.372L15.402 11.7191C15.2908 11.7028 15.1837 11.6865 15.0725 11.6742ZM7.2084 18.3458C6.84715 18.3417 6.45811 18.3866 6.02541 18.4927C5.85074 19.2353 5.85868 19.9983 6.07305 20.7777C6.0929 20.7981 6.2636 20.9205 6.59706 20.9695C6.9464 21.0184 7.40292 21.0062 7.83959 20.9491C8.2723 20.892 8.68912 20.7859 8.93922 20.6757C9.01067 20.643 9.06228 20.6145 9.10198 20.5859C8.85188 19.9167 8.72485 19.2883 8.73676 18.6926C8.27627 18.4845 7.78005 18.3539 7.2084 18.3458Z" fill="#41c752" />
</g>
</svg>
